<!-- Generated by IcoMoon.io -->
<svg version="1.1" xmlns="http://www.w3.org/2000/svg" width="32" height="32" viewBox="0 0 32 32">
<title>add</title>
<path d="M15.998 2.536c-7.749 0-14.028 6.278-14.028 14.026 0 7.75 6.279 14.031 14.028 14.031s14.033-6.281 14.033-14.031c-0.001-7.748-6.284-14.026-14.033-14.026zM22.29 18.208h-4.653v4.641c0 0.909-0.73 1.644-1.64 1.644-0.906 0-1.64-0.735-1.64-1.644v-4.641h-4.643c-0.909 0-1.64-0.737-1.64-1.642 0-0.909 0.73-1.641 1.64-1.641h4.644v-4.649c0-0.907 0.734-1.64 1.64-1.64 0.91 0 1.64 0.733 1.64 1.64v4.649h4.653c0.905 0 1.64 0.732 1.64 1.641-0.001 0.905-0.735 1.642-1.64 1.642z"></path>
</svg>
