<!-- Generated by IcoMoon.io -->
<svg version="1.1" xmlns="http://www.w3.org/2000/svg" width="32" height="32" viewBox="0 0 32 32">
<title>arrow-left-full2</title>
<path d="M15.987 0.26c-8.68 0-15.743 7.063-15.743 15.743s7.063 15.743 15.743 15.743 15.743-7.063 15.743-15.743c0-8.681-7.063-15.743-15.743-15.743zM15.987 30.411c-7.945 0-14.409-6.464-14.409-14.409s6.464-14.408 14.409-14.408c7.945 0 14.409 6.464 14.409 14.409s-6.464 14.408-14.409 14.408z"></path>
<path d="M23.712 15.336h-13.699l5.188-5.188c0.26-0.26 0.26-0.683 0-0.943s-0.683-0.26-0.943 0l-6.325 6.325c-0.061 0.061-0.111 0.136-0.145 0.217-0.068 0.163-0.068 0.347 0 0.509 0.033 0.083 0.083 0.156 0.145 0.217l6.325 6.327c0.131 0.131 0.301 0.195 0.472 0.195s0.341-0.065 0.472-0.195c0.26-0.26 0.26-0.683 0-0.943l-5.189-5.189h13.699c0.368 0 0.667-0.299 0.667-0.667s-0.297-0.667-0.667-0.667z"></path>
</svg>
