<!-- Generated by IcoMoon.io -->
<svg version="1.1" xmlns="http://www.w3.org/2000/svg" width="32" height="32" viewBox="0 0 32 32">
<title>arrow-right-circle</title>
<path d="M15.995 0.26c-8.68 0-15.743 7.063-15.743 15.743s7.063 15.743 15.743 15.743c8.68 0 15.743-7.063 15.743-15.743 0-8.681-7.063-15.743-15.743-15.743zM15.995 30.411c-7.945 0-14.409-6.464-14.409-14.409s6.464-14.408 14.409-14.408 14.409 6.464 14.409 14.409-6.464 14.408-14.409 14.408z"></path>
<path d="M24.193 15.745c-0.033-0.081-0.083-0.155-0.144-0.216l-6.327-6.325c-0.26-0.26-0.683-0.26-0.943 0s-0.26 0.683 0 0.943l5.189 5.188h-13.701c-0.368 0-0.667 0.299-0.667 0.667s0.299 0.667 0.667 0.667h13.7l-5.189 5.189c-0.26 0.26-0.26 0.683 0 0.943 0.131 0.131 0.301 0.195 0.472 0.195s0.341-0.065 0.472-0.195l6.327-6.327c0.061-0.061 0.111-0.135 0.144-0.216 0.033-0.080 0.052-0.168 0.052-0.256s-0.019-0.175-0.052-0.256z"></path>
</svg>
