<!-- Generated by IcoMoon.io -->
<svg version="1.1" xmlns="http://www.w3.org/2000/svg" width="32" height="32" viewBox="0 0 32 32">
<title>arrow-right-full</title>
<path d="M5.079 18.85h11.005v5.305c0 0.113 0 0.226 0.056 0.282 0 0 0 0.056 0 0.056 0 0.056 0.056 0.169 0.113 0.226 0 0 0 0.056 0.056 0.056 0.056 0.056 0.113 0.169 0.169 0.226 0 0 0 0 0 0 0.056 0.056 0.169 0.169 0.282 0.226 0.395 0.226 0.903 0.169 1.298-0.113l11.231-8.183c0.339-0.226 0.508-0.621 0.508-1.016s-0.169-0.734-0.508-0.959l-11.231-8.183c-0.226-0.169-0.508-0.226-0.79-0.226v0c-0.056 0-0.169 0-0.226 0.056-0.113 0-0.169 0.056-0.282 0.113-0.395 0.226-0.677 0.621-0.677 1.072v5.305h-11.005c-1.58 0-2.822 1.298-2.822 2.822 0 1.637 1.242 2.935 2.822 2.935z"></path>
</svg>
