<?xml version="1.0" encoding="UTF-8"?>
<svg width="32px" height="46px" viewBox="0 0 32 46" version="1.1" xmlns="http://www.w3.org/2000/svg" xmlns:xlink="http://www.w3.org/1999/xlink">
    <!-- Generator: Sketch 48.2 (47327) - http://www.bohemiancoding.com/sketch -->
    <title>baby</title>
    <desc>Created with Sketch.</desc>
    <defs></defs>
    <g id="Mobile-Bottom-Menu-Bar" stroke="none" stroke-width="1" fill="none" fill-rule="evenodd" transform="translate(-309.000000, -23.000000)">
        <g fill="#000000" fill-rule="nonzero" id="Geburt-+">
            <g transform="translate(286.000000, 23.000000)">
                <path d="M50.2848234,4.71735118 C47.394099,1.84624007 43.2790191,0.199128959 39,0.199128959 C34.7230561,0.199128959 30.6100513,1.84624007 27.7172518,4.71735118 C24.8265274,7.58279563 23.3822029,11.4550178 23.7495095,15.3385734 L25.563216,34.3200178 C26.1733186,40.7120178 31.9526921,45.5324623 39,45.5324623 C46.0473079,45.5324623 51.8266814,40.7120178 52.436784,34.318129 L53.4951253,23.2530178 L53.5158771,23.0414623 L54.2525656,15.3385734 C54.6198723,11.4569067 53.1734726,7.58468451 50.2848234,4.71735118 Z M50.3699057,34.1575734 L50.2059666,34.9754623 L36.0407947,30.5686845 L51.2829845,24.6016845 L50.3699057,34.1575734 Z M29.2466587,5.99235118 C31.7472494,3.51224007 35.302031,2.08801785 39,2.08801785 C42.7000442,2.08801785 46.2548258,3.51224007 48.7533413,5.99235118 C51.2518568,8.47246229 52.5031897,11.8195734 52.181537,15.1742401 L51.4842768,22.4653512 L33.1147924,29.6563512 L27.0199916,27.7599067 L25.8163878,15.1723512 C25.4988854,11.8176845 26.7502184,8.47246229 29.2466587,5.99235118 Z M39,43.6435734 C33.0359356,43.6435734 28.148889,39.5654623 27.6321695,34.1575734 L27.2171337,29.8206845 L49.6830215,36.8095734 C48.0872088,40.8347956 43.9327005,43.6435734 39,43.6435734 Z M39.0871575,24.7546845 C45.5949189,24.7546845 50.500642,20.3913512 50.500642,14.6056845 C50.500642,8.74446229 45.3791002,3.97690674 39.0871575,3.97690674 C32.7952148,3.97690674 27.673673,8.74446229 27.673673,14.6056845 C27.673673,20.3913512 32.5793962,24.7546845 39.0871575,24.7546845 Z M39.0871575,5.86579563 C44.2356766,5.86579563 48.425463,9.78524007 48.425463,14.6056845 C48.425463,19.3146845 44.4099916,22.8657956 39.0871575,22.8657956 C33.7643234,22.8657956 29.748852,19.3146845 29.748852,14.6056845 C29.748852,9.78524007 33.9386384,5.86579563 39.0871575,5.86579563 Z M36.9144451,18.168129 C36.9144451,19.2145734 37.829599,20.0324623 39,20.0324623 C40.170401,20.0324623 41.0855549,19.2126845 41.0855549,18.168129 C41.0855549,17.1122401 40.1496492,16.2546845 39,16.2546845 C37.8503508,16.2546845 36.9144451,17.1122401 36.9144451,18.168129 Z M33.8120525,12.524129 C33.8120525,11.9763512 34.2789678,11.5324623 34.849642,11.5324623 C35.4203162,11.5324623 35.8872315,11.9763512 35.8872315,12.524129 C35.8872315,13.0454623 36.3520716,13.4685734 36.924821,13.4685734 C37.4975704,13.4685734 37.9624105,13.0454623 37.9624105,12.524129 C37.9624105,10.9374623 36.565815,9.6435734 34.849642,9.6435734 C33.133469,9.6435734 31.7368735,10.9374623 31.7368735,12.524129 C31.7368735,13.0454623 32.2017136,13.4685734 32.774463,13.4685734 C33.3472124,13.4685734 33.8120525,13.0473512 33.8120525,12.524129 Z M41.075179,13.4685734 C41.6479284,13.4685734 42.1127685,13.0454623 42.1127685,12.524129 C42.1127685,11.9763512 42.5796838,11.5324623 43.150358,11.5324623 C43.7210322,11.5324623 44.1879475,11.9763512 44.1879475,12.524129 C44.1879475,13.0454623 44.6527876,13.4685734 45.225537,13.4685734 C45.7982864,13.4685734 46.2631265,13.0454623 46.2631265,12.524129 C46.2631265,10.9374623 44.866531,9.6435734 43.150358,9.6435734 C41.434185,9.6435734 40.0375895,10.9374623 40.0375895,12.524129 C40.0375895,13.0473512 40.5024296,13.4685734 41.075179,13.4685734 Z" id="baby"></path>
            </g>
        </g>
    </g>
</svg>