<!-- Generated by IcoMoon.io -->
<svg version="1.1" xmlns="http://www.w3.org/2000/svg" width="22" height="32" viewBox="0 0 22 32">
<title>baby</title>
<path d="M18.981 3.282c-2.011-1.997-4.874-3.143-7.85-3.143-2.975 0-5.837 1.146-7.849 3.143-2.011 1.993-3.016 4.687-2.76 7.389l1.262 13.204c0.424 4.447 4.445 7.8 9.347 7.8s8.923-3.353 9.347-7.801l0.736-7.697 0.014-0.147 0.512-5.359c0.256-2.7-0.751-5.394-2.76-7.389zM19.040 23.762l-0.114 0.569-9.854-3.066 10.603-4.151-0.635 6.648zM4.346 4.169c1.74-1.725 4.212-2.716 6.785-2.716 2.574 0 5.047 0.991 6.785 2.716s2.609 4.054 2.385 6.387l-0.485 5.072-12.779 5.002-4.24-1.319-0.837-8.757c-0.221-2.334 0.65-4.661 2.386-6.386zM11.13 30.361c-4.149 0-7.549-2.837-7.908-6.599l-0.289-3.017 15.628 4.862c-1.11 2.8-4 4.754-7.432 4.754zM11.191 17.221c4.527 0 7.94-3.035 7.94-7.060 0-4.077-3.563-7.394-7.94-7.394s-7.94 3.317-7.94 7.394c0 4.025 3.413 7.060 7.94 7.060zM11.191 4.081c3.582 0 6.496 2.727 6.496 6.080 0 3.276-2.793 5.746-6.496 5.746s-6.496-2.47-6.496-5.746c0-3.353 2.915-6.080 6.496-6.080zM9.68 12.639c0 0.728 0.637 1.297 1.451 1.297s1.451-0.57 1.451-1.297c0-0.735-0.651-1.331-1.451-1.331s-1.451 0.597-1.451 1.331zM7.521 8.712c0-0.381 0.325-0.69 0.722-0.69s0.722 0.309 0.722 0.69c0 0.363 0.323 0.657 0.722 0.657s0.722-0.294 0.722-0.657c0-1.104-0.972-2.004-2.165-2.004s-2.165 0.9-2.165 2.004c0 0.363 0.323 0.657 0.722 0.657s0.722-0.293 0.722-0.657zM12.574 9.369c0.398 0 0.722-0.294 0.722-0.657 0-0.381 0.325-0.69 0.722-0.69s0.722 0.309 0.722 0.69c0 0.363 0.323 0.657 0.722 0.657s0.722-0.294 0.722-0.657c0-1.104-0.972-2.004-2.165-2.004s-2.165 0.9-2.165 2.004c0 0.364 0.323 0.657 0.722 0.657z"></path>
</svg>
