<!-- Generated by IcoMoon.io -->
<svg version="1.1" xmlns="http://www.w3.org/2000/svg" width="211" height="32" viewBox="0 0 211 32">
<title>birthhood</title>
<path d="M0.093 30.667v-29.264c0-0.583 0.494-1.077 1.077-1.077 0.628 0 1.122 0.494 1.122 1.077v12.657c1.93-2.603 4.982-4.309 8.438-4.309 5.925 0 10.637 4.937 10.637 11.041 0 6.014-4.713 10.951-10.637 10.951-3.456 0-6.508-1.661-8.438-4.264v3.187c0 0.583-0.494 1.077-1.122 1.077-0.583 0-1.077-0.494-1.077-1.077zM2.292 20.434v0.359c0 4.847 3.815 8.752 8.438 8.752 4.668 0 8.438-3.905 8.438-8.752 0-4.892-3.77-8.842-8.438-8.842-4.533 0-8.258 3.77-8.438 8.483zM29.761 30.667v-19.838c0-0.628 0.494-1.077 1.077-1.077 0.628 0 1.122 0.449 1.122 1.077v19.838c0 0.583-0.494 1.077-1.122 1.077-0.583 0-1.077-0.494-1.077-1.077zM29.761 4.68v-1.032c0-0.583 0.494-1.077 1.077-1.077 0.628 0 1.122 0.494 1.122 1.077v1.032c0 0.628-0.494 1.167-1.122 1.167-0.583 0-1.077-0.539-1.077-1.167zM42.328 30.667v-19.793c0-0.628 0.494-1.077 1.122-1.077 0.539 0 1.032 0.449 1.032 1.077v4.847c0.090-0.18 0.18-0.359 0.314-0.539 1.661-2.603 4.578-5.386 8.797-5.386 0.583 0 1.077 0.449 1.077 1.077 0 0.583-0.494 1.077-1.077 1.077-2.873 0-4.847 1.616-6.373 3.591-1.481 1.975-2.334 4.219-2.648 5.117-0.090 0.18-0.090 0.269-0.090 0.359v9.65c0 0.628-0.494 1.077-1.032 1.077-0.628 0-1.122-0.449-1.122-1.077zM68.63 9.752c0.539 0 1.077 0.539 1.077 1.077s-0.539 1.077-1.077 1.077h-2.828v16.023c0 1.077 1.077 1.616 1.616 1.616s1.122 0.583 1.122 1.122c0 0.539-0.583 1.077-1.122 1.077-2.199 0-3.86-1.616-3.86-3.815v-16.023h-2.738c-1.077 0-1.077-0.539-1.077-1.077s0-1.077 1.077-1.077h2.738v-8.169c0-0.539 0.539-1.077 1.077-1.077 0.583 0 1.167 0.539 1.167 1.077v8.169h2.828zM96.143 30.667v-12.253c0-3.86-3.142-6.463-7.002-6.463-3.815 0-6.957 2.603-6.957 6.463v12.388c0 0.090-0.045 0.135-0.045 0.18-0.045 0.090-0.045 0.135-0.090 0.18-0.135 0.269-0.359 0.449-0.673 0.539 0 0-0.045 0.045-0.090 0.045h-0.224c-0.314 0-0.628-0.135-0.853-0.359-0.090-0.135-0.135-0.224-0.18-0.359s-0.045-0.224-0.045-0.359v-29.264c0-0.583 0.494-1.077 1.077-1.077 0.628 0 1.122 0.494 1.122 1.077v11.58c1.661-1.975 4.174-3.232 6.957-3.232 5.072 0 9.201 3.591 9.201 8.662v12.253c0 0.583-0.494 1.077-1.122 1.077-0.583 0-1.077-0.494-1.077-1.077zM123.656 30.667v-12.253c0-3.86-3.142-6.463-7.002-6.463-3.815 0-6.957 2.603-6.957 6.463v12.388c0 0.090-0.045 0.135-0.045 0.18-0.045 0.090-0.045 0.135-0.090 0.18-0.135 0.269-0.359 0.449-0.673 0.539 0 0-0.045 0.045-0.090 0.045h-0.224c-0.314 0-0.628-0.135-0.853-0.359-0.090-0.135-0.135-0.224-0.18-0.359s-0.045-0.224-0.045-0.359v-29.264c0-0.583 0.494-1.077 1.077-1.077 0.628 0 1.122 0.494 1.122 1.077v11.58c1.661-1.975 4.174-3.232 6.957-3.232 5.072 0 9.201 3.591 9.201 8.662v12.253c0 0.583-0.494 1.077-1.122 1.077-0.583 0-1.077-0.494-1.077-1.077zM133.979 20.748c0-5.969 4.668-10.996 10.413-10.996 5.79 0 10.413 5.027 10.413 10.996s-4.623 10.996-10.413 10.996c-5.745 0-10.413-5.027-10.413-10.996zM136.134 20.748c0 4.892 3.77 8.842 8.258 8.842s8.258-3.95 8.258-8.842c0-4.892-3.77-8.887-8.258-8.887s-8.258 3.995-8.258 8.887zM162.031 20.748c0-5.969 4.668-10.996 10.413-10.996 5.79 0 10.413 5.027 10.413 10.996s-4.623 10.996-10.413 10.996c-5.745 0-10.413-5.027-10.413-10.996zM164.186 20.748c0 4.892 3.77 8.842 8.258 8.842s8.258-3.95 8.258-8.842c0-4.892-3.77-8.887-8.258-8.887s-8.258 3.995-8.258 8.887zM208.71 30.667v-3.187c-1.93 2.603-4.982 4.264-8.438 4.264-5.925 0-10.637-4.937-10.637-10.951 0-6.104 4.713-11.041 10.637-11.041 3.456 0 6.508 1.706 8.438 4.309v-12.657c0-0.583 0.494-1.077 1.122-1.077 0.583 0 1.077 0.494 1.077 1.077v29.264c0 0.583-0.494 1.077-1.077 1.077-0.628 0-1.122-0.494-1.122-1.077zM200.272 29.545c4.533 0 8.258-3.725 8.438-8.393v-0.718c-0.18-4.713-3.905-8.483-8.438-8.483-4.623 0-8.438 3.95-8.438 8.842 0 4.847 3.815 8.752 8.438 8.752z"></path>
</svg>
