<!-- Generated by IcoMoon.io -->
<svg version="1.1" xmlns="http://www.w3.org/2000/svg" width="32" height="32" viewBox="0 0 32 32">
<title>calendar</title>
<path d="M8.603 24.293c0.564 0.37 1.698 0.802 3.041 0.802 3.005 0 4.374-1.908 4.374-3.682 0-1.229-0.658-2.271-1.712-2.831 0.837-0.593 1.3-1.455 1.3-2.469 0-1.505-1.093-3.023-3.535-3.023-1.338 0-2.501 0.491-3.089 0.91-0.174 0.124-0.244 0.351-0.168 0.551l0.395 1.054c0.052 0.138 0.165 0.243 0.304 0.286 0.141 0.043 0.294 0.018 0.414-0.068 0.399-0.286 1.127-0.62 1.864-0.62 0.905 0 1.403 0.405 1.403 1.14 0 0.982-1.144 1.338-1.913 1.338h-0.806c-0.261 0-0.473 0.212-0.473 0.473v1.087c0 0.261 0.212 0.472 0.473 0.472h0.806c0.38 0 2.274 0.081 2.293 1.675 0.007 0.408-0.143 0.799-0.413 1.074-0.339 0.344-0.854 0.519-1.534 0.519-0.902 0-1.761-0.373-2.127-0.592-0.121-0.072-0.27-0.087-0.402-0.040-0.133 0.047-0.239 0.152-0.286 0.286l-0.396 1.102c-0.073 0.207 0.005 0.436 0.187 0.555z"></path>
<path d="M17.736 16.214c0.036 0.141 0.135 0.257 0.268 0.317 0.134 0.059 0.287 0.051 0.415-0.017l1.195-0.645v8.573c0 0.26 0.212 0.472 0.473 0.472h1.399c0.261 0 0.473-0.212 0.473-0.472v-10.697c0-0.261-0.212-0.473-0.473-0.473h-1.235c-0.077 0-0.154 0.019-0.223 0.056l-2.337 1.251c-0.191 0.103-0.288 0.322-0.235 0.533l0.279 1.103z"></path>
<path d="M27.097 2.631h-22.231c-1.603 0-2.907 1.304-2.907 2.907v22.281c0 1.603 1.304 2.907 2.907 2.907h22.231c1.603 0 2.907-1.305 2.907-2.907v-22.28c0-1.603-1.304-2.907-2.907-2.907zM22.061 4.731c0.622 0 1.125 0.505 1.125 1.126s-0.504 1.125-1.125 1.125c-0.621 0-1.126-0.503-1.126-1.125s0.504-1.126 1.126-1.126zM9.963 4.722c0.622 0 1.126 0.505 1.126 1.126s-0.504 1.125-1.126 1.125-1.126-0.504-1.126-1.125c0-0.621 0.505-1.126 1.126-1.126zM28.113 27.82c0 0.559-0.455 1.015-1.015 1.015h-22.231c-0.56 0-1.015-0.456-1.015-1.015v-19.127h24.261v19.127z"></path>
</svg>
