<!-- Generated by IcoMoon.io -->
<svg version="1.1" xmlns="http://www.w3.org/2000/svg" width="32" height="32" viewBox="0 0 32 32">
<title>chart-analytics</title>
<path fill="#474a56" d="M26.243 13.093l-5.531 7.393c0.508 0.169 0.903 0.508 1.242 0.903l5.531-7.337c-0.508-0.226-0.959-0.564-1.242-0.959z"></path>
<path fill="#474a56" d="M13.263 13.093c-0.282 0.395-0.734 0.734-1.185 0.903l5.644 7.393c0.282-0.395 0.734-0.734 1.185-0.903l-5.644-7.393z"></path>
<path fill="#474a56" d="M8.804 12.642l-3.273 2.878c0.452 0.282 0.79 0.677 0.959 1.185l3.33-2.878c-0.451-0.282-0.79-0.677-1.016-1.185z"></path>
<path fill="#474a56" d="M12.755 12.473c0.113-0.226 0.226-0.564 0.226-0.847 0-1.016-0.847-1.806-1.806-1.806-1.016 0-1.806 0.79-1.806 1.806 0 0.169 0.056 0.339 0.056 0.508 0.169 0.508 0.508 0.959 1.016 1.129 0.226 0.113 0.508 0.169 0.734 0.169 0.169 0 0.282 0 0.395-0.056 0.508-0.113 0.959-0.451 1.185-0.903z"></path>
<path fill="#474a56" d="M21.446 22.011c-0.056-0.113-0.113-0.226-0.226-0.339 0 0 0 0 0 0-0.056-0.113-0.169-0.169-0.282-0.226 0 0 0 0-0.056 0-0.113-0.056-0.169-0.113-0.282-0.169 0 0-0.056 0-0.056 0-0.113-0.056-0.226-0.113-0.339-0.113 0 0 0 0 0 0-0.113 0-0.282-0.056-0.395-0.056-0.282 0-0.564 0.056-0.79 0.169 0 0 0 0-0.056 0-0.113 0.056-0.226 0.113-0.282 0.169 0 0 0 0 0 0-0.113 0.056-0.169 0.169-0.282 0.226 0 0 0 0 0 0-0.056 0.113-0.169 0.169-0.226 0.282 0 0 0 0 0 0v0c-0.113 0.226-0.226 0.508-0.226 0.847 0 1.016 0.79 1.806 1.806 1.806s1.806-0.79 1.806-1.806c0.113-0.226 0-0.508-0.113-0.79v0z"></path>
<path fill="#474a56" d="M28.388 9.764c-1.016 0-1.806 0.79-1.806 1.806 0 0.282 0.056 0.564 0.226 0.847 0.226 0.451 0.677 0.847 1.185 0.959 0.113 0.056 0.282 0.056 0.451 0.056 1.016 0 1.806-0.79 1.806-1.806-0.056-1.016-0.847-1.862-1.862-1.862z"></path>
<path fill="#474a56" d="M4.91 16.085c-0.226-0.113-0.508-0.226-0.847-0.226-1.016 0-1.806 0.79-1.806 1.806s0.79 1.806 1.806 1.806c1.016 0 1.806-0.79 1.806-1.806 0-0.169 0-0.282-0.056-0.451-0.056-0.508-0.452-0.903-0.903-1.129z"></path>
</svg>
