<!-- Generated by IcoMoon.io -->
<svg version="1.1" xmlns="http://www.w3.org/2000/svg" width="32" height="32" viewBox="0 0 32 32">
<title>close</title>
<path d="M16.943 16l14.863-14.861c0.26-0.26 0.26-0.683 0-0.943s-0.683-0.26-0.943 0l-14.863 14.861-14.861-14.863c-0.26-0.26-0.683-0.26-0.943 0s-0.26 0.683 0 0.943l14.861 14.863-14.863 14.861c-0.26 0.26-0.26 0.683 0 0.943 0.131 0.131 0.301 0.196 0.472 0.196s0.341-0.065 0.472-0.195l14.861-14.863 14.861 14.861c0.131 0.131 0.301 0.196 0.472 0.196s0.341-0.065 0.472-0.195c0.26-0.26 0.26-0.683 0-0.943l-14.863-14.863z"></path>
</svg>
