<!-- Generated by IcoMoon.io -->
<svg version="1.1" xmlns="http://www.w3.org/2000/svg" width="32" height="32" viewBox="0 0 32 32">
<title>connenction</title>
<path d="M28.345 23.032c0 0.975-0.791 1.766-1.766 1.766s-1.766-0.791-1.766-1.766c0-0.975 0.791-1.766 1.766-1.766s1.766 0.791 1.766 1.766z"></path>
<path d="M7.224 21.004c0 0.975-0.791 1.766-1.766 1.766s-1.766-0.791-1.766-1.766c0-0.975 0.791-1.766 1.766-1.766s1.766 0.791 1.766 1.766z"></path>
<path d="M9.932 4.652c0 0.976-0.791 1.767-1.767 1.767s-1.767-0.791-1.767-1.767c0-0.976 0.791-1.767 1.767-1.767s1.767 0.791 1.767 1.767z"></path>
<path d="M10.789 8.267l-0.685-1.277c-0.157-0.293-0.52-0.404-0.815-0.246-0.292 0.156-0.403 0.522-0.246 0.815l0.687 1.277c0.107 0.201 0.315 0.318 0.529 0.318 0.097 0 0.194-0.024 0.285-0.072 0.292-0.157 0.402-0.523 0.245-0.815z"></path>
<path d="M11.441 12.030c0.109 0.203 0.317 0.318 0.532 0.318 0.097 0 0.193-0.023 0.283-0.072 0.293-0.157 0.402-0.523 0.246-0.816l-0.686-1.277c-0.157-0.292-0.522-0.403-0.815-0.246s-0.402 0.522-0.246 0.815l0.685 1.277z"></path>
<path d="M20.309 18.933l-1.394-0.796c-0.29-0.165-0.657-0.064-0.822 0.224-0.163 0.289-0.064 0.656 0.225 0.821l1.394 0.796c0.094 0.054 0.197 0.080 0.298 0.080 0.211 0 0.412-0.109 0.524-0.304 0.165-0.288 0.064-0.656-0.225-0.82z"></path>
<path d="M23.795 20.922l-1.395-0.796c-0.289-0.164-0.656-0.064-0.821 0.224-0.164 0.29-0.064 0.656 0.224 0.822l1.394 0.795c0.096 0.054 0.197 0.080 0.299 0.080 0.208 0 0.411-0.11 0.522-0.304 0.164-0.288 0.064-0.656-0.223-0.821z"></path>
<path d="M9.681 18.16l-1.404 0.776c-0.292 0.161-0.398 0.528-0.236 0.818 0.11 0.198 0.316 0.311 0.527 0.311 0.098 0 0.199-0.024 0.291-0.075l1.404-0.777c0.292-0.161 0.397-0.527 0.236-0.818-0.161-0.29-0.528-0.396-0.818-0.234z"></path>
<path d="M27.467 5.341c0-1.484-1.207-2.69-2.691-2.69-1.482 0-2.69 1.206-2.69 2.69 0 0.473 0.124 0.917 0.339 1.304l-6.135 6.438c-0.557-0.338-1.208-0.534-1.904-0.534-2.038 0-3.696 1.658-3.696 3.695s1.658 3.695 3.696 3.695c0.038 0 0.072-0.005 0.111-0.006l1.37 5.379c-0.765 0.475-1.28 1.321-1.28 2.287 0 1.483 1.208 2.69 2.691 2.69s2.689-1.206 2.689-2.69c0-1.434-1.129-2.606-2.544-2.682l-1.371-5.379c1.202-0.61 2.028-1.855 2.028-3.293 0-0.76-0.23-1.468-0.626-2.056l6.136-6.437c0.358 0.178 0.76 0.28 1.186 0.28 1.483 0 2.69-1.206 2.69-2.69zM16.194 26.59c0.271-0.292 0.655-0.478 1.084-0.478 0.165 0 0.322 0.034 0.471 0.084 0.588 0.198 1.015 0.748 1.015 1.401 0 0.82-0.668 1.486-1.486 1.486s-1.486-0.667-1.486-1.486c0-0.389 0.154-0.742 0.402-1.008zM16.419 16.712c-0.094 0.406-0.305 0.767-0.598 1.045-0.057 0.054-0.119 0.103-0.182 0.151-0.351 0.264-0.781 0.426-1.251 0.426-0.104 0-0.204-0.016-0.304-0.030-0.445-0.065-0.846-0.265-1.154-0.565-0.288-0.282-0.496-0.645-0.584-1.053-0.031-0.142-0.050-0.289-0.050-0.441 0-0.582 0.243-1.11 0.628-1.489 0.28-0.275 0.636-0.472 1.034-0.556 0.138-0.029 0.282-0.044 0.43-0.044 0.263 0 0.513 0.054 0.745 0.143 0.52 0.2 0.94 0.598 1.165 1.105 0.114 0.257 0.179 0.541 0.179 0.84 0.001 0.161-0.022 0.316-0.058 0.467zM24.776 6.827c-0.095 0-0.189-0.011-0.279-0.029-0.572-0.109-1.024-0.548-1.16-1.109-0.029-0.112-0.046-0.228-0.046-0.348 0-0.82 0.667-1.487 1.485-1.487 0.82 0 1.486 0.667 1.486 1.487s-0.667 1.486-1.486 1.486z"></path>
</svg>
