<!-- Generated by IcoMoon.io -->
<svg version="1.1" xmlns="http://www.w3.org/2000/svg" width="32" height="32" viewBox="0 0 32 32">
<title>disabled-error</title>
<path d="M16.042 3.001c-7.539 0-13.674 6.133-13.674 13.673s6.134 13.673 13.674 13.673c7.539 0 13.673-6.133 13.673-13.673s-6.133-13.673-13.673-13.673zM16.042 27.811c-2.44 0-4.697-0.791-6.534-2.126l15.411-15.729c1.417 1.869 2.26 4.196 2.26 6.717 0 6.141-4.996 11.138-11.137 11.138zM16.042 5.536c2.58 0 4.955 0.884 6.846 2.362l-15.48 15.801c-1.563-1.919-2.503-4.363-2.503-7.025 0-6.142 4.997-11.138 11.138-11.138z"></path>
</svg>
