<!-- Generated by IcoMoon.io -->
<svg version="1.1" xmlns="http://www.w3.org/2000/svg" width="32" height="32" viewBox="0 0 32 32">
<title>exit-logout</title>
<path d="M29.371 2.338h-17.532c-0.548 0-0.993 0.444-0.993 0.992v8.038h1.984v-7.046h12.726l-5.123 2.905c-0.31 0.176-0.503 0.506-0.503 0.862v15.351h-7.1v-5.464h-1.984v6.456c0 0.548 0.445 0.991 0.993 0.991h8.091v3.768c0 0.353 0.187 0.679 0.493 0.857 0.154 0.090 0.326 0.135 0.499 0.135 0.17 0 0.338-0.042 0.489-0.129l8.249-4.678c0.406-0.125 0.702-0.498 0.702-0.944v-21.102c0.001-0.548-0.443-0.992-0.991-0.992z"></path>
<path d="M14.088 16.064c0.767 0 1.388-0.621 1.388-1.389 0-0.766-0.621-1.388-1.388-1.388h-5.306v-2.588c0-0.224-0.126-0.429-0.325-0.531-0.2-0.101-0.438-0.083-0.619 0.049l-5.476 3.976c-0.154 0.113-0.246 0.292-0.246 0.481 0 0.191 0.092 0.37 0.246 0.482l5.475 3.977c0.104 0.075 0.226 0.113 0.349 0.113 0.093 0 0.185-0.021 0.27-0.065 0.199-0.102 0.325-0.306 0.325-0.53v-2.589h5.307z"></path>
</svg>
