<!-- Generated by IcoMoon.io -->
<svg version="1.1" xmlns="http://www.w3.org/2000/svg" width="41" height="32" viewBox="0 0 41 32">
<title>eye-closed</title>
<path d="M18.51 20.884l-10.51 10.51-3.394-3.394 10.662-10.662c-0.114-0.428-0.175-0.877-0.175-1.341 0-2.873 2.329-5.202 5.202-5.202 0.464 0 0.913 0.061 1.341 0.175l10.364-10.364 3.394 3.394-10.212 10.212c0.203 0.557 0.314 1.158 0.314 1.785 0 2.873-2.329 5.202-5.202 5.202-0.627 0-1.228-0.111-1.785-0.314z"></path>
<path d="M39.878 15.241c-4.037-7.918-11.541-12.836-19.583-12.836s-15.546 4.918-19.583 12.836l-0.386 0.757 0.386 0.756c4.037 7.917 11.541 12.834 19.583 12.834s15.546-4.917 19.583-12.834l0.386-0.756-0.386-0.757zM20.295 26.258c-6.528 0-12.669-3.91-16.21-10.259 3.542-6.35 9.682-10.259 16.21-10.259s12.67 3.91 16.211 10.259c-3.542 6.35-9.683 10.259-16.211 10.259z"></path>
</svg>
