<!-- Generated by IcoMoon.io -->
<svg version="1.1" xmlns="http://www.w3.org/2000/svg" width="32" height="32" viewBox="0 0 32 32">
<title>eye</title>
<path d="M19.683 16.367c0 2.027-1.643 3.67-3.67 3.67s-3.67-1.643-3.67-3.67c0-2.027 1.643-3.67 3.67-3.67s3.67 1.643 3.67 3.67z"></path>
<path d="M29.83 15.833c-2.848-5.586-8.143-9.056-13.817-9.056s-10.968 3.47-13.817 9.056l-0.273 0.534 0.273 0.533c2.848 5.586 8.143 9.055 13.817 9.055s10.969-3.469 13.817-9.055l0.273-0.533-0.273-0.534zM16.013 23.606c-4.606 0-8.939-2.758-11.437-7.238 2.499-4.481 6.831-7.238 11.437-7.238s8.939 2.758 11.438 7.238c-2.499 4.48-6.832 7.238-11.438 7.238z"></path>
</svg>
