<!-- Generated by IcoMoon.io -->
<svg version="1.1" xmlns="http://www.w3.org/2000/svg" width="33" height="32" viewBox="0 0 33 32">
<title>filter</title>
<path d="M30.479 0.644h-28.447c-1.12 0-2.032 0.912-2.032 2.032v27.092c0 1.12 0.912 2.032 2.032 2.032h28.447c1.12 0 2.032-0.912 2.032-2.032v-27.092c0-1.12-0.912-2.032-2.032-2.032zM31.156 29.768c0 0.374-0.303 0.677-0.677 0.677h-28.447c-0.374 0-0.677-0.303-0.677-0.677v-27.092c0-0.374 0.303-0.677 0.677-0.677h28.447c0.374 0 0.677 0.303 0.677 0.677v27.092zM27.798 7.417h-8.224c-0.316-1.544-1.684-2.709-3.319-2.709s-3.003 1.165-3.319 2.709h-8.168c-0.374 0-0.677 0.303-0.677 0.677s0.303 0.677 0.677 0.677h8.168c0.316 1.544 1.684 2.709 3.319 2.709s3.003-1.165 3.319-2.709h8.224c0.374 0 0.677-0.303 0.677-0.677s-0.303-0.677-0.677-0.677zM16.255 10.126c-1.12 0-2.032-0.912-2.032-2.032s0.912-2.032 2.032-2.032c1.118 0 2.026 0.906 2.031 2.024l-0.001 0.008 0.001 0.008c-0.004 1.118-0.913 2.024-2.031 2.024zM27.798 15.545h-13.642c-0.316-1.544-1.684-2.709-3.319-2.709s-3.003 1.165-3.319 2.709h-2.75c-0.374 0-0.677 0.303-0.677 0.677s0.303 0.677 0.677 0.677h2.75c0.316 1.544 1.682 2.709 3.319 2.709s3.003-1.165 3.319-2.709h13.642c0.374 0 0.677-0.303 0.677-0.677s-0.303-0.677-0.677-0.677zM10.837 18.254c-1.12 0-2.032-0.912-2.032-2.032s0.912-2.032 2.032-2.032c1.115 0 2.021 0.902 2.031 2.014l-0.004 0.018 0.004 0.018c-0.009 1.112-0.916 2.014-2.031 2.014zM27.798 23.672h-10.933c-0.316-1.544-1.682-2.709-3.319-2.709s-3.003 1.165-3.319 2.709h-5.459c-0.374 0-0.677 0.303-0.677 0.677s0.303 0.677 0.677 0.677h5.459c0.316 1.544 1.682 2.709 3.319 2.709s3.003-1.165 3.319-2.709h10.933c0.374 0 0.677-0.303 0.677-0.677s-0.303-0.677-0.677-0.677zM13.546 26.382c-1.12 0-2.032-0.912-2.032-2.032s0.912-2.032 2.032-2.032c1.115 0 2.021 0.902 2.031 2.014l-0.004 0.018 0.004 0.018c-0.009 1.112-0.916 2.014-2.031 2.014z"></path>
</svg>
