<?xml version="1.0" encoding="UTF-8"?>
<svg width="41px" height="40px" viewBox="0 0 41 40" version="1.1" xmlns="http://www.w3.org/2000/svg" xmlns:xlink="http://www.w3.org/1999/xlink">
    <!-- Generator: Sketch 48.2 (47327) - http://www.bohemiancoding.com/sketch -->
    <title>filter</title>
    <desc>Created with Sketch.</desc>
    <defs></defs>
    <g id="Mobile-Bottom-Menu-Bar" stroke="none" stroke-width="1" fill="none" fill-rule="evenodd" transform="translate(-38.000000, -27.000000)">
        <g fill="#000000" fill-rule="nonzero" id="Finden">
            <g transform="translate(38.000000, 22.000000)">
                <path d="M38.0987031,5.80465905 L2.53991354,5.80465905 C1.13957454,5.80465905 0,6.94423359 0,8.34457259 L0,42.2100865 C0,43.6104255 1.13957454,44.75 2.53991354,44.75 L38.0987031,44.75 C39.4990421,44.75 40.6386166,43.6104255 40.6386166,42.2100865 L40.6386166,8.34457259 C40.6386166,6.94423359 39.4990421,5.80465905 38.0987031,5.80465905 Z M38.945341,42.2100865 C38.945341,42.6774306 38.5660472,43.0567243 38.0987031,43.0567243 L2.53991354,43.0567243 C2.07256945,43.0567243 1.69327569,42.6774306 1.69327569,42.2100865 L1.69327569,8.34457259 C1.69327569,7.8772285 2.07256945,7.49793474 2.53991354,7.49793474 L38.0987031,7.49793474 C38.5660472,7.49793474 38.945341,7.8772285 38.945341,8.34457259 L38.945341,42.2100865 Z M34.7477105,14.2710375 L24.4678338,14.2710375 C24.0733005,12.3407032 22.3630921,10.8844861 20.3193083,10.8844861 C18.2755246,10.8844861 16.5653161,12.3407032 16.1707829,14.2710375 L5.96033044,14.2710375 C5.49298635,14.2710375 5.11369259,14.6503313 5.11369259,15.1176754 C5.11369259,15.5850195 5.49298635,15.9643132 5.96033044,15.9643132 L16.1707829,15.9643132 C16.5653161,17.8946475 18.2755246,19.3508646 20.3193083,19.3508646 C22.3630921,19.3508646 24.0733005,17.8946475 24.4678338,15.9643132 L34.7477105,15.9643132 C35.2150546,15.9643132 35.5943484,15.5850195 35.5943484,15.1176754 C35.5943484,14.6503313 35.2150546,14.2710375 34.7477105,14.2710375 Z M20.3193083,17.6575889 C18.9189693,17.6575889 17.7793948,16.5180144 17.7793948,15.1176754 C17.7793948,13.7173364 18.9189693,12.5777618 20.3193083,12.5777618 C21.7162608,12.5777618 22.8524488,13.7105633 22.8575286,15.1075157 L22.8558353,15.1176754 L22.8575286,15.127835 C22.8524488,16.5247875 21.7162608,17.6575889 20.3193083,17.6575889 Z M34.7477105,24.4306917 L17.694731,24.4306917 C17.3001978,22.5003574 15.5899893,21.0441403 13.5462055,21.0441403 C11.5024218,21.0441403 9.79221334,22.5003574 9.3976801,24.4306917 L5.96033044,24.4306917 C5.49298635,24.4306917 5.11369259,24.8099854 5.11369259,25.2773295 C5.11369259,25.7446736 5.49298635,26.1239674 5.96033044,26.1239674 L9.3976801,26.1239674 C9.79221334,28.0543017 11.5007285,29.5105188 13.5462055,29.5105188 C15.5916826,29.5105188 17.3001978,28.0543017 17.694731,26.1239674 L34.7477105,26.1239674 C35.2150546,26.1239674 35.5943484,25.7446736 35.5943484,25.2773295 C35.5943484,24.8099854 35.2150546,24.4306917 34.7477105,24.4306917 Z M13.5462055,27.8172431 C12.1458665,27.8172431 11.006292,26.6776685 11.006292,25.2773295 C11.006292,23.8769905 12.1458665,22.737416 13.5462055,22.737416 C14.9397714,22.737416 16.0725729,23.8651376 16.0844258,25.2553169 L16.079346,25.2773295 L16.0844258,25.2993421 C16.0725729,26.6895215 14.9397714,27.8172431 13.5462055,27.8172431 Z M34.7477105,34.5903458 L21.0812824,34.5903458 C20.6867491,32.6600115 18.978234,31.2037945 16.9327569,31.2037945 C14.8872799,31.2037945 13.1787647,32.6600115 12.7842315,34.5903458 L5.96033044,34.5903458 C5.49298635,34.5903458 5.11369259,34.9696396 5.11369259,35.4369837 C5.11369259,35.9043278 5.49298635,36.2836215 5.96033044,36.2836215 L12.7842315,36.2836215 C13.1787647,38.2139558 14.8872799,39.6701729 16.9327569,39.6701729 C18.978234,39.6701729 20.6867491,38.2139558 21.0812824,36.2836215 L34.7477105,36.2836215 C35.2150546,36.2836215 35.5943484,35.9043278 35.5943484,35.4369837 C35.5943484,34.9696396 35.2150546,34.5903458 34.7477105,34.5903458 Z M16.9327569,37.9768972 C15.5324179,37.9768972 14.3928434,36.8373227 14.3928434,35.4369837 C14.3928434,34.0366447 15.5324179,32.8970701 16.9327569,32.8970701 C18.3263228,32.8970701 19.4591243,34.0247918 19.4709772,35.4149711 L19.4658974,35.4369837 L19.4709772,35.4589963 C19.4591243,36.8491756 18.3263228,37.9768972 16.9327569,37.9768972 Z" id="filter"></path>
            </g>
        </g>
    </g>
</svg>