<!-- Generated by IcoMoon.io -->
<svg version="1.1" xmlns="http://www.w3.org/2000/svg" width="47" height="32" viewBox="0 0 47 32">
<title>hamburger</title>
<path d="M45.045 29.718c0.579 0 1.049 0.47 1.049 1.049s-0.47 1.049-1.049 1.049h-43.958c-0.579 0-1.049-0.47-1.049-1.049s0.47-1.049 1.049-1.049h43.958zM1.086 2.445c-0.579 0-1.049-0.47-1.049-1.049s0.47-1.049 1.049-1.049h43.958c0.579 0 1.049 0.47 1.049 1.049s-0.47 1.049-1.049 1.049h-43.958zM45.045 15.032c0.579 0 1.049 0.47 1.049 1.049s-0.47 1.049-1.049 1.049h-43.958c-0.579 0-1.049-0.47-1.049-1.049s0.47-1.049 1.049-1.049h43.958z"></path>
</svg>
