<?xml version="1.0" encoding="UTF-8"?>
<svg width="44px" height="30px" viewBox="0 0 44 30" version="1.1" xmlns="http://www.w3.org/2000/svg" xmlns:xlink="http://www.w3.org/1999/xlink">
    <!-- Generator: Sketch 48.2 (47327) - http://www.bohemiancoding.com/sketch -->
    <title>hamburger</title>
    <desc>Created with Sketch.</desc>
    <defs></defs>
    <g id="Mobile-Bottom-Menu-Bar" stroke="none" stroke-width="1" fill="none" fill-rule="evenodd" transform="translate(-556.000000, -31.000000)">
        <g fill="#000000" fill-rule="nonzero" id="Menu">
            <g transform="translate(556.000000, 30.000000)">
                <path d="M42.2293777,28.8610771 C42.7720909,28.8610771 43.2125538,29.30154 43.2125538,29.8442532 C43.2125538,30.3869664 42.7720909,30.8274292 42.2293777,30.8274292 L1.01857039,30.8274292 C0.475857208,30.8274292 0.0353943378,30.3869664 0.0353943378,29.8442532 C0.0353943378,29.30154 0.475857208,28.8610771 1.01857039,28.8610771 L42.2293777,28.8610771 Z M1.01857039,3.29260077 C0.475857208,3.29260077 0.0353943378,2.8521379 0.0353943378,2.30942472 C0.0353943378,1.76671154 0.475857208,1.32624867 1.01857039,1.32624867 L42.2293777,1.32624867 C42.7720909,1.32624867 43.2125538,1.76671154 43.2125538,2.30942472 C43.2125538,2.8521379 42.7720909,3.29260077 42.2293777,3.29260077 L1.01857039,3.29260077 Z M42.2293777,15.0926797 C42.7720909,15.0926797 43.2125538,15.5331426 43.2125538,16.0758558 C43.2125538,16.618569 42.7720909,17.0590318 42.2293777,17.0590318 L1.01857039,17.0590318 C0.475857208,17.0590318 0.0353943378,16.618569 0.0353943378,16.0758558 C0.0353943378,15.5331426 0.475857208,15.0926797 1.01857039,15.0926797 L42.2293777,15.0926797 Z" id="hamburger"></path>
            </g>
        </g>
    </g>
</svg>