<!-- Generated by IcoMoon.io -->
<svg version="1.1" xmlns="http://www.w3.org/2000/svg" width="32" height="32" viewBox="0 0 32 32">
<title>house</title>
<path d="M10.407 18.929h2.956v2.947h-2.956v-2.947z"></path>
<path d="M29.519 14.887l-12.408-10.505c-0.568-0.481-1.4-0.481-1.968 0l-12.407 10.505c-0.642 0.542-0.721 1.504-0.178 2.145s1.504 0.722 2.146 0.177l0.199-0.168v12.098c0 0.526 0.426 0.952 0.952 0.952h20.547c0.526 0 0.952-0.426 0.952-0.952v-12.098l0.199 0.168c0.286 0.243 0.636 0.362 0.982 0.362 0.433 0 0.861-0.183 1.163-0.539 0.542-0.642 0.462-1.604-0.18-2.146zM25.449 28.189h-3.603v-9.26h-5.237v9.26h-9.804v-12.758l9.323-7.892 9.322 7.892v12.758z"></path>
</svg>
