<!-- Generated by IcoMoon.io -->
<svg version="1.1" xmlns="http://www.w3.org/2000/svg" width="32" height="32" viewBox="0 0 32 32">
<title>link</title>
<path d="M24.522 1c-1.731 0-3.358 0.674-4.581 1.897l-6.198 6.198c-1.224 1.224-1.897 2.85-1.897 4.581s0.674 3.358 1.897 4.581c0.195 0.195 0.451 0.293 0.707 0.293s0.512-0.098 0.707-0.293c0.391-0.391 0.391-1.024 0-1.414-0.846-0.846-1.312-1.97-1.312-3.167s0.466-2.321 1.312-3.167l6.198-6.198c0.846-0.845 1.971-1.311 3.167-1.311s2.321 0.466 3.167 1.312c0.845 0.846 1.311 1.97 1.311 3.166s-0.466 2.321-1.312 3.167l-6.198 6.198c-0.391 0.391-0.391 1.023 0 1.414s1.023 0.391 1.414 0l6.198-6.198c1.224-1.224 1.898-2.851 1.898-4.581s-0.674-3.356-1.897-4.581c-1.224-1.223-2.851-1.897-4.581-1.897z"></path>
<path d="M16.842 13.744c-0.391 0.391-0.391 1.024 0 1.414 0.846 0.846 1.312 1.97 1.312 3.167s-0.466 2.321-1.312 3.167l-6.198 6.198c-0.845 0.844-1.97 1.31-3.166 1.31s-2.321-0.466-3.167-1.312c-0.845-0.846-1.311-1.97-1.311-3.166s0.466-2.321 1.312-3.167l6.198-6.198c0.391-0.391 0.391-1.023 0-1.414s-1.023-0.391-1.414 0l-6.198 6.198c-1.224 1.224-1.898 2.851-1.898 4.581s0.674 3.356 1.897 4.581c1.224 1.223 2.851 1.897 4.581 1.897s3.358-0.674 4.581-1.897l6.198-6.198c1.224-1.224 1.897-2.85 1.897-4.581s-0.674-3.358-1.897-4.581c-0.391-0.39-1.025-0.39-1.415 0.001z"></path>
</svg>
