<!-- Generated by IcoMoon.io -->
<svg version="1.1" xmlns="http://www.w3.org/2000/svg" width="32" height="32" viewBox="0 0 32 32">
<title>login</title>
<path d="M19.46 25.93c-0.39 0-0.707 0.317-0.707 0.707v3.506h-16.971v-28.284h16.971v4.95c0 0.39 0.317 0.707 0.707 0.707s0.707-0.317 0.707-0.707v-5.657c0-0.39-0.317-0.707-0.707-0.707h-18.385c-0.39 0-0.707 0.317-0.707 0.707v29.698c0 0.39 0.317 0.707 0.707 0.707h18.385c0.39 0 0.707-0.317 0.707-0.707v-4.213c0-0.392-0.317-0.707-0.707-0.707zM30.774 16.001h-22.346l5.875-5.875c0.276-0.276 0.276-0.724 0-1s-0.724-0.276-1 0l-7.071 7.071c-0.139 0.139-0.206 0.322-0.205 0.505l-0.001 0.006c0 0.211 0.096 0.395 0.242 0.523l7.036 7.037c0.139 0.139 0.32 0.208 0.501 0.208s0.362-0.069 0.501-0.208c0.276-0.276 0.276-0.724 0-1l-5.853-5.853h22.323c0.39 0 0.707-0.317 0.707-0.707s-0.317-0.707-0.707-0.707z"></path>
</svg>
