<?xml version="1.0" encoding="UTF-8"?>
<svg width="44px" height="44px" viewBox="0 0 44 44" version="1.1" xmlns="http://www.w3.org/2000/svg" xmlns:xlink="http://www.w3.org/1999/xlink">
    <!-- Generator: Sketch 48.2 (47327) - http://www.bohemiancoding.com/sketch -->
    <title>login</title>
    <desc>Created with Sketch.</desc>
    <defs></defs>
    <g id="Mobile-Bottom-Menu-Bar" stroke="none" stroke-width="1" fill="none" fill-rule="evenodd" transform="translate(-387.000000, -24.000000)">
        <g fill="#000000" fill-rule="nonzero" id="Profil">
            <g transform="translate(387.000000, 22.000000)">
                <path d="M26.7577396,37.6535737 C26.2210451,37.6535737 25.7854669,38.0891519 25.7854669,38.6258464 L25.7854669,43.4463745 L2.45092213,43.4463745 L2.45092213,4.5554665 L25.7854669,4.5554665 L25.7854669,11.3613754 C25.7854669,11.8980699 26.2210451,12.3336481 26.7577396,12.3336481 C27.2944341,12.3336481 27.7300123,11.8980699 27.7300123,11.3613754 L27.7300123,3.5831938 C27.7300123,3.04649927 27.2944341,2.6109211 26.7577396,2.6109211 L1.47864943,2.6109211 C0.941954899,2.6109211 0.50637673,3.04649927 0.50637673,3.5831938 L0.50637673,44.4186472 C0.50637673,44.9553417 0.941954899,45.3909199 1.47864943,45.3909199 L26.7577396,45.3909199 C27.2944341,45.3909199 27.7300123,44.9553417 27.7300123,44.4186472 L27.7300123,38.6258464 C27.7300123,38.0872074 27.2944341,37.6535737 26.7577396,37.6535737 Z M42.3141028,24.0009205 L11.588341,24.0009205 L19.6659825,15.9232789 C20.0451689,15.5440925 20.0451689,14.9276717 19.6659825,14.5484853 C19.2867962,14.1692989 18.6703753,14.1692989 18.2911889,14.5484853 L8.56846195,24.2712123 C8.37789651,24.4617777 8.28455833,24.7145686 8.28650287,24.965415 L8.28455833,24.9731932 C8.28455833,25.2629305 8.41678741,25.5157214 8.61707559,25.692675 L18.2911889,35.3687329 C18.4817544,35.5592983 18.7306562,35.6545811 18.979558,35.6545811 C19.2284598,35.6545811 19.4773616,35.5592983 19.6679271,35.3687329 C20.0471134,34.9895465 20.0471134,34.3731256 19.6679271,33.9939393 L11.6194537,25.9454659 L42.3141028,25.9454659 C42.8507973,25.9454659 43.2863755,25.5098877 43.2863755,24.9731932 C43.2863755,24.4364987 42.8507973,24.0009205 42.3141028,24.0009205 Z" id="login"></path>
            </g>
        </g>
    </g>
</svg>