<?xml version="1.0" encoding="UTF-8"?>
<svg width="44px" height="44px" viewBox="0 0 44 44" version="1.1" xmlns="http://www.w3.org/2000/svg" xmlns:xlink="http://www.w3.org/1999/xlink">
    <!-- Generator: Sketch 48.2 (47327) - http://www.bohemiancoding.com/sketch -->
    <title>logout</title>
    <desc>Created with Sketch.</desc>
    <defs></defs>
    <g id="Mobile-Bottom-Menu-Bar" stroke="none" stroke-width="1" fill="none" fill-rule="evenodd" transform="translate(-432.000000, -24.000000)">
        <g fill="#000000" fill-rule="nonzero" id="Profil">
            <g transform="translate(420.000000, 22.000000)">
                <path d="M39.1946724,37.6532408 C38.6579548,37.6532408 38.2223579,38.0888377 38.2223579,38.6255553 L38.2223579,43.4462908 L14.8868089,43.4462908 L14.8868089,4.5537092 L38.2223579,4.5537092 L38.2223579,11.359911 C38.2223579,11.8966286 38.6579548,12.3322255 39.1946724,12.3322255 C39.7313901,12.3322255 40.166987,11.8966286 40.166987,11.359911 L40.166987,3.58139466 C40.166987,3.04467704 39.7313901,2.60908012 39.1946724,2.60908012 L13.9144944,2.60908012 C13.3777768,2.60908012 12.9421799,3.04467704 12.9421799,3.58139466 L12.9421799,44.4186053 C12.9421799,44.955323 13.3777768,45.3909199 13.9144944,45.3909199 L39.1946724,45.3909199 C39.7313901,45.3909199 40.166987,44.955323 40.166987,44.4186053 L40.166987,38.6255553 C40.166987,38.0868931 39.7313901,37.6532408 39.1946724,37.6532408 Z M55.4401038,24.2703034 L45.7169584,14.547158 C45.3377557,14.1679554 44.7213083,14.1679554 44.3421056,14.547158 C43.9629029,14.9263607 43.9629029,15.5428081 44.3421056,15.9220108 L52.4200948,24 L21.6930107,24 C21.1562931,24 20.7206962,24.4355969 20.7206962,24.9723145 C20.7206962,25.5090322 21.1562931,25.9446291 21.6930107,25.9446291 L52.3889807,25.9446291 L44.340161,33.9934488 C43.9609583,34.3726515 43.9609583,34.9890989 44.340161,35.3683016 C44.5307346,35.5588752 44.7796472,35.6541621 45.0285597,35.6541621 C45.2774722,35.6541621 45.5263847,35.5588752 45.7169584,35.3683016 L55.391488,25.6918273 C55.5917848,25.5148661 55.7240196,25.2620643 55.7240196,24.9723145 L55.722075,24.964536 C55.7240196,24.7136789 55.6306774,24.4608771 55.4401038,24.2703034 Z" id="logout"></path>
            </g>
        </g>
    </g>
</svg>