<!-- Generated by IcoMoon.io -->
<svg version="1.1" xmlns="http://www.w3.org/2000/svg" width="32" height="32" viewBox="0 0 32 32">
<title>logout</title>
<path d="M19.778 25.93c-0.39 0-0.707 0.317-0.707 0.707v3.506h-16.971v-28.285h16.971v4.95c0 0.39 0.317 0.707 0.707 0.707s0.707-0.317 0.707-0.707v-5.657c0-0.39-0.317-0.707-0.707-0.707h-18.386c-0.39 0-0.707 0.317-0.707 0.707v29.7c0 0.39 0.317 0.707 0.707 0.707h18.386c0.39 0 0.707-0.317 0.707-0.707v-4.213c0-0.392-0.317-0.707-0.707-0.707zM31.593 16.197l-7.071-7.071c-0.276-0.276-0.724-0.276-1 0s-0.276 0.724 0 1l5.875 5.875h-22.347c-0.39 0-0.707 0.317-0.707 0.707s0.317 0.707 0.707 0.707h22.324l-5.854 5.854c-0.276 0.276-0.276 0.724 0 1 0.139 0.139 0.32 0.208 0.501 0.208s0.362-0.069 0.501-0.208l7.036-7.037c0.146-0.129 0.242-0.313 0.242-0.523l-0.001-0.006c0.001-0.182-0.066-0.366-0.205-0.505z"></path>
</svg>
