<!-- Generated by IcoMoon.io -->
<svg version="1.1" xmlns="http://www.w3.org/2000/svg" width="32" height="32" viewBox="0 0 32 32">
<title>map</title>
<path d="M29.316 6.382l-5.712-1.316c-0.205-0.049-0.421-0.025-0.612 0.062l-6.694 3.063-6.158-2.568c-0.228-0.095-0.485-0.099-0.716-0.009l-6.627 2.582c-0.367 0.143-0.61 0.497-0.61 0.892v18.182c0 0.317 0.156 0.612 0.417 0.79s0.593 0.216 0.887 0.102l6.268-2.442 6.188 2.581c0.117 0.049 0.243 0.074 0.368 0.074 0.137 0 0.271-0.030 0.398-0.087l6.778-3.101 5.395 1.243c0.284 0.065 0.582-0.002 0.811-0.184 0.227-0.181 0.361-0.457 0.361-0.748v-18.183c-0.001-0.446-0.309-0.832-0.742-0.932zM28.144 24.295l-4.54-1.046c-0.205-0.049-0.421-0.027-0.612 0.063l-6.693 3.062-6.158-2.568c-0.117-0.050-0.243-0.074-0.368-0.074-0.117 0-0.235 0.021-0.347 0.065l-5.322 2.074v-16.128l5.657-2.204 6.188 2.581c0.246 0.102 0.523 0.097 0.766-0.013l6.778-3.101 4.653 1.072v16.218z"></path>
<path d="M8.091 18.129c-0.278-0.152-0.627-0.050-0.779 0.228-0.245 0.446-0.388 0.743-0.388 0.743-0.138 0.286-0.018 0.628 0.267 0.767 0.081 0.038 0.167 0.058 0.25 0.058 0.213 0 0.418-0.12 0.517-0.325 0.003-0.007 0.136-0.28 0.362-0.691 0.152-0.277 0.050-0.625-0.228-0.779z"></path>
<path d="M9.11 15.651c-0.163 0.191-0.33 0.405-0.498 0.634-0.187 0.256-0.131 0.616 0.125 0.803 0.103 0.074 0.222 0.11 0.339 0.11 0.177 0 0.352-0.082 0.464-0.235 0.152-0.207 0.302-0.4 0.447-0.571 0.204-0.243 0.175-0.604-0.067-0.809s-0.605-0.174-0.809 0.068z"></path>
<path d="M12.945 14.899c-0.489-0.642-1.045-0.777-1.424-0.777-0.106 0-0.214 0.011-0.322 0.031-0.312 0.059-0.516 0.358-0.458 0.671s0.357 0.516 0.671 0.458c0.036-0.008 0.075-0.011 0.11-0.011 0.113 0 0.289 0.033 0.511 0.325l0.059 0.081c0.112 0.152 0.287 0.232 0.462 0.232 0.119 0 0.238-0.037 0.341-0.112 0.255-0.189 0.309-0.549 0.12-0.804l-0.070-0.094z"></path>
<path d="M14.21 16.956c-0.155-0.277-0.506-0.375-0.782-0.221-0.277 0.156-0.375 0.506-0.22 0.783 0.251 0.446 0.499 0.883 0.765 1.305 0.11 0.173 0.296 0.268 0.486 0.268 0.105 0 0.211-0.029 0.306-0.088 0.268-0.17 0.348-0.525 0.179-0.792-0.251-0.399-0.492-0.821-0.735-1.255z"></path>
<path d="M20.488 18.002c-0.252-0.192-0.613-0.142-0.805 0.11-0.314 0.415-0.623 0.769-0.914 1.055-0.227 0.222-0.231 0.584-0.010 0.812 0.112 0.115 0.262 0.173 0.411 0.173 0.145 0 0.29-0.055 0.401-0.163 0.333-0.325 0.678-0.722 1.027-1.183 0.192-0.252 0.142-0.613-0.11-0.804z"></path>
<path d="M17.213 20.073c-0.336 0.029-0.65-0.075-0.984-0.323-0.255-0.19-0.615-0.137-0.804 0.118s-0.137 0.614 0.118 0.803c0.496 0.369 1.020 0.555 1.558 0.555 0.072 0 0.143-0.003 0.216-0.010 0.317-0.029 0.549-0.308 0.52-0.624s-0.311-0.551-0.624-0.519z"></path>
<path d="M22.016 15.421c-0.276-0.156-0.626-0.058-0.782 0.218-0.123 0.218-0.251 0.436-0.378 0.647-0.163 0.272-0.076 0.625 0.196 0.789 0.093 0.056 0.195 0.082 0.295 0.082 0.195 0 0.386-0.098 0.493-0.278 0.133-0.221 0.266-0.448 0.393-0.676 0.156-0.277 0.058-0.627-0.218-0.782z"></path>
<path d="M22.976 11.445c-0.122-0.293-0.458-0.43-0.751-0.309-0.293 0.122-0.431 0.458-0.309 0.751l0.383 0.916-0.917 0.384c-0.293 0.122-0.431 0.458-0.308 0.752 0.092 0.22 0.305 0.353 0.529 0.353 0.074 0 0.15-0.014 0.221-0.045l0.917-0.384 0.383 0.917c0.093 0.221 0.305 0.353 0.53 0.353 0.074 0 0.149-0.014 0.221-0.044 0.293-0.122 0.432-0.458 0.309-0.752l-0.383-0.916 0.916-0.383c0.292-0.122 0.431-0.458 0.308-0.751s-0.459-0.431-0.751-0.308l-0.916 0.383-0.383-0.916z"></path>
</svg>
