<!-- Generated by IcoMoon.io -->
<svg version="1.1" xmlns="http://www.w3.org/2000/svg" width="32" height="32" viewBox="0 0 32 32">
<title>moon-stars</title>
<path d="M20.777 4.724c-0.082-0.040-0.176-0.059-0.268-0.056l-0.265 0.010c-0.196 0.007-0.374 0.113-0.475 0.281-0.1 0.169-0.109 0.376-0.023 0.551 1.9 3.87 1.696 8.169-0.563 11.793-2.229 3.577-6.026 5.714-10.157 5.714-1.551 0-3.127-0.299-4.684-0.888-0.228-0.085-0.486-0.019-0.645 0.168-0.157 0.185-0.182 0.451-0.060 0.663 2.651 4.597 5.97 6.881 10.445 7.188 0.319 0.021 0.643 0.033 0.963 0.033 7.263 0 13.238-5.442 13.604-12.387 0.299-5.684-2.644-10.57-7.872-13.069z"></path>
<path d="M5.13 11.527c-0.040 0.114 0.003 0.239 0.106 0.311l2.655 1.861-0.965 2.948c-0.037 0.115 0.007 0.239 0.109 0.309 0.103 0.071 0.243 0.073 0.348 0.006l2.739-1.763 2.739 1.763c0.051 0.033 0.11 0.049 0.17 0.049 0.062 0 0.124-0.017 0.178-0.054 0.103-0.069 0.147-0.194 0.109-0.309l-0.966-2.948 2.655-1.861c0.102-0.072 0.145-0.197 0.106-0.311-0.038-0.113-0.152-0.193-0.279-0.196l-3.334-0.062-1.094-2.91c-0.042-0.113-0.156-0.189-0.283-0.189-0.128 0-0.242 0.075-0.284 0.189l-1.094 2.91-3.333 0.062c-0.13 0.003-0.242 0.082-0.281 0.196z"></path>
<path d="M5.424 4.705l-0.364 1.188c-0.014 0.046 0.003 0.096 0.041 0.125s0.092 0.030 0.131 0.003l1.031-0.711 1.032 0.711c0.019 0.013 0.042 0.019 0.064 0.019 0.023 0 0.047-0.007 0.067-0.022 0.038-0.029 0.055-0.078 0.041-0.125l-0.365-1.188 1.001-0.75c0.038-0.030 0.054-0.079 0.040-0.125s-0.058-0.078-0.106-0.080l-1.256-0.025-0.413-1.173c-0.014-0.045-0.056-0.076-0.104-0.076s-0.091 0.030-0.106 0.076l-0.413 1.173-1.256 0.025c-0.049 0.001-0.090 0.033-0.106 0.080s0.001 0.095 0.039 0.125l1.001 0.75z"></path>
</svg>
