<!-- Generated by IcoMoon.io -->
<svg version="1.1" xmlns="http://www.w3.org/2000/svg" width="32" height="32" viewBox="0 0 32 32">
<title>pie-chart</title>
<path d="M25.905 12.642c-0.226 0-0.395 0-9.481 4.007l1.242-9.989c0.056-0.508-0.282-1.016-0.847-1.072-0.508-0.056-1.016-0.113-1.524-0.113-6.208 0-11.457 4.684-12.247 10.836-0.847 6.773 4.007 12.924 10.78 13.714 0.508 0.056 1.016 0.113 1.524 0.113v0c6.208 0 11.457-4.684 12.247-10.836 0.226-2.032 0-4.176-0.79-6.095-0.169-0.339-0.508-0.564-0.903-0.564zM25.679 19.076c-0.621 5.249-5.079 9.199-10.328 9.199-0.451 0-0.847 0-1.298-0.056-5.7-0.677-9.82-5.926-9.086-11.626 0.621-5.249 5.079-9.199 10.328-9.199 0.113 0 0.226 0 0.339 0l-1.298 10.667c-0.056 0.339 0.113 0.677 0.395 0.903s0.621 0.226 0.959 0.113c3.104-1.355 7.732-3.386 9.651-4.233 0.395 1.354 0.508 2.822 0.339 4.233z"></path>
<path d="M28.783 8.691c-1.411-3.386-4.571-5.757-8.24-6.208-0.339-0.056-0.621 0.169-0.621 0.508l-1.185 9.707c0 0.226 0.056 0.395 0.226 0.508 0.113 0.056 0.226 0.113 0.339 0.113 0.056 0 0.169 0 0.226-0.056l8.974-3.781c0.113-0.056 0.226-0.169 0.282-0.339s0.056-0.339 0-0.451z"></path>
</svg>
