<!-- Generated by IcoMoon.io -->
<svg version="1.1" xmlns="http://www.w3.org/2000/svg" width="35" height="32" viewBox="0 0 35 32">
<title>profil</title>
<path d="M34.029 24.61c-2.484-0.865-5.096-1.318-7.195-1.681-1.522-0.263-3.782-0.654-4.11-1.049v-1.377c5.004-0.143 7.090-1.635 7.18-1.702 0.188-0.137 0.286-0.348 0.267-0.566-0.020-0.217-0.156-0.41-0.365-0.518-1.302-0.668-2.284-5.418-2.562-8.524 0-4.227-3.557-8.788-9.304-8.788-5.129 0-9.303 3.942-9.301 8.736-0.28 3.159-1.262 7.909-2.565 8.577-0.209 0.106-0.345 0.301-0.365 0.518-0.022 0.218 0.078 0.43 0.264 0.568 0.090 0.066 2.178 1.557 7.182 1.7v1.377c-0.326 0.392-2.585 0.783-4.104 1.046-2.1 0.364-4.715 0.817-7.201 1.683-0.741 0.259-1.22 0.894-1.22 1.616v3.775c0 0.955 0.85 1.731 1.897 1.731h30.825c1.047 0 1.897-0.777 1.897-1.731v-3.775c0-0.713-0.491-1.363-1.22-1.616zM33.805 30.001c0 0.23-0.204 0.417-0.453 0.417h-30.825c-0.25 0-0.453-0.188-0.453-0.417v-3.775c0-0.175 0.115-0.328 0.293-0.39 2.366-0.824 4.91-1.265 6.954-1.619 2.918-0.506 4.843-0.84 5.245-1.999 0.022-0.064 0.033-0.131 0.033-0.197v-2.163c0-0.361-0.322-0.656-0.72-0.657-3.289-0.009-5.289-0.628-6.267-1.047 1.779-2.188 2.357-7.7 2.467-8.96 0-4.122 3.525-7.474 7.859-7.474 4.855 0 7.86 3.88 7.863 7.528 0.107 1.215 0.687 6.721 2.464 8.908-0.979 0.419-2.978 1.038-6.265 1.046-0.398 0.001-0.72 0.296-0.72 0.657v2.163c0 0.067 0.012 0.134 0.033 0.197 0.4 1.162 2.33 1.495 5.25 2 2.043 0.355 4.585 0.794 6.948 1.616 0.175 0.062 0.292 0.218 0.292 0.39v3.776h0.003z"></path>
</svg>
