<?xml version="1.0" encoding="UTF-8"?>
<svg width="51px" height="46px" viewBox="0 0 51 46" version="1.1" xmlns="http://www.w3.org/2000/svg" xmlns:xlink="http://www.w3.org/1999/xlink">
    <!-- Generator: Sketch 48.2 (47327) - http://www.bohemiancoding.com/sketch -->
    <title>profil</title>
    <desc>Created with Sketch.</desc>
    <defs></defs>
    <g id="Mobile-Bottom-Menu-Bar" stroke="none" stroke-width="1" fill="none" fill-rule="evenodd" transform="translate(-420.000000, -22.000000)">
        <g fill="#000000" fill-rule="nonzero" id="Profil">
            <g transform="translate(420.000000, 22.000000)">
                <path d="M48.9160843,35.3766845 C45.3447013,34.1337956 41.5907025,33.482129 38.5733922,32.9607956 C36.3861536,32.5830178 33.1364232,32.020129 32.6653576,31.4534623 L32.6653576,29.4739067 C39.857928,29.2680178 42.8565617,27.124129 42.9872979,27.0277956 C43.2570712,26.8313512 43.3981834,26.5272401 43.3712061,26.2136845 C43.3421536,25.9020178 43.1470867,25.6243512 42.8461858,25.4694623 C40.9743743,24.5099067 39.5632526,17.6815734 39.1627431,13.2162401 C39.1627431,7.13968451 34.049502,0.583351181 25.7882144,0.583351181 C18.4151034,0.583351181 12.415761,6.25001785 12.4178361,13.1406845 C12.0152514,17.6815734 10.6041297,24.5099067 8.73024305,25.4694623 C8.4293421,25.6224623 8.23427527,25.9020178 8.20522276,26.2136845 C8.17409508,26.5272401 8.31728243,26.8313512 8.58498052,27.0296845 C8.71364162,27.124129 11.7164256,29.2680178 18.908996,29.4739067 L18.908996,31.4534623 C18.4400056,32.0163512 15.1923504,32.5792401 13.0092621,32.9570178 C9.9898767,33.4802401 6.23172754,34.1319067 2.6582693,35.3766845 C1.59370248,35.7487956 0.904743051,36.661129 0.904743051,37.7000178 L0.904743051,43.1267956 C0.904743051,44.5000178 2.12702348,45.6144623 3.63152825,45.6144623 L47.9428254,45.6144623 C49.4473302,45.6144623 50.6696106,44.498129 50.6696106,43.1267956 L50.6696106,37.7000178 C50.6696106,36.6743512 49.9640497,35.7412401 48.9160843,35.3766845 Z M48.5944316,43.1267956 C48.5944316,43.4573512 48.3018314,43.7255734 47.9428254,43.7255734 L3.63152825,43.7255734 C3.27252229,43.7255734 2.97992205,43.4554623 2.97992205,43.1267956 L2.97992205,37.7000178 C2.97992205,37.4487956 3.14593637,37.2277956 3.40118339,37.1390178 C6.80240176,35.9546845 10.4588672,35.3200178 13.3973206,34.8119067 C17.5912574,34.0846845 20.3595462,33.6049067 20.9364459,31.9389067 C20.9675736,31.8463512 20.984175,31.7500178 20.984175,31.6555734 L20.984175,28.5464623 C20.984175,28.0270178 20.5214101,27.6039067 19.9486607,27.6020178 C15.221403,27.5887956 12.3452049,26.699129 10.9403087,26.0965734 C13.4969292,22.9515734 14.329076,15.0276845 14.4867896,13.2162401 C14.4867896,7.29079563 19.5543767,2.47224007 25.7840641,2.47224007 C32.762891,2.47224007 37.0834137,8.05012896 37.0875641,13.2936845 C37.2411273,15.0409067 38.0753493,22.9553512 40.6298946,26.0984623 C39.2229232,26.7010178 36.3488003,27.5906845 31.6236178,27.6020178 C31.0508683,27.6039067 30.5881034,28.0270178 30.5881034,28.5464623 L30.5881034,31.6555734 C30.5881034,31.7519067 30.6047049,31.8482401 30.6358325,31.9389067 C31.2106571,33.6086845 33.9851715,34.0884623 38.1832586,34.8137956 C41.1196368,35.3237956 44.7740271,35.9546845 48.1710951,37.137129 C48.4221917,37.2259067 48.5902812,37.4506845 48.5902812,37.698129 L48.5902812,43.1267956 L48.5944316,43.1267956 Z" id="profil"></path>
            </g>
        </g>
    </g>
</svg>