<!-- Generated by IcoMoon.io -->
<svg version="1.1" xmlns="http://www.w3.org/2000/svg" width="32" height="32" viewBox="0 0 32 32">
<title>remove</title>
<path d="M25.92 6.642c-5.48-5.479-14.361-5.478-19.84 0-5.48 5.481-5.481 14.363-0.001 19.843 5.479 5.48 14.363 5.481 19.844 0.001 5.479-5.478 5.477-14.364-0.002-19.844zM21.607 22.174c-0.641 0.642-1.68 0.643-2.32 0.002l-3.291-3.291-3.282 3.283c-0.643 0.643-1.679 0.647-2.323 0.003-0.641-0.642-0.641-1.68 0.003-2.323l3.282-3.283-3.283-3.284c-0.644-0.643-0.639-1.68 0.001-2.32 0.642-0.643 1.677-0.644 2.319 0l3.284 3.283 3.286-3.286c0.643-0.643 1.679-0.641 2.319 0 0.644 0.644 0.643 1.678 0 2.319l-3.286 3.286 3.291 3.291c0.639 0.64 0.641 1.677-0.002 2.319z"></path>
</svg>
