<!-- Generated by IcoMoon.io -->
<svg version="1.1" xmlns="http://www.w3.org/2000/svg" width="32" height="32" viewBox="0 0 32 32">
<title>safety-pin</title>
<path d="M30.115 8.355c0-1.586-0.618-3.078-1.741-4.201-1.127-1.128-2.66-1.736-4.215-1.736-0.657 0-1.316 0.108-1.954 0.332-0.030 0.011-0.057 0.026-0.086 0.040-0.009 0.005-0.020 0.007-0.031 0.012l-17.579 9.669c-0.376 0.207-0.514 0.68-0.306 1.057s0.679 0.514 1.056 0.306l17.511-9.632c1.571-0.528 3.332-0.119 4.504 1.052 0.827 0.829 1.284 1.93 1.284 3.1 0 1.172-0.457 2.272-1.284 3.101-0.828 0.828-1.929 1.284-3.099 1.284-1.172 0-2.272-0.457-3.102-1.285-0.795-0.794-1.249-1.85-1.282-2.973-0.011-0.43-0.375-0.785-0.8-0.755-0.428 0.012-0.768 0.37-0.755 0.8 0.042 1.522 0.66 2.953 1.737 4.029 1.121 1.123 2.613 1.741 4.199 1.741 0.001 0 0.001 0 0.001 0 0.091 0 0.181-0.009 0.273-0.014l-8.783 8.784c0 0-0.001 0-0.001 0.001l-0.002 0.002c-0.204 0.202-0.405 0.294-0.652 0.294-0.982 0-2.449-1.354-3.469-2.372-0.708-0.708-1.703-1.756-2.143-2.659-0.402-0.822-0.207-1.188 0.064-1.461l0.003-0.002c0.303-0.304 0.303-0.797 0-1.1-0.152-0.153-0.351-0.228-0.551-0.228s-0.397 0.075-0.551 0.228l-4.718 4.718c-2.316 2.316-2.316 6.085 0 8.4 1.122 1.122 2.613 1.74 4.199 1.74 1.588 0 3.078-0.618 4.2-1.74l4.658-4.657c0.047-0.037 0.089-0.080 0.126-0.127l11.545-11.545c0 0 0.001-0.001 0.002-0.001 1.122-1.122 1.74-2.613 1.74-4.201zM9.528 26.022c-0.835 0.835-2.187 0.835-3.020 0.001-0.835-0.835-0.835-2.187 0-3.022 0.833-0.834 2.185-0.833 3.020 0.001 0.834 0.835 0.834 2.187 0 3.020z"></path>
</svg>
