<!-- Generated by IcoMoon.io -->
<svg version="1.1" xmlns="http://www.w3.org/2000/svg" width="32" height="32" viewBox="0 0 32 32">
<title>settings-control-panel</title>
<path d="M4.402 14.561v15.407c0 0.395 0.339 0.734 0.734 0.734h0.79c0.395 0 0.734-0.339 0.734-0.734v-15.407h-2.258z"></path>
<path d="M6.716 4.571v-1.016c0-0.395-0.339-0.734-0.734-0.734h-0.79c-0.395 0-0.734 0.339-0.734 0.734v1.016h2.258z"></path>
<path d="M8.183 6.095h-5.192c-0.339 0-0.564 0.226-0.564 0.452v6.039c0 0.282 0.226 0.451 0.564 0.451h5.192c0.339 0 0.564-0.226 0.564-0.451v-6.039c0-0.282-0.282-0.452-0.564-0.452z"></path>
<path d="M15.012 26.413v3.556c0 0.395 0.339 0.734 0.734 0.734h0.79c0.395 0 0.734-0.339 0.734-0.734v-3.556h-2.258z"></path>
<path d="M17.326 16.423v-12.868c0-0.395-0.339-0.734-0.734-0.734h-0.79c-0.395 0-0.734 0.339-0.734 0.734v12.868c-0.056 0 2.257 0 2.257 0z"></path>
<path d="M18.794 17.947h-5.192c-0.339 0-0.564 0.226-0.564 0.451v6.039c0 0.282 0.282 0.451 0.564 0.451h5.192c0.339 0 0.564-0.226 0.564-0.451v-6.039c0-0.282-0.282-0.451-0.564-0.451z"></path>
<path d="M27.936 8.748v-5.192c0-0.395-0.339-0.734-0.734-0.734h-0.79c-0.395 0-0.734 0.339-0.734 0.734v5.192c-0.056 0 2.258 0 2.258 0z"></path>
<path d="M25.623 18.737v11.231c0 0.395 0.339 0.734 0.734 0.734h0.79c0.395 0 0.734-0.339 0.734-0.734v-11.231c0.056 0-2.258 0-2.258 0z"></path>
<path d="M29.291 10.272h-5.192c-0.339 0-0.564 0.226-0.564 0.451v5.982c0 0.282 0.282 0.451 0.564 0.451h5.192c0.339 0 0.564-0.226 0.564-0.451v-5.982c0-0.226-0.226-0.451-0.564-0.451z"></path>
</svg>
