<!-- Generated by IcoMoon.io -->
<svg version="1.1" xmlns="http://www.w3.org/2000/svg" width="32" height="32" viewBox="0 0 32 32">
<title>smiley-2</title>
<path d="M16.036-0.004c-8.69 0-15.76 7.069-15.76 15.759s7.070 15.759 15.76 15.759c8.689 0 15.759-7.069 15.759-15.759s-7.070-15.759-15.759-15.759zM16.036 29.245c-7.439 0-13.491-6.052-13.491-13.491s6.052-13.491 13.491-13.491c7.439 0 13.49 6.052 13.49 13.491s-6.051 13.491-13.49 13.491z"></path>
<path d="M13.7 11.92c0 1.575-1.277 2.852-2.852 2.852s-2.852-1.277-2.852-2.852c0-1.575 1.277-2.852 2.852-2.852s2.852 1.277 2.852 2.852z"></path>
<path d="M24.076 11.921c0 1.575-1.277 2.852-2.852 2.852s-2.852-1.277-2.852-2.852c0-1.575 1.277-2.852 2.852-2.852s2.852 1.277 2.852 2.852z"></path>
<path d="M16.034 23.551c2.661 0 5.057-1.581 6.104-4.029 0.246-0.575-0.020-1.242-0.596-1.489s-1.242 0.020-1.489 0.597c-0.69 1.612-2.266 2.653-4.019 2.653-1.751 0-3.327-1.042-4.017-2.653-0.184-0.43-0.602-0.689-1.043-0.689-0.148 0-0.3 0.030-0.446 0.092-0.575 0.246-0.842 0.913-0.596 1.489 1.046 2.448 3.441 4.029 6.102 4.029z"></path>
</svg>
