<!-- Generated by IcoMoon.io -->
<svg version="1.1" xmlns="http://www.w3.org/2000/svg" width="32" height="32" viewBox="0 0 32 32">
<title>smiley-sad</title>
<path d="M15.836 2.254c-7.664 0-13.899 6.234-13.899 13.898s6.235 13.899 13.899 13.899c7.663 0 13.898-6.235 13.898-13.899s-6.235-13.898-13.898-13.898zM15.836 28.051c-6.561 0-11.898-5.338-11.898-11.898s5.338-11.898 11.898-11.898c6.561 0 11.897 5.337 11.897 11.898s-5.337 11.898-11.897 11.898z"></path>
<path d="M13.776 12.771c0 1.389-1.126 2.515-2.515 2.515s-2.515-1.126-2.515-2.515c0-1.389 1.126-2.515 2.515-2.515s2.515 1.126 2.515 2.515z"></path>
<path d="M22.927 12.771c0 1.389-1.126 2.515-2.515 2.515s-2.515-1.126-2.515-2.515c0-1.389 1.126-2.515 2.515-2.515s2.515 1.126 2.515 2.515z"></path>
<path d="M15.836 18.080c-2.347 0-4.46 1.395-5.383 3.554-0.217 0.507 0.018 1.096 0.526 1.313s1.096-0.018 1.313-0.527c0.608-1.421 1.999-2.34 3.544-2.34 1.544 0 2.935 0.919 3.543 2.34 0.162 0.379 0.531 0.607 0.919 0.607 0.131 0 0.265-0.027 0.393-0.081 0.507-0.217 0.743-0.805 0.526-1.313-0.922-2.159-3.035-3.553-5.382-3.553z"></path>
</svg>
