<!-- Generated by IcoMoon.io -->
<svg version="1.1" xmlns="http://www.w3.org/2000/svg" width="32" height="32" viewBox="0 0 32 32">
<title>smiley-1</title>
<path d="M15.925 2.254c-7.664 0-13.898 6.234-13.898 13.898s6.234 13.899 13.898 13.899 13.899-6.235 13.899-13.899c0-7.664-6.235-13.898-13.899-13.898zM15.925 28.051c-6.561 0-11.897-5.338-11.897-11.898s5.337-11.898 11.897-11.898c6.561 0 11.898 5.337 11.898 11.898s-5.337 11.898-11.898 11.898z"></path>
<path d="M13.866 14.371c0 1.389-1.126 2.516-2.516 2.516s-2.516-1.126-2.516-2.516c0-1.389 1.126-2.516 2.516-2.516s2.516 1.126 2.516 2.516z"></path>
<path d="M23.017 14.372c0 1.389-1.126 2.516-2.516 2.516s-2.516-1.126-2.516-2.516c0-1.389 1.126-2.516 2.516-2.516s2.516 1.126 2.516 2.516z"></path>
<path d="M19.358 20.29h-6.864c-0.553 0-1.001 0.448-1.001 1s0.448 1 1.001 1h6.864c0.553 0 1-0.448 1-1s-0.447-1-1-1z"></path>
</svg>
