<!-- Generated by IcoMoon.io -->
<svg version="1.1" xmlns="http://www.w3.org/2000/svg" width="32" height="32" viewBox="0 0 32 32">
<title>smiley-happy</title>
<path d="M15.925 2.254c-7.664 0-13.898 6.234-13.898 13.898s6.234 13.899 13.898 13.899c7.664 0 13.898-6.235 13.898-13.899s-6.234-13.898-13.898-13.898zM15.925 28.051c-6.561 0-11.898-5.338-11.898-11.898s5.338-11.898 11.898-11.898c6.561 0 11.897 5.337 11.897 11.898s-5.336 11.898-11.897 11.898z"></path>
<path d="M13.866 12.771c0 1.389-1.126 2.515-2.515 2.515s-2.515-1.126-2.515-2.515c0-1.389 1.126-2.515 2.515-2.515s2.515 1.126 2.515 2.515z"></path>
<path d="M23.016 12.771c0 1.389-1.126 2.515-2.515 2.515s-2.515-1.126-2.515-2.515c0-1.389 1.126-2.515 2.515-2.515s2.515 1.126 2.515 2.515z"></path>
<path d="M21.9 19.082h-11.95c-0.336 0-0.65 0.169-0.836 0.449-0.184 0.281-0.216 0.636-0.084 0.944 1.182 2.766 3.888 4.552 6.895 4.552s5.713-1.786 6.896-4.552c0.132-0.309 0.1-0.664-0.085-0.944s-0.5-0.449-0.837-0.449zM15.925 23.027c-1.645 0-3.168-0.73-4.196-1.944h8.392c-1.027 1.214-2.55 1.944-4.195 1.944z"></path>
</svg>
