<!-- Generated by IcoMoon.io -->
<svg version="1.1" xmlns="http://www.w3.org/2000/svg" width="32" height="32" viewBox="0 0 32 32">
<title>smiley_3</title>
<path d="M16 0c-8.823 0-16 7.177-16 16s7.177 16 16 16 16-7.177 16-16-7.177-16-16-16zM16 30.667c-8.087 0-14.667-6.58-14.667-14.667s6.58-14.667 14.667-14.667 14.667 6.58 14.667 14.667-6.58 14.667-14.667 14.667zM26 16.667h-20c-0.368 0-0.667 0.299-0.667 0.667 0 5.881 4.785 10.667 10.667 10.667s10.667-4.785 10.667-10.667c0-0.368-0.299-0.667-0.667-0.667zM16 26.667c-4.921 0-8.967-3.831-9.309-8.667h18.62c-0.344 4.836-4.389 8.667-9.311 8.667zM7.333 14c0.368 0 0.667-0.299 0.667-0.667 0-1.103 0.897-2 2-2s2 0.897 2 2c0 0.368 0.299 0.667 0.667 0.667s0.667-0.299 0.667-0.667c0-1.839-1.496-3.333-3.333-3.333s-3.333 1.495-3.333 3.333c0 0.368 0.299 0.667 0.667 0.667zM19.333 14c0.368 0 0.667-0.299 0.667-0.667 0-1.103 0.897-2 2-2s2 0.897 2 2c0 0.368 0.299 0.667 0.667 0.667s0.667-0.299 0.667-0.667c0-1.839-1.496-3.333-3.333-3.333s-3.333 1.495-3.333 3.333c0 0.368 0.299 0.667 0.667 0.667z"></path>
</svg>
