<!-- Generated by IcoMoon.io -->
<svg version="1.1" xmlns="http://www.w3.org/2000/svg" width="32" height="32" viewBox="0 0 32 32">
<title>smiley_0</title>
<path d="M16 18.396c-3.908 0-7.363 1.985-9.24 5.312-0.181 0.321-0.068 0.728 0.253 0.909 0.104 0.059 0.216 0.085 0.327 0.085 0.232 0 0.459-0.123 0.581-0.339 1.637-2.903 4.657-4.635 8.079-4.635 3.544 0 6.591 1.721 8.152 4.604 0.175 0.324 0.581 0.444 0.904 0.268 0.324-0.175 0.444-0.58 0.268-0.904-1.797-3.32-5.283-5.301-9.324-5.301zM9.667 14c1.471 0 2.667-1.197 2.667-2.667s-1.196-2.667-2.667-2.667-2.667 1.197-2.667 2.667 1.196 2.667 2.667 2.667zM9.667 10c0.735 0 1.333 0.597 1.333 1.333s-0.599 1.333-1.333 1.333-1.333-0.597-1.333-1.333 0.599-1.333 1.333-1.333zM21.667 14c1.471 0 2.667-1.197 2.667-2.667s-1.196-2.667-2.667-2.667-2.667 1.197-2.667 2.667 1.196 2.667 2.667 2.667zM21.667 10c0.735 0 1.333 0.597 1.333 1.333s-0.599 1.333-1.333 1.333-1.333-0.597-1.333-1.333 0.599-1.333 1.333-1.333zM16 0c-8.823 0-16 7.177-16 16s7.177 16 16 16 16-7.177 16-16-7.177-16-16-16zM16 30.667c-8.087 0-14.667-6.58-14.667-14.667s6.58-14.667 14.667-14.667 14.667 6.58 14.667 14.667-6.58 14.667-14.667 14.667z"></path>
</svg>
