<!-- Generated by IcoMoon.io -->
<svg version="1.1" xmlns="http://www.w3.org/2000/svg" width="32" height="32" viewBox="0 0 32 32">
<title>smiley-3</title>
<path d="M16.137-0.004c-8.69 0-15.759 7.069-15.759 15.759s7.069 15.759 15.759 15.759c8.69 0 15.759-7.069 15.759-15.759s-7.068-15.759-15.759-15.759zM16.137 29.245c-7.439 0-13.491-6.052-13.491-13.491s6.052-13.491 13.491-13.491c7.439 0 13.49 6.052 13.49 13.491s-6.051 13.491-13.49 13.491z"></path>
<path d="M10.934 9.107c-1.533 0-2.914 0.911-3.517 2.322-0.142 0.332 0.011 0.716 0.344 0.858s0.716-0.012 0.858-0.344c0.398-0.928 1.306-1.529 2.315-1.529s1.917 0.6 2.315 1.529c0.106 0.248 0.347 0.397 0.601 0.397 0.086 0 0.173-0.017 0.257-0.053 0.331-0.142 0.485-0.526 0.344-0.858-0.602-1.41-1.983-2.321-3.516-2.321z"></path>
<path d="M21.197 9.107c-1.533 0-2.914 0.911-3.517 2.322-0.142 0.332 0.011 0.716 0.344 0.858s0.716-0.012 0.858-0.344c0.398-0.928 1.306-1.529 2.315-1.529s1.917 0.6 2.315 1.529c0.106 0.248 0.347 0.397 0.601 0.397 0.086 0 0.173-0.017 0.257-0.053 0.331-0.142 0.485-0.526 0.344-0.858-0.602-1.41-1.983-2.321-3.516-2.321z"></path>
<path d="M22.912 19.076h-13.549c-0.381 0-0.737 0.191-0.948 0.509-0.209 0.318-0.245 0.721-0.095 1.071 1.34 3.136 4.409 5.161 7.818 5.161s6.477-2.025 7.819-5.161c0.15-0.35 0.114-0.753-0.096-1.071s-0.567-0.509-0.948-0.509zM16.137 23.549c-1.865 0-3.592-0.828-4.758-2.204h9.515c-1.164 1.376-2.891 2.204-4.757 2.204z"></path>
</svg>
