<!-- Generated by IcoMoon.io -->
<svg version="1.1" xmlns="http://www.w3.org/2000/svg" width="32" height="32" viewBox="0 0 32 32">
<title>smiley_2</title>
<path d="M11.333 8.667c-1.471 0-2.667 1.197-2.667 2.667s1.196 2.667 2.667 2.667 2.667-1.197 2.667-2.667-1.196-2.667-2.667-2.667zM11.333 12.667c-0.735 0-1.333-0.597-1.333-1.333s0.599-1.333 1.333-1.333 1.333 0.597 1.333 1.333-0.599 1.333-1.333 1.333zM20.667 14c1.471 0 2.667-1.197 2.667-2.667s-1.196-2.667-2.667-2.667-2.667 1.197-2.667 2.667 1.196 2.667 2.667 2.667zM20.667 10c0.735 0 1.333 0.597 1.333 1.333s-0.599 1.333-1.333 1.333-1.333-0.597-1.333-1.333 0.599-1.333 1.333-1.333zM23.78 20.491c-1.736 2.615-4.644 4.176-7.78 4.176-0.368 0-0.667 0.299-0.667 0.667s0.299 0.667 0.667 0.667c3.584 0 6.907-1.784 8.891-4.772 0.204-0.307 0.12-0.72-0.187-0.924-0.308-0.203-0.721-0.12-0.924 0.187zM16 0c-8.823 0-16 7.177-16 16s7.177 16 16 16 16-7.177 16-16-7.177-16-16-16zM16 30.667c-8.087 0-14.667-6.58-14.667-14.667s6.58-14.667 14.667-14.667 14.667 6.58 14.667 14.667-6.58 14.667-14.667 14.667z"></path>
</svg>
