<!-- Generated by IcoMoon.io -->
<svg version="1.1" xmlns="http://www.w3.org/2000/svg" width="32" height="32" viewBox="0 0 32 32">
<title>spital</title>
<path d="M27.506 12.59l-7.49-1.837c-0.184-0.045-0.368-0.050-0.545-0.027v-5.986c0.403-0.326 0.63-0.846 0.545-1.394-0.128-0.819-0.897-1.38-1.714-1.253l-14.252 2.218c-0.82 0.128-1.38 0.895-1.253 1.714 0.060 0.386 0.264 0.711 0.546 0.937v22.407c0 0.517 0.419 0.937 0.938 0.937h22.701c0.518 0 0.938-0.42 0.938-0.937v-14.037c0.331-0.199 0.589-0.522 0.689-0.927 0.197-0.805-0.296-1.617-1.101-1.815zM5.218 7.168l12.378-1.926v23.19h-4.732v-4.697h-2.914v4.697h-4.732v-21.264zM26.042 28.432h-2.421v-2.401h-1.728v2.401h-2.421v-14.529l6.571 1.479v13.050z"></path>
<path d="M9.95 7.932h2.914v2.84h-2.914v-2.84z"></path>
<path d="M9.95 13.067h2.914v2.843h-2.914v-2.843z"></path>
<path d="M9.95 18.203h2.914v2.84h-2.914v-2.84z"></path>
<path d="M21.892 16.443h1.728v1.683h-1.728v-1.683z"></path>
<path d="M21.892 19.486h1.728v1.683h-1.728v-1.683z"></path>
<path d="M21.892 22.529h1.728v1.683h-1.728v-1.683z"></path>
</svg>
