<!-- Generated by IcoMoon.io -->
<svg version="1.1" xmlns="http://www.w3.org/2000/svg" width="27" height="32" viewBox="0 0 27 32">
<title>stethoscope</title>
<path d="M27.327 13.959c0-1.793-1.459-3.253-3.253-3.253s-3.253 1.46-3.253 3.253c0 1.571 1.119 2.885 2.603 3.188v8.523c0 1.076-0.876 1.952-1.952 1.952s-1.952-0.876-1.952-1.952v-3.902c0-2.154-1.752-3.905-3.904-3.905s-3.904 1.752-3.904 3.904v6.506c0 1.076-0.876 1.952-1.952 1.952s-1.952-0.876-1.952-1.952v-9.141c3.642-0.331 6.506-3.398 6.506-7.124v-6.506c0-1.571-1.119-2.885-2.603-3.188v-1.366c0-0.359-0.291-0.651-0.651-0.651-1.046 0-2.603 0.694-2.603 2.603s1.556 2.603 2.603 2.603c0.359 0 0.651-0.291 0.651-0.651v-1.182c0.756 0.269 1.301 0.985 1.301 1.832v6.506c0 3.228-2.627 5.856-5.856 5.856s-5.856-2.627-5.856-5.856v-6.506c0-0.847 0.545-1.563 1.301-1.832v1.182c0 0.359 0.291 0.651 0.651 0.651 1.046 0 2.603-0.694 2.603-2.603s-1.556-2.603-2.603-2.603c-0.359 0-0.651 0.291-0.651 0.651v1.368c-1.483 0.302-2.603 1.616-2.603 3.187v6.506c0 3.727 2.864 6.794 6.506 7.124v9.141c0 1.793 1.459 3.253 3.253 3.253s3.253-1.46 3.253-3.253v-6.506c0-1.435 1.169-2.603 2.603-2.603s2.603 1.169 2.603 2.604v3.902c0 1.793 1.459 3.253 3.253 3.253s3.253-1.46 3.253-3.253v-8.523c1.483-0.303 2.603-1.617 2.603-3.188zM10.41 4.056c-0.328-0.156-0.651-0.483-0.651-1.158 0-0.671 0.319-0.998 0.651-1.156v2.314zM3.904 1.74c0.328 0.156 0.651 0.483 0.651 1.158 0 0.67-0.317 0.997-0.651 1.156v-2.314zM24.073 15.911c-1.076 0-1.952-0.876-1.952-1.952s0.876-1.952 1.952-1.952c1.076 0 1.952 0.876 1.952 1.952s-0.876 1.952-1.952 1.952z"></path>
</svg>
