<?xml version="1.0" encoding="UTF-8"?>
<svg width="41px" height="48px" viewBox="0 0 41 48" version="1.1" xmlns="http://www.w3.org/2000/svg" xmlns:xlink="http://www.w3.org/1999/xlink">
    <!-- Generator: Sketch 48.2 (47327) - http://www.bohemiancoding.com/sketch -->
    <title>stethoscope</title>
    <desc>Created with Sketch.</desc>
    <defs></defs>
    <g id="Mobile-Bottom-Menu-Bar" stroke="none" stroke-width="1" fill="none" fill-rule="evenodd" transform="translate(-171.000000, -22.000000)">
        <g fill="#000000" fill-rule="nonzero" id="Über-uns">
            <g transform="translate(162.000000, 22.000000)">
                <g id="stethoscope" transform="translate(9.000000, 0.365796)">
                    <path d="M40.9899535,20.5721462 C40.9899535,17.8824245 38.8018707,15.6923898 36.1101971,15.6923898 C33.4185235,15.6923898 31.2304407,17.8824245 31.2304407,20.5721462 C31.2304407,22.9280926 32.9090769,24.8995141 35.1342458,25.3543074 L35.1342458,38.1392691 C35.1342458,39.7534925 33.8206154,41.0671229 32.206392,41.0671229 C30.5921686,41.0671229 29.2785382,39.7534925 29.2785382,38.1392691 L29.2785382,32.2855134 C29.2785382,29.0551146 26.6512774,26.4278538 23.4228305,26.4278538 C20.1943837,26.4278538 17.5671229,29.0551146 17.5671229,32.2835615 L17.5671229,42.0430742 C17.5671229,43.6572976 16.2534925,44.970928 14.6392691,44.970928 C13.0250457,44.970928 11.7114153,43.6572976 11.7114153,42.0430742 L11.7114153,28.3309588 C17.1747905,27.8351756 21.470928,23.2345413 21.470928,17.6442924 L21.470928,7.88477963 C21.470928,5.52883326 19.7922918,3.55741169 17.5671229,3.1026184 L17.5671229,1.05312072 C17.5671229,0.514395622 17.1298967,0.0771694517 16.5911716,0.0771694517 C15.021842,0.0771694517 12.6873665,1.11753351 12.6873665,3.98097454 C12.6873665,6.84441558 15.021842,7.88477963 16.5911716,7.88477963 C17.1298967,7.88477963 17.5671229,7.44755346 17.5671229,6.90882836 L17.5671229,5.13650085 C18.7011783,5.54054468 19.5190255,6.61409108 19.5190255,7.88477963 L19.5190255,17.6442924 C19.5190255,22.4869626 15.5781342,26.4278538 10.735464,26.4278538 C5.89279379,26.4278538 1.95190255,22.4869626 1.95190255,17.6442924 L1.95190255,7.88477963 C1.95190255,6.61409108 2.76974971,5.54054468 3.90380509,5.13650085 L3.90380509,6.90882836 C3.90380509,7.44755346 4.34103126,7.88477963 4.87975636,7.88477963 C6.44908601,7.88477963 8.78356146,6.84441558 8.78356146,3.98097454 C8.78356146,1.11753351 6.44908601,0.0771694517 4.87975636,0.0771694517 C4.34103126,0.0771694517 3.90380509,0.514395622 3.90380509,1.05312072 L3.90380509,3.1045703 C1.67863619,3.55741169 0,5.52883326 0,7.88477963 L0,17.6442924 C0,23.2345413 4.2961375,27.8351756 9.75951273,28.3309588 L9.75951273,42.0430742 C9.75951273,44.7327959 11.9475955,46.9228305 14.6392691,46.9228305 C17.3309427,46.9228305 19.5190255,44.7327959 19.5190255,42.0430742 L19.5190255,32.2835615 C19.5190255,30.1306129 21.2718339,28.3797564 23.4228305,28.3797564 C25.5738272,28.3797564 27.3266356,30.1325649 27.3266356,32.2855134 L27.3266356,38.1392691 C27.3266356,40.8289908 29.5147184,43.0190255 32.206392,43.0190255 C34.8980656,43.0190255 37.0861484,40.8289908 37.0861484,38.1392691 L37.0861484,25.3543074 C39.3113173,24.8995141 40.9899535,22.9280926 40.9899535,20.5721462 Z M15.6152204,5.71816781 C15.1233409,5.4839395 14.6392691,4.99401196 14.6392691,3.98097454 C14.6392691,2.97379283 15.1174852,2.48386529 15.6152204,2.24768508 L15.6152204,5.71816781 Z M5.85570764,2.24378128 C6.34758708,2.47800958 6.83165891,2.96793712 6.83165891,3.98097454 C6.83165891,4.98620435 6.35539469,5.47613189 5.85570764,5.714264 L5.85570764,2.24378128 Z M36.1101971,23.5 C34.4959737,23.5 33.1823433,22.1863696 33.1823433,20.5721462 C33.1823433,18.9579228 34.4959737,17.6442924 36.1101971,17.6442924 C37.7244205,17.6442924 39.0380509,18.9579228 39.0380509,20.5721462 C39.0380509,22.1863696 37.7244205,23.5 36.1101971,23.5 Z"></path>
                </g>
            </g>
        </g>
    </g>
</svg>