<!-- Generated by IcoMoon.io -->
<svg version="1.1" xmlns="http://www.w3.org/2000/svg" width="32" height="32" viewBox="0 0 32 32">
<title>success-check</title>
<path d="M25.92 6.642c-5.48-5.479-14.361-5.478-19.84 0-5.48 5.481-5.481 14.363-0.001 19.843 5.479 5.48 14.363 5.481 19.844 0.001 5.479-5.478 5.477-14.364-0.002-19.844zM22.809 12.275l-7.955 10.416c-0.255 0.334-0.642 0.531-1.060 0.54h-0.032c-0.407 0-0.789-0.177-1.049-0.487l-3.408-4.030c-0.236-0.279-0.349-0.635-0.319-1.001 0.031-0.366 0.202-0.698 0.481-0.935 0.54-0.458 1.482-0.377 1.937 0.162l2.305 2.724 6.916-9.058c0.43-0.562 1.361-0.689 1.926-0.258 0.292 0.223 0.479 0.546 0.528 0.91s-0.047 0.725-0.27 1.017z"></path>
</svg>
