<!-- Generated by IcoMoon.io -->
<svg version="1.1" xmlns="http://www.w3.org/2000/svg" width="32" height="32" viewBox="0 0 32 32">
<title>support</title>
<path d="M16.367 2.653c-7.563 0-13.771 6.152-13.771 13.771 0 7.563 6.152 13.771 13.771 13.771 7.563 0 13.714-6.152 13.714-13.771 0.056-7.619-6.095-13.771-13.714-13.771zM27.485 11.344l-5.813 2.145c-0.564-1.016-1.411-1.862-2.427-2.427l2.145-5.813c2.709 1.242 4.854 3.443 6.095 6.095zM16.367 20.882c-2.483 0-4.459-2.032-4.459-4.459 0-2.483 2.032-4.459 4.459-4.459 2.483 0 4.459 2.032 4.459 4.459 0.056 2.427-1.975 4.459-4.459 4.459zM11.344 5.305l2.145 5.813c-1.016 0.564-1.862 1.411-2.427 2.427l-5.813-2.145c1.242-2.709 3.443-4.91 6.095-6.095zM5.305 21.446l5.813-2.145c0.564 1.016 1.411 1.862 2.427 2.427l-2.145 5.813c-2.709-1.298-4.91-3.443-6.095-6.095zM21.446 27.485l-2.145-5.813c1.016-0.564 1.862-1.411 2.427-2.427l5.813 2.145c-1.298 2.709-3.443 4.854-6.095 6.095z"></path>
</svg>
