<!-- Generated by IcoMoon.io -->
<svg version="1.1" xmlns="http://www.w3.org/2000/svg" width="32" height="32" viewBox="0 0 32 32">
<title>trash</title>
<path fill="#474a56" d="M11.591 25.693c0.389 0 0.704-0.315 0.704-0.704v-12.391c0-0.389-0.316-0.704-0.704-0.704s-0.702 0.316-0.702 0.704v12.391c0 0.389 0.314 0.704 0.702 0.704z"></path>
<path fill="#474a56" d="M15.97 25.693c0.388 0 0.704-0.315 0.704-0.704v-12.391c0-0.389-0.317-0.704-0.704-0.704s-0.703 0.316-0.703 0.704v12.391c0 0.389 0.315 0.704 0.703 0.704z"></path>
<path fill="#474a56" d="M20.348 25.693c0.388 0 0.703-0.315 0.703-0.704v-12.391c0-0.389-0.316-0.704-0.703-0.704-0.389 0-0.703 0.316-0.703 0.704v12.391c0 0.389 0.314 0.704 0.703 0.704z"></path>
<path fill="#474a56" d="M26.424 6.117h-5.070v-1.503c0-1.148-0.934-2.081-2.082-2.081h-6.606c-1.149 0-2.081 0.933-2.081 2.081v1.503h-5.072c-0.777 0-1.407 0.629-1.407 1.407s0.629 1.407 1.407 1.407h0.884v20.509c0 0.647 0.525 1.172 1.172 1.172h16.799c0.647 0 1.172-0.524 1.172-1.172v-20.509h0.883c0.777 0 1.407-0.63 1.407-1.407s-0.629-1.407-1.406-1.407zM12.462 4.614c0-0.114 0.090-0.207 0.205-0.207h6.606c0.113 0 0.206 0.093 0.206 0.207v1.503h-7.017v-1.503zM23.196 28.267h-14.453v-19.336h14.453v19.336z"></path>
</svg>
