<!-- Generated by IcoMoon.io -->
<svg version="1.1" xmlns="http://www.w3.org/2000/svg" width="32" height="32" viewBox="0 0 32 32">
<title>undo-back</title>
<path d="M12.768 7.876c-0.023-0.002-0.043 0.007-0.065 0.007l-0.001-1.637v-1.667c0-0.094-0.015-0.185-0.038-0.273-0.007-0.025-0.015-0.049-0.021-0.073-0.024-0.068-0.052-0.132-0.086-0.195-0.011-0.019-0.019-0.038-0.030-0.056-0.043-0.068-0.093-0.133-0.15-0.191-0.005-0.005-0.010-0.007-0.015-0.011-0.078-0.076-0.166-0.143-0.266-0.194-0.373-0.191-0.821-0.156-1.159 0.090l-8.486 7.444c-0.288 0.209-0.459 0.545-0.459 0.901 0.001 0.357 0.172 0.691 0.459 0.9l8.487 7.444c0.207 0.151 0.455 0.211 0.701 0.201h0.002c0.074-0.004 0.147-0.010 0.219-0.029 0.081-0.017 0.161-0.043 0.237-0.082 0.373-0.19 0.608-0.574 0.608-0.992l-0.001-3.421c6.874 0.452 11.859 3.391 11.859 6.998 0 2.135-1.726 4.174-4.736 5.594-0.309 0.146-0.449 0.509-0.318 0.824 0.102 0.247 0.34 0.396 0.592 0.396 0.072 0 0.145-0.012 0.216-0.037 6.124-2.193 9.781-5.981 9.781-10.132 0-5.831-7.288-10.797-17.328-11.811z"></path>
</svg>
