<!-- Generated by IcoMoon.io -->
<svg version="1.1" xmlns="http://www.w3.org/2000/svg" width="32" height="32" viewBox="0 0 32 32">
<title>user-woman</title>
<path d="M29.265 25.299c-4.514-1.745-9.526-1.653-9.947-3.003v-2.030c4.509-0.013 6.297-1.47 6.297-1.47-1.881-1.069-2.478-8.536-2.478-8.536 0-2.285-0.96-4.33-2.473-5.728-0.571-0.663-1.355-1.162-2.366-1.459-0.756-0.281-1.567-0.442-2.415-0.442-0.901 0-1.759 0.181-2.555 0.497-0.817 0.27-1.485 0.678-2.007 1.205-1.641 1.398-2.692 3.533-2.692 5.928 0 0-0.597 7.467-2.478 8.536 0 0 1.789 1.457 6.297 1.47v2.029c-0.42 1.348-5.433 1.258-9.947 3.003-0.385 0.15-0.639 0.524-0.639 0.942v3.541c0 0.556 0.445 1.008 0.993 1.008h26.056c0.549 0 0.993-0.452 0.993-1.008v-3.541c0-0.419-0.255-0.794-0.64-0.942z"></path>
</svg>
