<!-- Generated by IcoMoon.io -->
<svg version="1.1" xmlns="http://www.w3.org/2000/svg" width="32" height="32" viewBox="0 0 32 32">
<title>woman-user</title>
<path d="M29.351 26.745c-0.199-1.431-0.966-2.652-2.061-3.449l-0.015-0.010c0.926-0.561 1.666-1.345 2.16-2.279l0.015-0.032c0.046-0.1 0.074-0.217 0.074-0.34 0-0.228-0.092-0.434-0.242-0.584l-1.588-1.588c-1.083-1.076-1.753-2.567-1.753-4.214 0-0.007 0-0.015 0-0.022v0.001-4.291c0-5.489-4.45-9.938-9.938-9.938s-9.938 4.45-9.938 9.938v0 4.291c0 0.006 0 0.014 0 0.021 0 1.647-0.67 3.137-1.752 4.213l-0 0-1.594 1.571c-0.147 0.149-0.238 0.354-0.238 0.58 0 0.12 0.026 0.234 0.072 0.337l-0.002-0.005c0.506 0.972 1.245 1.761 2.146 2.312l0.026 0.015c-1.112 0.811-1.879 2.039-2.070 3.449l-0.003 0.026-0.257 1.951c-0.016 0.114-0.025 0.246-0.025 0.38 0 1.613 1.308 2.921 2.921 2.921 0.001 0 0.001 0 0.002 0h21.421c0 0 0.001 0 0.002 0 1.613 0 2.921-1.308 2.921-2.921 0-0.134-0.009-0.266-0.026-0.395l0.002 0.015zM5.474 19.626c1.382-1.375 2.238-3.279 2.238-5.382 0-0.007 0-0.015-0-0.022v0.001-4.291c0-4.577 3.711-8.288 8.288-8.288s8.288 3.711 8.288 8.288v0 4.291c0 0.006-0 0.014-0 0.021 0 2.104 0.855 4.007 2.238 5.382l1.129 1.129c-0.534 0.734-1.287 1.28-2.162 1.544l-0.029 0.008c-0.043 0.014-0.079 0.028-0.114 0.045l0.005-0.002-4.71-1.98v-1.462c1.221-1.165 1.98-2.804 1.98-4.621v-3.849q0-0.026 0-0.056l-0.043-0.66c-0.179-2.402-2.17-4.283-4.601-4.288h-0.033c-0 0-0.001 0-0.002 0-0.227 0-0.433 0.092-0.583 0.241v0c-1.922 1.959-4.405 3.361-7.189 3.945l-0.092 0.016c-0.408 0.054-0.72 0.4-0.72 0.818 0 0 0 0 0 0v0 3.829c0.001 1.817 0.76 3.456 1.978 4.619l0.002 0.002v1.449l-4.733 1.98c-0.050-0.031-0.108-0.058-0.169-0.078l-0.006-0.002c-0.869-0.279-1.59-0.811-2.098-1.51l-0.008-0.012zM12.699 17.909c-1.034-0.875-1.687-2.174-1.687-3.625 0-0.002 0-0.004 0-0.006v0-3.165c2.846-0.725 5.299-2.129 7.266-4.031l-0.004 0.004c1.422 0.16 2.532 1.303 2.64 2.726l0.001 0.010 0.043 0.637v3.822c0 0.008 0 0.018 0 0.027 0 1.438-0.64 2.726-1.651 3.595l-0.006 0.005c-0.18 0.152-0.293 0.378-0.294 0.63v3.835c-0.785 0.724-1.838 1.167-2.994 1.167s-2.209-0.444-2.997-1.17l0.003 0.003v-3.835c-0.007-0.256-0.13-0.483-0.318-0.629l-0.002-0.001zM27.668 29.921c-0.231 0.266-0.57 0.432-0.948 0.432-0.003 0-0.007 0-0.010-0h-21.421c-0 0-0.001 0-0.001 0-0.702 0-1.271-0.569-1.271-1.271 0-0.059 0.004-0.118 0.012-0.175l-0.001 0.007 0.257-1.951c0.171-1.229 0.968-2.239 2.054-2.708l0.022-0.009 4.994-2.099v0.574c0 0.219 0.086 0.417 0.225 0.565l-0-0c1.11 1.176 2.679 1.908 4.42 1.908s3.31-0.732 4.417-1.905l0.003-0.003c0.139-0.147 0.224-0.346 0.224-0.564v-0.578l4.994 2.103c1.109 0.478 1.906 1.489 2.074 2.702l0.002 0.018 0.257 1.951c0.008 0.052 0.012 0.111 0.012 0.172 0 0.32-0.12 0.611-0.317 0.833l0.001-0.001z"></path>
</svg>
