<?xml version="1.0" encoding="UTF-8"?>
<svg width="43px" height="43px" viewBox="0 0 43 43" version="1.1" xmlns="http://www.w3.org/2000/svg" xmlns:xlink="http://www.w3.org/1999/xlink">
    <!-- Generator: Sketch 48.2 (47327) - http://www.bohemiancoding.com/sketch -->
    <title>world</title>
    <desc>Created with Sketch.</desc>
    <defs></defs>
    <g id="Mobile-Bottom-Menu-Bar" stroke="none" stroke-width="1" fill="none" fill-rule="evenodd" transform="translate(-37.000000, -26.000000)">
        <g fill="#000000" fill-rule="nonzero" id="Finden">
            <g transform="translate(37.000000, 22.000000)">
                <path d="M11.3358425,27.7790285 C10.7310559,27.5493172 9.9019419,27.2334643 9.67043604,27.0037531 C9.02078395,26.3523063 8.53085294,26.0597834 8.05886813,25.7780282 C7.74660442,25.5913879 7.40742142,25.3885959 6.96056127,25.035056 C6.57471817,24.7281761 6.10811722,24.6599806 5.68458712,24.8430317 C5.34540412,24.9901905 4.30990893,25.435256 3.87202188,30.4063508 C3.82895102,30.899871 4.19325869,31.3359635 4.68677893,31.3790343 C5.18927226,31.4221052 5.6163916,31.0560029 5.65946246,30.5642773 C5.79046965,29.0819219 6.07222484,27.5493172 6.33423922,26.8081396 C6.6339406,27.01811 6.89236575,27.1724472 7.13643394,27.319606 C7.56714251,27.5780312 7.90812013,27.7808231 8.40164037,28.2743433 C8.90233909,28.7750421 9.77452395,29.1088412 10.6951635,29.4587919 C11.0899797,29.6095399 11.6768201,29.8338673 12.0411278,30.0240969 L11.8275681,30.2107373 C10.5318532,31.3108388 9.83374638,32.0645788 8.11629594,37.1020745 C7.95657485,37.57047 8.20602689,38.0801419 8.67621709,38.2416576 C8.7713319,38.2739607 8.87003594,38.2883177 8.96515075,38.2883177 C9.33843152,38.2883177 9.68658761,38.0532226 9.81400557,37.6799418 C11.4489035,32.8883089 11.9962623,32.421708 12.9886867,31.578237 C13.1412293,31.4490245 13.3045396,31.3108388 13.4786177,31.1547069 C14.0618689,30.6288835 14.1067343,30.0976763 14.0403334,29.745931 C13.8572823,28.7409443 12.6889853,28.2958788 11.3358425,27.7790285 Z M37.6736718,17.9857923 C37.1801515,18.0127116 36.7996923,18.4344471 36.8266116,18.9297619 C36.8678878,19.692475 36.0226222,20.5844007 34.4469467,21.4368447 C32.0421572,22.7397382 32.4154379,23.800358 33.3163367,26.3666633 C33.9964973,28.3066465 30.2457435,34.5914024 28.580337,35.9104474 C28.3649827,35.4564088 28.1711639,34.3257988 28.1550123,33.3297852 C28.1550123,29.8141265 28.1550123,24.5038487 23.4818243,22.721792 C22.1717524,22.2210933 20.3861064,21.576825 19.332665,21.3471138 C19.2626749,21.3327568 19.0760345,21.2914806 19.0257852,20.8661559 C18.9450273,20.1716383 19.3577897,19.1881871 20.100762,18.8328525 C20.515319,18.6354444 20.7934849,18.6695422 21.0878025,18.7018453 C21.3928877,18.7377377 21.9079434,18.7969601 22.3225004,18.3967601 C22.8070475,17.9265699 22.8016637,17.2266684 22.6706565,15.7407239 C22.5719524,14.5975515 22.1843147,13.7433129 21.5203057,13.2049271 C20.4812212,12.3614562 19.1047484,12.5283558 18.1015564,12.6485952 C17.825185,12.682693 17.5685545,12.7149961 17.3532002,12.7149961 C15.3575838,12.7149961 15.0381416,14.2099138 14.3418294,17.483299 L14.2108222,18.123978 C14.2036438,18.1508973 14.1982599,18.1742273 14.1928761,18.1975574 C14.1336536,18.1257726 14.0780204,18.0521932 14.0403334,17.9875869 C13.9093262,17.6430201 13.7244805,15.825071 13.6329549,14.3427156 C13.6078302,13.9461048 13.3278697,13.6141003 12.940232,13.5243693 C12.5597727,13.4382276 12.1559834,13.6087164 11.9585753,13.9532833 L10.5354424,16.4442145 C10.490577,16.5249724 10.4798092,16.5285616 10.4600684,16.6182926 C10.4582738,16.6254711 10.160367,17.2661501 8.38189956,17.8924721 C8.15577756,17.97323 8.02835961,17.9857923 7.99785108,18.0055331 C7.79685375,17.5281644 8.23653542,15.6474037 8.93464223,14.0430142 C9.13205033,13.5889756 8.92387452,13.059563 8.4698359,12.8621549 C8.01400266,12.6647468 7.48638465,12.871128 7.28897656,13.3269612 C6.70213613,14.6729255 5.47102746,17.9427215 6.69316303,19.254588 C7.05567608,19.6440203 7.75019365,20.0190957 8.98130233,19.5865925 C11.177916,18.8095225 11.8796121,17.8565797 12.1039395,17.3451133 C12.2080274,18.1006479 12.3264722,18.5977574 12.4574794,18.8274686 C12.6082274,19.0930723 13.4176006,20.4103226 14.5715407,20.2236823 C15.2732367,20.1142105 15.7434269,19.5345486 15.9641651,18.500848 L16.1005561,17.860169 C16.7609759,14.7608619 16.8955724,14.5132044 17.3567895,14.5132044 C17.6331608,14.5132044 17.9615761,14.4755174 18.3187053,14.4342412 C19.0814184,14.340921 19.9464247,14.2386277 20.3914903,14.6011408 C20.6624777,14.8218789 20.8293773,15.2579713 20.8850105,15.900445 C20.9244921,16.3598674 20.9424383,16.6757204 20.9496168,16.8910747 C20.5404437,16.8713339 19.9841117,16.903637 19.3272812,17.21949 C17.7677572,17.9660515 17.0911858,19.7660544 17.2455231,21.0797156 C17.3693518,22.14213 18.0082362,22.8994593 18.9540004,23.1040458 C19.6915888,23.2637669 21.0734455,23.724984 22.8447345,24.4015554 C26.0965842,25.6398426 26.3603932,29.180626 26.3603932,33.3459368 C26.3783394,34.4155297 26.5524175,36.9728619 27.8086508,37.6386656 C27.9629881,37.721218 28.2016724,37.810949 28.4995792,37.810949 C28.7741559,37.810949 29.1007765,37.7337804 29.4579057,37.5004799 C31.1215176,36.41653 36.1500402,29.015521 35.0104571,25.774439 C34.2423601,23.5903876 34.2423601,23.5903876 35.30298,23.0161095 C37.58753,21.779617 38.7037831,20.370841 38.619436,18.8328525 C38.5925167,18.3393323 38.2317983,17.9445161 37.6736718,17.9857923 Z M21.2941837,4.22644802 C9.6381329,4.22644802 0.157160437,13.7092151 0.157160437,25.3634712 C0.157160437,37.0177274 9.63992752,46.5004945 21.2941837,46.5004945 C32.9484398,46.5004945 42.4312069,37.019522 42.4312069,25.3634712 C42.4312069,13.7074205 32.9484398,4.22644802 21.2941837,4.22644802 Z M21.2941837,44.7058754 C10.6287626,44.7058754 1.95177949,36.0288923 1.95177949,25.3634712 C1.95177949,14.6980502 10.6287626,6.02106707 21.2941837,6.02106707 C31.9596047,6.02106707 40.6365878,14.6980502 40.6365878,25.3634712 C40.6383824,36.0288923 31.9613993,44.7058754 21.2941837,44.7058754 Z" id="world"></path>
            </g>
        </g>
    </g>
</svg>