<!-- Generated by IcoMoon.io -->
<svg version="1.1" xmlns="http://www.w3.org/2000/svg" width="32" height="32" viewBox="0 0 32 32">
<title>world2</title>
<path d="M8.436 17.696c-0.45-0.171-1.067-0.406-1.239-0.577-0.483-0.485-0.848-0.703-1.199-0.912-0.232-0.139-0.485-0.29-0.817-0.553-0.287-0.228-0.634-0.279-0.95-0.143-0.252 0.11-1.023 0.441-1.349 4.14-0.032 0.367 0.239 0.692 0.606 0.724 0.374 0.032 0.692-0.24 0.724-0.606 0.098-1.103 0.307-2.244 0.502-2.795 0.223 0.156 0.415 0.271 0.597 0.381 0.321 0.192 0.574 0.343 0.942 0.71 0.373 0.373 1.022 0.621 1.707 0.881 0.294 0.112 0.731 0.279 1.002 0.421l-0.159 0.139c-0.964 0.819-1.484 1.38-2.762 5.128-0.119 0.349 0.067 0.728 0.417 0.848 0.071 0.024 0.144 0.035 0.215 0.035 0.278 0 0.537-0.175 0.632-0.453 1.217-3.566 1.624-3.913 2.363-4.541 0.114-0.096 0.235-0.199 0.365-0.315 0.434-0.391 0.467-0.787 0.418-1.048-0.136-0.748-1.006-1.079-2.013-1.464zM28.036 10.408c-0.367 0.020-0.65 0.334-0.63 0.703 0.031 0.568-0.598 1.231-1.771 1.866-1.79 0.97-1.512 1.759-0.841 3.669 0.506 1.444-2.285 6.121-3.524 7.102-0.16-0.338-0.305-1.179-0.317-1.921 0-2.616 0-6.568-3.478-7.894-0.975-0.373-2.304-0.852-3.088-1.023-0.052-0.011-0.191-0.041-0.228-0.358-0.060-0.517 0.247-1.249 0.8-1.513 0.309-0.147 0.515-0.122 0.735-0.098 0.227 0.027 0.61 0.071 0.919-0.227 0.361-0.35 0.357-0.871 0.259-1.977-0.073-0.851-0.362-1.486-0.856-1.887-0.773-0.628-1.798-0.503-2.544-0.414-0.206 0.025-0.397 0.049-0.557 0.049-1.485 0-1.723 1.112-2.241 3.548l-0.098 0.477c-0.005 0.020-0.009 0.037-0.013 0.055-0.044-0.053-0.085-0.108-0.114-0.156-0.098-0.256-0.235-1.609-0.303-2.712-0.019-0.295-0.227-0.542-0.515-0.609-0.283-0.064-0.584 0.063-0.731 0.319l-1.059 1.854c-0.033 0.060-0.041 0.063-0.056 0.13-0.001 0.005-0.223 0.482-1.547 0.948-0.168 0.060-0.263 0.069-0.286 0.084-0.15-0.355 0.178-1.755 0.697-2.949 0.147-0.338-0.008-0.732-0.346-0.879-0.339-0.147-0.732 0.007-0.879 0.346-0.437 1.002-1.353 3.435-0.443 4.411 0.27 0.29 0.787 0.569 1.703 0.247 1.635-0.578 2.157-1.287 2.324-1.668 0.077 0.562 0.166 0.932 0.263 1.103 0.112 0.198 0.714 1.178 1.573 1.039 0.522-0.081 0.872-0.513 1.036-1.282l0.101-0.477c0.491-2.306 0.592-2.491 0.935-2.491 0.206 0 0.45-0.028 0.716-0.059 0.568-0.069 1.211-0.146 1.543 0.124 0.202 0.164 0.326 0.489 0.367 0.967 0.029 0.342 0.043 0.577 0.048 0.737-0.304-0.015-0.719 0.009-1.207 0.244-1.161 0.556-1.664 1.895-1.549 2.873 0.092 0.791 0.568 1.354 1.271 1.506 0.549 0.119 1.577 0.462 2.895 0.966 2.42 0.922 2.616 3.557 2.616 6.656 0.013 0.796 0.143 2.699 1.078 3.195 0.115 0.061 0.292 0.128 0.514 0.128 0.204 0 0.447-0.057 0.713-0.231 1.238-0.807 4.98-6.314 4.132-8.726-0.572-1.625-0.572-1.625 0.218-2.053 1.7-0.92 2.531-1.969 2.468-3.113-0.020-0.367-0.288-0.661-0.704-0.63zM15.847 0.169c-8.674 0-15.73 7.057-15.73 15.73s7.057 15.73 15.73 15.73c8.673 0 15.73-7.056 15.73-15.73s-7.057-15.73-15.73-15.73zM15.847 30.293c-7.937 0-14.394-6.457-14.394-14.394s6.457-14.394 14.394-14.394c7.937 0 14.394 6.457 14.394 14.394 0.001 7.937-6.456 14.394-14.394 14.394z"></path>
</svg>
