<!-- Generated by IcoMoon.io -->
<svg version="1.1" xmlns="http://www.w3.org/2000/svg" width="32" height="32" viewBox="0 0 32 32">
<title>world</title>
<path d="M15.839 2.31c-7.684 0-13.935 6.25-13.935 13.934s6.251 13.936 13.935 13.936 13.935-6.252 13.935-13.936c-0.001-7.684-6.251-13.934-13.935-13.934zM15.839 28.198c-3.498 0-6.651-1.512-8.838-3.916 0.089-0.261 0.688-1.989 1.085-2.783 0.43-0.861 0.573-0.956 1.53-1.817 0.956-0.86-1.912-1.242-2.581-1.912s-1.004-0.669-1.768-1.276c-0.572-0.454-0.904 1.556-1.035 2.596-0.225-0.912-0.346-1.866-0.346-2.847 0-2.537 0.797-4.888 2.15-6.826-0.381 1.181-0.722 2.902 0.76 2.379 1.625-0.575 1.768-1.243 1.768-1.243l0.956-1.673c0 0 0.143 2.341 0.335 2.675 0.191 0.335 0.956 1.292 1.242-0.047 0.527-2.46 0.616-3.155 1.524-3.155s2.778-0.717 2.97 1.482c0.191 2.199-0.192 0.908-1.387 1.482s-1.482 2.581-0.383 2.82c1.1 0.239 3.585 1.242 3.585 1.242l1.242 1.387 0.383 1.482c0 0 0.239 1.672 0.239 1.816s0 1.53 0 1.53 0.049 3.011 1.147 2.294c1.1-0.717 4.11-5.402 3.49-7.17-0.622-1.768-0.669-1.96 0.478-2.581 1.147-0.622 1.96-1.386 1.912-2.246-0.034-0.603 0.028-0.971 0.035-1.367 0.93 1.7 1.46 3.649 1.46 5.72-0.002 6.592-5.363 11.954-11.954 11.954z"></path>
</svg>
