<svg width="389" height="212" viewBox="0 0 389 212" xmlns="http://www.w3.org/2000/svg"><title>baby_sleep</title><desc>Created with Sketch.</desc><g fill="none"><path d="M389 160.724c0 28.166-84.395 51-188.5 51-104.104 0-188.5-22.834-188.5-51s84.396-51 188.5-51c104.105 0 188.5 22.834 188.5 51" fill-opacity=".5" fill="#8BB5A4"/><path d="M313.723 152.986c.54.126.881.314 1.176.259 8.003-1.437 15.296-4.721 22.337-8.649.517-.289 1.06-.692 1.612-.728 2.565-.169 4.452-1.625 6.333-3.134 2.528-2.031 5.056-4.058 7.591-6.076.181-.144.427-.206.867-.41 4.368 2.208 8.816 4.534 12.246 8.379 1.357 1.522 2.642 3.11 3.957 4.67.232.276.512.54.65.861 1.893 4.399 4.022 8.716 3.949 13.706-.035 2.535-.068 4.996-1.279 7.348-1.851 3.59-5.734 5.665-9.814 5.088-1.305-.185-2.626-.387-3.938-.365-3.584.063-6.461-1.378-8.931-3.861-.841-.847-1.787-1.593-2.662-2.41-.336-.314-.864-.7-.863-1.051.007-1.795-1.353-1.955-2.456-1.826-2.242.265-4.55.482-6.595 1.567-2.621 1.389-5.254 2.734-7.955 3.974-2.188 1.003-4.486 1.627-6.711 2.455-3.459 1.289-7.089 2.155-10.689 3.023-5.21 1.258-10.449 2.407-15.699 3.493-1.391.286-2.868.136-4.3.25-6.561.516-12.86-.94-19.135-2.536-1.03-.262-1.98-.84-2.966-1.276-1.207-.532-2.386-1.145-3.626-1.584-1.68-.594-3.512-.833-4.251-2.888-.16-.451-.974-.638-1.429-1.016-3.25-2.712-6.41-5.546-7.363-9.908-.377-1.725-.25-3.562-.33-5.349-.011-.228.047-.518.186-.683 2.164-2.544 2.152-5.788 2.757-8.801.807-4.026 1.912-7.915 3.9-11.533 2.37-4.312 4.613-8.697 7.069-12.959 1.373-2.381 3.066-4.58 4.625-6.853.203-.294.614-.516.678-.823.732-3.562 3.771-5.194 6.254-7.124 2.512-1.955 4.064-4.539 5.896-6.995-4.534 2.007-8.056 5.339-11.89 9.126.076-1.252.015-1.963.182-2.614.267-1.041.748-2.029 1.004-3.071.089-.367-.085-1.028-.364-1.207-.564-.363-1.24-.107-1.497.5-.648 1.536-1.642 3.104-1.678 4.677-.068 3.058-1.3 5.454-2.84 7.967-3.443 5.625-6.589 11.432-9.894 17.142-.517.892-.671 2.105-2.06 2.544-.489-1.604-1.052-3.166-1.437-4.77-.703-2.936-1.732-5.744-3.05-8.448-2.313-4.742-4.424-9.592-7.427-13.97-2.074-3.023-11.754-12.673-14.848-14.582-4.324-2.669-9.032-4.462-13.971-5.58-1.582-.357-3.275-.226-4.839-.314-.39-.864.088-1.333.469-1.746 1.783-1.935 2.562-4.343 3.071-6.808.651-3.165 1.622-6.29 1.567-9.571-.018-1.078.497-1.819 1.342-2.388 2.388-1.609 4.777-3.216 7.172-4.813 1.097-.732 2.323-1.313 3.291-2.184 2.714-2.447 5.917-4.041 9.126-5.688 6.203-3.187 12.533-6.016 19.247-7.966 7.878-2.287 15.911-3.547 24.093-3.991 3.714-.202 7.422-.539 11.134-.802.957-.067 1.919-.118 2.878-.128 6.84-.07 7.843.36 12.337 5.579 4.619 5.362 9.212 10.748 13.772 16.161.763.906 1.342 1.98 1.919 3.024 1.104 1.994 2.319 3.95 3.173 6.049 1.436 3.535 2.933 7.086 2.91 11.026-.018 3.481-.036 6.965.026 10.445.035 1.824.611 2.385 2.35 2.513.956.07 1.921.03 2.881.039 2.036.019 4.093-.151 6.047.643 3.436-.288 6.495 1.579 9.854 1.724 4.151 2.017 8.74 3.42 11.043 8.002.728 1.444 1.15 2.88.54 4.486-.21.555-.363 1.164-.382 1.753-.123 4.328-1.862 8.191-3.685 11.956-2.157 4.457-5.007 8.478-9.243 11.27-1.598 1.054-3.34 1.886-4.953 2.919-2.21 1.414-4.568 2.611-6.5 4.449-.506.482-1.201.811-1.862 1.078-5.331 2.151-10.343 5.072-15.948 6.563-1.61.428-3.103 1.11-4.151 2.771" fill="#42A4D1"/><path d="M19.941 89.889c.829-.683 1.718-1.306 2.477-2.06 3.545-3.518 7.818-5.92 12.25-8.078 4.092-1.992 8.141-4.069 12.63-5.118 1.499-.349 2.902-1.113 4.341-1.708 3.002-1.245 6.11-2.089 9.309-2.651 2.716-.475 5.413-1.054 8.119-1.583.82-.159 1.637-.379 2.465-.438.826-.058 1.664.053 2.668.097.146.714.344 1.377.406 2.055.529 5.853.763 11.748 1.639 17.546.584 3.872 1.94 7.651 3.195 11.389.837 2.488 2.114 4.829 3.174 7.244.28.633.49 1.297.887 2.365-1.196-.337-1.688-.963-2.182-1.503-1.894-2.064-4.13-3.628-6.648-4.837-1.075-.515-2.069-1.205-3.086-1.838-2.571-1.6-5.349-2.777-8.285-3.381-1.706-.35-3.546-.071-5.325-.035-.157.004-.454.34-.428.474.053.294.208.695.436.799.419.191.924.287 1.387.268 3.613-.157 6.823 1.137 9.918 2.772 2.224 1.175 4.395 2.45 6.559 3.731.82.485 1.575 1.09 2.315 1.695.251.206.365.58.717 1.17-5.219-.272-10.122-2.215-15.751-.911.813.469 1.167.849 1.524.851 4.344.032 8.495 1.281 12.712 2.058 2.559.47 4.897 1.747 7.21 3.068 2.14 1.219 3.748 2.855 5.34 4.61.481.53.991 1.069 1.585 1.456 3.802 2.473 7.63 4.904 11.449 7.35l.297.201c4.406 3.308 8.721 6.746 13.249 9.873 2.423 1.672 4.375 4.066 7.338 4.961.41.124.698.623 1.067.917.463.37.918.769 1.436 1.045.578.308 1.263.25 1.568-.347.168-.331.045-.973-.187-1.308-.399-.573-1.05-.966-1.475-1.525-.408-.536-.663-1.188-1.151-2.094 2.2-.414 4.052-.158 5.792-.173 1.584 2.802 1.584 2.802 5.586 3.685.204.654.392 1.447.697 2.191.429 1.047 1.198 1.439 2.298.957l-.114-.111c.327 2.356 1.573 3.554 4.056 3.696 2.29.13 4.301 1.384 6.324 2.344 1.691.801 3.341 1.146 5.175 1.187 3.312.074 6.449-.474 9.381-2.057 1.614-.871 3.3-1.346 5.181-1.134.813.092 1.663-.142 2.746-.252.429 1.547 1.216 3.003 2.761 3.813 1.326.694 2.701 1.301 4.063 1.952-1.334 3.18-4.172 4.854-6.869 6.531-2.632 1.637-5.303 3.241-8.223 4.428-2.276.925-4.506 1.584-6.952 1.455-.867-.046-1.695-.043-2.067 1.2.839.816 1.742 1.709 2.663 2.581 1.535 1.455 2.055 3.145 1.263 5.241-2.512.769-4.669.081-6.662-1.502-2.249-1.787-4.528-3.536-6.805-5.287-.361-.277-.778-.479-1.282-.784-.205.445-.395.726-.456 1.031-.068.334-.015.691-.015 1.252-1.122.239-2.269.528-3.431.722-4.968.833-9.923 1.778-15.012 1.41-1.552-.113-3.123-.105-4.681-.033-5.189.237-10.302-.493-15.426-1.113-2.265-.274-4.527-.545-6.79-.833-7.994-1.017-15.751-3.156-23.575-4.976-1.636-.381-3.269-.774-4.886-1.224-3.823-1.063-7.544-2.373-10.993-4.394-3.624-2.124-7.268-4.218-10.955-6.23-1.924-1.049-3.627-2.324-5.111-3.923-3.186-3.433-6.407-6.831-9.563-10.291-1.865-2.046-3.381-4.326-4.646-6.816-1.354-2.672-2.945-5.231-4.547-7.766-2.837-4.488-4.957-9.314-6.986-14.195-.818-1.971-.768-3.976-.519-6.007.235-1.918.016-2.332-1.709-2.808-.232-.064-.465-.126-.703-.158-4.24-.582-7.17-3.084-9.513-6.461-.541-.78-1.118-1.534-1.605-2.198.078-1.166.826-1.62 1.604-1.883 1.582-.538 3.161-1.086 4.899-1 2.378.118 4.775-.213 7.112.616.748.266 1.647.111 2.603.154l.862-1.543-.119.126" fill="#FF8486"/><path d="M186.995 144.867c6.636-.557 8.052-2.164 7.308-8.228l-4.962-3.665c.164-.336.211-.576.357-.706.607-.537 1.607-.757 1.651-1.756.047-1.069.136-2.191-.127-3.204-.409-1.582-2.742-3.178-4.378-3.212-1.316-.031-2.632-.007-4.26-.007l-2.156-2.726c3.405-1.027 6.161-2.614 8.938-4.198 1.322-.754 2.913-1.126 4.43-1.433 5.042-1.022 10.102-1.965 15.296-1.212.419.061.892-.187 1.329-.323.085-.027.128-.196.188-.298-1.426-1.466-3.2-1.919-5.187-1.853-2.385.079-4.768-.213-7.135.571-1.051.347-2.313.058-3.739.058 2.616-4.467 4.842-8.944 7.728-13.041 1.036-1.47 1.811-3.027 2.469-4.738.843-2.193 2.361-4.126 3.579-6.161 2.696-.424 5.162-.333 7.572.579 1.793.68 3.62 1.288 5.366 2.075 4.412 1.986 8.446 4.512 11.68 8.213 1.578 1.804 3.305 3.486 5.058 5.122 2.227 2.08 3.991 4.517 5.348 7.186 2.28 4.486 4.543 9.004 6.412 13.671 1.782 4.45 2.831 9.163 3.452 13.934.247 1.906.168 3.822-.46 5.694-.61 1.817-1.052 3.692-1.698 5.496-.314.871-.864 1.681-1.426 2.428-.344.455-.89.843-1.566.542-1.312-.582-2.278.184-3.311.795-4.401 2.601-9.149 4.083-14.27 4.285-1.436.056-2.883-.061-4.318.024-5.111.301-10.002-.889-14.896-2.094-5.858-1.439-11.316-3.94-16.775-6.399-2.169-.979-4.15-2.392-6.155-3.705-.539-.353-.845-1.061-1.342-1.714" fill="#42A4D1"/><path d="M339.499 81.216c-.422.506-.773.987-1.185 1.407l-1.343 1.196c-1.154 1.175-1.281 2.131-.584 3.573.631 1.311 1.756 1.989 3.092 2.214 1.054.178 2.154.097 3.232.088 1.075-.009 1.771-.598 2.229-1.541.614-1.266.679-2.533.076-3.817-1.024-2.178-2.678-3.313-5.517-3.12zm-33.416-40.289c.597 0 1.153-.057 1.694.01 2.133.259 4.261.557 6.488.854.159.593.32 1.019.384 1.459.465 3.188 2.549 4.91 5.628 4.629 1.982-.181 2.568-.664 3.891-3.333 3.656 1.346 7.485 2.299 10.751 4.672 1.258.913 2.628 1.675 3.944 2.511.708.45 1.534.792 2.092 1.387 2.655 2.83 6.066 4.65 9.073 6.996 1.258.982 2.084 2.565 2.97 3.961 3.778 5.964 6.006 12.476 7.092 19.457.482 3.095.884 6.143.77 9.276-.044 1.175.154 2.388.425 3.541.444 1.895.119 3.737.206 6.088-1.412-1.137-2.398-1.906-3.355-2.711-.919-.77-1.861-1.525-2.687-2.388-.52-.542-1.003-.935-1.782-1.048-.813-.116-1.587-.519-2.401-.644-3.536-.543-6.912-1.745-10.466-2.294-3.296-.51-6.613-.584-10.126-.854-.072-.854-.161-1.541-.182-2.23-.027-1.078-.009-2.159-.01-3.239-.002-7.78 0-7.78-2.25-14.792-.144-.455-.288-.928-.53-1.334-3.534-5.974-6.223-12.471-10.941-17.713-.962-1.069-1.906-2.154-2.885-3.207-2.53-2.717-5.082-5.415-7.605-8.137-.132-.142-.098-.44-.188-.917z" fill="#66AEE0"/><path d="M139.463 145.129c.639-1.356-.595-2.188-.953-3.29.421-.544 1.037-1.022 1.217-1.627 1.019-3.454 3.581-5.214 6.722-6.416.771-.296 1.497-.704 2.186-1.033.058-1.004-.505-1.15-1.133-.983-3.839 1.023-7.063 2.89-8.879 6.632-.155.318-.351.617-.613 1.077-.486.099-1.065.336-1.636.319-2.449-.075-3.75-1.854-2.936-4.127.352-.984.905-1.993 1.635-2.721 1.092-1.09 2.319-2.133 3.67-2.853 2.422-1.29 4.931-2.45 7.492-3.437 3.45-1.329 7.069-1.053 10.661-.692.12.013.249.026.352.078 2.674 1.326 5.66 1.798 8.367 2.939 3.146 1.325 5.429 3.684 6.526 7.145.665 2.097 1.27 4.075.75 6.295-.438 1.854-1.47 3.047-3.356 3.212-2.93.257-5.521 1.423-8.185 2.533-4.074 1.696-8.235 1.264-12.281-.221-1.579-.58-2.252-2.975-1.147-4.261 2.016-2.353 4.036-4.839 7.609-4.795.35.005.723-.094 1.043-.237.185-.083.413-.363.399-.535-.029-.311-.14-.774-.361-.884-1.471-.736-3.04-.752-4.498-.072-2.551 1.193-4.456 3.222-6.239 5.33-.416.491-.44 1.323-.621 2.005-.41 1.531-1.074 2.083-2.559 1.748-1.146-.259-2.227-.809-3.342-1.235l.11.106" fill="#FFE8E0"/><path d="M179.637 127.681c1.44.047 2.32-.325 3.248-1.008 1.671-1.229 4.574-.612 5.729 1.008.619.872.464 1.975-.47 2.471-.945.501-1.98.826-2.953 1.276-.72.332-.849 1.33-.2 1.777 1.279.879 2.613 1.679 3.915 2.522.7.455 1.411.902 2.072 1.411.908.698 1.464 1.584 1.138 2.795-.345 1.29-1.212 2.107-2.505 2.261-1.301.155-2.634.042-3.946.137-1.031.074-2.123-.711-3.267.368 1.228 2.524 3.403 4.765 3.32 8.045-1.797 1.854-4.203 1.022-6.363 1.093-1.793.06-2.856-.805-5.017-3.186 2.305-7.84-.039-14.679-4.984-21.076.272-.547.458-1.281.911-1.762 1.441-1.526 3.433-2.146 5.354-2.715.803-.237 1.88.142 2.742.475 1.521.588 1.63.941 1.408 2.78-.04.337-.068.677-.132 1.328" fill="#EAF4FF"/><path d="M316.578 42.594c3.338.384 3.338.384 4.893 2.927-1.245.609-2.501.691-3.617-.026-.858-.552-1.675-1.35-1.276-2.901" fill="#FFD447"/><path d="M222.676 34.871c-.292-1.994-1.12-3.904-1.599-5.878-.568-2.352-2.124-3.975-3.796-5.551-1.336-1.259-2.949-1.687-4.66-1.275-1.62.391-3.228.953-4.73 1.669-1.648.786-2.903 1.994-3.562 3.853-.516 1.448-1.361 2.803-2.226 4.087-.319.472-1.117.62-2.029 1.087-.12-2.55-1.704-3.91-2.963-5.485-1.731-2.169-3.732-4.056-5.854-5.833-2.646-2.214-15.646-9.795-18.877-11.091-7.287-2.921-14.92-4.412-22.609-5.756-4.899-.857-9.822-.885-14.702-.392-5.244.528-10.392 1.743-15.465 3.263-5.895 1.767-11.418 4.13-16.492 7.76-6.068 4.343-10.96 9.576-14.777 15.967-3.901 6.53-6.859 13.455-9.383 20.592-.276.783-.457 1.616-.557 2.441-.247 2.025-.49 4.055-.604 6.09-.112 2.022-.015 4.037.163 6.075.171 1.961-.396 4.004-.178 6.045.28 2.626.459 5.262.715 7.889.27 2.745.335 5.541.924 8.218.927 4.207 2.002 8.4 3.97 12.298.92 1.817 1.745 3.691 2.481 5.592 1.145 2.952 2.78 5.555 4.968 7.845 1.158 1.209 1.985 2.806 3.295 3.782 2.874 2.14 5.959 3.996 8.959 5.968 1.099.722 2.22 1.411 3.289 2.172 3.42 2.432 6.743 5.01 10.264 7.286 1.655 1.07 3.626 2.013 5.545 2.232 3.188.365 6.449.101 9.779.101 1.04-2.841 2.719-4.948 5.293-6.264.312-.159.573-.437.823-.692 2.597-2.647 5.916-3.512 9.45-3.842.952-.089 1.944-.007 2.857-.236 2.508-.628 4.974-.509 7.47.04 1.167.256 2.37.361 3.561.475 1.892.183 3.788.317 6.162.509.5-.575 1.083-1.337 1.758-2.003 1.563-1.541 3.549-2.658 5.59-2.959 1.856-.276 3.44-.878 5.027-1.706 2.123-1.107 4.291-2.14 6.339-3.372 1.206-.726 2.604-1.563 3.24-2.72 1.461-2.661 3.433-4.896 5.31-7.205 2.578-3.172 4.382-6.856 6.893-10.063.282-.357.404-.878.487-1.342.283-1.597 1.103-2.93 2.132-4.106 1.304-1.487 2.126-3.167 2.574-5.075.162-.695.42-1.382.724-2.031 2.96-6.318 4.237-12.982 3.792-19.919-.118-1.83.523-2.942 1.779-4.01 1.552-1.32 3.041-2.716 4.559-4.074 1.676-1.499 2.63-3.413 3.086-5.573.647-3.051 1.357-6.097 1.794-9.181.263-1.87.283-3.836.011-5.702" fill="#FFE8E0"/><path d="M174.86 63.397c-7.421 4.398-11.736 17.543-3.348 23.316 8.462 5.822 20.991-1.384 25.111-9.545.647-1.282 1.02-2.638 1.157-4.01.409-1.211.677-2.47.773-3.752 1.036-13.795-16.189-10.456-23.693-6.009" fill="#FFA9B3"/><path d="M121.414 106.814c-3.289-2.294-7.743-2.138-11.792-.812-1.629-.103-3.221.009-4.563.316-2.331.532-4.088 2.404-4.669 4.608-1.637 1.823-2.027 3.991-1.562 6.129-.032 4.734 3.912 9.205 9.672 9.888l.272.019c2.385.527 4.816-.131 7.207-.718 3.788-.93 6.386-4.327 6.891-8.018 2.557-3.678 3.029-8.284-1.456-11.412" fill="#FFA9B3"/><path d="M135.895 87.56c-3.516-2.128-7.616-.202-9.417 3.129-.876 1.62-1.474 3.792-.789 5.586.895 2.344 2.853 3.673 5.33 3.829 1.588.1 3.099-.23 4.431-1.127 1.514-1.02 3.194-2.801 3.154-4.756.674-2.452-.309-5.208-2.709-6.661" fill="#FFCFBD"/><path d="M338.466 85.905c.219-.452.366-.913.636-1.283.477-.651.862-1.578 1.903-1.337 1.008.232 1.65.954 1.834 1.988.076.439.012.903.012 1.494-1.668.294-3.154.797-4.385-.862" fill="#FFD447"/><path d="M316.578 42.594c-.399 1.551.418 2.349 1.276 2.901 1.116.717 2.372.635 3.617.026-1.555-2.543-1.555-2.543-4.893-2.927zm-136.941 85.087c.064-.651.092-.991.132-1.328.222-1.839.113-2.192-1.408-2.78-.862-.333-1.939-.712-2.742-.475-1.921.569-3.913 1.189-5.354 2.715-.453.481-.639 1.215-.911 1.762 4.945 6.397 7.289 13.236 4.984 21.076 2.161 2.381 3.224 3.246 5.017 3.186 2.16-.071 4.566.761 6.363-1.093.083-3.28-2.092-5.521-3.32-8.045 1.144-1.079 2.236-.294 3.267-.368 1.312-.095 2.645.018 3.946-.137 1.293-.154 2.16-.971 2.505-2.261.326-1.211-.23-2.097-1.138-2.795-.661-.509-1.372-.956-2.072-1.411-1.302-.843-2.636-1.643-3.915-2.522-.649-.447-.52-1.445.2-1.777.973-.45 2.008-.775 2.953-1.276.934-.496 1.089-1.599.47-2.471-1.155-1.62-4.058-2.237-5.729-1.008-.928.683-1.808 1.055-3.248 1.008zm126.446-86.754c.09.477.056.775.188.917 2.523 2.722 5.075 5.42 7.605 8.137.979 1.053 1.923 2.138 2.885 3.207 4.718 5.242 7.407 11.739 10.941 17.713.242.406.386.879.53 1.334 2.25 7.012 2.248 7.012 2.25 14.792.001 1.08-.017 2.161.01 3.239.021.689.11 1.376.182 2.23 3.513.27 6.83.344 10.126.854 3.554.549 6.93 1.751 10.466 2.294.814.125 1.588.528 2.401.644.779.113 1.262.506 1.782 1.048.826.863 1.768 1.618 2.687 2.388.957.805 1.943 1.574 3.355 2.711-.087-2.351.238-4.193-.206-6.088-.271-1.153-.469-2.366-.425-3.541.114-3.133-.288-6.181-.77-9.276-1.086-6.981-3.314-13.493-7.092-19.457-.886-1.396-1.712-2.979-2.97-3.961-3.007-2.346-6.418-4.166-9.073-6.996-.558-.595-1.384-.937-2.092-1.387-1.316-.836-2.686-1.598-3.944-2.511-3.266-2.373-7.095-3.326-10.751-4.672-1.323 2.669-1.909 3.152-3.891 3.333-3.079.281-5.163-1.441-5.628-4.629-.064-.44-.225-.866-.384-1.459-2.227-.297-4.355-.595-6.488-.854-.541-.067-1.097-.01-1.694-.01zm-119.088 103.94c.497.653.803 1.361 1.342 1.714 2.005 1.313 3.986 2.726 6.155 3.705 5.459 2.459 10.917 4.96 16.775 6.399 4.894 1.205 9.785 2.395 14.896 2.094 1.435-.085 2.882.032 4.318-.024 5.121-.202 9.869-1.684 14.27-4.285 1.033-.611 1.999-1.377 3.311-.795.676.301 1.222-.087 1.566-.542.562-.747 1.112-1.557 1.426-2.428.646-1.804 1.088-3.679 1.698-5.496.628-1.872.707-3.788.46-5.694-.621-4.771-1.67-9.484-3.452-13.934-1.869-4.667-4.132-9.185-6.412-13.671-1.357-2.669-3.121-5.106-5.348-7.186-1.753-1.636-3.48-3.318-5.058-5.122-3.234-3.701-7.268-6.227-11.68-8.213-1.746-.787-3.573-1.395-5.366-2.075-2.41-.912-4.876-1.003-7.572-.579-1.218 2.035-2.736 3.968-3.579 6.161-.658 1.711-1.433 3.268-2.469 4.738-2.886 4.097-5.112 8.574-7.728 13.041 1.426 0 2.688.289 3.739-.058 2.367-.784 4.75-.492 7.135-.571 1.987-.066 3.761.387 5.187 1.853-.06.102-.103.271-.188.298-.437.136-.91.384-1.329.323-5.194-.753-10.254.19-15.296 1.212-1.517.307-3.108.679-4.43 1.433-2.777 1.584-5.533 3.171-8.938 4.198l2.156 2.726c1.628 0 2.944-.024 4.26.007 1.636.034 3.969 1.63 4.378 3.212.263 1.013.174 2.135.127 3.204-.044.999-1.044 1.219-1.651 1.756-.146.13-.193.37-.357.706l4.962 3.665c.744 6.064-.672 7.671-7.308 8.228zm-19.414-18.955c.5-.575 1.083-1.337 1.758-2.003 1.563-1.541 3.549-2.658 5.59-2.959 1.856-.276 3.44-.878 5.027-1.706 2.123-1.107 4.291-2.14 6.339-3.372 1.206-.726 2.604-1.563 3.24-2.72 1.461-2.661 3.433-4.896 5.31-7.205 2.578-3.172 4.382-6.856 6.893-10.063.282-.357.404-.878.487-1.342.283-1.597 1.103-2.93 2.132-4.106 1.304-1.487 2.126-3.167 2.574-5.075.162-.695.42-1.382.724-2.031 2.96-6.318 4.237-12.982 3.792-19.919-.118-1.83.523-2.942 1.779-4.01 1.552-1.32 3.041-2.716 4.559-4.074 1.676-1.499 2.63-3.413 3.086-5.573.647-3.051 1.357-6.097 1.794-9.181.263-1.87.283-3.836.011-5.702-.292-1.994-1.12-3.904-1.599-5.878-.568-2.352-2.124-3.975-3.796-5.551-1.336-1.259-2.949-1.687-4.66-1.275-1.62.391-3.228.953-4.73 1.669-1.648.786-2.903 1.994-3.562 3.853-.516 1.448-1.361 2.803-2.226 4.087-.319.472-1.117.62-2.029 1.087-.12-2.55-1.704-3.91-2.963-5.485-1.731-2.169-3.732-4.056-5.854-5.833-2.646-2.214-15.646-9.795-18.877-11.091-7.287-2.921-14.92-4.412-22.609-5.756-4.899-.857-9.822-.885-14.702-.392-5.244.528-10.392 1.743-15.465 3.263-5.895 1.767-11.418 4.13-16.492 7.76-6.068 4.343-10.96 9.576-14.777 15.967-3.901 6.53-6.859 13.455-9.383 20.592-.276.783-.457 1.616-.557 2.441-.247 2.025-.49 4.055-.604 6.09-.112 2.022-.015 4.037.163 6.075.171 1.961-.396 4.004-.178 6.045.28 2.626.459 5.262.715 7.889.27 2.745.335 5.541.924 8.218.927 4.207 2.002 8.4 3.97 12.298.92 1.817 1.745 3.691 2.481 5.592 1.145 2.952 2.78 5.555 4.968 7.845 1.158 1.209 1.985 2.806 3.295 3.782 2.874 2.14 5.959 3.996 8.959 5.968 1.099.722 2.22 1.411 3.289 2.172 3.42 2.432 6.743 5.01 10.264 7.286 1.655 1.07 3.626 2.013 5.545 2.232 3.188.365 6.449.101 9.779.101 1.04-2.841 2.719-4.948 5.293-6.264.312-.159.573-.437.823-.692 2.597-2.647 5.916-3.512 9.45-3.842.952-.089 1.944-.007 2.857-.236 2.508-.628 4.974-.509 7.47.04 1.167.256 2.37.361 3.561.475 1.892.183 3.788.317 6.162.509zm146.142 27.074c1.048-1.661 2.541-2.343 4.151-2.771 5.605-1.491 10.617-4.412 15.948-6.563.661-.267 1.356-.596 1.862-1.078 1.932-1.838 4.29-3.035 6.5-4.449 1.613-1.033 3.355-1.865 4.953-2.919 4.236-2.792 7.086-6.813 9.243-11.27 1.823-3.765 3.562-7.628 3.685-11.956.019-.589.172-1.198.382-1.753.61-1.606.188-3.042-.54-4.486-2.303-4.582-6.892-5.985-11.043-8.002-3.359-.145-6.418-2.012-9.854-1.724-1.954-.794-4.011-.624-6.047-.643-.96-.009-1.925.031-2.881-.039-1.739-.128-2.315-.689-2.35-2.513-.062-3.48-.044-6.964-.026-10.445.023-3.94-1.474-7.491-2.91-11.026-.854-2.099-2.069-4.055-3.173-6.049-.577-1.044-1.156-2.118-1.919-3.024-4.56-5.413-9.153-10.799-13.772-16.161-4.494-5.219-5.497-5.649-12.337-5.579-.959.01-1.921.061-2.878.128-3.712.263-7.42.6-11.134.802-8.182.444-16.215 1.704-24.093 3.991-6.714 1.95-13.044 4.779-19.247 7.966-3.209 1.647-6.412 3.241-9.126 5.688-.968.871-2.194 1.452-3.291 2.184-2.395 1.597-4.784 3.204-7.172 4.813-.845.569-1.36 1.31-1.342 2.388.055 3.281-.916 6.406-1.567 9.571-.509 2.465-1.288 4.873-3.071 6.808-.381.413-.859.882-.469 1.746 1.564.088 3.257-.043 4.839.314 4.939 1.118 9.647 2.911 13.971 5.58 3.094 1.909 12.774 11.559 14.848 14.582 3.003 4.378 5.114 9.228 7.427 13.97 1.318 2.704 2.347 5.512 3.05 8.448.385 1.604.948 3.166 1.437 4.77 1.389-.439 1.543-1.652 2.06-2.544 3.305-5.71 6.451-11.517 9.894-17.142 1.54-2.513 2.772-4.909 2.84-7.967.036-1.573 1.03-3.141 1.678-4.677.257-.607.933-.863 1.497-.5.279.179.453.84.364 1.207-.256 1.042-.737 2.03-1.004 3.071-.167.651-.106 1.362-.182 2.614 3.834-3.787 7.356-7.119 11.89-9.126-1.832 2.456-3.384 5.04-5.896 6.995-2.483 1.93-5.522 3.562-6.254 7.124-.064.307-.475.529-.678.823-1.559 2.273-3.252 4.472-4.625 6.853-2.456 4.262-4.699 8.647-7.069 12.959-1.988 3.618-3.093 7.507-3.9 11.533-.605 3.013-.593 6.257-2.757 8.801-.139.165-.197.455-.186.683.08 1.787-.047 3.624.33 5.349.953 4.362 4.113 7.196 7.363 9.908.455.378 1.269.565 1.429 1.016.739 2.055 2.571 2.294 4.251 2.888 1.24.439 2.419 1.052 3.626 1.584.986.436 1.936 1.014 2.966 1.276 6.275 1.596 12.574 3.052 19.135 2.536 1.432-.114 2.909.036 4.3-.25 5.25-1.086 10.489-2.235 15.699-3.493 3.6-.868 7.23-1.734 10.689-3.023 2.225-.828 4.523-1.452 6.711-2.455 2.701-1.24 5.334-2.585 7.955-3.974 2.045-1.085 4.353-1.302 6.595-1.567 1.103-.129 2.463.031 2.456 1.826-.001.351.527.737.863 1.051.875.817 1.821 1.563 2.662 2.41 2.47 2.483 5.347 3.924 8.931 3.861 1.312-.022 2.633.18 3.938.365 4.08.577 7.963-1.498 9.814-5.088 1.211-2.352 1.244-4.813 1.279-7.348.073-4.99-2.056-9.307-3.949-13.706-.138-.321-.418-.585-.65-.861-1.315-1.56-2.6-3.148-3.957-4.67-3.43-3.845-7.878-6.171-12.246-8.379-.44.204-.686.266-.867.41-2.535 2.018-5.063 4.045-7.591 6.076-1.881 1.509-3.768 2.965-6.333 3.134-.552.036-1.095.439-1.612.728-7.041 3.928-14.334 7.212-22.337 8.649-.295.055-.636-.133-1.176-.259zm-293.782-63.097c.05-.351-.023-.799.167-1.036 2.094-2.621 4.144-5.254 6.953-7.229 4.244-2.983 8.688-5.736 13.488-7.521 5.825-2.165 11.507-4.852 17.646-6.109 5.273-1.079 10.576-2.009 16.101-3.05.073-.608.274-1.415.249-2.217-.244-7.739 1.795-14.938 4.97-21.909 1.791-3.936 3.65-7.815 5.884-11.532 2.116-3.519 4.671-6.688 7.198-9.89.587-.742 1.325-1.398 2.091-1.961 3.87-2.837 7.75-5.665 11.679-8.417 1.068-.748 2.287-1.319 3.501-1.808 8.052-3.241 16.382-5.569 24.991-6.542 5.225-.59 10.523-.503 15.783.434 7.804 1.391 15.65 2.69 22.942 5.893 7.142 3.134 13.925 6.99 20.132 11.769 2.291 1.762 4.334 3.789 6.14 6.057.508.636 1.139 1.173 1.912 1.953 1.952-4.477 5.762-6.113 9.849-7.256 2.973-.83 5.546-.083 7.99 1.951 3.267 2.716 4.526 6.419 5.679 10.198 1.105 3.615 1.19 7.316.37 11.036-.54 2.46-.997 4.939-1.448 7.419-.555 3.05-1.852 5.684-4.189 7.766-1.341 1.196-2.678 2.397-4.025 3.588-.604.537-.847 1.139-.312 2.121.58-.298 1.227-.511 1.729-.908 3.667-2.902 7.842-5.119 11.265-8.36.679-.642 1.594-1.058 2.445-1.492 3.847-1.963 7.649-4.034 11.583-5.805 7.132-3.21 14.573-5.487 22.272-6.946 7.22-1.367 14.542-1.647 21.839-2.205 3.109-.238 6.227-.473 9.342-.509 7.217-.084 14.396.415 21.455 2.018 5.631 1.278 11.179 2.992 16.291 5.606 5.662 2.896 10.807 6.689 15.053 11.541.314.359.525.86.905 1.104 4.115 2.623 6.497 6.666 8.648 10.807 3.255 6.27 4.887 12.985 4.925 20.089.033 6.238.195 12.475.349 18.711.039 1.467.037 2.835-.922 4.097-.404.532-.543 1.327-.636 2.025-.859 6.402-2.912 12.341-6.689 17.632-.063.09-.077.217-.192.552.508.35 1.047.774 1.635 1.114 1.244.723 2.512 1.407 3.776 2.097 3.192 1.745 5.985 3.989 8.401 6.707.957 1.078 1.887 2.18 2.871 3.231 1.082 1.155 1.918 2.442 2.479 3.929.551 1.459 1.148 2.903 1.771 4.332 1.885 4.319 2.059 8.888 1.625 13.439-.25 2.623-1.502 5.05-3.179 7.152-.36.453-.868.851-1.391 1.099-5.506 2.614-11.299 3.218-17.208 2.002-3.115-.641-5.658-2.576-7.809-4.874-1.401-1.499-2.83-2.898-4.658-3.831-2.101.082-4.049.379-5.393 2.304-.373.535-1.156.848-1.812 1.111-2.435.973-4.871 1.966-7.358 2.797-3.17 1.059-6.405 1.928-9.589 2.95-3.078.988-6.159 1.929-9.413 2.142-.352.023-.715.123-1.04.263-3.901 1.683-8.134 2.173-12.234 2.696-4.6.585-9.357.303-14.014-.032-2.581-.186-5.08-1.344-7.65-1.892-2.381-.507-4.515-1.503-6.637-2.633-2.432-1.294-5.013-2.315-7.394-3.689-6.236-3.599-10.514-8.634-11.226-16.117-.022-.229-.128-.45-.268-.918-.949.181-1.955.31-2.925.574-1.021.28-2.002.708-3.013 1.041-3.073 1.009-6.141 2.038-9.236 2.98-.785.239-1.66.244-2.494.25-3.362.026-6.747.253-10.08-.059-3.443-.321-6.855-1.093-10.245-1.827-6.5-1.407-12.458-4.281-18.436-7.069-1.503-.702-2.84-1.765-4.401-2.756-.976 1.003-.792 2.873-2.424 3.304-1.269.333-2.526.708-4.027 1.132-2.341 3.709-5.587 6.871-9.352 9.464-3.748 2.58-8.03 4.122-12.561 5.822 1.995 2.02 1.676 4.329 1.586 6.555-.069 1.738-1 2.631-2.676 2.808-3.488.365-6.649-.255-9.291-2.819-1.282-1.243-2.783-2.257-4.164-3.357-4.185.916-8.263 1.851-12.363 2.685-1.514.309-3.075.493-4.621.546-2.879.099-5.766-.029-8.643.099-4.829.215-9.584-.431-14.35-1.002-3.336-.399-6.693-.677-10.004-1.238-4.015-.68-8.004-1.539-11.979-2.437-4.797-1.083-9.58-2.232-14.342-3.457-4.543-1.169-8.918-2.778-12.977-5.208-3.807-2.282-7.707-4.413-11.529-6.673-1.124-.665-2.276-1.401-3.151-2.349-4.309-4.677-8.554-9.415-12.762-14.184-.861-.976-1.535-2.143-2.171-3.292-1.914-3.466-3.724-6.99-5.655-10.445-2.231-3.991-4.148-8.113-5.741-12.4-.848-2.28-1.505-4.539-1.215-7.005.08-.688-.045-1.4-.073-2.06-.469-.237-.767-.493-1.094-.538-3.801-.514-6.592-2.723-9.039-5.445-1.035-1.153-1.921-2.449-2.807-3.727-.797-1.149-.681-2.622.272-3.63 1.967-2.081 4.293-3.409 7.259-3.44 3.49-.037 6.977-.158 10.094 1.847.272.175.704.1 1.061.14l-.862 1.543c-.956-.043-1.855.112-2.603-.154-2.337-.829-4.734-.498-7.112-.616-1.738-.086-3.317.462-4.899 1-.778.263-1.526.717-1.604 1.883.487.664 1.064 1.418 1.605 2.198 2.343 3.377 5.273 5.879 9.513 6.461.238.032.471.094.703.158 1.725.476 1.944.89 1.709 2.808-.249 2.031-.299 4.036.519 6.007 2.029 4.881 4.149 9.707 6.986 14.195 1.602 2.535 3.193 5.094 4.547 7.766 1.265 2.49 2.781 4.77 4.646 6.816 3.156 3.46 6.377 6.858 9.563 10.291 1.484 1.599 3.187 2.874 5.111 3.923 3.687 2.012 7.331 4.106 10.955 6.23 3.449 2.021 7.17 3.331 10.993 4.394 1.617.45 3.25.843 4.886 1.224 7.824 1.82 15.581 3.959 23.575 4.976 2.263.288 4.525.559 6.79.833 5.124.62 10.237 1.35 15.426 1.113 1.558-.072 3.129-.08 4.681.033 5.089.368 10.044-.577 15.012-1.41 1.162-.194 2.309-.483 3.431-.722 0-.561-.053-.918.015-1.252.061-.305.251-.586.456-1.031.504.305.921.507 1.282.784 2.277 1.751 4.556 3.5 6.805 5.287 1.993 1.583 4.15 2.271 6.662 1.502.792-2.096.272-3.786-1.263-5.241-.921-.872-1.824-1.765-2.663-2.581.372-1.243 1.2-1.246 2.067-1.2 2.446.129 4.676-.53 6.952-1.455 2.92-1.187 5.591-2.791 8.223-4.428 2.697-1.677 5.535-3.351 6.869-6.531-1.362-.651-2.737-1.258-4.063-1.952-1.545-.81-2.332-2.266-2.761-3.813-1.083.11-1.933.344-2.746.252-1.881-.212-3.567.263-5.181 1.134-2.932 1.583-6.069 2.131-9.381 2.057-1.834-.041-3.484-.386-5.175-1.187-2.023-.96-4.034-2.214-6.324-2.344-2.483-.142-3.729-1.34-4.052-3.691 1.115.426 2.196.976 3.342 1.235 1.485.335 2.149-.217 2.559-1.748.181-.682.205-1.514.621-2.005 1.783-2.108 3.688-4.137 6.239-5.33 1.458-.68 3.027-.664 4.498.072.221.11.332.573.361.884.014.172-.214.452-.399.535-.32.143-.693.242-1.043.237-3.573-.044-5.593 2.442-7.609 4.795-1.105 1.286-.432 3.681 1.147 4.261 4.046 1.485 8.207 1.917 12.281.221 2.664-1.11 5.255-2.276 8.185-2.533 1.886-.165 2.918-1.358 3.356-3.212.52-2.22-.085-4.198-.75-6.295-1.097-3.461-3.38-5.82-6.526-7.145-2.707-1.141-5.693-1.613-8.367-2.939-.103-.052-.232-.065-.352-.078-3.592-.361-7.211-.637-10.661.692-2.561.987-5.07 2.147-7.492 3.437-1.351.72-2.578 1.763-3.67 2.853-.73.728-1.283 1.737-1.635 2.721-.814 2.273.487 4.052 2.936 4.127.571.017 1.15-.22 1.636-.319.262-.46.458-.759.613-1.077 1.816-3.742 5.04-5.609 8.879-6.632.628-.167 1.191-.021 1.133.983-.689.329-1.415.737-2.186 1.033-3.141 1.202-5.703 2.962-6.722 6.416-.18.605-.796 1.083-1.217 1.627.358 1.102 1.592 1.934.953 3.29-1.1.482-1.869.09-2.298-.957-.305-.744-.493-1.537-.697-2.191-4.002-.883-4.002-.883-5.586-3.685-1.74.015-3.592-.241-5.792.173.488.906.743 1.558 1.151 2.094.425.559 1.076.952 1.475 1.525.232.335.355.977.187 1.308-.305.597-.99.655-1.568.347-.518-.276-.973-.675-1.436-1.045-.369-.294-.657-.793-1.067-.917-2.963-.895-4.915-3.289-7.338-4.961-4.528-3.127-8.843-6.565-13.249-9.873l-.297-.201c-3.819-2.446-7.647-4.877-11.449-7.35-.594-.387-1.104-.926-1.585-1.456-1.592-1.755-3.2-3.391-5.34-4.61-2.313-1.321-4.651-2.598-7.21-3.068-4.217-.777-8.368-2.026-12.712-2.058-.357-.002-.711-.382-1.524-.851 5.629-1.304 10.532.639 15.751.911-.352-.59-.466-.964-.717-1.17-.74-.605-1.495-1.21-2.315-1.695-2.164-1.281-4.335-2.556-6.559-3.731-3.095-1.635-6.305-2.929-9.918-2.772-.463.019-.968-.077-1.387-.268-.228-.104-.383-.505-.436-.799-.026-.134.271-.47.428-.474 1.779-.036 3.619-.315 5.325.035 2.936.604 5.714 1.781 8.285 3.381 1.017.633 2.011 1.323 3.086 1.838 2.518 1.209 4.754 2.773 6.648 4.837.494.54.986 1.166 2.182 1.503-.397-1.068-.607-1.732-.887-2.365-1.06-2.415-2.337-4.756-3.174-7.244-1.255-3.738-2.611-7.517-3.195-11.389-.876-5.798-1.11-11.693-1.639-17.546-.062-.678-.26-1.341-.406-2.055-1.004-.044-1.842-.155-2.668-.097-.828.059-1.645.279-2.465.438-2.706.529-5.403 1.108-8.119 1.583-3.199.562-6.307 1.406-9.309 2.651-1.439.595-2.842 1.359-4.341 1.708-4.489 1.049-8.538 3.126-12.63 5.118-4.432 2.158-8.705 4.56-12.25 8.078-.759.754-1.648 1.377-2.477 2.06z" fill="#2A406D"/><path d="M118.932 38.115c-1.529 2.223-2.165 4.17-2.143 6.592.018 2.105.21 4.187 1.559 6.096 1.682-3.324 1.928-8.302.584-12.688zm-16.579-7.212c-.973.636-1.482 1.11-2.082 1.334-1.434.535-2.418 1.478-3.108 2.823-.6 1.173-1.32 2.286-1.936 3.45-.679 1.28-1.123 2.601-1.039 4.121.066 1.18-.044 2.416-.334 3.562-.664 2.638.012 4.819 1.435 7.113 1.537 2.475 3.497 4.189 6.102 5.319 5.212 2.26 10.41 1.001 14.243-3.524-.461-1.799-.858-3.663-1.417-5.477-1.319-4.26-.386-8.309 1.088-12.296.598-1.624 1.788-2.323 3.32-2.239 1.93.105 3.328 1.099 3.71 2.787 1.253 5.535.98 10.942-1.535 16.24 1.08 1.619 2.764 1.966 4.382 1.349 3.457-1.316 7.082-2.442 9.903-4.965 3.035-2.713 5.943-5.577 8.802-8.479 2.271-2.305 4.369-4.78 6.578-7.149.48-.516 1.067-.961 1.678-1.311.226-.129.748.008.978.206.224.193.404.665.325.933-.164.559-.456 1.103-.793 1.585-4.565 6.521-9.775 12.457-16.068 17.371-1.21.944-2.643 1.62-4.017 2.335-1.275.662-2.626 1.175-3.911 1.82-3.116 1.565-6.195 1.661-9.271-.092-.201-.114-.45-.138-.885-.263-.445.357-1.018.758-1.522 1.23-4.752 4.449-11.028 5.324-17.011 2.839-4.612-1.916-6.914-5.705-9.103-9.735-.042-1.664-.203-3.335-.094-4.987.119-1.786.455-3.559.768-5.325.146-.815.302-1.701.73-2.38 1.405-2.226 2.8-4.483 4.463-6.512 1.228-1.498 3.005-2.215 5.621-1.683z" fill="#2A406D"/><path d="M135.069 109.875c.318-.281.475-.547.66-.566 2.736-.279 5.28-1.559 8.075-1.533.472.005.965-.077 1.414-.221 4.35-1.397 8.569-3.088 12.272-5.832 1.435-1.063 2.905-2.101 3.466-3.992.19-.643.841-1.143 1.262-1.722 1.908-2.623 3.787-5.258 4.299-8.588.21-1.359.91-2.376 2.469-3.161.475 2.416.545 4.525-.404 6.469-1.152 2.359-2.532 4.607-3.848 6.882-.296.512-.939.884-1.085 1.413-.731 2.692-2.942 4.032-4.976 5.463-3.963 2.785-8.399 4.719-13.08 5.758-2.85.632-5.847 1.348-8.86.668-.454-.103-.884-.317-1.316-.502-.082-.036-.12-.176-.348-.536" fill="#2A406D"/><path d="M144.747 68.904c1.727.61 3.179 1.253 4.424 2.41.949.883 1.99 1.701 3.098 2.367.549.33 1.342.255 1.968.354 1.742-1.82 2.835-3.713 2.593-6.185-.045-.461.035-.975.198-1.413.729-1.981.658-3.983.27-6.01-.084-.444-.065-.908-.083-1.208.785-.714 1.326-.449 1.672.074 1.523 2.289 2.184 4.75 1.302 7.472-.11.339-.285.714-.235 1.042.461 3.101-1.217 5.483-2.584 7.986-.45.825-1.064 1.281-1.96 1.341-1.948.13-3.764-.116-5.431-1.349-1.94-1.436-3.442-3.27-5.037-5.024-.412-.454-.443-1.045-.195-1.857" fill="#2A406D"/><path d="M100.407 94.158c.55.754 1.183 1.46 1.635 2.267 1.674 2.98 4.021 4.326 7.603 3.188.922-.593.911-1.692.919-2.771.023-2.512-.007-5.025.055-7.536.024-.943.164-1.906.421-2.812.094-.332.649-.636 1.049-.742.209-.054.688.294.787.556.285.77.599 1.585.62 2.389.08 2.989.036 5.983.061 8.973.008 1.249-.407 2.344-1.112 3.346-.657.934-1.548 1.531-2.707 1.506-1.551-.032-3.104-.132-4.65-.28-.452-.043-.953-.252-1.306-.539-2.35-1.908-3.068-4.614-3.375-7.545" fill="#2A406D"/><path d="M213.698 34.906c.119.653.364 1.131.231 1.455-.217.531-.686.961-1.035 1.441-1.27 1.735-2.73 3.367-3.748 5.239-1.087 1.995-1.615 4.229-1.576 6.578.03 1.668-.145 3.346-.354 5.005-.039.317-.662.787-1.007.779-.353-.008-.945-.476-.999-.813-.841-5.204-.978-10.305 2.831-14.602 1.348-1.518 2.76-2.979 4.191-4.418.293-.295.802-.373 1.466-.664" fill="#2A406D"/><path d="M127.754 90.521c-.29 1.222-.379 1.752-.547 2.257-.182.547-.551 1.05-.642 1.605-.567 3.466 3.75 5.692 6.747 4.376.874-.384 1.735-.824 2.647-1.077.34-.095.884.19 1.183.468.144.131.046.741-.14.978-3.207 4.104-9.736 3.7-12.124-1.496-.803-1.748-.785-4.031 1.107-5.595.409-.337.805-.689 1.769-1.516" fill="#2A406D"/><path d="M179.605 66.399c-1.584.637-2.856.979-3.95 1.626-2.252 1.333-4.449 2.768-6.578 4.289-.74.53-1.284 1.392-1.784 2.185-.502.792-.948 1.582-2.107 2.343-.099-2.048.186-3.59 1.105-4.965.46-.685 1-1.383 1.662-1.849 2.236-1.576 4.499-3.129 6.84-4.543 1.723-1.039 2.557-.828 4.812.914" fill="#2A406D"/><path d="M102.345 112.651c-1.128-.74-1.226-1.82-.481-2.757 1.185-1.491 2.441-2.987 3.912-4.178 2.62-2.122 5.745-2.157 8.901-1.525.857.172 1.501.693 1.635 1.911-.351.126-.739.274-1.136.4-.107.034-.238.009-.356-.011-5.024-.885-8.463 1.65-11.401 5.275-.221.273-.462.531-.714.774-.072.071-.214.069-.36.111" fill="#2A406D"/><path d="M338.466 85.905c1.231 1.659 2.717 1.156 4.385.862 0-.591.064-1.055-.012-1.494-.184-1.034-.826-1.756-1.834-1.988-1.041-.241-1.426.686-1.903 1.337-.27.37-.417.831-.636 1.283zm1.033-4.689c2.839-.193 4.493.942 5.517 3.12.603 1.284.538 2.551-.076 3.817-.458.943-1.154 1.532-2.229 1.541-1.078.009-2.178.09-3.232-.088-1.336-.225-2.461-.903-3.092-2.214-.697-1.442-.57-2.398.584-3.573l1.343-1.196c.412-.42.763-.901 1.185-1.407z" fill="#2A406D"/></g></svg>