<svg width="330" height="312" viewBox="0 0 330 312" xmlns="http://www.w3.org/2000/svg"><title>baby_cry</title><desc>Created with Sketch.</desc><g fill="none"><path d="M307 279.69c0 17.673-55.964 32-125 32s-125-14.327-125-32c0-17.673 55.964-32 125-32s125 14.327 125 32" fill-opacity=".5" fill="#8BB5A4"/><path d="M251.185 70.251c-.726-4.096-2.581-7.719-4.542-11.28-2.432-4.411-5.083-8.7-7.642-13.042-.725-1.229-1.341-2.499-2.916-2.985-.608-.188-1.17-.877-1.522-1.473-1.083-1.833-2.848-3.225-3.326-5.478-.185-.872-.904-1.699-1.542-2.397-3.618-3.953-7.278-7.868-10.945-11.776-.572-.609-1.256-1.113-1.879-1.676-1.778-1.606-3.607-3.164-5.308-4.848-1.123-1.111-2.306-2.063-3.712-2.795-2.642-1.373-5.166-2.96-7.555-4.73-1.889-1.398-3.968-2.202-6.233-2.628-4.007-.754-8.013-1.441-12.096-1.769-5.524-.444-11.005-.591-16.504.254-8.559 1.314-17.008 2.992-24.906 6.745-1.623.769-3.305 1.429-4.989 2.056-4.407 1.647-8.483 3.925-12.466 6.392-6.019 3.725-11.052 8.533-14.708 14.555-4.622 7.609-8.345 15.641-10.125 24.487-.764 3.792-.956 7.613-1.325 11.427-.287 2.968-.309 5.964-.448 8.932 1.135.633 2.086 1.131 3.004 1.682 1.026.618 2.138 1.158 3.011 1.952 1.48 1.35 2.761 2.892 2.89 5.174-2.104-1.339-3.963-2.631-5.923-3.746-3.277-1.865-6.986-2.437-10.568-3.411-2.547-.692-4.923-.462-7.424.165-3.377.847-5.025 3.039-5.553 6.285-.192 1.181-.178 2.402-.411 3.573-.294 1.48-.103 2.9.419 4.243 1.445 3.715 3.183 7.255 6.455 9.779 7.496 5.785 15.583 8.319 24.834 4.583.192-.077.442-.009.974-.009-1.027 1.059-1.898 1.958-2.997 3.094.397.727.67 1.249.962 1.762 2.388 4.198 5.526 7.842 8.553 11.568 3.587 4.417 7.674 8.238 12.733 10.958 1.587.852 3.188 1.57 4.901 2.17 3.277 1.149 6.78 1.526 9.942 3.039.63.303 1.402.446 2.104.435 3.358-.062 6.696.105 10.018.598.235.033.48-.009.72-.011 5.403-.041 10.806-.072 16.209-.118 1.31-.014 2.58-.056 3.887-.486 1.681-.556 3.485-.873 5.257-.996 2.972-.208 5.93-.178 8.911-.722 2.643-.483 5.1-1.123 7.396-2.504.802-.482 1.727-.796 2.633-1.06 3.113-.901 6.193-1.834 8.903-3.734.967-.679 2.154-1.035 3.227-1.566 2.354-1.167 4.705-2.335 7.042-3.53 2.683-1.374 4.884-3.462 7.391-5.073 4.102-2.635 7.503-5.97 10.521-9.72 1.878-2.331 3.318-5.049 5.362-7.208 2.888-3.054 4.258-6.907 6.069-10.497 1.555-3.078 2.435-6.507 2.809-10.003.114-1.073.325-2.133.497-3.199.619-3.817.61-7.612-.069-11.438" fill="#FFE8E0"/><path d="M196.246 161.424c.063-1.126.133-1.831.13-2.534-.001-.716-.022-1.441-.13-2.146-.248-1.611-1.529-2.708-3.503-3.083-1.213-.23-2.576.39-3.203 1.766-.375.822-.465 1.841-.441 2.767.054 2.079 1.613 3.583 3.676 3.583 1.059 0 2.119-.207 3.471-.353zm5.55 25.669c.718-1.822.45-3.385.326-4.914-.119-1.457-2.094-3.386-3.532-3.652-1.465-.273-3.694 1.042-3.866 2.506-.181 1.521-.136 3.094.008 4.624.099 1.051.929 1.684 1.989 1.729 1.645.069 3.315.277 5.075-.293zm3.671 27.327c-.049-1.09-.029-2.4-.2-3.685-.073-.54-.437-1.165-.863-1.511-1.095-.891-2.298-1.648-3.567-2.536-1.636.846-3.834.971-3.947 3.538-.095 2.169-.42 4.598 2.057 5.633 2.194.92 4.471.699 6.52-1.439zm-98.104-29.874c1.378-.404 2.947-.087 4.466-.261.815-.094 1.617-.344 2.405-.584.138-.043.262-.4.246-.601-.016-.196-.182-.499-.344-.546-.566-.17-1.178-.404-1.737-.335-3.58.438-6.806-1.002-10.154-1.809-2.559-.616-5.123-1.225-7.708-1.718-3.581-.685-6.918-2.072-10.067-3.788-8.316-4.529-16.628-9.051-25.326-12.823-.984-.427-1.932-.971-2.824-1.569-2.294-1.537-4.57-3.1-6.813-4.712-2.929-2.103-5.621-4.453-7.644-7.694 1.278-1.881 2.722-3.699 2.495-6.231 1.321-.421 2.56-.815 3.794-1.216 1.148-.372 1.733-1.187 1.927-2.363.337-2.047.388-4.069-.425-6.025-.597-1.437-1.245-2.852-1.986-4.54l3.483-3.65c2.926-.076 5.926-.319 8.91-.194 6.958.287 13.87.935 20.636 2.811 3.107.861 6.328 1.595 9.53 1.758 3.967.205 7.741 1.104 11.554 1.999 1.274.298 2.601.366 3.897.582 1.411.239 2.938.261 4.194.847 2.521 1.176 5.163 1.924 7.797 2.72 3 .908 5.573 2.633 8.175 4.277 1.123.707 2.096 1.439 3.558 1.43.888-.005 1.799.587 2.664.988 2.271 1.049 4.472 2.274 7.064 2.396.458.022.913.279 1.353.469 3.84 1.639 7.897 1.985 11.999 1.943 6.358-.064 12.731.379 19.067-.457 1.933-.257 3.127.537 4.111 2.161 1.12 1.848 2.129 3.675 2.792 5.77.829 2.617 2.057 5.115 3.208 7.623 1.919 4.176 3.085 8.564 3.92 13.062 1.051 5.657 2.557 11.239 3.057 16.995.228 2.628.413 5.268.453 7.905.071 4.8-.096 9.608.046 14.407.267 9.059-.922 17.959-2.638 26.815-.242 1.25-.785 2.529-.064 3.74 1.137.388 1.759-.248 2.157-.982.451-.832.778-1.756 1.004-2.678 1.833-7.484 2.875-15.076 2.94-22.788.032-3.723-.1-7.449.023-11.169.332-10.023-.776-19.885-3.036-29.639-.515-2.22-.972-4.455-1.437-6.687-1.135-5.459-3.68-10.385-5.819-15.462l-.172-.317c-.598-1.564-1.065-3.196-1.826-4.676-.698-1.356-1.712-2.55-2.715-4 .83-.292 1.468-.594 2.138-.74 2.925-.641 5.846-1.315 8.794-1.832 4.296-.752 8.222-2.506 12.165-4.239.986-.433 1.984-1.066 3.009-1.138 2.308-.162 4.019-1.392 5.792-2.63.879-.611 1.812-1.254 2.818-1.555 2.9-.866 5.457-2.436 8.037-3.897 1.298-.737 2.456-.813 3.754-.596 3.073.511 6.155.995 9.202 1.635 6.861 1.443 13.75 1.765 20.759 1.401 4.863-.252 9.482-1.216 14.072-2.664 3.203-1.008 6.499-1.747 9.643-2.902 2.045-.749 3.46-.328 4.729 1.254l.562.691c-.439 1.99-.888 3.833-1.245 5.693-.404 2.105-.092 2.689 1.898 3.639 1.513.721 3.063 1.365 4.856 2.157l.21 2.903c-.965.533-1.837.906-2.582 1.45-3.778 2.765-7.574 5.506-11.261 8.384-2.934 2.294-5.901 4.513-9.007 6.575-4.534 3.012-9.453 5.191-14.428 7.293-.662.28-1.354.497-2.005.801-4.51 2.101-9.186 3.458-14.222 3.362-.947-.019-1.895.289-2.849.388-1.073.111-2.16.267-3.228.203-3.349-.208-6.691-.507-10.035-.785-.223-.021-.435-.172-.999-.409-.53-1.29-1.197-2.813-1.786-4.368-.772-2.033-1.744-3.937-3.066-5.677-1.603-2.109-2.979-4.356-3.906-6.859-.205-.556-.485-1.113-.853-1.57-.523-.648-1.204-.696-1.949-.139.078 1.405.532 2.659 1.319 3.906 2.697 4.266 5.051 8.717 6.675 13.518 2.843 8.406 5.322 16.895 6.802 25.676 1.101 6.539 1.699 13.085 1.465 19.706-.054 1.537-.093 3.069.192 4.698 2.391.319 4.485.118 6.418-.943 3.169-1.741 6.551-2.979 9.945-4.141 2.826-.966 5.829-1.263 8.807-1.419 2.275-.121 4.569.103 6.842-.038 2.721-.165 5.23.493 7.693 1.501 2.553 1.042 5.08 2.148 7.651 3.144 2.071.8 3.768 2.184 5.24 3.703 2.076 2.144 4.006 4.489 5.626 6.99.86 1.327 1.239 3.152 1.303 4.771.167 4.197.158 8.409-.034 12.603-.068 1.49-.804 2.972-1.346 4.415-.46 1.228-1.129 2.374-1.618 3.592-.49 1.22-1.022 2.376-1.773 3.496-.985 1.47-1.671 3.173-2.304 4.843-.757 1.997-1.323 4.067-2.039 6.318.591.268 1.181.681 1.825.801 3.113.573 5.934 1.874 8.676 3.371.732.401 1.413.912 2.066 1.434 1.889 1.506 2.606 4.707-.067 6.838-2.009 1.602-4.242 2.796-6.721 3.327-5.96 1.28-11.908 1.389-17.738-.768-1.589-.589-3.003-1.383-4.26-2.59-1.288-1.236-2.83-2.211-4.289-3.262-1.118-.805-1.973-1.693-1.925-3.225.049-1.518-.993-2.937-.299-4.578.217-.516-.224-1.395-.529-2.029-.722-1.506-1.552-2.958-2.321-4.443-.547-1.056-.961-2.142-2.176-2.751-.553-.279-.804-1.138-1.219-1.716-1.308-1.818-2.629-3.63-3.917-5.403-1.649.566-.871 1.974-1.324 2.702-1.239.943-2.288 1.98-3.536 2.644-2.216 1.173-4.491 2.297-6.854 3.114-3.377 1.167-6.857 2.037-10.292 3.032-.46.134-.915.315-1.386.383-3.433.496-6.871.955-10.303 1.455-.942.139-1.865.406-2.804.566-2.22.384-4.255 1.596-6.638 1.322-.78-.09-1.651.276-2.431.564-8.244 3.059-17.266 5.86-23.662 7.194-1.275.266-2.624.228-3.94.235-1.932.009-3.786.156-5.62.964-1.163.51-2.554.624-3.853.684-2.246.108-4.501.031-6.689.031-1.373-5.226-2.75-10.545-4.173-15.852-1.194-4.453-3.249-8.576-5.83-12.313-1.737-2.516-4.231-4.555-6.581-6.582-.933-.802-2.358-1.202-3.622-1.414-2.361-.394-4.765-.585-7.159-.736-3.218-.203-5.886.908-7.778 3.614-1.033 1.475-2.096 2.932-3.06 4.451-1.231 1.943-2.045 4.056-2.401 6.349-.458 2.965-1.071 5.907-1.457 8.879-.322 2.492-.467 5.011-.589 7.523-.094 1.903-.027 3.815-.034 6.467-.714-.901-1.061-1.177-1.201-1.537-2.711-6.949-4.965-14.008-5.615-21.513-.236-2.732-.958-5.42-1.42-8.135-.161-.942-.27-1.904-.287-2.857-.098-5.523.009-11.04.498-16.551.805-9.09 1.824-18.157 3.388-27.148.595-3.415 1.644-6.751 2.42-10.137.395-1.727.646-3.485 1.056-5.756z" fill="#42A4D1"/><path d="M116.775 293.409c-.133-1.39-.039-2.244-.313-2.958-1.871-4.85-2.955-9.848-3.198-15.043-.055-1.176-.279-2.381-.647-3.501-1.7-5.185-1.652-10.367-.05-15.536.602-1.941 1.536-3.777 2.167-5.711.583-1.785 1.684-3.141 2.993-4.408 1.481-1.44 3.101-2.013 5.225-1.627 1.989.362 4.054.335 6.089.409 2.29.084 4.062 1.119 5.746 2.614 4.652 4.125 7.171 9.528 9.351 15.15.607 1.564 1.13 3.17 1.541 4.794.379 1.499.644 3.043.806 4.583.297 2.853.564 5.704.929 8.551.435 3.401.413 7.045-.367 10.359-.866 3.685-2.806 7.078-6.396 9.157-1.441.833-2.971.873-4.488 1.071-2.99.396-6.02.415-8.816-.843-2.83-1.272-5.608-2.702-8.254-4.317-1.05-.64-1.683-1.963-2.318-2.744" fill="#42A4D1"/><path d="M30.04 120.554c-2.017 2.726-2.166 5.416-.634 8.087.47.819 1.603 1.282 2.488 1.816.172.103.711-.138.882-.371.167-.222.171-.668.077-.958-.102-.313-.356-.623-.625-.824-1.623-1.224-1.964-2.855-1.592-4.743.114-.573.305-1.171.24-1.733-.045-.391-.466-.739-.836-1.274zm.2-15.329c-2.449 2.383-3.033 3.498-3.444 6.492-.347 2.535 1.292 5.473 3.683 6.369 1.328.5 2.669 1.031 4.19.692.773-.172 1.617-.028 2.531-.028.128-.543.331-.996.316-1.442-.02-.571-.216-1.136-.306-1.559-.821-.54-1.315-.108-1.778.227-1.673 1.211-3.34.587-4.673-.375-1.365-.981-2.095-2.442-1.734-4.399.63-3.407 2.675-5.537 6.136-5.925.355-.041.719-.023 1.079-.007.595.023 1.189.065 1.833.103 2.024 2.047 3.009 4.63 3.795 7.255.329 1.092.193 2.395.009 3.56-.372 2.362-.714 4.763-1.46 7.019-.631 1.905-1.789 3.64-2.767 5.422-.4.73-1.125 1.32-1.385 2.08-1.213 3.541-4.357 4.984-7.228 6.611-2.02 1.143-4.408.9-6.878.809-.125-.685-.369-1.363-.344-2.028.051-1.28-.452-2.307-1.29-3.297.444-1.464 2.242-2.242 1.948-4.1-.261-1.64.286-3.465-.693-4.919-.847-1.261-2.058-2.279-3.314-3.623-.178-1.438-.487-3.081.315-4.911.5-1.14-.008-2.722-.066-4.163.789-.121 1.707-.252 2.621-.411.091-.013.158-.169.244-.269.216-1.013-.674-1.232-1.25-1.426-2.018-.683-4.084-1.225-6.152-1.827-.711.598-.63 1.229.064 1.763 1.183.91 1.941 2.072 2.414 3.482.487 1.445.12 2.664-.994 3.554-1.332 1.061-2.709 1.59-4.631 1.044-3.521-1.002-5.789-3.094-7.25-6.356-.679-1.517-.734-3.027-.477-4.567.475-2.835 2.084-5.105 4.125-6.988 1.318-1.217 2.986-1.818 4.913-1.905 4.062-.18 7.709.608 11.274 2.756 2.497 1.508 4.594 3.293 6.624 5.287z" fill="#FFE8E0"/><path d="M319.514 137.986c3.637-2.052 4.024-2.543 5.056-6.347-1.937.638-1.937.638-4.165 3.206-1.399 0-2.951.047-4.5-.017-1.039-.045-1.824-.532-1.988-1.874 1.334-1.185 2.539-2.524 4.635-2.883 2.259-.384 2.846-2.211 2.787-4.609-1.721.442-2.843 1.459-4.069 2.271-1.475.975-2.891 2.055-4.43 2.916-1.632.917-3.242.266-4.808-.424-1.657-.729-2.017-2.162-2.482-3.859.806-.05 1.269-.123 1.724-.094 2.859.169 4.332-1.836 5.622-3.835.709-1.098.439-2.461-.743-3.52-.343.383-.684.602-.781.899-.747 2.312-2.368 3.321-4.711 3.806-1.477.305-2.595-.059-3.743-.674-1.307-.7-1.723-2.711-.613-3.699 2.006-1.783 3.708-4.169 6.867-4.089.926.022 1.609-.554 1.918-1.395.367-.995.731-2.023.849-3.065.144-1.289.033-2.609.033-3.813 2.498-.953 2.504-.957 3.627.346.234.27.349.679.623.872 2.329 1.643 3.811 3.913 4.749 6.481 2.99.515 4.333 2.63 5.056 5.058.536 1.802.559 3.768.725 5.668.194 2.232-.27 4.449.433 6.729.636 2.064-.376 4-2.058 5.419-1.697 1.432-3.524 1.743-5.613.526" fill="#FFE8E0"/><path d="M308.608 112.289c-.846.044-1.44.052-2.025.113-1.712.179-3.043-.315-3.876-1.945-.259-.511-.709-.982-1.186-1.31-.623-.429-1.339-.518-2.047.368.491.817 1.058 1.682 1.544 2.59.502.938.928 1.914 1.494 3.097-.674.649-1.544 1.436-2.357 2.278-1.551 1.606-1.767 3.314-.714 5.235.057.106.117.212.198.299 1.06 1.112 2.301 2.102 3.137 3.361.847 1.273 1.193 2.869 1.964 4.207.382.665 1.153 1.2 1.866 1.562 1.161.593 2.42.997 3.596 1.465l2.707 3.548c-.526.769-1.304 1.195-2.286 1.273-1.323.103-2.593.08-3.816-.66-3.04-1.845-6.22-3.34-8.596-6.263-2.474-3.043-5.187-5.891-7.336-9.197-.323-.496-.546-1.057-.626-1.219.093-2.297.24-4.201.225-6.101-.011-1.379.353-2.597 1.031-3.757 1.513-2.59 3.267-4.955 5.677-6.82 1.67-1.291 3.392-2.226 5.576-2.039.596.049 1.209.076 1.798-.004 2.532-.346 3.869 1.004 4.498 3.656.452 1.912.52 4.029-.446 6.263" fill="#FFE8E0"/><path d="M44.471 127.514c-.223 1.038.259 1.819.771 2.666.672 1.109 1.235 2.307 1.671 3.528.225.633.186 1.42.066 2.103-.212 1.207-1.017 1.872-2.273 1.825-.932-.033-1.894-.203-2.768-.522-.989-.359-1.894-.95-3.144-1.602-.035.766-.209 1.332-.052 1.781.352 1.008.884 1.952 1.317 2.933.703 1.6.816 3.235.208 4.891-1.026 2.795-4.025 3.317-5.932 1.014-1.124-1.36-1.3-3.034-1.37-4.709-.048-1.165-.009-2.336-.009-3.458 1.3-1.352 2.733-2.61 3.871-4.093 1.154-1.504 2.19-3.156 2.963-4.882 1.117-2.494 1.949-5.115 2.904-7.681l.642-1.716c1.918-1.002 3.79-2.028 6.028-1.042 1.284 3.293 1.168 4.157-1.194 6.281-1.045.941-2.284 1.669-3.699 2.683" fill="#EAF4FF"/><path d="M288.42 121.765c.822 2.278 1.734 4.462 3.729 5.979.278.21.49.527.68.828 1.807 2.855 4.276 5.129 6.681 7.475-.254 1.471-.399 2.892-.77 4.25-.245.9-.684 1.812-1.269 2.529-.683.834-1.574 1.216-2.85.999-3.076-.518-3.183-.502-3.326-3.469-.011-.239.05-.482.028-.719-.12-1.302-.603-1.968-1.918-2.19-1.81-.309-3.426-1.007-4.949-1.899.119-2.836.203-5.582 2.405-7.523-.346-1.666-1.97-1.439-2.75-2.284-.069-.096-.172-.183-.205-.29-.915-3.03-.914-3.03 1.876-4.565l2.638.879" fill="#EAF4FF"/><path d="M4.359 123.186c1.362.785 1.956 1.895 2.904 2.53 1.173.784 2.414 1.751 3.736 1.965 2.428.398 4.788.023 6.119-2.578.362-.707.985-1.281 1.691-2.173.579.904 1.256 1.529 1.377 2.246.194 1.159.051 2.378-.014 3.568-.019.33-.213.682-.414.966-1.737 2.436-5.962 4.036-8.895 3.291-1.474-.375-2.859-.813-4.156-1.857-2.63-2.119-2.577-4.743-2.348-7.958" fill="#FFE8E0"/><path d="M242.543 44.55c1.345-2.581 3.537-2.532 5.441-1.881 1.795.612 3.301 2.138 3.433 4.231.173 2.741.155 5.51-.014 8.254-.07 1.122-.752 2.204-1.335 3.793-1.755-2.74-2.193-5.504-3.525-7.835-1.298-2.272-2.721-4.474-4-6.562" fill="#ECD7D0"/><path d="M4.169 115.066c3.836 3.387 7.339 5.713 11.992 3.552.731 1.16.548 2.171.067 3.152-.314.638-.717 1.235-1.102 1.836-1.195 1.862-2.902 2.36-4.899 1.339-2.167-1.109-3.79-2.914-5.294-4.736-1.003-1.214-.759-2.913-.764-5.143" fill="#FFE8E0"/><path d="M8.337 134.753c3.491.766 6.805 1.647 9.493-1.193 1.393.959 1.595 1.591.869 2.475-1.441 1.753-3.473 2.509-5.563 2.862-.915.153-2.048-.451-2.958-.939-1.037-.561-1.988-1.343-1.841-3.205" fill="#FFE8E0"/><path d="M199.269 209.963c.817-.18 1.53-.544 2.14-.418.645.137 1.487.619 1.709 1.167.274.679.214 1.676-.097 2.357-.369.809-1.333.907-2.212.78-.78-.113-1.398-.528-1.514-1.305-.12-.803-.026-1.639-.026-2.581" fill="#FFD159"/><path d="M199.667 185.035h-2.316c-.169-.221-.394-.384-.428-.582-.273-1.574-.356-3.097 1.384-3.974 1.922 1.515 1.922 1.515 1.36 4.556" fill="#FFD159"/><path d="M194.68 159.892c-1.026-.125-1.901-.015-2.505-.37-.518-.304-.864-1.098-1.042-1.743-.362-1.312.726-2.574 2.158-2.568.808.005 1.344.589 1.421 1.31.111 1.015-.007 2.053-.032 3.371" fill="#FFD159"/><path d="M192.765 100.364l-4.88-4.332c-2.396-.04-4.834-.371-7.175-.029-1.964.285-3.911 1.168-5.694 2.112-3.39 1.796-6.789 3.633-9.927 5.82-2.134 1.488-3.913 3.532-5.677 5.484-.676.748-.867 1.932-1.283 2.914-.185.437-.381.87-.626 1.425-2.463-.323-4.037-1.715-5.471-3.628-1.445-1.922-1.596-4.209-2.43-6.437 1.023-2.176 2.358-4.074 4.409-5.712 3.244-2.59 6.706-4.58 10.596-5.954 3.617-1.276 7.189-2.682 10.771-4.059 1.362-.523 2.738-.836 4.21-.764.835.04 1.719.085 2.508-.136 3.069-.859 6.197-.547 9.308-.63 1.846-.049 3.609.309 5.225 1.132 2.455 1.251 4.858 2.607 7.248 3.977 3.193 1.83 5.051 4.671 6.031 8.159.26.922.622 1.813.914 2.726 1.39 4.353 1.613 8.716-.193 12.993-.53 1.254-1.099 2.67-2.594 3.161-.524-2.893-1.031-5.682-1.528-8.473-.062-.353-.129-.721-.096-1.07.256-2.729-1.154-4.824-2.566-6.93-2.292-3.418-6.26-3.858-9.235-2.604-.658.277-1.296.598-1.845.855" fill="#A44260"/><path d="M204.735 116.772c-1.533 1.441-2.735 1.83-4.255.969-1.248-.707-2.52-1.301-3.603-2.312-1.302-1.214-2.757-2.275-4.212-3.31-1.183-.841-2.5-1.33-4.022-1.285-3.827.111-7.601.136-11.36 1.332-2.316.736-4.828 1.332-7.391 1.128-.809-.062-1.649.212-2.468.367-2.252.424-4.508.467-6.716.311-.141-.365-.356-.662-.284-.773 1.069-1.683 2.103-3.396 3.295-4.991 1.24-1.658 3.012-2.713 4.79-3.724 3.535-2.005 6.908-4.28 10.77-5.713 2.365-.879 4.715-.629 7.088-.573.522.013 1.145.406 1.524.807.73.774 1.4 1.629 1.949 2.539 1.619 2.682 1.702 2.757 4.3 1.084 1.489-.959 3.071-1.351 4.781-1.052.67.115 1.433.408 1.895.876 1.527 1.546 2.88 3.293 3.09 5.535.156 1.673.381 3.3.77 4.939.295 1.237.059 2.599.059 3.846" fill="#FF9AA9"/><path d="M144.604 74.816c-6.262-4.025-23.741-1.695-26.935 6.348-3.836 3.031-6.759 7.274-5.886 12.133 1.571 8.74 9.503 9.647 16.697 8.411 1.139-.196 2.281-.455 3.416-.763 1.906-.117 3.758-.694 5.294-1.84l.231-.182c3.867-1.822 7.344-4.425 9.811-7.9 3.999-5.629 3.398-12.335-2.628-16.207" fill="#FFA9B3"/><path d="M245.239 60.629c-2.665-.994-5.915-.852-8.854-.376-3.883-.5-7.967.131-11.083 1.793-4.09 2.183-4.325 7.487-2.904 11.353 1.833 4.988 6.389 6.331 11.269 6.711 7.38.574 16.833-4.014 17.841-11.889.487-3.801-3.222-6.454-6.269-7.592" fill="#FFA9B3"/><path d="M198.362 73.948c-.255-1.598-1.686-2.754-2.876-3.656-1.297-.985-3.501-.683-4.964-.407-3.346.63-6.064 3.684-5.277 7.173 1.482 6.567 13.323 4.516 13.15-1.434.054-.541.06-1.098-.033-1.676" fill="#FFCFBD"/><path d="M8.337 134.753c-.147 1.862.804 2.644 1.841 3.205.91.488 2.043 1.092 2.958.939 2.09-.353 4.122-1.109 5.563-2.862.726-.884.524-1.516-.869-2.475-2.688 2.84-6.002 1.959-9.493 1.193zm-4.168-19.687c.005 2.23-.239 3.929.764 5.143 1.504 1.822 3.127 3.627 5.294 4.736 1.997 1.021 3.704.523 4.899-1.339.385-.601.788-1.198 1.102-1.836.481-.981.664-1.992-.067-3.152-4.653 2.161-8.156-.165-11.992-3.552zm238.374-70.516c1.279 2.088 2.702 4.29 4 6.562 1.332 2.331 1.77 5.095 3.525 7.835.583-1.589 1.265-2.671 1.335-3.793.169-2.744.187-5.513.014-8.254-.132-2.093-1.638-3.619-3.433-4.231-1.904-.651-4.096-.7-5.441 1.881zm-238.184 78.636c-.229 3.215-.282 5.839 2.348 7.958 1.297 1.044 2.682 1.482 4.156 1.857 2.933.745 7.158-.855 8.895-3.291.201-.284.395-.636.414-.966.065-1.19.208-2.409.014-3.568-.121-.717-.798-1.342-1.377-2.246-.706.892-1.329 1.466-1.691 2.173-1.331 2.601-3.691 2.976-6.119 2.578-1.322-.214-2.563-1.181-3.736-1.965-.948-.635-1.542-1.745-2.904-2.53zm284.061-1.421l-2.638-.879c-2.79 1.535-2.791 1.535-1.876 4.565.033.107.136.194.205.29.78.845 2.404.618 2.75 2.284-2.202 1.941-2.286 4.687-2.405 7.523 1.523.892 3.139 1.59 4.949 1.899 1.315.222 1.798.888 1.918 2.19.022.237-.039.48-.028.719.143 2.967.25 2.951 3.326 3.469 1.276.217 2.167-.165 2.85-.999.585-.717 1.024-1.629 1.269-2.529.371-1.358.516-2.779.77-4.25-2.405-2.346-4.874-4.62-6.681-7.475-.19-.301-.402-.618-.68-.828-1.995-1.517-2.907-3.701-3.729-5.979zm-243.949 5.749c1.415-1.014 2.654-1.742 3.699-2.683 2.362-2.124 2.478-2.988 1.194-6.281-2.238-.986-4.11.04-6.028 1.042l-.642 1.716c-.955 2.566-1.787 5.187-2.904 7.681-.773 1.726-1.809 3.378-2.963 4.882-1.138 1.483-2.571 2.741-3.871 4.093 0 1.122-.039 2.293.009 3.458.07 1.675.246 3.349 1.37 4.709 1.907 2.303 4.906 1.781 5.932-1.014.608-1.656.495-3.291-.208-4.891-.433-.981-.965-1.925-1.317-2.933-.157-.449.017-1.015.052-1.781 1.25.652 2.155 1.243 3.144 1.602.874.319 1.836.489 2.768.522 1.256.047 2.061-.618 2.273-1.825.12-.683.159-1.47-.066-2.103-.436-1.221-.999-2.419-1.671-3.528-.512-.847-.994-1.628-.771-2.666zm264.137-15.225c.966-2.234.898-4.351.446-6.263-.629-2.652-1.966-4.002-4.498-3.656-.589.08-1.202.053-1.798.004-2.184-.187-3.906.748-5.576 2.039-2.41 1.865-4.164 4.23-5.677 6.82-.678 1.16-1.042 2.378-1.031 3.757.015 1.9-.132 3.804-.225 6.101.08.162.303.723.626 1.219 2.149 3.306 4.862 6.154 7.336 9.197 2.376 2.923 5.556 4.418 8.596 6.263 1.223.74 2.493.763 3.816.66.982-.078 1.76-.504 2.286-1.273l-2.707-3.548c-1.176-.468-2.435-.872-3.596-1.465-.713-.362-1.484-.897-1.866-1.562-.771-1.338-1.117-2.934-1.964-4.207-.836-1.259-2.077-2.249-3.137-3.361-.081-.087-.141-.193-.198-.299-1.053-1.921-.837-3.629.714-5.235.813-.842 1.683-1.629 2.357-2.278-.566-1.183-.992-2.159-1.494-3.097-.486-.908-1.053-1.773-1.544-2.59.708-.886 1.424-.797 2.047-.368.477.328.927.799 1.186 1.31.833 1.63 2.164 2.124 3.876 1.945.585-.061 1.179-.069 2.025-.113zm10.906 25.697c2.089 1.217 3.916.906 5.613-.526 1.682-1.419 2.694-3.355 2.058-5.419-.703-2.28-.239-4.497-.433-6.729-.166-1.9-.189-3.866-.725-5.668-.723-2.428-2.066-4.543-5.056-5.058-.938-2.568-2.42-4.838-4.749-6.481-.274-.193-.389-.602-.623-.872-1.123-1.303-1.129-1.299-3.627-.346 0 1.204.111 2.524-.033 3.813-.118 1.042-.482 2.07-.849 3.065-.309.841-.992 1.417-1.918 1.395-3.159-.08-4.861 2.306-6.867 4.089-1.11.988-.694 2.999.613 3.699 1.148.615 2.266.979 3.743.674 2.343-.485 3.964-1.494 4.711-3.806.097-.297.438-.516.781-.899 1.182 1.059 1.452 2.422.743 3.52-1.29 1.999-2.763 4.004-5.622 3.835-.455-.029-.918.044-1.724.094.465 1.697.825 3.13 2.482 3.859 1.566.69 3.176 1.341 4.808.424 1.539-.861 2.955-1.941 4.43-2.916 1.226-.812 2.348-1.829 4.069-2.271.059 2.398-.528 4.225-2.787 4.609-2.096.359-3.301 1.698-4.635 2.883.164 1.342.949 1.829 1.988 1.874 1.549.064 3.101.017 4.5.017 2.228-2.568 2.228-2.568 4.165-3.206-1.032 3.804-1.419 4.295-5.056 6.347zm-289.274-32.761c-2.03-1.994-4.127-3.779-6.624-5.287-3.565-2.148-7.212-2.936-11.274-2.756-1.927.087-3.595.688-4.913 1.905-2.041 1.883-3.65 4.153-4.125 6.988-.257 1.54-.202 3.05.477 4.567 1.461 3.262 3.729 5.354 7.25 6.356 1.922.546 3.299.017 4.631-1.044 1.114-.89 1.481-2.109.994-3.554-.473-1.41-1.231-2.572-2.414-3.482-.694-.534-.775-1.165-.064-1.763 2.068.602 4.134 1.144 6.152 1.827.576.194 1.466.413 1.25 1.426-.086.1-.153.256-.244.269-.914.159-1.832.29-2.621.411.058 1.441.566 3.023.066 4.163-.802 1.83-.493 3.473-.315 4.911 1.256 1.344 2.467 2.362 3.314 3.623.979 1.454.432 3.279.693 4.919.294 1.858-1.504 2.636-1.948 4.1.838.99 1.341 2.017 1.29 3.297-.025.665.219 1.343.344 2.028 2.47.091 4.858.334 6.878-.809 2.871-1.627 6.015-3.07 7.228-6.611.26-.76.985-1.35 1.385-2.08.978-1.782 2.136-3.517 2.767-5.422.746-2.256 1.088-4.657 1.46-7.019.184-1.165.32-2.468-.009-3.56-.786-2.625-1.771-5.208-3.795-7.255-.644-.038-1.238-.08-1.833-.103-.36-.016-.724-.034-1.079.007-3.461.388-5.506 2.518-6.136 5.925-.361 1.957.369 3.418 1.734 4.399 1.333.962 3 1.586 4.673.375.463-.335.957-.767 1.778-.227.09.423.286.988.306 1.559.015.446-.188.899-.316 1.442-.914 0-1.758-.144-2.531.028-1.521.339-2.862-.192-4.19-.692-2.391-.896-4.03-3.834-3.683-6.369.411-2.994.995-4.109 3.444-6.492zm86.535 188.184c.635.781 1.268 2.104 2.318 2.744 2.646 1.615 5.424 3.045 8.254 4.317 2.796 1.258 5.826 1.239 8.816.843 1.517-.198 3.047-.238 4.488-1.071 3.59-2.079 5.53-5.472 6.396-9.157.78-3.314.802-6.958.367-10.359-.365-2.847-.632-5.698-.929-8.551-.162-1.54-.427-3.084-.806-4.583-.411-1.624-.934-3.23-1.541-4.794-2.18-5.622-4.699-11.025-9.351-15.15-1.684-1.495-3.456-2.53-5.746-2.614-2.035-.074-4.1-.047-6.089-.409-2.124-.386-3.744.187-5.225 1.627-1.309 1.267-2.41 2.623-2.993 4.408-.631 1.934-1.565 3.77-2.167 5.711-1.602 5.169-1.65 10.351.05 15.536.368 1.12.592 2.325.647 3.501.243 5.195 1.327 10.193 3.198 15.043.274.714.18 1.568.313 2.958zm-11.568-181.823c.397.727.67 1.249.962 1.762 2.388 4.198 5.526 7.842 8.553 11.568 3.587 4.417 7.674 8.238 12.733 10.958 1.587.852 3.188 1.57 4.901 2.17 3.277 1.149 6.78 1.526 9.942 3.039.63.303 1.402.446 2.104.435 3.358-.062 6.696.105 10.018.598.235.033.48-.009.72-.011 5.403-.041 10.806-.072 16.209-.118 1.31-.014 2.58-.056 3.887-.486 1.681-.556 3.485-.873 5.257-.996 2.972-.208 5.93-.178 8.911-.722 2.643-.483 5.1-1.123 7.396-2.504.802-.482 1.727-.796 2.633-1.06 3.113-.901 6.193-1.834 8.903-3.734.967-.679 2.154-1.035 3.227-1.566 2.354-1.167 4.705-2.335 7.042-3.53 2.683-1.374 4.884-3.462 7.391-5.073 4.102-2.635 7.503-5.97 10.521-9.72 1.878-2.331 3.318-5.049 5.362-7.208 2.888-3.054 4.258-6.907 6.069-10.497 1.555-3.078 2.435-6.507 2.809-10.003.114-1.073.325-2.133.497-3.199.619-3.817.61-7.612-.069-11.438-.726-4.096-2.581-7.719-4.542-11.28-2.432-4.411-5.083-8.7-7.642-13.042-.725-1.229-1.341-2.499-2.916-2.985-.608-.188-1.17-.877-1.522-1.473-1.083-1.833-2.848-3.225-3.326-5.478-.185-.872-.904-1.699-1.542-2.397-3.618-3.953-7.278-7.868-10.945-11.776-.572-.609-1.256-1.113-1.879-1.676-1.778-1.606-3.607-3.164-5.308-4.848-1.123-1.111-2.306-2.063-3.712-2.795-2.642-1.373-5.166-2.96-7.555-4.73-1.889-1.398-3.968-2.202-6.233-2.628-4.007-.754-8.013-1.441-12.096-1.769-5.524-.444-11.005-.591-16.504.254-8.559 1.314-17.008 2.992-24.906 6.745-1.623.769-3.305 1.429-4.989 2.056-4.407 1.647-8.483 3.925-12.466 6.392-6.019 3.725-11.052 8.533-14.708 14.555-4.622 7.609-8.345 15.641-10.125 24.487-.764 3.792-.956 7.613-1.325 11.427-.287 2.968-.309 5.964-.448 8.932 1.135.633 2.086 1.131 3.004 1.682 1.026.618 2.138 1.158 3.011 1.952 1.48 1.35 2.761 2.892 2.89 5.174-2.104-1.339-3.963-2.631-5.923-3.746-3.277-1.865-6.986-2.437-10.568-3.411-2.547-.692-4.923-.462-7.424.165-3.377.847-5.025 3.039-5.553 6.285-.192 1.181-.178 2.402-.411 3.573-.294 1.48-.103 2.9.419 4.243 1.445 3.715 3.183 7.255 6.455 9.779 7.496 5.785 15.583 8.319 24.834 4.583.192-.077.442-.009.974-.009-1.027 1.059-1.898 1.958-2.997 3.094zm2.156 72.96c-.41 2.271-.661 4.029-1.056 5.756-.776 3.386-1.825 6.722-2.42 10.137-1.564 8.991-2.583 18.058-3.388 27.148-.489 5.511-.596 11.028-.498 16.551.017.953.126 1.915.287 2.857.462 2.715 1.184 5.403 1.42 8.135.65 7.505 2.904 14.564 5.615 21.513.14.36.487.636 1.201 1.537.007-2.652-.06-4.564.034-6.467.122-2.512.267-5.031.589-7.523.386-2.972.999-5.914 1.457-8.879.356-2.293 1.17-4.406 2.401-6.349.964-1.519 2.027-2.976 3.06-4.451 1.892-2.706 4.56-3.817 7.778-3.614 2.394.151 4.798.342 7.159.736 1.264.212 2.689.612 3.622 1.414 2.35 2.027 4.844 4.066 6.581 6.582 2.581 3.737 4.636 7.86 5.83 12.313 1.423 5.307 2.8 10.626 4.173 15.852 2.188 0 4.443.077 6.689-.031 1.299-.06 2.69-.174 3.853-.684 1.834-.808 3.688-.955 5.62-.964 1.316-.007 2.665.031 3.94-.235 6.396-1.334 15.418-4.135 23.662-7.194.78-.288 1.651-.654 2.431-.564 2.383.274 4.418-.938 6.638-1.322.939-.16 1.862-.427 2.804-.566 3.432-.5 6.87-.959 10.303-1.455.471-.068.926-.249 1.386-.383 3.435-.995 6.915-1.865 10.292-3.032 2.363-.817 4.638-1.941 6.854-3.114 1.248-.664 2.297-1.701 3.536-2.644.453-.728-.325-2.136 1.324-2.702 1.288 1.773 2.609 3.585 3.917 5.403.415.578.666 1.437 1.219 1.716 1.215.609 1.629 1.695 2.176 2.751.769 1.485 1.599 2.937 2.321 4.443.305.634.746 1.513.529 2.029-.694 1.641.348 3.06.299 4.578-.048 1.532.807 2.42 1.925 3.225 1.459 1.051 3.001 2.026 4.289 3.262 1.257 1.207 2.671 2.001 4.26 2.59 5.83 2.157 11.778 2.048 17.738.768 2.479-.531 4.712-1.725 6.721-3.327 2.673-2.131 1.956-5.332.067-6.838-.653-.522-1.334-1.033-2.066-1.434-2.742-1.497-5.563-2.798-8.676-3.371-.644-.12-1.234-.533-1.825-.801.716-2.251 1.282-4.321 2.039-6.318.633-1.67 1.319-3.373 2.304-4.843.751-1.12 1.283-2.276 1.773-3.496.489-1.218 1.158-2.364 1.618-3.592.542-1.443 1.278-2.925 1.346-4.415.192-4.194.201-8.406.034-12.603-.064-1.619-.443-3.444-1.303-4.771-1.62-2.501-3.55-4.846-5.626-6.99-1.472-1.519-3.169-2.903-5.24-3.703-2.571-.996-5.098-2.102-7.651-3.144-2.463-1.008-4.972-1.666-7.693-1.501-2.273.141-4.567-.083-6.842.038-2.978.156-5.981.453-8.807 1.419-3.394 1.162-6.776 2.4-9.945 4.141-1.933 1.061-4.027 1.262-6.418.943-.285-1.629-.246-3.161-.192-4.698.234-6.621-.364-13.167-1.465-19.706-1.48-8.781-3.959-17.27-6.802-25.676-1.624-4.801-3.978-9.252-6.675-13.518-.787-1.247-1.241-2.501-1.319-3.906.745-.557 1.426-.509 1.949.139.368.457.648 1.014.853 1.57.927 2.503 2.303 4.75 3.906 6.859 1.322 1.74 2.294 3.644 3.066 5.677.589 1.555 1.256 3.078 1.786 4.368.564.237.776.388.999.409 3.344.278 6.686.577 10.035.785 1.068.064 2.155-.092 3.228-.203.954-.099 1.902-.407 2.849-.388 5.036.096 9.712-1.261 14.222-3.362.651-.304 1.343-.521 2.005-.801 4.975-2.102 9.894-4.281 14.428-7.293 3.106-2.062 6.073-4.281 9.007-6.575 3.687-2.878 7.483-5.619 11.261-8.384.745-.544 1.617-.917 2.582-1.45l-.21-2.903c-1.793-.792-3.343-1.436-4.856-2.157-1.99-.95-2.302-1.534-1.898-3.639.357-1.86.806-3.703 1.245-5.693l-.562-.691c-1.269-1.582-2.684-2.003-4.729-1.254-3.144 1.155-6.44 1.894-9.643 2.902-4.59 1.448-9.209 2.412-14.072 2.664-7.009.364-13.898.042-20.759-1.401-3.047-.64-6.129-1.124-9.202-1.635-1.298-.217-2.456-.141-3.754.596-2.58 1.461-5.137 3.031-8.037 3.897-1.006.301-1.939.944-2.818 1.555-1.773 1.238-3.484 2.468-5.792 2.63-1.025.072-2.023.705-3.009 1.138-3.943 1.733-7.869 3.487-12.165 4.239-2.948.517-5.869 1.191-8.794 1.832-.67.146-1.308.448-2.138.74 1.003 1.45 2.017 2.644 2.715 4 .761 1.48 1.228 3.112 1.826 4.676l.172.317c2.139 5.077 4.684 10.003 5.819 15.462.465 2.232.922 4.467 1.437 6.687 2.26 9.754 3.368 19.616 3.036 29.639-.123 3.72.009 7.446-.023 11.169-.065 7.712-1.107 15.304-2.94 22.788-.226.922-.553 1.846-1.004 2.678-.398.734-1.02 1.37-2.157.982-.721-1.211-.178-2.49.064-3.74 1.716-8.856 2.905-17.756 2.638-26.815-.142-4.799.025-9.607-.046-14.407-.04-2.637-.225-5.277-.453-7.905-.5-5.756-2.006-11.338-3.057-16.995-.835-4.498-2.001-8.886-3.92-13.062-1.151-2.508-2.379-5.006-3.208-7.623-.663-2.095-1.672-3.922-2.792-5.77-.984-1.624-2.178-2.418-4.111-2.161-6.336.836-12.709.393-19.067.457-4.102.042-8.159-.304-11.999-1.943-.44-.19-.895-.447-1.353-.469-2.592-.122-4.793-1.347-7.064-2.396-.865-.401-1.776-.993-2.664-.988-1.462.009-2.435-.723-3.558-1.43-2.602-1.644-5.175-3.369-8.175-4.277-2.634-.796-5.276-1.544-7.797-2.72-1.256-.586-2.783-.608-4.194-.847-1.296-.216-2.623-.284-3.897-.582-3.813-.895-7.587-1.794-11.554-1.999-3.202-.163-6.423-.897-9.53-1.758-6.766-1.876-13.678-2.524-20.636-2.811-2.984-.125-5.984.118-8.91.194l-3.483 3.65c.741 1.688 1.389 3.103 1.986 4.54.813 1.956.762 3.978.425 6.025-.194 1.176-.779 1.991-1.927 2.363-1.234.401-2.473.795-3.794 1.216.227 2.532-1.217 4.35-2.495 6.231 2.023 3.241 4.715 5.591 7.644 7.694 2.243 1.612 4.519 3.175 6.813 4.712.892.598 1.84 1.142 2.824 1.569 8.698 3.772 17.01 8.294 25.326 12.823 3.149 1.716 6.486 3.103 10.067 3.788 2.585.493 5.149 1.102 7.708 1.718 3.348.807 6.574 2.247 10.154 1.809.559-.069 1.171.165 1.737.335.162.047.328.35.344.546.016.201-.108.558-.246.601-.788.24-1.59.49-2.405.584-1.519.174-3.088-.143-4.466.261zm169.637 81.407c3.158 1.323 5.809 2.421 8.452 3.543 1.588.672 2.833 1.771 3.855 3.152 2.348 3.168 2.049 7.05-.869 9.729-3.302 3.03-7.303 4.667-11.704 5.024-3.458.283-6.981.359-10.429.036-4.221-.397-8.088-2.153-11.748-4.268-.601-.346-1.054-.966-1.541-1.491-1.14-1.228-2.243-2.491-3.391-3.71-1.451-1.543-2.298-3.274-2.359-5.467-.057-2.017-.376-4.034-.711-6.029-.111-.66-.564-1.3-.975-1.869-1.4-1.932-2.851-3.826-4.258-5.702-1.106-.401-2.026.058-2.676.727-2.468 2.537-6.011 2.907-8.903 4.565-2.451.165-4.521 1.51-6.785 2.248-3.09 1.009-6.136 1.983-9.42 2.174-1.875.109-3.679 1.046-5.644.294-.457-.174-1.16.189-1.714.399-1.57.596-3.141 1.195-4.673 1.879-1.778.791-3.582 1.314-5.558 1.3-.927-.007-1.897.208-2.779.516-6.79 2.384-13.623 4.625-20.625 6.306-.812.196-1.645.319-2.474.42-2.014.243-4.115.174-6.027.747-2.706.81-5.432.797-8.174.94-.353.017-.703.1-.926.135l-3.893 4.835c.085-.22-.094.011-.071.221.494 4.437-1.54 8.151-3.444 11.884-.37.725-.984 1.377-1.616 1.907-1.377 1.156-2.754 2.35-4.285 3.273-1.905 1.152-4.133 1.533-6.24.868-1.56-.493-3.059-.551-4.601-.444-2.864.199-5.442-.513-7.818-2.106-.792-.53-1.631-1.124-2.532-1.336-3.161-.747-5.155-2.984-6.935-5.39-1.632-2.205-3.201-4.442-4.891-6.608-1.812-2.325-3.057-5.171-4.166-7.943-2.672-6.685-5.153-13.448-6.492-20.562-1.111-5.907-1.772-11.837-1.78-17.876-.016-10.841 1.091-21.569 2.545-32.282.274-2.021.626-4.035.854-6.062.58-5.155 1.804-10.148 3.583-15.02.484-1.324 1.171-2.666.674-4.15-2.742-1.816-5.748-2.884-8.869-3.758-2.88-.806-5.689-1.869-8.52-2.845-3.625-1.249-7.36-2.269-10.839-3.847-7.977-3.616-15.843-7.474-22.922-12.736-2.099-1.562-4.53-2.628-6.435-4.516-1.789-1.775-3.71-3.392-4.785-5.76-.234-.512-.7-.921-1.177-1.53-2.264 1.423-4.438 1.185-6.462-.232-.76-.531-1.544-1.199-1.978-1.99-1.315-2.396-2.465-4.883-3.753-7.487-2.203 0-4.684-.045-7.163.016-2.111.049-4.154.303-6.255.87-4.055 1.088-8.031-1.275-8.68-5.785-.228-1.586-.803-2.673-1.852-3.688-2.292-2.218-3.343-4.906-3.148-8.102.073-1.197.069-2.406 0-3.601-.127-2.205.203-4.304 1.137-6.171-1.899-4.895-1.677-9.422 1.587-13.582.735-.937 1.437-1.957 2.357-2.681 1.913-1.511 4.055-2.531 6.628-2.288 1.072.101 2.161.04 3.241.014 2.855-.069 5.262 1.145 7.746 2.385 3.38 1.686 6.013 4.307 8.838 6.463l4.763-.41c1.315-.115 2.267.47 3.114 1.445 2.925 3.373 3.295 4.187 4.259 10.124.969.514 2.058.059 3.098.145 1.073.089 2.183-.038 3.221.187.618.132 1.384.643 1.636 1.191.538 1.172.787 2.477 1.234 4 .568.038 1.369.162 2.164.139 8.326-.234 16.532.62 24.61 2.655 2.308.582 4.507 1.524 7.028 1.204 1.086-.135 2.269.603 3.424.873 3.374.791 6.753 1.557 10.136 2.307 1.167.259 2.347.596 3.527.62 2.691.054 5.229.598 7.634 1.805.275.138.65.073 1.243.129-4.031-5.597-8.718-10.401-11.732-16.344-2.01 0-3.903.009-5.797-.004-1.199-.009-2.347-.118-3.48-.689-2.885-1.459-5.755-3.01-8.78-4.113-3.119-1.137-5.346-3.272-7.198-5.757-2.071-2.78-3.857-5.805-4.671-9.263-.165-.696-.413-1.43-.342-2.117.33-3.215.526-6.468 1.957-9.459 1.306-2.734 3.287-4.574 6.286-5.468 3.565-1.06 7.047-1.303 10.613-.146 1.004.329 2.076.449 3.361.716.222-1.008.518-1.898.6-2.805.316-3.467.554-6.944.838-10.413.493-6.016 1.848-11.831 4.058-17.45 1.628-4.14 3.537-8.138 5.707-12.025 1.235-2.21 2.707-4.23 4.174-6.282 3.856-5.399 9.015-9.236 14.539-12.699 3.264-2.047 6.643-3.836 10.243-5.222 2.126-.819 4.245-1.678 6.298-2.661 7.671-3.679 15.886-5.315 24.203-6.618 6.091-.952 12.188-.986 18.298-.272 2.38.279 4.758.573 7.134.884 2.164.281 4.21.901 6.091 2.059.591.364 1.314.522 1.99.739 1.128.361 2.339.546 3.386 1.066 3.195 1.586 6.33 3.293 9.484 4.964.317.167.658.341.893.598 3.649 3.977 8.484 6.67 11.798 11.032 1.285 1.693 2.977 3.076 4.464 4.618 4.328 4.486 8.421 9.178 12.297 14.059.222.279.482.524.902.977.431-.352.901-.647 1.259-1.044.953-1.062 2.153-1.455 3.533-1.506 1.8-.065 3.548-.25 5.024 1.265 1.779 1.827 3.632 3.503 3.516 6.383-.091 2.277-.093 4.566.01 6.844.109 2.448-.823 4.444-2.387 6.2-.386.432-.989.674-1.489 1 1.061 2.757 1.887 5.131 2.88 7.428 1.116 2.581 1.754 5.216 1.581 8.043-.059.954.015 1.92.055 2.88.169 4.032-.667 7.86-2.163 11.59-.981 2.444-2.048 4.901-2.629 7.455-1.027 4.514-3.524 8.043-6.656 11.251-.252.259-.546.485-.758.77-3.309 4.482-7.679 7.878-11.749 11.588-1.346 1.226-2.686 2.357-4.366 3.078-.4.172-.711.551-1.347 1.064 1.027.424 1.722.853 2.47.997 3.18.607 6.402 1.011 9.561 1.704 7.624 1.678 15.277 1.29 22.943.525.945-.094 1.869-.424 2.795-.671 5.443-1.459 10.882-2.928 16.41-4.413.494-.944.915-1.935 1.499-2.818 1.096-1.655 2.388-2.949 4.699-2.457.972.21 1.557-.398 1.626-1.398.065-.957.101-1.928.027-2.88-.158-2.013.469-3.779 1.497-5.455.751-1.225 1.491-2.456 2.241-3.683.187-.305.332-.674.599-.888 1.77-1.418 3.511-2.884 5.374-4.172 1.504-1.039 3.241-1.524 5.124-1.352.834.076 1.688.087 2.52-.002 2.534-.272 4.535 1.136 6.639 2.124 1.285.605 2.428 1.533 3.581 2.387.849.629 1.612 1.377 2.409 2.077.538.473 1.013 1.037 1.605 1.426 1.344.881 2.319 2.039 3.08 3.446 1.026 1.899 2.286 3.574 4.159 4.813.825.549 1.487 1.61 1.827 2.576 1.291 3.679 1.607 7.525 1.078 11.353-.215 1.56-.451 3.075-.272 4.627.193 1.658-.37 3.081-1.289 4.384-.8 1.136-1.931 1.89-3.334 1.861-2.272-.047-4.582-.056-6.796-.487-1.291-.249-2.318-.243-3.399.415-3.12 1.902-6.087 1.66-8.955-.589-.837-.658-1.796-1.157-2.662-1.706-1.661 1.033-2.728 2.344-3.251 4.188-.713 2.518-2.468 4.178-5.694 3.616-1.166-.206-2.307-.556-3.748-.911-1.609.701-3.284 1.807-4.821 3.178-1.163 1.035-2.443 1.94-3.677 2.893-2.754 2.128-5.459 4.325-8.28 6.361-4.281 3.086-8.539 6.248-13.354 8.468-4.791 2.208-9.671 4.225-14.534 6.276-1.097.462-2.263.887-3.433 1.019-3.691.417-7.395.747-11.102.98-1.421.09-2.864-.163-4.296-.28-1.194-.097-2.385-.256-3.581-.325-.942-.054-1.891-.012-3.035-.012-.139 1.584.152 2.957.623 4.275 2.236 6.251 3.328 12.772 4.407 19.275.606 3.659.769 7.398.968 11.111.148 2.744.03 5.499.03 8.533.903-.266 1.637-.321 2.183-.67 3.465-2.215 7.267-3.707 11.105-5.048 2.815-.984 5.817-1.348 8.805-1.468 2.399-.096 4.814.114 7.203-.06 2.971-.214 5.718.509 8.412 1.559 2.903 1.136 5.824 2.249 8.628 3.601 1.703.821 3.416 1.853 4.739 3.177 2.188 2.188 4.397 4.437 5.478 7.487.923 2.599 1.975 5.153 2.882 7.759.308.885.457 1.86.482 2.801.08 3.001.087 6.004.083 9.007-.003 2.321-.519 4.497-1.763 6.515-.62 1.006-1.011 2.164-1.432 3.281-.508 1.348-1.206 2.571-1.926 3.82-1.335 2.32-2.197 4.906-3.708 7.286z" fill="#2A406D"/><path d="M199.269 209.963c0 .942-.094 1.778.026 2.581.116.777.734 1.192 1.514 1.305.879.127 1.843.029 2.212-.78.311-.681.371-1.678.097-2.357-.222-.548-1.064-1.03-1.709-1.167-.61-.126-1.323.238-2.14.418zm6.198 4.457c-2.049 2.138-4.326 2.359-6.52 1.439-2.477-1.035-2.152-3.464-2.057-5.633.113-2.567 2.311-2.692 3.947-3.538 1.269.888 2.472 1.645 3.567 2.536.426.346.79.971.863 1.511.171 1.285.151 2.595.2 3.685z" fill="#2A406D"/><path d="M199.667 185.035c.562-3.041.562-3.041-1.36-4.556-1.74.877-1.657 2.4-1.384 3.974.034.198.259.361.428.582h2.316zm2.129 2.058c-1.76.57-3.43.362-5.075.293-1.06-.045-1.89-.678-1.989-1.729-.144-1.53-.189-3.103-.008-4.624.172-1.464 2.401-2.779 3.866-2.506 1.438.266 3.413 2.195 3.532 3.652.124 1.529.392 3.092-.326 4.914z" fill="#2A406D"/><path d="M194.68 159.892c.025-1.318.143-2.356.032-3.371-.077-.721-.613-1.305-1.421-1.31-1.432-.006-2.52 1.256-2.158 2.568.178.645.524 1.439 1.042 1.743.604.355 1.479.245 2.505.37zm1.566 1.532c-1.352.146-2.412.353-3.471.353-2.063 0-3.622-1.504-3.676-3.583-.024-.926.066-1.945.441-2.767.627-1.376 1.99-1.996 3.203-1.766 1.974.375 3.255 1.472 3.503 3.083.108.705.129 1.43.13 2.146.003.703-.067 1.408-.13 2.534z" fill="#2A406D"/><path d="M204.735 116.772c0-1.247.236-2.609-.059-3.846-.389-1.639-.614-3.266-.77-4.939-.21-2.242-1.563-3.989-3.09-5.535-.462-.468-1.225-.761-1.895-.876-1.71-.299-3.292.093-4.781 1.052-2.598 1.673-2.681 1.598-4.3-1.084-.549-.91-1.219-1.765-1.949-2.539-.379-.401-1.002-.794-1.524-.807-2.373-.056-4.723-.306-7.088.573-3.862 1.433-7.235 3.708-10.77 5.713-1.778 1.011-3.55 2.066-4.79 3.724-1.192 1.595-2.226 3.308-3.295 4.991-.072.111.143.408.284.773 2.208.156 4.464.113 6.716-.311.819-.155 1.659-.429 2.468-.367 2.563.204 5.075-.392 7.391-1.128 3.759-1.196 7.533-1.221 11.36-1.332 1.522-.045 2.839.444 4.022 1.285 1.455 1.035 2.91 2.096 4.212 3.31 1.083 1.011 2.355 1.605 3.603 2.312 1.52.861 2.722.472 4.255-.969zm-11.97-16.408c.549-.257 1.187-.578 1.845-.855 2.975-1.254 6.943-.814 9.235 2.604 1.412 2.106 2.822 4.201 2.566 6.93-.033.349.034.717.096 1.07.497 2.791 1.004 5.58 1.528 8.473 1.495-.491 2.064-1.907 2.594-3.161 1.806-4.277 1.583-8.64.193-12.993-.292-.913-.654-1.804-.914-2.726-.98-3.488-2.838-6.329-6.031-8.159-2.39-1.37-4.793-2.726-7.248-3.977-1.616-.823-3.379-1.181-5.225-1.132-3.111.083-6.239-.229-9.308.63-.789.221-1.673.176-2.508.136-1.472-.072-2.848.241-4.21.764-3.582 1.377-7.154 2.783-10.771 4.059-3.89 1.374-7.352 3.364-10.596 5.954-2.051 1.638-3.386 3.536-4.409 5.712.834 2.228.985 4.515 2.43 6.437 1.434 1.913 3.008 3.305 5.471 3.628.245-.555.441-.988.626-1.425.416-.982.607-2.166 1.283-2.914 1.764-1.952 3.543-3.996 5.677-5.484 3.138-2.187 6.537-4.024 9.927-5.82 1.783-.944 3.73-1.827 5.694-2.112 2.341-.342 4.779-.011 7.175.029l4.88 4.332zm-3.616-16.942c6.082-.531 10.895 2.55 15.824 5.296 2.577 1.437 4.673 3.347 6.043 5.977.605 1.162 1.157 2.356 1.638 3.574.484 1.223.868 2.485 1.263 3.741.286.912.758 1.85.73 2.762-.101 3.331.109 6.675-.529 9.995-.477 2.481-1.823 4.363-3.44 6.175-1.199 1.341-2.785 1.867-4.405 2.242-1.533.357-2.994.056-4.452-.763-1.448-.81-2.912-1.425-4.174-2.648-1.874-1.816-4.11-3.262-6.199-4.854-.97-.741-2.039-1.206-3.285-1.324-3.26-.309-6.413-.068-9.59.891-2.607.787-5.292 1.517-8.088 1.414-.477-.018-.997-.076-1.431.076-3.39 1.183-6.903.745-10.345.638-3.76-.116-7.267-1.145-9.995-4.116-2.493-2.715-2.776-5.821-1.683-9.02.922-2.699 2.123-5.4 4.968-6.791.105-.051.2-.136.282-.223 3.521-3.621 7.922-5.738 12.588-7.426 2.704-.98 5.377-2.046 8.061-3.083 2.471-.957 4.957-1.582 7.678-1.6 2.85-.019 5.695-.598 8.541-.933z" fill="#2A406D"/><path d="M161.446 35.086c.316-1.912.279-2.129-.486-2.944-.965-1.031-2.065-1.542-3.585-.854.457 2.257 2.021 3.243 4.071 3.798zm12.303-20.616c.751-1.193 1.523-1.374 2.405-1.119 3.804 1.098 6.528 3.672 8.344 6.981 1.151 2.096 1.193 4.709.166 7-2.059 4.589-4.937 8.462-9.78 10.554-2.678 1.157-5.337 2.133-8.319 1.81-.708-.076-1.431-.011-1.911-.011-2.08 1.84-3.905 3.567-5.86 5.131-.81.649-1.852 1.108-2.862 1.388-5.615 1.559-11.366 1.721-17.141 1.481-.705-.029-1.463-.152-2.088-.453-3.679-1.771-7.286-3.656-10.439-6.322-1.738-1.468-2.568-3.434-3.337-5.447-.123-.321.149-1.007.453-1.217.289-.202.889-.085 1.292.06.303.11.578.447.75.747 1.432 2.508 3.763 3.962 6.152 5.381 6.167 3.668 6.159 3.614 13.167 3.697 3.282.038 6.444-.618 9.624-1.196 2.234-.408 3.8-1.731 5.583-4.31-.493-.308-.952-.676-1.473-.908-2.345-1.044-3.597-3.094-4.824-5.169-.621-1.05-.466-2.066.234-3.027 1.415-1.946 3.887-2.718 6.45-1.769 2.763 1.021 4.646 2.913 5 6.001.068.593.087 1.191.137 1.901 1.705.881 3.493.698 5.203.214 4.463-1.265 7.936-3.891 10.223-7.967.463-.828.881-1.725 1.085-2.642.553-2.482.101-4.665-1.778-6.617-1.776-1.847-3.715-3.317-6.456-4.172z" fill="#2A406D"/><path d="M161.082 62.537c1.145.396 2.182.675 3.148 1.113.864.39 1.215 1.642.72 2.482-.357.608-.796 1.237-1.355 1.64-1.743 1.256-3.545 2.437-5.36 3.59-.491.312-1.094.486-1.67.62-1.117.264-2.087-.085-2.535-.856-.547-.942-.395-1.902.229-2.687 1.253-1.579 2.502-3.187 3.955-4.571.722-.687 1.891-.902 2.868-1.331" fill="#2A406D"/><path d="M190.439 78.648c.852-1.158 1.877-1.334 2.924-1.573 1.15-.261 2.282-.642 3.378-1.079.728-.29.992-.985 1.026-1.758.102-2.379-.778-3.536-3.065-4.05-.894-.2-1.777-.45-3.067-.78.528-.62.754-1.152 1.065-1.207 1.402-.252 2.824-.445 4.245-.498.537-.02 1.198.279 1.611.644.702.623 1.446 1.328 1.829 2.156 1.041 2.264 1.489 4.713-.096 6.853-1.604 2.164-3.993 2.923-6.687 2.664-1.099-.104-2.104-.403-3.163-1.372" fill="#2A406D"/><path d="M214.578 62.869c-1.985-.121-3.608-.699-4.686-2.376-1.322-2.055-.272-4.123 2.159-4.37 2.079-.212 4.024.441 5.977.938 1.16.295 1.636 1.361 1.696 2.497.055 1.035-.426 1.937-1.397 2.298-1.208.448-2.495.685-3.749 1.013" fill="#2A406D"/><path d="M90.282 91.329c1.639-1.577 3.287-1.508 4.886-.888 1.773.691 3.5 1.532 5.159 2.463.668.372 1.202 1.099 1.618 1.775.475.775.252 1.615-.293 1.888-.661.328-1.092-.08-1.592-.424-2.663-1.818-5.394-3.491-8.677-3.984-.289-.043-.532-.389-1.101-.83" fill="#2A406D"/><path d="M30.04 120.554c.37.535.791.883.836 1.274.065.562-.126 1.16-.24 1.733-.372 1.888-.031 3.519 1.592 4.743.269.201.523.511.625.824.094.29.09.736-.077.958-.171.233-.71.474-.882.371-.885-.534-2.018-.997-2.488-1.816-1.532-2.671-1.383-5.361.634-8.087" fill="#2A406D"/><path d="M83.551 54.777c-1.151.203-1.596.339-2.045.351-3.506.097-6.86-.757-10.2-1.676-.804-.223-1.588-.523-2.396-.723-.804-.196-1.668-.208-2.432-.495-.877-.333-1.675-.879-2.656-1.415 2.266-2.182 4.793-2.817 7.678-2.282 1.053.197 2.11.377 3.165.56.235.04.51-.005.707.103 2.715 1.461 5.565 2.735 8.179 5.577" fill="#fff"/><path d="M83.551 54.777c-2.614-2.842-5.464-4.116-8.179-5.577-.197-.108-.472-.063-.707-.103-1.055-.183-2.112-.363-3.165-.56-2.885-.535-5.412.1-7.678 2.282.981.536 1.779 1.082 2.656 1.415.764.287 1.628.299 2.432.495.808.2 1.592.5 2.396.723 3.34.919 6.694 1.773 10.2 1.676.449-.012.894-.148 2.045-.351zm3.43 1.678c-.773.332-1.498.872-2.26.932-2.724.212-5.455.478-8.176-.194-3.108-.77-6.292-1.272-9.344-2.211-2.017-.62-3.924-1.699-5.759-2.777-1.205-.709-1.136-2.234.088-2.948 2.469-1.436 4.964-2.962 8.021-2.513 2.342.341 4.855.361 6.955 1.289 2.572 1.136 4.873 2.963 7.133 4.696 1.204.924 2.075 2.282 3.342 3.726z" fill="#2A406D"/><path d="M263.752 62.424c1.486-1.135 2.886-1.316 4.347-1.217 2.839.194 5.81-.579 8.491.633 1.814.821 3.387 2.187 5.027 3.365.216.153.317.679.241.974-.074.283-.438.69-.688.699-1.659.062-3.438.415-4.962-.045-4.078-1.229-8.049-2.82-12.456-4.409" fill="#fff"/><path d="M263.752 62.424c4.407 1.589 8.378 3.18 12.456 4.409 1.524.46 3.303.107 4.962.045.25-.009.614-.416.688-.699.076-.295-.025-.821-.241-.974-1.64-1.178-3.213-2.544-5.027-3.365-2.681-1.212-5.652-.439-8.491-.633-1.461-.099-2.861.082-4.347 1.217zm15.194 6.972c-1.813.111-3.541-.138-5.236-.924-3.808-1.766-7.901-2.672-11.946-3.705-.348-.089-.714-.123-1.05-.241-.971-.343-1.2-1.214-.555-1.958 1.757-2.026 4.125-2.834 6.652-3.039 2.623-.214 5.282-.264 7.907-.096 1.381.087 2.798.64 4.062 1.26 1.385.681 2.614 1.683 3.908 2.548.198.132.411.259.571.43.942 1.011 1.597 2.211 1.258 3.583-.365 1.478-1.737 1.895-3.053 2.118-.816.135-1.673.024-2.518.024z" fill="#2A406D"/><path d="M65.729 70.407c-.311.762-.356 1.108-.479 1.137-2.696.65-5.086 2.006-7.491 3.295-2.351 1.263-4.75 1.07-7.413.714.783-2.786 2.574-4.339 5.062-4.642 3.298-.4 6.652-.346 10.321-.504" fill="#fff"/><path d="M65.729 70.407c-3.669.158-7.023.104-10.321.504-2.488.303-4.279 1.856-5.062 4.642 2.663.356 5.062.549 7.413-.714 2.405-1.289 4.795-2.645 7.491-3.295.123-.029.168-.375.479-1.137zm5.72.934c-1.956.955-3.329 1.624-4.7 2.298-.32.159-.623.445-.952.474-2.478.227-4.528 1.553-6.568 2.737-2.659 1.544-5.453 1.584-8.337 1.428l-.355-.05c-2.91-.519-3.701-2.427-2.16-4.923 1.949-3.157 4.631-4.649 8.392-4.279 2.378.236 4.78.219 7.171.328 2.513.116 4.826.912 7.509 1.987z" fill="#2A406D"/><path d="M268.643 83.096c3.093 1.471 4.318 3.706 5.767 5.676.786 1.066.869 2.43.191 3.917-3.672-1.918-4.142-5.704-5.958-9.593" fill="#fff"/><path d="M268.643 83.096c1.816 3.889 2.286 7.675 5.958 9.593.678-1.487.595-2.851-.191-3.917-1.449-1.97-2.674-4.205-5.767-5.676zm-1.824-2.739c2.046 1.276 4.445 2.42 6.416 4.078 3.283 2.758 4.797 6.437 4.331 10.798-.085.803-.593 1.273-1.335 1.499-1.259.382-2.335.045-3.286-.839-2.288-2.122-4.306-4.394-5.445-7.409-.797-2.114-1.673-4.183-1.961-6.439-.101-.783.166-1.403 1.28-1.688z" fill="#2A406D"/><path d="M125.109 87.158c1.805-5.929 5.953-9.088 11.452-10.801.653.664.208 1.113-.129 1.565-2.347 3.151-5.318 5.723-7.954 8.606-.833.911-1.769 1.65-3.369.63" fill="#fff"/><path d="M125.109 87.158c1.6 1.02 2.536.281 3.369-.63 2.636-2.883 5.607-5.455 7.954-8.606.337-.452.782-.901.129-1.565-5.499 1.713-9.647 4.872-11.452 10.801zm15.364-12.681c-.163.837-.381 1.517-.411 2.204-.05 1.168-.613 1.967-1.421 2.765-1.006.994-1.849 2.152-2.747 3.255-.451.551-.808 1.192-1.31 1.688-1.438 1.426-2.99 2.739-4.381 4.205-1.83 1.928-3.906 2.082-6.217 1.146-1.377-.558-2.067-1.774-1.519-3.176 1.273-3.25 2.984-6.174 5.961-8.281 3.324-2.356 7.1-3.303 10.968-4.091.205-.039.45.113 1.077.285z" fill="#2A406D"/><path d="M244.319 76.654c-2.079.676-3.255-.087-4.404-1.007-2.809-2.246-5.749-6.4-7.272-10.322.603-.5 1.13-.033 1.636.177 3.355 1.377 6.281 3.383 8.545 6.237.648.816 1.11 1.827 1.456 2.819.211.608.039 1.348.039 2.096" fill="#fff"/><path d="M244.319 76.654c0-.748.172-1.488-.039-2.096-.346-.992-.808-2.003-1.456-2.819-2.264-2.854-5.19-4.86-8.545-6.237-.506-.21-1.033-.677-1.636-.177 1.523 3.922 4.463 8.076 7.272 10.322 1.149.92 2.325 1.683 4.404 1.007zm-14.505-13.553c7.045-.393 11.62 3.163 15.505 7.985 1.445 1.789 1.643 3.934 1.41 6.136-.116 1.082-.816 1.756-1.838 1.939-2.051.366-4.073.371-5.756-1.156-1.062-.961-2.236-1.842-3.125-2.949-2.489-3.095-4.31-6.605-5.917-10.222-.181-.409-.154-.908-.279-1.733z" fill="#2A406D"/></g></svg>