<svg width="316" height="316" viewBox="0 0 316 316" xmlns="http://www.w3.org/2000/svg"><title>baby_happy</title><desc>Created with Sketch.</desc><g fill="none"><path d="M293.073 272.042c0 23.924-65.591 43.319-146.5 43.319s-146.5-19.395-146.5-43.319c0-23.923 65.591-43.318 146.5-43.318s146.5 19.395 146.5 43.318" fill-opacity=".5" fill="#8BB5A4"/><path d="M254.535 85.101c-.512-1.801-1.414-3.407-3.151-4.179-2.424-1.077-5.023-1.905-7.687-1.329-3.968.857-7.947 1.664-11.712 3.362-2.434 1.099-4.39 2.787-6.821 4.595.965-5.357 5.03-7.046 9.213-9.204-.317-4.673-.602-9.213-.948-13.747-.127-1.672-.324-3.347-.621-4.996-1.045-5.814-2.94-11.355-5.383-16.73-2.853-6.274-6.482-12.027-11.064-17.172-.555-.623-1.209-1.163-1.856-1.695-5.879-4.828-12.242-8.836-19.402-11.518-2.582-.968-5.164-1.964-7.644-3.16-5.146-2.479-10.696-3.503-16.203-4.648-3.283-.682-6.621-1.313-9.959-1.467-10.991-.507-21.804.662-32.283 4.198-1.115.376-2.232.904-3.175 1.596-1.249.917-2.357 2.035-3.47 3.124-2.316 2.265-4.418 4.789-6.932 6.803-3.576 2.866-6.772 6.108-9.994 9.323-4.597 4.589-8.469 9.843-12.028 15.213-4.295 6.479-8.333 13.163-11.631 20.261-1.812 3.901-2.715 7.904-2.751 12.162-.039 4.72.922 9.31 1.986 13.854.566 2.418 1.134 4.971 2.719 6.997 2.141 2.736 4.31 5.473 6.701 7.986 5.979 6.28 12.628 11.796 19.862 16.574 4.501 2.974 9.089 5.824 13.707 8.617 1.836 1.11 3.806 2.036 5.801 2.834 6.013 2.4 12.076 4.675 18.105 7.035 4.596 1.801 9.397 2.872 14.166 4.05 1.145.282 2.377.229 3.57.3 4.57.269 9.108-.282 13.649-.623 1.898-.144 3.791-.475 5.662-.842 1.289-.253 2.515-.856 3.808-1.055 4.45-.691 8.532-2.402 12.496-4.41 3.65-1.848 7.182-4.011 9.974-6.982 3.69-3.929 7.022-8.197 10.464-12.357.76-.918 1.377-1.966 1.975-3.003.639-1.106 1.585-2.083 1.762-3.372l-2.845-2.809c.778-.16 1.286.103 1.825.263 1.252.373 2.5.85 3.783 1.012 8.695 1.096 16.139-1.572 22.121-7.92 4.514-4.787 6.043-10.491 4.211-16.941" fill="#FFE8E0"/><path d="M147.349 205.297h-.005c0 .479-.008.959.001 1.437.074 3.495.786 4.145 4.349 3.982 3.83-.175 5.819-2.838 4.886-6.56-.202-.806-.485-1.593-.698-2.396-.279-1.04-.945-1.622-1.996-1.793-.47-.078-.943-.156-1.41-.253-2.909-.606-4.974.913-5.122 3.787-.03.597-.005 1.197-.005 1.796zm10.081-26.813c-.554.322-1.123.865-1.772.992-2.479.485-3.177 2.303-3.501 4.42-.298 1.936-.003 3.802.726 5.627.406 1.015 1.078 1.516 2.136 1.616 2.701.25 4.93-.604 6.676-2.83 0-1.964.096-3.996-.049-6.009-.054-.753-.556-1.547-1.044-2.177-.755-.976-1.846-1.484-3.172-1.639zm22.132 99.406c-2.334-.026-4.365-.064-6.395-.069-1.445-.004-2.902.056-4.218-.669-1.539-.85-3.203-.977-4.893-.881-2.429.138-4.744-.33-7.082-.957-4.863-1.303-9.763-2.45-14.475-4.283-1.773-.693-3.808-.788-5.482-1.631-1.337-.672-2.63-1.042-4.265-1.195-1.785 1.593-3.972 2.758-6.49 3.26-.583.116-1.18.308-1.693.601-3.145 1.789-6.558 2.107-10.091 2.039-6.719-.135-13.443-.112-20.162-.273-4.689-.111-9.297-.843-13.779-2.306-2.406-.786-4.879-1.085-7.436-1.096-4.834-.022-9.474-1.31-14.098-2.588-1.388-.384-2.738-.946-4.144-1.2-1.637-.299-3.316-.361-4.978-.507-1.731-.149-2.91.627-3.893 2.051-2.505 3.623-6.681 4.865-10.724 3.27-.646-.254-1.228-.718-1.777-1.16-.365-.297-.674-.696-.918-1.104-1.975-3.284-4.08-6.503-5.853-9.897-2.407-4.602-3.416-9.697-4.649-14.698-.172-.699-.197-1.444-.441-2.112-1.959-5.357-1.062-10.923-1.164-16.403-.034-1.761.637-3.528.898-5.306.188-1.28.633-2.342 1.92-2.79.934-.325 1.236-1.097 1.511-1.879 1.212-3.449 4.244-3.941 7.233-4.363.737-.105 1.721.247 2.322.727 1.583 1.26 3.153 2.59 4.478 4.108 1.811 2.073 3.499 4.273 5.031 6.559.989 1.479 1.609 3.207 2.386 4.827.622 1.291 1.136 2.646 1.867 3.871 1.232 2.062 2.472 4.1 2.946 6.5.046.227.15.491.317.633.25.214.582.466.875.46.295-.007.681-.244.853-.498.586-.861.58-1.832.165-2.747-.689-1.518-1.456-3-2.238-4.597.607-1.003 1.778-1.008 2.749-1.311.791-.249 1.676-.189 2.479-.408 3.811-1.042 7.584-2.237 11.418-3.183 6.045-1.49 12.013-3.328 18.195-4.232.945-.138 1.914-.104 2.868-.192 1.663-.156 3.321-.397 4.986-.507 2.031-.135 4.082-.36 6.099-.208 2.697.202 5.195-.745 7.808-.99 1.198-.113 1.689-1.103 1.123-2.402-.399-.913-.294-1.578.151-2.338 1.576-2.692 3.117-5.403 4.723-8.077 1.243-2.071 2.328-4.193 2.715-6.611.018-.118.035-.24.078-.35 2.564-6.512 3.49-13.45 5.228-20.176.211-.812.558-1.638.541-2.452-.094-4.566 1.162-9.048.797-13.629-.094-1.194-.015-2.401-.078-3.6-.152-2.885.023-5.729.937-8.546 1.258-1.217 2.481-2.559 4.436-2.995 1.303.969 1.793 2.535 2.295 3.934 1.453 4.047 4.709 6.015 8.367 7.325 2.533.906 5.211.74 7.459-1.207.902-.779 1.877-1.475 2.852-2.236 1.744.445 2.621 1.635 3.378 3.197-3.185 2.974-4.331 7.128-6.493 10.684-.789 1.298-1.253 2.888-1.495 4.405-.366 2.288-1.084 4.416-2.077 6.481-.311.649-.681 1.296-.843 1.987-1.418 6.067-3.255 12.05-3.82 18.297-.248 2.749-.438 5.509-.818 8.24-.848 6.106-.426 12.23-.364 18.344.022 2.14.489 4.289.883 6.409.381 2.041 1.549 3.707 3.019 5.597.259-.655.45-1.037.554-1.442.054-.217-.04-.474-.076-.711-1.11-7.395-1.063-14.841-.872-22.281.087-3.352.635-6.69.841-10.041.417-6.746 1.926-13.311 3.589-19.805 1.123-4.383 2.922-8.6 3.779-13.085.133-.695.419-1.399.791-2.001 1.334-2.164 2.178-4.528 3.001-6.911.345-.998.64-2.063 1.823-2.796 1.088.517 2.31.989 3.418 1.648 1.823 1.084 3.75 1.55 5.85 1.407.478-.033.965-.048 1.44.007 2.709.312 4.64-.775 5.884-3.178.215-.417.533-.78.81-1.174 1.879.549 3.657 1.149 5.477 1.574 1.037.242 2.145.311 3.211.256 1.918-.098 3.419-1.07 4.468-2.657.786-1.192 1.466-2.454 2.34-3.936 1.371 1.674 2.935 2.975 4.896 3.367 1.861.373 3.805.321 5.603.447.795-.658 1.362-1.344 2.09-1.691 2.191-1.047 3.437-2.584 2.853-5.343 1.172-.059 2.084-.135 2.998-.147 1.321-.016 2.645.084 3.961.009 2.119-.12 4.009-.683 4.989-2.875.235-.525.771-.91 1.133-1.386.747-.984 1.154-2.09 1.13-3.345-.019-1.079-.076-2.166.01-3.239.172-2.157-.952-3.658-2.449-4.931-.996-.846-2.121-1.54-3.44-2.481l1.45-1.121c4.021 2.059 7.455.627 10.583-1.862 3.125-2.486 6.681-4.222 10.098-6.206 2.487-1.444 5.03-2.797 7.464-4.322 7.69-4.815 15.976-8.211 24.698-10.61 1.221-.335 2.338-.307 3.432.433.871.589 1.823 1.06 2.697 1.559-.184 1.758-.361 3.297-.504 4.839-.194 2.12.552 4.013 1.478 5.853.53 1.053 1.379 1.632 2.583 1.632l3.318.001 4.823 5.409c-.173 1.572-.868 3.369-1.866 4.967-3.5 5.603-7.26 10.993-12.256 15.451-3.937 3.513-7.675 7.254-11.421 10.977-1.27 1.26-2.27 2.79-3.429 4.166-3.677 4.365-8.03 7.877-13.153 10.429-1.071.532-2.11 1.155-3.085 1.846-3.933 2.784-8.062 5.188-12.648 6.739-.226.077-.44.193-.653.304-1.151.602-1.516 1.421-1.022 2.672 2.624 6.644 3.683 13.63 4.724 20.642 1.219 8.201 1.934 16.451 2.594 24.702.343 4.296.123 8.637.124 12.958 0 .589-.195 1.178-.295 1.77-.577 3.426-1.29 6.836-1.698 10.283-.843 7.109-3.196 13.76-5.874 20.326-.025.062-.202.064-.539.16-.05-.823-.178-1.601-.132-2.371.373-6.167-.897-12.166-1.653-18.234-.627-5.028-2.978-9.035-5.867-12.926-1.868-2.514-4.334-3.764-7.439-3.564-2.75.177-5.496.453-8.227.811-1.989.262-3.457 1.563-4.91 2.842-5.522 4.859-8.566 11.188-10.568 18.076-1.465 5.032-2.676 10.142-3.989 15.163z" fill="#42A4D1"/><path d="M143.285 69.875c-1.089-.57-2.343-.906-3.622-1.033-.166-.068-.333-.141-.498-.19-2.059-.611-3.964-.403-5.657.984l-.261.244c-.586.462-1.169 1.198-1.412 1.738-.08.179-.132.358-.195.538-.424.986-.627 2.068-.557 3.119.181 2.731 2.151 4.448 4.714 5.048.797.186 1.644.239 2.462.249.45.01.895-.036 1.336-.14l.53-.223c-.171.078-.132.078.157-.012 1.586-.44 2.985-.746 4.304-1.824 2.897-2.372 1.733-6.91-1.301-8.498" fill="#FFCFBD"/><path d="M101.227 67.844c-2.425-3.519-6.439-5.433-10.65-4.466l-.289.086c-2.946-.732-6.083-.249-8.648 2.057-4.372 3.933-3.244 11.894-1.122 16.629 3.114 6.949 11.608 10.139 18.357 6.777 8.368-4.17 6.778-14.66 2.352-21.083" fill="#FFA9B3"/><path d="M210.809 77.987c-5.424-5.715-15.297-4.312-20.564.55-1.709 1.577-2.87 3.44-3.568 5.424-.705.565-1.333 1.174-1.854 1.822-5.738 7.137-.715 16.368 5.918 20.67 7.218 4.681 16.783.16 21.648-5.749 5.676-6.893 4.278-16.546-1.58-22.717" fill="#FFA9B3"/><path d="M44.278 118.36l1.269-2.401c.375-.146.589-.299.806-.303 1.558-.027 3.117.013 4.676-.036 2.167-.066 2.793-.542 3.24-2.561.409-1.85.71-3.723 1.09-5.751.522-.221 1.151-.529 1.807-.754.551-.188 1.135-.281 1.805-.442 1.132.911 2.255 1.797 3.358 2.707 1.85 1.527 3.759 2.991 5.518 4.617 8.889 8.211 19.612 12.699 31.184 15.488 4.273 1.029 8.555 2.023 13.157 3.11-.431.543-.625.979-.96 1.176-2.342 1.379-3.765 3.652-5.511 5.608-.307.344-.58.812-.653 1.258-.474 2.887-.592 5.742 1.206 8.303.273.387.537.853.924 1.078 2.366 1.373 4.626 2.983 7.601 2.847 2.13-.099 4.283-.133 6.532.12 0 .694.149 1.223-.025 1.602-.886 1.924-.824 3.968-.884 6-.071 2.398-.082 4.799-.222 7.193-.083 1.43-.313 2.858-.565 4.27-.248 1.399-1.027 2.094-2.512 2.61-5.96 2.07-11.59.896-17.074-1.453-3.748-1.605-7.462-3.255-11.395-4.365-.686-.193-1.372-.446-2-.78-3.277-1.742-6.547-3.502-9.793-5.303-.617-.343-1.166-.849-1.66-1.362-4.161-4.317-8.527-8.462-12.375-13.045-2.909-3.466-5.223-7.448-7.658-11.294-1.666-2.627-3.08-5.413-4.615-8.125-1.239-2.19-2.493-4.372-3.734-6.562-.354-.626-.626-1.308-1.043-1.886-.393-.544-.931-.986-1.494-1.564" fill="#42A4D1"/><path d="M217.695 272.639c-.012 6.222-1.166 12.172-3.438 17.923-.13.328-.395.761-.285 1.004.551 1.202-.084 1.928-.736 2.864-.779 1.116-1.586 2.018-2.84 2.607-1.728.809-3.404 1.737-5.054 2.697-3.393 1.969-7.065 1.898-10.808 1.73-2.55-.113-4.589-1.115-6.478-2.708-.935-.787-1.693-1.624-2.232-2.749-2.536-5.284-2.568-5.273-2.604-11.317-.009-1.907-.126-3.797.533-5.685.38-1.093.279-2.373.286-3.569.041-6.911 2.461-13.12 5.533-19.157 1.705-3.348 3.83-6.34 6.689-8.816 1.5-1.3 3.076-2.134 5.12-2.299 2.155-.174 4.283-.419 6.449-.148 1.404.176 2.498.777 3.277 1.949 2.264 3.398 4.567 6.753 4.792 11.072.1 1.901.673 3.775.902 5.678.356 2.967.601 5.949.894 8.924" fill="#42A4D1"/><path d="M168.734 153.773c-2.234 1.648.215 2.894-.038 4.546-.786.855-1.005 2.645-2.535 2.991-1.484.334-3.212.516-4.616.075-2.46-.772-5.018-1.574-6.708-3.864-.773-1.047-1.744-2.016-2.811-2.752-.845-.584-1.948-.868-2.979-1.085-1.161-.244-2.007.412-2.812 1.248-.653.677-1.561 1.102-2.319 1.687-.817.629-1.754.886-2.711.686-2.262-.475-4.534-1.281-5.843-3.207-1.456-2.143-2.864-4.4-3.188-7.137-.229-1.933-1.855-2.849-3.682-2.075-1.645.696-3.274 1.535-4.707 2.588-1.151.846-2.281 1.189-3.649 1.138-1.437-.053-2.886-.102-4.316.01-1.894.15-3.536-.464-5.121-1.367-2.34-1.332-3.277-4.77-2.064-7.228 1.542-3.128 4.135-5.243 6.875-7.193 1.378-.981 2.847-1.015 4.337.058 3.539 2.548 7.608 4.026 11.639 5.566 3.582 1.369 7.15 2.776 10.734 4.135 4.168 1.579 8.459 2.628 12.916 2.971 9.338.722 18.688.686 28.04.375.717-.024 1.478.007 2.142-.215 5.281-1.769 11.004-2.316 15.676-5.799 1.23-.916 2.806-1.357 4.136-2.159 2.404-1.449 5.88-.603 7.964 1.283 2.58 2.333 2.398 6.92.845 8.583-.573.613-1.114 1.263-1.735 1.823-1.034.932-2.241 1.22-3.656 1.065-1.893-.209-3.806-.271-5.712-.293-1.08-.014-1.754.652-2.035 1.702-.247.922-.411 1.885-.793 2.751-.329.743-.802 1.499-1.406 2.029-1.425 1.253-6.462 1.001-7.71-.447-1.16-1.347-2.091-2.891-3.104-4.361-.659-.958-1.716-.912-2.267.099-.966 1.784-1.894 3.591-2.951 5.321-1.06 1.738-2.656 2.23-4.659 1.825-2.743-.554-5.325-1.241-7.032-3.781-.481-.712-1.45-1.094-2.145-1.592" fill="#EAF4FF"/><path d="M312.995 99.835c-.077-1.308-.944-1.934-2.186-1.612-.924.239-1.823.612-2.76.764-.383.061-1.008-.195-1.207-.507-.206-.324-.194-.995.015-1.334.496-.806 1.155-1.515 1.764-2.251.683-.83 1.437-1.608 2.061-2.479.84-1.169.656-2.217-.43-3.141-1.09-.928-2.864-1.068-3.992-.223-.766.573-1.422 1.29-2.157 1.906-.357.301-.775.702-1.185.727-.532.031-1.188-.135-1.598-.46-.548-.435-.359-1.107.076-1.582.484-.526 1.131-.912 1.563-1.471.644-.835 1.496-1.711 1.662-2.673.32-1.848.564-3.764.321-5.583-1.649-.95-2.956-.272-4.191.441-2.855 1.649-5.136 3.828-6.393 6.982-.494 1.24-.805 1.222-2.528.339-.154-1.112.256-2.071.833-3.007 1.34-2.17 1.972-4.594 2.35-7.076.461-3.031-.929-5.567-2.399-8.038-.209-.353-.733-.516-1.194-.824-2.081 1.887-3.871 3.868-4.498 6.47-.641 2.657-2.055 5.108-1.993 7.971.026 1.15-.462 2.321-.789 3.462-.126.442-.395.87-.689 1.233-.783.967-2.125.789-2.609-.334-.141-.326-.176-.695-.275-1.04-.57-1.995-1.556-3.711-3.189-5.055-.83-.682-1.523-1.53-2.298-2.279-.515-.498-1.018-1.039-1.619-1.411-.66-.407-1.468-.363-1.957.277-1.44 1.884-3.217 3.718-1.692 6.403.053.095.024.236.033.356.284 3.281 1.375 6.268 3.172 9.028.914 1.404 1.827 2.843 2.461 4.38.528 1.279 1.276 2.29 2.285 3.156 4.244 3.644 8.067 7.835 13.284 10.215.321.146.599.382 1.045.671.808-.147 1.406-.38 1.983-.338 3.19.228 6.131-.825 9.108-1.688 1.977-.572 3.819-1.399 5.321-2.881.504-.499 1.106-.918 1.715-1.289 2.357-1.439 2.924-3.667 2.776-6.205" fill="#FFE8E0"/><path d="M55.783 76.829c-.57.157-1.129.506-1.696.511-1.374.011-2.212.773-2.935 1.786-.208.291-.348.663-.615.876-.588.47-1.264.697-1.977.228-.576-.381-.732-.967-.513-1.569 1.023-2.803.513-5.704.509-8.556 0-.998-.568-2.06-1.083-2.977-.657-1.172-2.108-1.173-3.009-.099-1.349 1.601-2.082 3.487-2.228 5.55-.079 1.12-.299 2.151-.976 3.019-.251.321-.813.643-1.161.578-.35-.065-.85-.594-.874-.948-.21-3.124-1.793-5.94-1.971-9.074-.044-.78-.349-1.668-1.539-1.901-2.18 1.111-3.099 3.049-3.113 5.502-.011 2.036.094 4.078 0 6.109-.019.422-.625.944-1.084 1.16-.206.098-.963-.376-1.045-.699-.825-3.215-3.142-5.611-4.584-8.483-.461-.921-1.123-1.805-2.584-2.094-.037 1.334-.121 2.498-.087 3.659.027.952.097 1.924.319 2.845.475 1.973 1.131 3.903 1.578 5.882.259 1.148.394 2.362.336 3.536-.056 1.13-1.579 1.724-2.482 1.031-.755-.582-1.558-1.185-2.097-1.951-1.272-1.806-3.14-2.441-5.045-3.086-.181.343-.385.548-.378.746.081 2.431.47 4.739 2.319 6.579.756.753 1.485 1.619 1.942 2.571 1.205 2.505 3.003 4.6 4.484 6.909 1.923 3 4.205 5.516 7.597 6.862 1.28.509 2.214 1.388 2.667 2.745.143.43.471.798.719 1.202.796 0 1.583.207 2.186-.037 2.203-.891 4.355-1.915 6.507-2.926 1.184-.555 2.317-1.221 3.505-1.77 1.922-.889 3.506-2.18 4.198-4.19 1.163-3.372 3.437-5.986 5.56-8.72.511-.659 1.165-1.285 1.433-2.038.527-1.484 1.204-2.796 2.287-3.975.904-.982.706-2.241-.222-3.24-1.321-1.419-2.898-2.092-4.848-1.553" fill="#FFE8E0"/><path d="M282.106 116.516c-1.118 1.099-1.909 1.979-2.805 2.729-1.122.941-2.438 1.79-3.914 1.097-1.448-.68-1.76-2.13-1.747-3.665.022-2.314.574-3.892 2.555-6.87-.228-.703-.666-.445-1.076-.226-2.99 1.608-5.311-.024-7.511-1.696-1.245-.945-1.36-2.454-1.039-4.059 1.837-1.614 3.917-1.896 6.24-.964 1.013.406 1.455.319 2.522-.172.216.095.474.14.639.29 2.92 2.64 5.819 5.303 8.743 7.938 1.654 1.49 3.756 2.02 5.828 2.611.121.195.33.383.353.594.4 3.503-.243 6.916-1.08 10.277-.533 2.137-1.856 3.235-3.367 3.206-1.961-.038-2.978-1.333-3.701-2.934-.611-1.349-.737-2.763-.35-4.206.311-1.158.518-2.307-.29-3.95" fill="#EAF4FF"/><path d="M37.208 107.911c4.044-1.877 7.874-3.533 11.581-5.431 1.551-.793 2.838-2.097 4.587-3.429l2.561.137 1.681 2.635-2.025 2.497-3.507.568c.944 2.933.326 5.552-.738 8.271-1.692.286-3.413.364-5.186-.16-1.489-.44-2.157-.049-2.875 1.353l-.471 1.352c-.742 1.45-1.61 1.796-3.241 1.354-2.899-.785-3.902-2.356-3.309-5.292.258-1.279.617-2.538.942-3.855" fill="#EAF4FF"/><path d="M88.227 44.73c-.881 1.4-1.878 2.876-2.759 4.416-.83 1.451-1.574 2.953-2.292 4.463-.749 1.57-1.125 3.328-2.246 5.02-1.04-1.2-1.518-2.234-1.534-3.44-.035-2.638-.015-5.275-.035-7.913-.017-2.366 2.627-5.41 6.345-4.789 1.122.189 1.872.983 2.521 2.243" fill="#ECD7D0"/><path d="M157.736 180.439c1.4.508 2.002 1.3 1.994 2.507-.007.948-.07 1.896-.086 2.844-.019 1.131-.691 1.705-1.681 2.009-1.159.355-2.252-.147-2.547-1.267-.369-1.411-.433-2.816.621-4.035.537-.622 1.049-1.267 1.699-2.058" fill="#fff"/><path d="M150.355 207.741v-4.692c1.787-1.297 1.795-1.281 3.705-1.433.26.87.555 1.76.787 2.666.607 2.36-.602 3.851-3.14 3.859-.335.001-.672-.191-1.352-.4" fill="#fff"/><path d="M132.07 95.952c1.339-.044 2.277-.11 3.215-.102 5.658.047 11.24-.557 16.738-1.909.696-.17 1.437-.287 2.059-.615 4.076-2.144 8.702-2.615 12.933-4.289.955-.379 2.068-.362 3.048-.518 1.421 3.936 1.177 7.876 1.286 11.809.092 3.303-1.591 5.435-3.975 7.169-1.833 1.336-3.853 2.421-5.825 3.555-1.53.879-9.493 2.118-11.24 1.683-3.501-.872-6.882-2.079-9.827-4.24-.661-.484-1.177-1.171-1.747-1.776-.569-.602-1.067-1.285-1.691-1.822-2.63-2.257-4.191-5.093-4.974-8.945" fill="#FF9AA9"/><path d="M88.227 44.73c-.649-1.26-1.399-2.054-2.521-2.243-3.718-.621-6.362 2.423-6.345 4.789.02 2.638 0 5.275.035 7.913.016 1.206.494 2.24 1.534 3.44 1.121-1.692 1.497-3.45 2.246-5.02.718-1.51 1.462-3.012 2.292-4.463.881-1.54 1.878-3.016 2.759-4.416zm-51.019 63.181c-.325 1.317-.684 2.576-.942 3.855-.593 2.936.41 4.507 3.309 5.292 1.631.442 2.499.096 3.241-1.354l.471-1.352c.718-1.402 1.386-1.793 2.875-1.353 1.773.524 3.494.446 5.186.16 1.064-2.719 1.682-5.338.738-8.271l3.507-.568 2.025-2.497-1.681-2.635-2.561-.137c-1.749 1.332-3.036 2.636-4.587 3.429-3.707 1.898-7.537 3.554-11.581 5.431zm244.898 8.605c.808 1.643.601 2.792.29 3.95-.387 1.443-.261 2.857.35 4.206.723 1.601 1.74 2.896 3.701 2.934 1.511.029 2.834-1.069 3.367-3.206.837-3.361 1.48-6.774 1.08-10.277-.023-.211-.232-.399-.353-.594-2.072-.591-4.174-1.121-5.828-2.611-2.924-2.635-5.823-5.298-8.743-7.938-.165-.15-.423-.195-.639-.289-1.067.49-1.509.577-2.522.171-2.323-.932-4.403-.65-6.24.964-.321 1.605-.206 3.114 1.039 4.059 2.2 1.672 4.521 3.304 7.511 1.696.41-.219.848-.477 1.076.226-1.981 2.978-2.533 4.556-2.555 6.87-.013 1.535.299 2.985 1.747 3.665 1.476.693 2.792-.156 3.914-1.097.896-.75 1.687-1.63 2.805-2.729zm-246.929-11.238c.796 0 1.583.207 2.186-.037 2.203-.891 4.355-1.915 6.507-2.926 1.184-.555 2.317-1.221 3.505-1.77 1.922-.889 3.506-2.18 4.198-4.19 1.163-3.372 3.437-5.986 5.56-8.72.511-.659 1.165-1.285 1.433-2.038.527-1.484 1.204-2.796 2.287-3.975.904-.982.706-2.241-.222-3.24-1.321-1.419-2.898-2.092-4.848-1.553-.57.157-1.129.506-1.696.511-1.374.011-2.212.773-2.935 1.786-.208.291-.348.663-.615.876-.588.47-1.264.697-1.977.228-.576-.381-.732-.967-.513-1.569 1.023-2.803.513-5.704.509-8.556 0-.998-.568-2.06-1.083-2.977-.657-1.172-2.108-1.173-3.009-.099-1.349 1.601-2.082 3.487-2.228 5.55-.079 1.12-.299 2.151-.976 3.019-.251.321-.813.643-1.161.578-.35-.065-.85-.594-.874-.948-.21-3.124-1.793-5.94-1.971-9.074-.044-.78-.349-1.668-1.539-1.901-2.18 1.111-3.099 3.049-3.113 5.502-.011 2.036.094 4.078 0 6.109-.019.422-.625.944-1.084 1.16-.206.098-.963-.376-1.045-.699-.825-3.215-3.142-5.611-4.584-8.483-.461-.921-1.123-1.805-2.584-2.094-.037 1.334-.121 2.498-.087 3.659.027.952.097 1.924.319 2.845.475 1.973 1.131 3.903 1.578 5.882.259 1.148.394 2.362.336 3.536-.056 1.13-1.579 1.724-2.482 1.031-.755-.582-1.558-1.185-2.097-1.951-1.272-1.806-3.14-2.441-5.045-3.086-.181.343-.385.548-.378.746.081 2.431.47 4.739 2.319 6.579.756.753 1.485 1.619 1.942 2.571 1.205 2.505 3.003 4.6 4.484 6.909 1.923 3 4.205 5.516 7.597 6.862 1.28.509 2.214 1.388 2.667 2.745.143.43.471.798.719 1.202zm256.915 6.958c.808-.147 1.406-.38 1.983-.338 3.19.228 6.131-.825 9.108-1.688 1.977-.572 3.819-1.399 5.321-2.881.504-.499 1.106-.918 1.715-1.289 2.357-1.439 2.924-3.667 2.776-6.205-.077-1.308-.944-1.934-2.186-1.612-.924.239-1.823.612-2.76.764-.383.061-1.008-.195-1.207-.507-.206-.324-.194-.995.015-1.334.496-.806 1.155-1.515 1.764-2.251.683-.83 1.437-1.608 2.061-2.479.84-1.169.656-2.217-.43-3.141-1.09-.928-2.864-1.068-3.992-.223-.766.573-1.422 1.29-2.157 1.906-.357.301-.775.702-1.185.727-.532.031-1.188-.135-1.598-.46-.548-.435-.359-1.107.076-1.582.484-.526 1.131-.912 1.563-1.471.644-.835 1.496-1.711 1.662-2.673.32-1.848.564-3.764.321-5.583-1.649-.95-2.956-.272-4.191.441-2.855 1.649-5.136 3.828-6.393 6.982-.494 1.24-.805 1.222-2.528.339-.154-1.112.256-2.071.833-3.007 1.34-2.17 1.972-4.594 2.35-7.076.461-3.031-.929-5.567-2.399-8.038-.209-.353-.733-.516-1.194-.824-2.081 1.887-3.871 3.868-4.498 6.47-.641 2.657-2.055 5.108-1.993 7.971.026 1.15-.462 2.321-.789 3.462-.126.442-.395.87-.689 1.233-.783.967-2.125.789-2.609-.334-.141-.326-.176-.695-.275-1.04-.57-1.995-1.556-3.711-3.189-5.055-.83-.682-1.523-1.53-2.298-2.279-.515-.498-1.018-1.039-1.619-1.411-.66-.407-1.468-.363-1.957.277-1.44 1.884-3.217 3.718-1.692 6.403.053.095.024.236.033.356.284 3.281 1.375 6.268 3.172 9.028.914 1.404 1.827 2.843 2.461 4.38.528 1.279 1.276 2.29 2.285 3.156 4.244 3.644 8.067 7.835 13.284 10.215.321.146.599.382 1.045.671zm-123.358 41.537c.695.498 1.664.88 2.145 1.592 1.707 2.54 4.289 3.227 7.032 3.781 2.003.405 3.599-.087 4.659-1.825 1.057-1.73 1.985-3.537 2.951-5.321.551-1.011 1.608-1.057 2.267-.099 1.013 1.47 1.944 3.014 3.104 4.361 1.248 1.448 6.285 1.7 7.71.447.604-.53 1.077-1.286 1.406-2.029.382-.866.546-1.829.793-2.751.281-1.05.955-1.716 2.035-1.702 1.906.022 3.819.084 5.712.293 1.415.155 2.622-.133 3.656-1.065.621-.56 1.162-1.21 1.735-1.823 1.553-1.663 1.735-6.25-.845-8.583-2.084-1.886-5.56-2.732-7.964-1.283-1.33.802-2.906 1.243-4.136 2.159-4.672 3.483-10.395 4.03-15.676 5.799-.664.222-1.425.191-2.142.215-9.352.311-18.702.347-28.04-.375-4.457-.343-8.748-1.392-12.916-2.971-3.584-1.359-7.152-2.766-10.734-4.135-4.031-1.54-8.1-3.018-11.639-5.566-1.49-1.073-2.959-1.039-4.337-.058-2.74 1.95-5.333 4.065-6.875 7.193-1.213 2.458-.276 5.896 2.064 7.228 1.585.903 3.227 1.517 5.121 1.367 1.43-.112 2.879-.063 4.316-.01 1.368.051 2.498-.292 3.649-1.138 1.433-1.053 3.062-1.892 4.707-2.588 1.827-.774 3.453.142 3.682 2.075.324 2.737 1.732 4.994 3.188 7.137 1.309 1.926 3.581 2.732 5.843 3.207.957.2 1.894-.057 2.711-.686.758-.585 1.666-1.01 2.319-1.687.805-.836 1.651-1.492 2.812-1.248 1.031.217 2.134.501 2.979 1.085 1.067.736 2.038 1.705 2.811 2.752 1.69 2.29 4.248 3.092 6.708 3.864 1.404.441 3.132.259 4.616-.075 1.53-.346 1.749-2.136 2.535-2.991.253-1.652-2.196-2.898.038-4.546zm48.961 118.866c-.293-2.975-.538-5.957-.894-8.924-.229-1.903-.802-3.777-.902-5.678-.225-4.319-2.528-7.674-4.792-11.072-.779-1.172-1.873-1.773-3.277-1.949-2.166-.271-4.294-.026-6.449.148-2.044.165-3.62.999-5.12 2.299-2.859 2.476-4.984 5.468-6.689 8.816-3.072 6.037-5.492 12.246-5.533 19.157-.007 1.196.094 2.476-.286 3.569-.659 1.888-.542 3.778-.533 5.685.036 6.044.068 6.033 2.604 11.317.539 1.125 1.297 1.962 2.232 2.749 1.889 1.593 3.928 2.595 6.478 2.708 3.743.168 7.415.239 10.808-1.73 1.65-.96 3.326-1.888 5.054-2.697 1.254-.589 2.061-1.491 2.84-2.607.652-.936 1.287-1.662.736-2.864-.11-.243.155-.676.285-1.004 2.272-5.751 3.426-11.701 3.438-17.923zm-173.417-154.279c.563.578 1.101 1.02 1.494 1.564.417.578.689 1.26 1.043 1.886 1.241 2.19 2.495 4.372 3.734 6.562 1.535 2.712 2.949 5.498 4.615 8.125 2.435 3.846 4.749 7.828 7.658 11.294 3.848 4.583 8.214 8.728 12.375 13.045.494.513 1.043 1.019 1.66 1.362 3.246 1.801 6.516 3.561 9.793 5.303.628.334 1.314.587 2 .78 3.933 1.11 7.647 2.76 11.395 4.365 5.484 2.349 11.114 3.523 17.074 1.453 1.485-.516 2.264-1.211 2.512-2.61.252-1.412.482-2.84.565-4.27.14-2.394.151-4.795.222-7.193.06-2.032-.002-4.076.884-6 .174-.379.025-.908.025-1.602-2.249-.253-4.402-.219-6.532-.12-2.975.136-5.235-1.474-7.601-2.847-.387-.225-.651-.691-.924-1.078-1.798-2.561-1.68-5.416-1.206-8.303.073-.446.346-.914.653-1.258 1.746-1.956 3.169-4.229 5.511-5.608.335-.197.529-.633.96-1.176-4.602-1.087-8.884-2.081-13.157-3.11-11.572-2.789-22.295-7.277-31.184-15.488-1.759-1.626-3.668-3.09-5.518-4.617-1.103-.91-2.226-1.796-3.358-2.707-.67.161-1.254.254-1.805.442-.656.225-1.285.533-1.807.754-.38 2.028-.681 3.901-1.09 5.751-.447 2.019-1.073 2.495-3.24 2.561-1.559.049-3.118.009-4.676.036-.217.004-.431.157-.806.303l-1.269 2.401zm190.099-40.014c-.317-4.673-.602-9.213-.948-13.747-.127-1.672-.324-3.347-.621-4.996-1.045-5.814-2.94-11.355-5.383-16.73-2.853-6.274-6.482-12.027-11.064-17.172-.555-.623-1.209-1.163-1.856-1.695-5.879-4.828-12.242-8.836-19.402-11.518-2.582-.968-5.164-1.964-7.644-3.16-5.146-2.479-10.696-3.503-16.203-4.648-3.283-.682-6.621-1.313-9.959-1.467-10.991-.507-21.804.662-32.283 4.198-1.115.376-2.232.904-3.175 1.596-1.249.917-2.357 2.035-3.47 3.124-2.316 2.265-4.418 4.789-6.932 6.803-3.576 2.866-6.772 6.108-9.994 9.323-4.597 4.589-8.469 9.843-12.028 15.213-4.295 6.479-8.333 13.163-11.631 20.261-1.812 3.901-2.715 7.904-2.751 12.162-.039 4.72.922 9.31 1.986 13.854.566 2.418 1.134 4.971 2.719 6.997 2.141 2.736 4.31 5.473 6.701 7.986 5.979 6.28 12.628 11.796 19.862 16.574 4.501 2.974 9.089 5.824 13.707 8.617 1.836 1.11 3.806 2.036 5.801 2.834 6.013 2.4 12.076 4.675 18.105 7.035 4.596 1.801 9.397 2.872 14.166 4.05 1.145.282 2.377.229 3.57.3 4.57.269 9.108-.282 13.649-.623 1.898-.144 3.791-.475 5.662-.842 1.289-.253 2.515-.856 3.808-1.055 4.45-.691 8.532-2.402 12.496-4.41 3.65-1.848 7.182-4.011 9.974-6.982 3.69-3.929 7.022-8.197 10.464-12.357.76-.918 1.377-1.966 1.975-3.003.639-1.106 1.585-2.083 1.762-3.372l-2.845-2.809c.778-.16 1.286.103 1.825.263 1.252.373 2.5.85 3.783 1.012 8.695 1.096 16.139-1.572 22.121-7.92 4.514-4.787 6.043-10.491 4.211-16.941-.512-1.801-1.414-3.407-3.151-4.179-2.424-1.077-5.023-1.905-7.687-1.329-3.968.857-7.947 1.664-11.712 3.362-2.434 1.099-4.39 2.787-6.821 4.595.965-5.357 5.03-7.046 9.213-9.204zm-54.815 199.544c1.313-5.021 2.524-10.131 3.989-15.163 2.002-6.888 5.046-13.217 10.568-18.076 1.453-1.279 2.921-2.58 4.91-2.842 2.731-.358 5.477-.634 8.227-.811 3.105-.2 5.571 1.05 7.439 3.564 2.889 3.891 5.24 7.898 5.867 12.926.756 6.068 2.026 12.067 1.653 18.234-.046.77.082 1.548.132 2.371.337-.096.514-.098.539-.16 2.678-6.566 5.031-13.217 5.874-20.326.408-3.447 1.121-6.857 1.698-10.283.1-.592.295-1.181.295-1.77-.001-4.321.219-8.662-.124-12.958-.66-8.251-1.375-16.501-2.594-24.702-1.041-7.012-2.1-13.998-4.724-20.642-.494-1.251-.129-2.07 1.022-2.672.213-.111.427-.227.653-.304 4.586-1.551 8.715-3.955 12.648-6.739.975-.691 2.014-1.314 3.085-1.846 5.123-2.552 9.476-6.064 13.153-10.429 1.159-1.376 2.159-2.906 3.429-4.166 3.746-3.723 7.484-7.464 11.421-10.977 4.996-4.458 8.756-9.848 12.256-15.451.998-1.598 1.693-3.395 1.866-4.967l-4.823-5.409-3.318-.001c-1.204 0-2.053-.579-2.583-1.632-.926-1.84-1.672-3.733-1.478-5.853.143-1.542.32-3.081.504-4.839-.874-.499-1.826-.97-2.697-1.559-1.094-.74-2.211-.768-3.432-.433-8.722 2.399-17.008 5.795-24.698 10.61-2.434 1.525-4.977 2.878-7.464 4.322-3.417 1.984-6.973 3.72-10.098 6.206-3.128 2.489-6.562 3.921-10.583 1.862l-1.45 1.121c1.319.941 2.444 1.635 3.44 2.481 1.497 1.273 2.621 2.774 2.449 4.931-.086 1.073-.029 2.16-.01 3.239.024 1.255-.383 2.361-1.13 3.345-.362.476-.898.861-1.133 1.386-.98 2.192-2.87 2.755-4.989 2.875-1.316.075-2.64-.025-3.961-.009-.914.012-1.826.088-2.998.147.584 2.759-.662 4.296-2.853 5.343-.728.347-1.295 1.033-2.09 1.691-1.798-.126-3.742-.074-5.603-.447-1.961-.392-3.525-1.693-4.896-3.367-.874 1.482-1.554 2.744-2.34 3.936-1.049 1.587-2.55 2.559-4.468 2.657-1.066.055-2.174-.014-3.211-.256-1.82-.425-3.598-1.025-5.477-1.574-.277.394-.595.757-.81 1.174-1.244 2.403-3.175 3.49-5.884 3.178-.475-.055-.962-.04-1.44-.007-2.1.143-4.027-.323-5.85-1.407-1.108-.659-2.33-1.131-3.418-1.648-1.183.733-1.478 1.798-1.823 2.796-.823 2.383-1.667 4.747-3.001 6.911-.372.602-.658 1.306-.791 2.001-.857 4.485-2.656 8.702-3.779 13.085-1.663 6.494-3.172 13.059-3.589 19.805-.206 3.351-.754 6.689-.841 10.041-.191 7.44-.238 14.886.872 22.281.036.237.13.494.076.711-.104.405-.295.787-.554 1.442-1.47-1.89-2.638-3.556-3.019-5.597-.394-2.12-.861-4.269-.883-6.409-.062-6.114-.484-12.238.364-18.344.38-2.731.57-5.491.818-8.24.565-6.247 2.402-12.23 3.82-18.297.162-.691.532-1.338.843-1.987.993-2.065 1.711-4.193 2.077-6.481.242-1.517.706-3.107 1.495-4.405 2.162-3.556 3.308-7.71 6.493-10.684-.757-1.562-1.634-2.752-3.378-3.197-.975.761-1.95 1.457-2.852 2.236-2.248 1.947-4.926 2.113-7.459 1.207-3.658-1.31-6.914-3.278-8.367-7.325-.502-1.399-.992-2.965-2.295-3.934-1.955.436-3.178 1.778-4.436 2.995-.914 2.817-1.089 5.661-.937 8.546.063 1.199-.016 2.406.078 3.6.365 4.581-.891 9.063-.797 13.629.017.814-.33 1.64-.541 2.452-1.738 6.726-2.664 13.664-5.228 20.176-.043.11-.06.232-.078.35-.387 2.418-1.472 4.54-2.715 6.611-1.606 2.674-3.147 5.385-4.723 8.077-.445.76-.55 1.425-.151 2.338.566 1.299.075 2.289-1.123 2.402-2.613.245-5.111 1.192-7.808.99-2.017-.152-4.068.073-6.099.208-1.665.11-3.323.351-4.986.507-.954.088-1.923.054-2.868.192-6.182.904-12.15 2.742-18.195 4.232-3.834.946-7.607 2.141-11.418 3.183-.803.219-1.688.159-2.479.408-.971.303-2.142.308-2.749 1.311.782 1.597 1.549 3.079 2.238 4.597.415.915.421 1.886-.165 2.747-.172.254-.558.491-.853.498-.293.006-.625-.246-.875-.46-.167-.142-.271-.406-.317-.633-.474-2.4-1.714-4.438-2.946-6.5-.731-1.225-1.245-2.58-1.867-3.871-.777-1.62-1.397-3.348-2.386-4.827-1.532-2.286-3.22-4.486-5.031-6.559-1.325-1.518-2.895-2.848-4.478-4.108-.601-.48-1.585-.832-2.322-.727-2.989.422-6.021.914-7.233 4.363-.275.782-.577 1.554-1.511 1.879-1.287.448-1.732 1.51-1.92 2.79-.261 1.778-.932 3.545-.898 5.306.102 5.48-.795 11.046 1.164 16.403.244.668.269 1.413.441 2.112 1.233 5.001 2.242 10.096 4.649 14.698 1.773 3.394 3.878 6.613 5.853 9.897.244.408.553.807.918 1.104.549.442 1.131.906 1.777 1.16 4.043 1.595 8.219.353 10.724-3.27.983-1.424 2.162-2.2 3.893-2.051 1.662.146 3.341.208 4.978.507 1.406.254 2.756.816 4.144 1.2 4.624 1.278 9.264 2.566 14.098 2.588 2.557.011 5.03.31 7.436 1.096 4.482 1.463 9.09 2.195 13.779 2.306 6.719.161 13.443.138 20.162.273 3.533.068 6.946-.25 10.091-2.039.513-.293 1.11-.485 1.693-.601 2.518-.502 4.705-1.667 6.49-3.26 1.635.153 2.928.523 4.265 1.195 1.674.843 3.709.938 5.482 1.631 4.712 1.833 9.612 2.98 14.475 4.283 2.338.627 4.653 1.095 7.082.957 1.69-.096 3.354.031 4.893.881 1.316.725 2.773.665 4.218.669 2.03.005 4.061.043 6.395.069zm-72.636-60.865c2.218-4.473 4.275-9.035 5.255-14.038.414-2.11 1.045-4.187 1.715-6.234 1.08-3.305 2.237-6.57 2.86-10.023.466-2.587 1.382-5.089 2.052-7.643.203-.769.251-1.58.349-2.233-.86-.77-1.515-.417-2.19-.183-2.04.706-4.085 1.571-6.295 1.178-3.643-.646-7.412-1.004-10.856-2.243-4.278-1.538-8.424-3.454-12.842-4.631-.572-.152-1.121-.432-1.646-.716-3.378-1.819-6.754-3.64-10.109-5.5-.622-.344-1.199-.806-1.711-1.301-4.668-4.506-9.305-9.073-13.231-14.236-3.043-4-5.861-8.198-8.144-12.718-1.081-2.139-2.334-4.192-3.495-6.292-1.162-2.099-2.273-4.227-3.468-6.306-.771-1.344-1.654-2.623-2.404-3.803-1.694-.419-3.226-.68-4.673-1.184-2.381-.83-3.485-2.135-3.233-4.491.24-2.246-.553-4.218-.918-6.306-.349-1.999-1.389-3.531-3.181-4.545-.727-.412-1.378-.962-2.116-1.355-2.183-1.165-3.781-2.91-5.047-4.989-1.379-2.265-3.049-4.284-4.871-6.215-1.558-1.65-3.183-3.348-4.268-5.308-1.519-2.746-2.212-5.826-1.835-9.033.112-.964.693-1.523 1.632-1.613 1.331-.126 2.62-.023 3.846.627 1.05.557 2.158 1.004 3.516 1.627-.156-1.406-.091-2.623-.449-3.699-.905-2.715-.436-5.478-.534-8.219-.033-.89.273-1.634.887-2.275.889-.923 1.924-1.101 2.877-.278 1.54 1.329 3.089 2.665 4.006 4.567.338.701.861 1.314 1.535 2.317 1.012-2.038.996-4.113 2.475-5.431.715-.637 1.378-1.363 2.181-1.861.677-.418 1.524-.563 2.294-.829 2.271 1.822 2.696 4.311 3.183 7.197 1.014-1.3 1.75-2.396 2.521-3.484 1.475-2.08 5.063-2.091 6.528-.006 1.11 1.581 1.923 3.299 1.87 5.341-.037 1.419-.156 2.87.266 4.209 1.344.482 2.441.014 3.611-.266 2.869-.688 5.389-.072 7.577 2.108 1.618 1.613 1.515 3.44 1.162 5.335-.118.633-.72 1.227-1.208 1.734-3.355 3.493-5.635 7.713-8.113 11.603.148 1.489 1.089 2.207 2.085 2.419 2.18.464 2.793 2.079 3.206 3.853.242 1.036.209 2.135.306 3.276.201.223.407.526.68.744 4.419 3.509 8.822 7.038 13.287 10.488 1.32 1.018 2.76 1.921 4.25 2.668 4.285 2.152 8.525 4.429 13.172 5.755 1.613.46 3.231.907 4.863 1.29 4.663 1.092 9.327 2.17 14.002 3.196.748.164 1.561.022 2.976.022-1.429-1.065-2.347-1.788-3.302-2.455-4.135-2.885-8.286-5.729-12.164-8.976-3.967-3.321-7.789-6.774-11.36-10.511-.828-.867-1.616-1.773-2.401-2.68-2.137-2.474-3.866-5.134-4.631-8.412-.516-2.207-1.467-4.313-2.231-6.459-1.226-3.444-1.409-6.997-1.478-10.627-.091-4.681.934-9.019 2.85-13.224.544-1.195.956-2.451 1.47-3.786-.499-.562-.981-1.068-1.422-1.606-1.494-1.818-2.397-3.829-2.295-6.262.094-2.278.026-4.563.033-6.844.012-3.452 2.433-5.297 4.801-7.173 2.375-.421 4.752-.79 6.877.815.475.357.874.814 1.455 1.365.524-.514 1.041-.958 1.486-1.467 3.867-4.43 7.716-8.876 11.587-13.303.39-.445.825-.923 1.341-1.171 2.447-1.17 4.199-3.158 6.108-4.981 1.732-1.656 3.492-3.296 5.359-4.794 1.256-1.006 2.305-2.102 2.877-3.6.541-1.419 1.627-2.293 2.785-3.196 4.46-3.485 9.643-5.249 15.036-6.576 8.351-2.053 16.849-2.571 25.385-2.147 3.817.19 7.634.872 11.393 1.623 5.881 1.172 11.7 2.611 17.132 5.303 1.931.957 3.961 1.722 5.978 2.489 7.486 2.853 14.114 7.125 20.271 12.18.647.532 1.288 1.086 1.844 1.71 4.995 5.601 8.822 11.921 11.904 18.764 2.436 5.406 4.131 11.015 5.154 16.81.602 3.414.68 6.922.999 10.387.218 2.374.445 4.748.693 7.391 1.281-.211 2.348-.241 3.313-.571 3.8-1.298 7.49-1.042 11.286.181 2.612.843 4.541 2.384 5.577 4.737 2.449 5.56 3.244 11.09.176 16.919-4.367 8.297-11.315 12.818-20.102 14.947-2.456.595-5.003.278-7.73-.219-.604.947-1.233 1.94-1.87 2.925-1.042 1.611-1.982 3.304-3.171 4.797-.878 1.102-1.972 2.123-3.166 2.864-2.698 1.674-4.754 3.982-6.791 6.332-.125.146-.087.435-.143.763.277.12.583.373.877.362 1.99-.075 3.914-.776 5.247-2.088 2.797-2.754 6.194-4.546 9.509-6.438 3.646-2.081 7.256-4.21 10.832-6.41 6.262-3.854 13.009-6.663 20.027-8.829.797-.246 1.582-.528 2.369-.808.102-.036.172-.155.258-.236.041-.219.161-.457.114-.653-.977-4.02-.521-4.864 3.304-6.063 2.353-.736 3.202-.735 7.264.062-.246-.637-.358-1.188-.643-1.625-.984-1.503-2.07-2.94-3.041-4.45-1.64-2.553-2.725-5.32-3.048-8.362-.049-.473-.082-.981-.28-1.399-1.076-2.262-.254-4.197.974-6.071.262-.4.65-.732.854-1.156.614-1.271 1.444-2.189 2.969-2.258 1.72-.079 3.346.008 4.615 1.446.872.989 1.858 1.876 2.81 2.792.85.818 1.724 1.612 2.786 2.6.71-2.034 1.564-3.765 1.897-5.591.632-3.466 2.58-6.148 4.735-8.709 1.174-1.394 2.913-1.627 4.64-1.245.515.114 1.076.569 1.375 1.025 2.257 3.446 4.175 6.999 2.97 11.365-.121.437-.06.923-.103 1.743.843-.36 1.504-.51 2.002-.88 1.507-1.12 3.134-1.704 5.03-1.54 1.571.135 2.221.543 2.495 2.06.256 1.411.298 2.859.437 4.291l.155 1.513c1.363.715 3.113.311 4.26 1.624.96 1.101 1.946 2.06 1.919 3.699-.025 1.674-.865 2.94-1.781 4.116.145.316.184.626.331.691 2.497 1.082 3.136 3.1 2.89 5.592-.245 2.476-.999 4.636-3.215 6.12-1.876 1.256-3.516 2.917-5.492 3.96-1.878.99-4.029 1.516-6.111 2.045-1.487.377-3.057.42-4.838.643-1.7 2.185-1.77 5.103-2.446 7.807-.172.687-.061 1.44-.175 2.147-.58 3.6-2.795 6.867-7.794 6.497-.224.563-.591 1.179-.712 1.84-.807 4.391-3.096 7.969-6.005 11.227-.478.536-.911 1.113-1.33 1.696-5.632 7.858-12.292 14.801-19.76 20.855-6.325 5.128-12.724 10.229-19.741 14.442-1.02.612-2.11 1.121-3.203 1.595-2.518 1.093-5.127 2.011-7.327 4.068.156.666.234 1.378.487 2.02 2.261 5.745 3.254 11.769 4.166 17.834 1.253 8.316 2.168 16.674 2.707 25.051.682 10.561.597 21.151-2.027 31.5-2.125 8.382-4.855 16.579-9.032 24.215-.23.422-.359.952-.696 1.251-2.631 2.339-4.139 5.533-6.308 8.229-1.582 1.965-3.401 3.29-5.726 4.115-1.004.357-1.951.92-2.858 1.493-2.405 1.52-4.972 2.298-7.84 2.024-1.552-.148-3.039.057-4.596.443-2.356.583-4.747.184-6.785-1.392-.949-.731-1.931-1.421-2.875-2.157-1.246-.971-2.318-2.075-2.839-3.632-.227-.675-.529-1.349-.921-1.941-1.444-2.182-1.99-4.596-1.978-7.17.004-.714.001-1.428.001-1.78-1.425-1.756-2.604-3.208-4.065-5.004.244.1.027-.071-.189-.068-3.845.039-7.622-.425-11.321-1.492-.226-.067-.471-.092-.709-.1-6.806-.247-13.13-2.548-19.49-4.647-2.953-.977-5.82-2.209-8.762-3.223-.611-.213-1.529-.229-2.043.088-2.897 1.796-6.306 2.283-9.313 3.784-1.964.979-4.133 1.29-6.305 1.283-9.486-.023-18.974-.016-28.457-.21-2.597-.054-5.203-.658-7.765-1.2-3.058-.647-6.117-1.053-9.247-1.263-5.521-.37-10.89-1.709-16.137-3.474-2.035-.684-4.045-1.445-6.316-1.749-.38.527-.716 1.002-1.063 1.468-3.512 4.701-10.343 4.955-14.566 2.077-1.093-.745-2.103-1.575-3.382-1.965-1.239-.379-1.937-1.184-2.487-2.374-1.207-2.608-2.624-5.118-3.924-7.683-.429-.85-.877-1.718-1.117-2.63-1.444-5.457-3.381-10.753-5.262-16.065-.691-1.95-1.1-3.916-.962-5.992.056-.837.06-1.683.009-2.52-.314-5.116.633-10.065 2.413-14.795 1.543-4.1 4.012-7.559 8.335-9.34 3.033-1.25 5.832-1.085 8.506.8.781.551 1.52 1.166 2.227 1.81 3.231 2.931 5.513 6.647 8.001 10.151 1.56 2.198 2.352 4.942 3.554 7.585 1.991-.832 4.178-1.707 6.332-2.66 2.202-.977 4.472-1.664 6.811-2.259 4.178-1.062 8.273-2.44 12.42-3.634 4.39-1.262 8.854-2.137 13.434-2.319.36-.014.731.047 1.079-.021 3.908-.766 7.858-.789 11.821-.859 1.639-.028 3.267-.655 5.059-1.044z" fill="#2A406D"/><path d="M157.736 180.439c-.65.791-1.162 1.436-1.699 2.058-1.054 1.219-.99 2.624-.621 4.035.295 1.12 1.388 1.622 2.547 1.267.99-.304 1.662-.878 1.681-2.009.016-.948.079-1.896.086-2.844.008-1.207-.594-1.999-1.994-2.507zm-.306-1.955c1.326.155 2.417.663 3.172 1.639.488.63.99 1.424 1.044 2.177.145 2.013.049 4.045.049 6.009-1.746 2.226-3.975 3.08-6.676 2.83-1.058-.1-1.73-.601-2.136-1.616-.729-1.825-1.024-3.691-.726-5.627.324-2.117 1.022-3.935 3.501-4.42.649-.127 1.218-.67 1.772-.992z" fill="#2A406D"/><path d="M150.355 207.741c.68.209 1.017.401 1.352.4 2.538-.008 3.747-1.499 3.14-3.859-.232-.906-.527-1.796-.787-2.666-1.91.152-1.918.136-3.705 1.433v4.692zm-3.006-2.444c0-.599-.025-1.199.005-1.796.148-2.874 2.213-4.393 5.122-3.787.467.097.94.175 1.41.253 1.051.171 1.717.753 1.996 1.793.213.803.496 1.59.698 2.396.933 3.722-1.056 6.385-4.886 6.56-3.563.163-4.275-.487-4.349-3.982-.009-.478-.001-.958-.001-1.437h.005z" fill="#2A406D"/><path d="M164.699 30.455c-1.732 3.144-1.732 3.144-.822 5.926 1.877-1.118 3.4-2.578 4.829-4.122.721-.778.104-2.012-1.019-2.032-1.047-.02-2.097.154-2.988.228zm-3.904 12.553c-3.126 0-6.006-.069-8.881.024-2.007.064-3.658-.579-5.394-1.567-3.503-1.992-5.323-5.077-6.468-8.722-.778-2.475-.293-10.705.584-13.165 1.357-3.8 4.305-5.329 8.009-5.629 1.898-.153 3.831.104 5.745.239.252.016.479.408 1.041.922-1.234.163-2.129.443-2.991.366-2.6-.231-4.638 1.12-6.671 2.335-1.536.916-2.149 2.644-2.207 4.345-.099 2.992-.215 6.028.175 8.981.468 3.545 2.661 6.085 5.903 7.65.319.154.673.326 1.01.326 2.853.004 5.721.32 8.465-.199.979-1.327.647-2.708.729-3.979.123-1.878.78-3.481 1.87-4.97.758-1.037 1.747-1.652 3.014-1.722 1.076-.06 2.164-.079 3.236.019 2.443.22 4.102 2.513 3.436 4.855-.287 1.011-.84 1.987-1.452 2.85-.688.972-1.522 1.864-2.403 2.67-.877.799-1.893 1.446-2.848 2.16 1.102 2.294 2.611 3.754 4.611 4.487 1.236.452 2.453.959 3.698 1.383.668.226 1.372.413 2.072.476 5.683.51 10.928-.871 15.824-3.734.925-.541 1.887-1.028 2.871-1.446.244-.104.824.066.933.274.19.367.348 1.035.151 1.273-1.763 2.137-3.783 3.966-6.335 5.174-4.592 2.173-9.442 2.566-14.404 2.207-.816-.059-1.622-.365-2.413-.613-.453-.143-.852-.506-1.309-.59-3.777-.692-6.357-3.136-8.748-5.88-.234-.27-.523-.493-.853-.8z" fill="#2A406D"/><path d="M132.07 95.952c.783 3.852 2.344 6.688 4.974 8.945.624.537 1.122 1.22 1.691 1.822.57.605 1.086 1.292 1.747 1.776 2.945 2.161 6.326 3.368 9.827 4.24 1.747.435 9.71-.804 11.24-1.683 1.972-1.134 3.992-2.219 5.825-3.555 2.384-1.734 4.067-3.866 3.975-7.169-.109-3.933.135-7.873-1.286-11.809-.98.156-2.093.139-3.048.518-4.231 1.674-8.857 2.145-12.933 4.289-.622.328-1.363.445-2.059.615-5.498 1.352-11.08 1.956-16.738 1.909-.938-.008-1.876.058-3.215.102zm-3.238.042c-1.442-1.77-3.594-.749-4.945-2.3 1.298-.831 2.547-1.027 3.834-.784 4.415.827 8.852.49 13.264.175 2.976-.214 5.927-.847 8.874-1.368 1.174-.207 2.387-.462 3.453-.965 5.016-2.37 10.459-3.355 15.709-4.959 2.399-.733 3.457-.205 4.008 2.027.51 2.068.842 4.202 1.004 6.325.172 2.267.024 4.556.071 6.834.047 2.246-.647 4.13-2.004 5.981-1.241 1.692-2.628 3.05-4.441 4.035-.736.4-1.478.807-2.151 1.302-2.801 2.06-6.036 2.572-9.373 3.231-3.988.788-7.563.269-11.205-1.168-3.486-1.374-6.624-3.054-9.172-6.022-1.625-1.893-3.383-3.654-4.729-5.781-1.305-2.062-2.155-4.259-2.197-6.563z" fill="#2A406D"/><path d="M139.077 68.998c-.521.423-.825.812-1.217.953-.55.196-1.167.199-1.753.301-2.232.39-3.473 2.038-3.109 4.295.083.521.468 1.193.906 1.416 1.045.528 2.186.899 3.322 1.202 1.026.273 2.149.251 2.996 1.423-.405.346-.759.801-1.224 1.017-2.824 1.314-5.363.417-7.694-1.235-.627-.447-1.091-1.272-1.377-2.021-.921-2.426-.341-4.728 1.045-6.784.905-1.342 2.258-2.098 4.001-1.829.942.146 1.904.18 2.829.387.401.089.731.487 1.275.875" fill="#2A406D"/><path d="M170.318 70.896c.057-.963.027-1.812.171-2.63.351-1.975 2.339-2.891 4.116-1.946 2.098 1.115 2.968 4.075 1.68 6.238-.531.891-1.341 1.702-2.201 2.291-1.4.958-3.272.095-3.6-1.583-.157-.812-.121-1.662-.166-2.37" fill="#2A406D"/><path d="M204.498 79.845c-.768-.288-1.556-.529-2.299-.87-2.885-1.324-5.801-1.107-8.738-.242-1.195.351-2.11 1.022-2.8 2.095-.644 1-1.427 1.915-2.22 2.803-.155.173-.727.185-.945.036-.233-.161-.471-.697-.369-.902 1.636-3.317 3.744-6.249 7.742-6.707 3.195-.366 6.513-.665 9.273 1.614.455.377.618 1.109.914 1.678l-.558.495" fill="#2A406D"/><path d="M112.79 62.885c.02 1.692-.517 3.051-2.003 3.941-.875.522-1.789.586-2.706.118-.951-.487-1.445-1.368-1.277-2.343.257-1.499.647-3.002 1.209-4.413.38-.948 1.395-1.22 2.416-1.103.886.102 1.631.537 1.92 1.377.264.766.303 1.612.441 2.423" fill="#2A406D"/><path d="M103.947 76.229c-.578-1.52-.971-2.374-1.232-3.266-.952-3.246-2.631-5.862-5.87-7.28-1.064-.466-2.113-1.063-2.746-2.295.405-.248.726-.605.944-.55 2.111.526 3.939 1.632 5.59 3.013 2.205 1.849 3.327 4.342 4.019 7.061.244.96.211 1.021-.705 3.317" fill="#2A406D"/><path d="M237.911 90.232c1.487.062 2.4.567 2.192 1.24-.31 1.008-1.23.95-2.039 1.08-2.666.423-4.719 2.146-7.013 3.352-.413.215-.747.573-1.151.806-.522.299-1.353-.211-1.231-.804.163-.78.321-1.682.811-2.249 1.196-1.384 6.705-3.496 8.431-3.425" fill="#2A406D"/><path d="M287.778 91.893c1.122 1.519 2.213 2.78 3.057 4.188 1.426 2.378.641 6.593-1.459 8.518-.494.454-1.163.586-1.593.085-.332-.384-.434-1.032-.471-1.576-.021-.299.272-.645.479-.929 1.345-1.854 1.2-3.764.234-5.705-.318-.64-.689-1.253-1.025-1.886-.457-.863-.19-1.603.778-2.695" fill="#2A406D"/><path d="M47.898 84.749c-1.557 2.021-3.22 3.345-4.147 5.344-.816 1.757-.511 3.9-1.959 5.652-1.035-1.331-1.125-2.636-.72-3.875.698-2.134 1.43-4.272 3.017-5.988 1.061-1.147 1.014-1.19 3.809-1.133" fill="#2A406D"/></g></svg>