<svg width="291" height="246" viewBox="0 0 291 246" xmlns="http://www.w3.org/2000/svg"><title>baby_crawl</title><desc>Created with Sketch.</desc><g fill="none"><path d="M291 210.19c0 19.605-65.143 35.5-145.5 35.5-80.356 0-145.5-15.895-145.5-35.5s65.144-35.5 145.5-35.5c80.357 0 145.5 15.895 145.5 35.5" fill-opacity=".5" fill="#8BB5A4"/><path d="M133.858 158.29c-.153-.259-.383-.471-.346-.615 1.037-4.064-.694-8.015-.495-12.048.017-.377-.358-.775-.776-1.618-.358 1.1-.717 1.734-.748 2.385-.092 1.916-.107 3.842-.058 5.76.111 4.34-.289 8.63-1.015 12.899-.361 2.131-.876 4.248-1.041 6.395-.317 4.125-1.585 7.972-2.943 11.832-1.593 4.524-3.001 9.113-4.549 13.656-.424 1.238-.946 2.474-1.624 3.585-2.376 3.893-4.821 7.745-7.283 11.585-1.358 2.119-2.718 4.239-4.578 5.994-.589.556-1 1.344-1.358 2.089-1.066 2.22-2.873 3.484-5.161 4.141-.896.256-1.825.401-2.761.602-1.08-1.06-.906-2.285-.542-3.402 1.279-3.932-.405-7.032-2.748-9.89-1.211-1.479-2.64-2.796-4.073-4.071-2.046-1.821-4.326-2.907-7.219-2.155-1.251.323-2.601.264-3.948.385-.154-1.751 1.205-2.706 1.646-4.248-1.05-1.266-1.516-2.788-.778-4.537.172-.411.075-.948.056-1.424-.327-7.798-1.244-15.538-2.319-23.261-.264-1.897-.412-3.818-.459-5.732-.12-4.801-.146-9.601-.221-14.405-.011-.716.035-1.47-.168-2.14-.15-.493-.583-1.006-1.033-1.271-.457-.27-1.141.524-1.229 1.441-.08.834-.08 1.678-.091 2.519-.075 5.042-.141 10.084-.217 15.126-.008.594-.055 1.184-.084 1.742-.841.321-1.2-.174-1.471-.716-.864-1.729-1.887-3.322-3.291-4.685-.492-.475-.735-1.216-1.06-1.852-1.743-3.418-3.41-6.875-5.232-10.251-1.771-3.277-3.505-6.563-4.699-10.102-.223-.66-.325-1.36-.524-2.224 3.665.143 7.137.206 10.598.429 3.865.25 7.635-.082 11.422-.933 4.446-.999 8.933-1.865 13.444-2.479 5.173-.705 10.086-2.24 14.788-4.348 4.477-2.005 8.763-4.448 13.104-6.75 1.159-.613 2.2-1.386 2.948-2.566.499-.79 1.328-1.372 2.022-2.035 4.159-3.969 8.102-8.13 11.53-12.762.556-.752 1.326-1.346 1.932-1.949.527.047.932-.022 1.232.123 4.969 2.414 9.88.683 14.767-.281 1.107-.219 2.12-1.096 3.086-1.796 1.188-.858 2.453-1.407 3.878-1.787 4.776-1.265 9.649-1.914 14.55-2.351 4.899-.435 9.813-.748 14.723-1.076 2.641-.175 5.271-.064 7.892.402 1.128.199 2.022.602 2.775 1.462 2.058 2.344 4.181 4.63 6.22 6.991 2.9 3.357 5.703 6.801 8.637 10.124 1.366 1.549 2.516 3.186 3.384 5.057.705 1.522 1.699 2.915 2.341 4.456 1.469 3.529 2.981 7.063 2.964 11.005-.013 3.121-.038 6.245.033 9.364.041 1.86.534 2.279 2.392 2.367.839.039 1.682-.003 2.521.019 3.952.114 7.855.574 11.654 1.718.345.103.689.332 1.025.318 3.655-.175 6.17 2.393 9.113 3.861 1.84.917 2.981 2.77 3.732 4.709.292.752.461 1.662.342 2.447-.724 4.75-1.673 9.457-3.959 13.754-2.688 5.049-5.991 9.448-11.348 12.121-2.637 1.314-5.231 2.864-7.498 4.893-1.13 1.01-2.653 1.617-4.059 2.277-2.496 1.176-5.011 2.31-7.564 3.349-1.771.718-3.623 1.243-5.435 1.863-1.547.53-3.071 1.1-4.044 2.563.29.232.398.383.471.371 4.081-.841 8.221-1.426 11.989-3.432 3.274-1.744 6.909-2.773 9.987-4.931.286-.198.644-.389.978-.408 2.711-.153 4.619-1.81 6.58-3.406 2.316-1.885 4.669-3.724 7.12-5.673 4.064 2.041 7.944 4.106 11.114 7.321 3.418 3.47 6.016 7.392 7.518 12.081 1.133 3.533 1.257 7.132.781 10.686-.7 5.219-5.506 8.344-10.814 7.44-1.059-.18-2.142-.387-3.206-.349-3.212.111-5.764-1.214-7.999-3.371-.861-.832-1.776-1.612-2.658-2.421-.258-.237-.662-.48-.704-.763-.335-2.211-1.814-1.937-3.454-1.852-2.985.154-5.569 1.481-8.012 2.853-6.326 3.555-13.214 5.415-20.133 7.195-4.505 1.157-9.123 1.885-13.624 3.059-2.621.684-5.23.531-7.855.667-5.599.292-10.929-1.138-16.264-2.506-.915-.236-1.747-.785-2.634-1.148-1.55-.631-3.113-1.23-4.668-1.848-.437-.176-1.081-.261-1.26-.589-1.259-2.304-3.653-3.393-5.435-5.126-3.696-3.599-4.408-7.746-3.13-12.505.18-.671.254-1.41.194-2.099-.346-3.911.542-7.587 1.952-11.191 2.818-7.201 7.308-13.485 11.06-20.174.816-1.455 1.93-2.744 2.912-4.105.281-.386.781-.72.85-1.135.38-2.256 2.133-3.364 3.675-4.685 2.453-2.102 5.103-4.016 6.739-6.912.153-.272.241-.578.533-1.292-4.327 2.156-7.469 5.185-10.741 8.509-.609-2.503 1.186-4.08.927-6.02-.666-.764-1.394-.512-1.755.179-.881 1.685-1.881 3.352-1.724 5.402.145 1.874-.612 3.473-1.619 5.024-1.828 2.82-3.584 5.685-5.318 8.56-1.115 1.847-2.236 3.715-2.079 6.142-3.608 2.248-5.034 6.113-6.583 9.666-1.506 3.454-2.028 7.336-3.05 11.291-1.836.285-3.826.263-5.838-.142-3.411-.686-6.833-1.308-10.243-1.995-2.231-.449-4.406-1.017-6.528-1.934-2.175-.941-4.542-1.443-7.02-2.197.118-.735.151-1.435.351-2.084 1.375-4.471 2.75-8.945 4.201-13.393.67-2.061 1.19-4.129 1.418-6.296.324-3.102.84-6.183 1.222-9.28.18-1.466.556-2.742 1.688-3.844.929-.901 1.642-2.063 2.3-3.199 1.208-2.084 2.454-4.116 4.228-5.789 1.162-1.096 1.781-2.523 2.238-3.982-.735-.773-1.427-.585-1.921.038-2.296 2.893-5.306 5.245-6.716 8.818-.115.286-.476.474-.743.726" fill="#42A4D1"/><path d="M56.154 138.684c1.963 7.467 5.69 13.778 9.172 20.207.627 1.158 1.198 2.359 1.661 3.59.643 1.707 1.381 3.322 2.813 4.529.27.23.548.504.698.817 1.522 3.152 3.867 5.731 6.023 8.555-2.631 7.186-3.978 14.818-8.322 21.584-2.363-1.233-4.664-2.473-7.002-3.643-1.708-.852-3.417-1.737-5.208-2.382-3.032-1.087-5.972-2.503-9.252-2.82-.573-.056-1.12-.393-1.898-.683l2.218-3.432c-1.154-1.299-1.622-2.734-1.221-4.58.264-1.211-.313-2.583-.37-3.89-.257-5.787-1.537-11.424-2.751-17.037-1.122-5.194-1.569-10.428-2.043-15.682-.335-3.689-.614-7.387-.94-11.349.794.159 1.338.24 1.868.38.343.091.691.23.995.414 4.112 2.52 8.445 4.514 13.559 5.422" fill="#42A4D1"/><path d="M240.313 145.248c2.845.022 4.395-1.681 3.78-4.202-.324-1.323-1.01-2.429-2.225-3.134-1.082-.629-2.485-1.173-3.342-.275-1.111 1.172-2.893 1.852-3.197 3.708-.055.333.05.712.158 1.042.681 2.028 2.065 2.838 4.826 2.861zm18.626 11.546c-1.382-1.08-2.698-1.872-3.711-2.947-2.267-2.404-5.136-3.25-8.255-3.609-.357-.042-.72-.089-1.059-.196-4.603-1.451-9.334-2.004-14.143-2.048-.447-.007-.892-.233-1.415-.377-.418-2.093-.368-4.148-.182-6.136.422-4.562-.895-8.768-2.236-12.995-.074-.228-.118-.473-.235-.676-3.47-6.01-6.309-12.413-11.015-17.646-.721-.801-1.5-1.551-2.236-2.341-2.284-2.451-4.564-4.907-6.829-7.379-.134-.146-.104-.441-.151-.665 2.739-.262 4.906.002 7.718.979.147 2.45 1.022 4.618 3.84 5.109 1.02.178 2.151-.027 3.188-.259 1.218-.27 1.48-1.428 1.731-2.602 2.859.502 5.44 1.509 7.842 2.767 2.855 1.495 5.694 3.166 8.156 5.221 2.211 1.846 4.415 3.682 6.826 5.229 1.977 1.269 3.318 3.016 4.509 4.928 3.334 5.354 5.523 11.123 6.459 17.393.494 3.31 1.24 6.572.981 9.964-.08 1.051.146 2.149.362 3.198.343 1.658.35 3.27-.145 5.088z" fill="#66AEE0"/><path d="M67.851 204.483c-.138.357-.162.651-.322.785-2.003 1.683-4.017 3.356-6.05 5.004-1.747 1.417-3.703 2.515-5.162 4.359-1.323 1.674-3.224 2.833-5.319 3.51-.865.278-1.867-.29-1.849-1.151.02-1.051.086-2.173.464-3.133.697-1.76 1.138-3.636 2.371-5.188.683-.858.449-1.228-.91-2.343-.312.272-.734.51-.968.87-.792 1.224-1.889 1.521-3.313 1.704-3.446.444-6.654 1.811-9.851 3.142-1.104.457-2.198.941-3.311 1.374-.19.073-.458-.052-.857-.108l-.193-3.408c3.352-4.125 7.35-7.26 12.287-9.118.018-.924-.677-.975-1.168-.91-1.058.135-2.165.283-3.134.7-4.922 2.122-9.336 4.889-11.848 9.915-.095.189-.355.296-.537.441-2.114-.553-2.595-1.135-2.126-2.775.898-3.156 2.888-5.45 5.735-7.032l4.373-2.427c-.408-.997-1.086-.603-1.496-.48-1.599.484-3.238.93-4.727 1.664-3.241 1.598-5.488 4.157-6.657 7.613-.111.332-.18.679-.299 1.01-.024.069-.171.096-.262.143-1.925-1.924-1.991-2.588-.925-4.514 1.222-2.208 3.126-3.623 5.262-4.727 4.672-2.418 9.262-5.018 14.282-6.71.747-.253 1.379-.855 2.385-1.502 5.592 1.223 11.461 2.727 16.76 5.926 1.126.68 2.305 1.282 3.503 1.827 1.508.683 2.561 1.715 3.05 3.319.239.787.565 1.548.812 2.22" fill="#FFE8E0"/><path d="M59.585 225.063c-1.212-2.324-1.753-4.68-.428-7.168.158-.297.141-.705.144-1.059.014-1.444.718-2.457 1.828-3.325 2.281-1.777 4.784-3.172 7.379-4.41.508-.243 1.151-.259 1.734-.267 2.157-.028 4.318-.003 6.477-.009.597-.003 1.209.019 1.793-.09 1.125-.216 1.692-2.006 3.097-1.296 1.234.625 2.303.014 3.452-.014 1.822-.042 3.527.719 4.863 1.986 1.72 1.633 3.665 3.121 4.194 5.675.116.561.53 1.072.861 1.569 1.053 1.584 1.243 3.317 1.08 5.167-.25 2.824-2.325 4.716-5.062 4.045-4.628-1.134-8.411.474-12.074 2.993-1.176.809-2.479 1.457-3.783 2.039-1.116.498-2.232.154-2.939-.676-.779-.914-1.017-2.086-.447-3.015 1.553-2.539 3.049-5.232 6.368-5.914.462-.097.949-.235 1.334-.49.243-.16.477-.608.424-.867-.056-.279-.43-.663-.705-.701-1.579-.21-3.235-.091-4.444.926-2.659 2.238-5.107 4.705-5.71 8.35-1.02.683-2 1.464-3.29 1.167-.537-.123-1.293-.406-1.467-.819-1.004-2.375-1.451-6.264.887-8.393 1.23-1.119 2.34-2.382 3.948-3.074.675-.29 1.164-1.016 2.109-1.887-.999 0-1.506-.142-1.878.022-3.534 1.556-6.32 3.891-7.481 7.724-.368 1.211-.994 1.852-2.264 1.811" fill="#FFE8E0"/><path d="M6.679 62.997c0-2.485-.027-4.968.021-7.453.012-.574.175-1.203.454-1.701 1.335-2.391 2.7-4.769 4.144-7.093.251-.405.935-.537 1.518-.846.183.54.433.884.38 1.173-.631 3.478-4.41 13.555-6.517 15.92" fill="#ECD7D0"/><path d="M221.903 103.763c-1.506.662-2.697.825-3.8-.187-.697-.638-1.44-1.312-.698-2.468 1.931-.196 3.369.533 4.498 2.655" fill="#FFD447"/><path d="M167.234 80.999c-.283-1.218-1.13-2.191-2.246-2.687-1.742-.773-3.537-1.506-5.384-1.945-1.634-.388-3.303-.207-4.828.828-.978.665-2.14 1.075-3.253 1.516-.877.349-1.867.786-2.646-.126-.578-.681.045-1.326.296-1.97.126-.326.162-.703.172-1.06.134-5.309-.258-10.566-2.081-15.601-1.555-4.287-3.236-8.529-4.905-12.772-.434-1.111-.995-2.179-1.572-3.226-4.333-7.844-10.037-14.666-16.221-21.055-2.727-2.82-5.972-5.23-9.271-7.387-5.842-3.822-12.211-6.639-18.808-8.946-3.071-1.071-6.173-1.834-9.427-2.155-8.724-.862-17.174-.195-25.452 3.051-6.855 2.691-13.307 6.074-19.562 9.886-1.009.613-1.879 1.484-2.737 2.311-1.46 1.406-2.711 3.043-4.776 3.699-.533.17-.992.676-1.404 1.104-3.001 3.099-5.983 6.216-8.96 9.337-.329.346-.626.739-.861 1.151-2.02 3.543-3.961 7.119-5.486 10.923-.932 2.327-2.056 4.602-3.329 6.761-2.712 4.605-4.662 9.482-5.412 14.765-1.084 7.65-1.047 15.317.014 22.975.312 2.257.7 4.455 1.927 6.482.794 1.314 1.275 2.853 1.694 4.346.464 1.658 1.26 3.09 2.27 4.451 2.651 3.571 5.324 7.123 8.681 10.077 2.432 2.142 5.009 4.125 7.355 6.352 5.617 5.327 12.924 7.718 19.473 11.426.103.061.22.098.336.129 5.537 1.58 11.031 3.312 16.934 2.869 1.762-.13 3.62.08 5.338.516 1.82.46 3.504.437 5.307.016 4.553-1.065 9.131-2.037 13.711-2.99 2.698-.562 5.493-.776 8.121-1.564 8.79-2.635 16.839-6.878 24.509-11.855.884-.571 1.543-1.495 2.28-2.278.573-.606 1.102-1.261 1.664-1.881 3.609-3.995 7.548-7.71 10.43-12.323.247-.397.62-.714 1.037-1.183 1.546.458 2.782.931 4.061 1.183 3.114.613 6.157.611 9.068-1.024 1.239-.696 2.651-1.138 4.034-1.517 4.52-1.236 7.38-4.368 9.369-8.339 1.982-3.951 1.504-8.139.54-12.27" fill="#FFE8E0"/><path d="M241.798 142.557c-1.25 0-2.176.075-3.084-.022-.753-.083-1.113-.957-.685-1.647.421-.682.978-1.28 1.441-1.872 1.863.42 2.435 1.533 2.328 3.541" fill="#FFD447"/><path d="M128.12 99.074c-2.793-4.595-6.837-7.085-11.431-8.309-1.966-.922-4.394-1.515-7.349-1.669-10.746-.556-23.127 6.63-21.687 18.72 1.133 9.511 9.666 15.855 18.783 16.85 6.365.694 12.362-1.13 17.144-5.396 4.931-4.396 8.259-14.079 4.54-20.196" fill="#FFA9B3"/><path d="M22.285 77.797c-1.735-1.664-3.571-2.472-5.35-2.628-1.488-.755-3.154-1.098-4.621-.308-.326.176-.595.377-.835.59-1.512.029-2.692.687-3.703 2.062-.886 1.207-1.423 2.637-1.664 4.163-.198.672-.317 1.424-.339 2.264-.038 1.468.325 2.967.981 4.374l.228.634c1.344 6.123 6.907 13.11 13.191 10.474 3.31-1.388 5.053-4.574 5.335-8.065.072-.896.014-1.752-.123-2.581.6-4.025-.271-8.266-3.1-10.979" fill="#FFA9B3"/><path d="M58.458 89.238l-.209.03.209-.03" fill="#FFD6BD"/><path d="M64.116 80.576c-.534-.912-1.428-1.517-2.281-2.097l-.669-.446c1.621 1.1-1.15-.722-.56-.447-1.192-.555-2.493-1.072-3.844-.922-2.711.297-4.932 1.908-5.656 4.624-.578 2.169.04 4.884 1.825 6.348 1.257 1.032 2.525 1.528 4.14 1.683.247.023.936-.036 1.387-.081 1.051-.138 2.03-.35 2.933-.974l.145-.116c.495-.27.946-.583 1.308-.927 1.677-1.592 2.493-4.56 1.272-6.645" fill="#FFCFBD"/><path d="M221.903 103.763c-1.129-2.122-2.567-2.851-4.498-2.655-.742 1.156.001 1.83.698 2.468 1.103 1.012 2.294.849 3.8.187zm-215.224-40.766c2.107-2.365 5.886-12.442 6.517-15.92.053-.289-.197-.633-.38-1.173-.583.309-1.267.441-1.518.846-1.444 2.324-2.809 4.702-4.144 7.093-.279.498-.442 1.127-.454 1.701-.048 2.485-.021 4.968-.021 7.453zm70.579 121.118l-.476.138c-.455 1.84-.739 3.746-1.405 5.505-1.054 2.789-2.355 5.487-3.568 8.213-.485 1.091-1.069 2.139-1.511 3.246-.437 1.098-.79 2.231-1.109 3.369-.295 1.057-.495 2.141-.731 3.197 2.635.722 4.363-1.475 6.622-1.573l4.411-3.565c-.476-2.787-1.058-5.354-1.32-7.956-.262-2.61-.157-5.256-.31-7.88-.051-.905-.393-1.796-.603-2.694zm-17.673 40.948c1.27.041 1.896-.6 2.264-1.811 1.161-3.833 3.947-6.168 7.481-7.724.372-.164.879-.022 1.878-.022-.945.871-1.434 1.597-2.109 1.887-1.608.692-2.718 1.955-3.948 3.074-2.338 2.129-1.891 6.018-.887 8.393.174.413.93.696 1.467.819 1.29.297 2.27-.484 3.29-1.167.603-3.645 3.051-6.112 5.71-8.35 1.209-1.017 2.865-1.136 4.444-.926.275.038.649.422.705.701.053.259-.181.707-.424.867-.385.255-.872.393-1.334.49-3.319.682-4.815 3.375-6.368 5.914-.57.929-.332 2.101.447 3.015.707.83 1.823 1.174 2.939.676 1.304-.582 2.607-1.23 3.783-2.039 3.663-2.519 7.446-4.127 12.074-2.993 2.737.671 4.812-1.221 5.062-4.045.163-1.85-.027-3.583-1.08-5.167-.331-.497-.745-1.008-.861-1.569-.529-2.554-2.474-4.042-4.194-5.675-1.336-1.267-3.041-2.028-4.863-1.986-1.149.028-2.218.639-3.452.014-1.405-.71-1.972 1.08-3.097 1.296-.584.109-1.196.087-1.793.09-2.159.006-4.32-.019-6.477.009-.583.008-1.226.024-1.734.267-2.595 1.238-5.098 2.633-7.379 4.41-1.11.868-1.814 1.881-1.828 3.325-.003.354.014.762-.144 1.059-1.325 2.488-.784 4.844.428 7.168zm8.266-20.58c-.247-.672-.573-1.433-.812-2.22-.489-1.604-1.542-2.636-3.05-3.319-1.198-.545-2.377-1.147-3.503-1.827-5.299-3.199-11.168-4.703-16.76-5.926-1.006.647-1.638 1.249-2.385 1.502-5.02 1.692-9.61 4.292-14.282 6.71-2.136 1.104-4.04 2.519-5.262 4.727-1.066 1.926-1 2.59.925 4.514.091-.047.238-.074.262-.143.119-.331.188-.678.299-1.01 1.169-3.456 3.416-6.015 6.657-7.613 1.489-.734 3.128-1.18 4.727-1.664.41-.123 1.088-.517 1.496.48l-4.373 2.427c-2.847 1.582-4.837 3.876-5.735 7.032-.469 1.64.012 2.222 2.126 2.775.182-.145.442-.252.537-.441 2.512-5.026 6.926-7.793 11.848-9.915.969-.417 2.076-.565 3.134-.7.491-.065 1.186-.014 1.168.91-4.937 1.858-8.935 4.993-12.287 9.118l.193 3.408c.399.056.667.181.857.108 1.113-.433 2.207-.917 3.311-1.374 3.197-1.331 6.405-2.698 9.851-3.142 1.424-.183 2.521-.48 3.313-1.704.234-.36.656-.598.968-.87 1.359 1.115 1.593 1.485.91 2.343-1.233 1.552-1.674 3.428-2.371 5.188-.378.96-.444 2.082-.464 3.133-.018.861.984 1.429 1.849 1.151 2.095-.677 3.996-1.836 5.319-3.51 1.459-1.844 3.415-2.942 5.162-4.359 2.033-1.648 4.047-3.321 6.05-5.004.16-.134.184-.428.322-.785zm191.088-47.689c.495-1.818.488-3.43.145-5.088-.216-1.049-.442-2.147-.362-3.198.259-3.392-.487-6.654-.981-9.964-.936-6.27-3.125-12.039-6.459-17.393-1.191-1.912-2.532-3.659-4.509-4.928-2.411-1.547-4.615-3.383-6.826-5.229-2.462-2.055-5.301-3.726-8.156-5.221-2.402-1.258-4.983-2.265-7.842-2.767-.251 1.174-.513 2.332-1.731 2.602-1.037.232-2.168.437-3.188.259-2.818-.491-3.693-2.659-3.84-5.109-2.812-.977-4.979-1.241-7.718-.979.047.224.017.519.151.665 2.265 2.472 4.545 4.928 6.829 7.379.736.79 1.515 1.54 2.236 2.341 4.706 5.233 7.545 11.636 11.015 17.646.117.203.161.448.235.676 1.341 4.227 2.658 8.433 2.236 12.995-.186 1.988-.236 4.043.182 6.136.523.144.968.37 1.415.377 4.809.044 9.54.597 14.143 2.048.339.107.702.154 1.059.196 3.119.359 5.988 1.205 8.255 3.609 1.013 1.075 2.329 1.867 3.711 2.947zm-202.785-18.11c-5.114-.908-9.447-2.902-13.559-5.422-.304-.184-.652-.323-.995-.414-.53-.14-1.074-.221-1.868-.38.326 3.962.605 7.66.94 11.349.474 5.254.921 10.488 2.043 15.682 1.214 5.613 2.494 11.25 2.751 17.037.057 1.307.634 2.679.37 3.89-.401 1.846.067 3.281 1.221 4.58l-2.218 3.432c.778.29 1.325.627 1.898.683 3.28.317 6.22 1.733 9.252 2.82 1.791.645 3.5 1.53 5.208 2.382 2.338 1.17 4.639 2.41 7.002 3.643 4.344-6.766 5.691-14.398 8.322-21.584-2.156-2.824-4.501-5.403-6.023-8.555-.15-.313-.428-.587-.698-.817-1.432-1.207-2.17-2.822-2.813-4.529-.463-1.231-1.034-2.432-1.661-3.59-3.482-6.429-7.209-12.74-9.172-20.207zm84.008-35.718c1.546.458 2.782.931 4.061 1.183 3.114.613 6.157.611 9.068-1.024 1.239-.696 2.651-1.138 4.034-1.517 4.52-1.236 7.38-4.368 9.369-8.339 1.982-3.951 1.504-8.139.54-12.27-.283-1.218-1.13-2.191-2.246-2.687-1.742-.773-3.537-1.506-5.384-1.945-1.634-.388-3.303-.207-4.828.828-.978.665-2.14 1.075-3.253 1.516-.877.349-1.867.786-2.646-.126-.578-.681.045-1.326.296-1.97.126-.326.162-.703.172-1.06.134-5.309-.258-10.566-2.081-15.601-1.555-4.287-3.236-8.529-4.905-12.772-.434-1.111-.995-2.179-1.572-3.226-4.333-7.844-10.037-14.666-16.221-21.055-2.727-2.82-5.972-5.23-9.271-7.387-5.842-3.822-12.211-6.639-18.808-8.946-3.071-1.071-6.173-1.834-9.427-2.155-8.724-.862-17.174-.195-25.452 3.051-6.855 2.691-13.307 6.074-19.562 9.886-1.009.613-1.879 1.484-2.737 2.311-1.46 1.406-2.711 3.043-4.776 3.699-.533.17-.992.676-1.404 1.104-3.001 3.099-5.983 6.216-8.96 9.337-.329.346-.626.739-.861 1.151-2.02 3.543-3.961 7.119-5.486 10.923-.932 2.327-2.056 4.602-3.329 6.761-2.712 4.605-4.662 9.482-5.412 14.765-1.084 7.65-1.047 15.317.014 22.975.312 2.257.7 4.455 1.927 6.482.794 1.314 1.275 2.853 1.694 4.346.464 1.658 1.26 3.09 2.27 4.451 2.651 3.571 5.324 7.123 8.681 10.077 2.432 2.142 5.009 4.125 7.355 6.352 5.617 5.327 12.924 7.718 19.473 11.426.103.061.22.098.336.129 5.537 1.58 11.031 3.312 16.934 2.869 1.762-.13 3.62.08 5.338.516 1.82.46 3.504.437 5.307.016 4.553-1.065 9.131-2.037 13.711-2.99 2.698-.562 5.493-.776 8.121-1.564 8.79-2.635 16.839-6.878 24.509-11.855.884-.571 1.543-1.495 2.28-2.278.573-.606 1.102-1.261 1.664-1.881 3.609-3.995 7.548-7.71 10.43-12.323.247-.397.62-.714 1.037-1.183zm-6.304 55.324c.267-.252.628-.44.743-.726 1.41-3.573 4.42-5.925 6.716-8.818.494-.623 1.186-.811 1.921-.038-.457 1.459-1.076 2.886-2.238 3.982-1.774 1.673-3.02 3.705-4.228 5.789-.658 1.136-1.371 2.298-2.3 3.199-1.132 1.102-1.508 2.378-1.688 3.844-.382 3.097-.898 6.178-1.222 9.28-.228 2.167-.748 4.235-1.418 6.296-1.451 4.448-2.826 8.922-4.201 13.393-.2.649-.233 1.349-.351 2.084 2.478.754 4.845 1.256 7.02 2.197 2.122.917 4.297 1.485 6.528 1.934 3.41.687 6.832 1.309 10.243 1.995 2.012.405 4.002.427 5.838.142 1.022-3.955 1.544-7.837 3.05-11.291 1.549-3.553 2.975-7.418 6.583-9.666-.157-2.427.964-4.295 2.079-6.142 1.734-2.875 3.49-5.74 5.318-8.56 1.007-1.551 1.764-3.15 1.619-5.024-.157-2.05.843-3.717 1.724-5.402.361-.691 1.089-.943 1.755-.179.259 1.94-1.536 3.517-.927 6.02 3.272-3.324 6.414-6.353 10.741-8.509-.292.714-.38 1.02-.533 1.292-1.636 2.896-4.286 4.81-6.739 6.912-1.542 1.321-3.295 2.429-3.675 4.685-.069.415-.569.749-.85 1.135-.982 1.361-2.096 2.65-2.912 4.105-3.752 6.689-8.242 12.973-11.06 20.174-1.41 3.604-2.298 7.28-1.952 11.191.06.689-.014 1.428-.194 2.099-1.278 4.759-.566 8.906 3.13 12.505 1.782 1.733 4.176 2.822 5.435 5.126.179.328.823.413 1.26.589 1.555.618 3.118 1.217 4.668 1.848.887.363 1.719.912 2.634 1.148 5.335 1.368 10.665 2.798 16.264 2.506 2.625-.136 5.234.017 7.855-.667 4.501-1.174 9.119-1.902 13.624-3.059 6.919-1.78 13.807-3.64 20.133-7.195 2.443-1.372 5.027-2.699 8.012-2.853 1.64-.085 3.119-.359 3.454 1.852.042.283.446.526.704.763.882.809 1.797 1.589 2.658 2.421 2.235 2.157 4.787 3.482 7.999 3.371 1.064-.038 2.147.169 3.206.349 5.308.904 10.114-2.221 10.814-7.44.476-3.554.352-7.153-.781-10.686-1.502-4.689-4.1-8.611-7.518-12.081-3.17-3.215-7.05-5.28-11.114-7.321-2.451 1.949-4.804 3.788-7.12 5.673-1.961 1.596-3.869 3.253-6.58 3.406-.334.019-.692.21-.978.408-3.078 2.158-6.713 3.187-9.987 4.931-3.768 2.006-7.908 2.591-11.989 3.432-.073.012-.181-.139-.471-.371.973-1.463 2.497-2.033 4.044-2.563 1.812-.62 3.664-1.145 5.435-1.863 2.553-1.039 5.068-2.173 7.564-3.349 1.406-.66 2.929-1.267 4.059-2.277 2.267-2.029 4.861-3.579 7.498-4.893 5.357-2.673 8.66-7.072 11.348-12.121 2.286-4.297 3.235-9.004 3.959-13.754.119-.785-.05-1.695-.342-2.447-.751-1.939-1.892-3.792-3.732-4.709-2.943-1.468-5.458-4.036-9.113-3.861-.336.014-.68-.215-1.025-.318-3.799-1.144-7.702-1.604-11.654-1.718-.839-.022-1.682.02-2.521-.019-1.858-.088-2.351-.507-2.392-2.367-.071-3.119-.046-6.243-.033-9.364.017-3.942-1.495-7.476-2.964-11.005-.642-1.541-1.636-2.934-2.341-4.456-.868-1.871-2.018-3.508-3.384-5.057-2.934-3.323-5.737-6.767-8.637-10.124-2.039-2.361-4.162-4.647-6.22-6.991-.753-.86-1.647-1.263-2.775-1.462-2.621-.466-5.251-.577-7.892-.402-4.91.328-9.824.641-14.723 1.076-4.901.437-9.774 1.086-14.55 2.351-1.425.38-2.69.929-3.878 1.787-.966.7-1.979 1.577-3.086 1.796-4.887.964-9.798 2.695-14.767.281-.3-.145-.705-.076-1.232-.123-.606.603-1.376 1.197-1.932 1.949-3.428 4.632-7.371 8.793-11.53 12.762-.694.663-1.523 1.245-2.022 2.035-.748 1.18-1.789 1.953-2.948 2.566-4.341 2.302-8.627 4.745-13.104 6.75-4.702 2.108-9.615 3.643-14.788 4.348-4.511.614-8.998 1.48-13.444 2.479-3.787.851-7.557 1.183-11.422.933-3.461-.223-6.933-.286-10.598-.429.199.864.301 1.564.524 2.224 1.194 3.539 2.928 6.825 4.699 10.102 1.822 3.376 3.489 6.833 5.232 10.251.325.636.568 1.377 1.06 1.852 1.404 1.363 2.427 2.956 3.291 4.685.271.542.63 1.037 1.471.716.029-.558.076-1.148.084-1.742.076-5.042.142-10.084.217-15.126.011-.841.011-1.685.091-2.519.088-.917.772-1.711 1.229-1.441.45.265.883.778 1.033 1.271.203.67.157 1.424.168 2.14.075 4.804.101 9.604.221 14.405.047 1.914.195 3.835.459 5.732 1.075 7.723 1.992 15.463 2.319 23.261.019.476.116 1.013-.056 1.424-.738 1.749-.272 3.271.778 4.537-.441 1.542-1.8 2.497-1.646 4.248 1.347-.121 2.697-.062 3.948-.385 2.893-.752 5.173.334 7.219 2.155 1.433 1.275 2.862 2.592 4.073 4.071 2.343 2.858 4.027 5.958 2.748 9.89-.364 1.117-.538 2.342.542 3.402.936-.201 1.865-.346 2.761-.602 2.288-.657 4.095-1.921 5.161-4.141.358-.745.769-1.533 1.358-2.089 1.86-1.755 3.22-3.875 4.578-5.994 2.462-3.84 4.907-7.692 7.283-11.585.678-1.111 1.2-2.347 1.624-3.585 1.548-4.543 2.956-9.132 4.549-13.656 1.358-3.86 2.626-7.707 2.943-11.832.165-2.147.68-4.264 1.041-6.395.726-4.269 1.126-8.559 1.015-12.899-.049-1.918-.034-3.844.058-5.76.031-.651.39-1.285.748-2.385.418.843.793 1.241.776 1.618-.199 4.033 1.532 7.984.495 12.048-.037.144.193.356.346.615zm21.453 47.716c-6.716.023-12.688-1.871-18.791-2.998-1.279-.236-2.506-.776-3.74-1.222-2.251-.813-4.484-1.669-6.737-2.472-.313-.109-.698-.014-1.156-.014-.266.382-.544.752-.788 1.145-2.788 4.484-5.59 8.962-8.35 13.464-1.767 2.885-3.833 5.508-6.347 7.783-1.333 1.21-2.671 2.424-3.881 3.751-1.826 1.999-4.083 2.815-6.716 2.887-1.422.038-2.822.238-4.237.495-1.355.25-2.903.087-4.235-.326-2.223-.687-4.264-.497-6.264.536-1.378.712-2.761 1.436-4.043 2.304-3.397 2.302-7.025 2.887-10.947 1.715-.342-.102-.711-.339-1.021-.278-1.863.354-3.172-.681-4.579-1.62-1.42-.945-2.739-1.909-2.995-3.86l-3.868-.354c-.979-2.193-1.224-4.66-1.702-7.284-.768.323-1.479.79-2.245.908-1.159.176-2.442.399-3.518.08-1.552-.46-2.706-1.664-2.701-3.437.005-1.509.268-3.015.428-4.648-2.327.109-4.473.799-6.611 1.433-.764.225-1.37.945-2.116 1.294-1.397.648-2.8 1.382-4.283 1.73-2.123.5-3.221-.189-4.331-2.232-.224-.413-.423-.842-.744-1.484-2.152-.382-4.362-.868-6.601-1.14-2.357-.285-3.366-1.169-3.72-3.53-.578-3.837.942-6.829 3.888-9.071 1.495-1.138 3.037-2.331 5.043-2.672.769-.132 1.572-.66 2.149-1.224 1.674-1.636 3.652-2.692 5.83-3.441l.674-.25c3.159-1.247 6.081-2.817 8.127-6.112-.301-1.346-.698-2.961-1.02-4.592-.372-1.881-.872-3.764-.975-5.662-.167-3.135-.691-6.199-1.33-9.252-.907-4.337-1.019-8.812-2.379-13.073-.282-.886-.115-1.909-.199-2.864-.319-3.583-.751-7.158-.954-10.745-.156-2.746-.031-5.51-.031-8.748-.135-.082-.567-.302-.95-.59-3.154-2.392-6.318-4.77-9.443-7.198-5.633-4.379-10.463-9.516-14.512-15.397-1.237-1.798-2.2-3.656-2.78-5.791-.941-3.463-2.27-6.805-3.103-10.321-1.296-5.461-1.312-10.934-.866-16.456.056-.715.173-1.429.266-2.143.169-1.308.6-2.649.441-3.916-.156-1.236-.852-2.425-1.426-3.576-.559-1.116-.723-2.269-.707-3.485.018-1.441.122-2.893-.023-4.319-.296-2.911.704-5.423 2.155-7.823.867-1.435 1.833-2.814 2.676-4.264.895-1.539 2.13-2.199 3.892-1.791.568.131 1.141.25 1.949.426 1.042-1.89 2.031-3.793 3.123-5.636.975-1.643 1.993-3.27 3.119-4.811 1.699-2.326 3.524-4.558 5.267-6.852 3.428-4.509 3.42-4.513 8.021-7.578.593-.395 1.309-.692 1.751-1.219 3.102-3.685 7.369-5.746 11.407-8.059 4.363-2.499 8.934-4.617 13.707-6.312 3.75-1.334 7.614-2.146 11.447-3.117.689-.174 1.429-.187 2.146-.2 5.528-.099 11.041.165 16.529.845.823.101 1.631.379 2.429.624 8.185 2.497 16.068 5.756 23.264 10.377 3.81 2.445 7.469 5.312 10.618 8.551 4.17 4.292 7.943 9.004 11.568 13.778 3.041 4.004 5.695 8.31 7.354 13.14.779 2.27 1.679 4.498 2.619 6.704 2.479 5.812 3.899 11.833 3.82 18.18-.005.473.091.951.157 1.424.015.104.095.203.244.507.502-.151 1.045-.292 1.573-.476 1.865-.656 3.759-.73 5.68-.323.587.125 1.178.24 1.749.414 7.113 2.191 9.464 6.245 8.042 13.696-.355 1.869-.409 3.797-.756 5.671-.298 1.613-.813 3.188-1.259 4.875.645 0 1.362.087 2.051-.014 9.994-1.434 20.036-2.157 30.135-2.228 10.973-.078 21.439 2.176 31.502 6.461.876.372 1.711.856 2.534 1.34.724.424 1.37.986 2.11 1.376 4.318 2.276 7.759 5.6 11.003 9.157 1.124 1.233 2.588 2.018 3.702 3.342 6.208 7.376 9.21 15.89 9.488 25.441.176 6.11.271 12.226.448 18.336.035 1.221.014 2.324-.707 3.427-.501.765-.734 1.766-.873 2.695-.827 5.53-2.545 10.715-5.734 15.359-.198.288-.313.634-.441.962-.039.103.005.239.018.556 1.352.771 2.759 1.673 4.248 2.409 5.103 2.525 9.051 6.475 12.146 11.029 2.681 3.945 4.338 8.554 4.585 13.476.073 1.438.081 2.884.003 4.321-.052.944-.17 1.928-.498 2.802-2.385 6.362-2.701 5.954-9.485 7.98-3.473 1.036-7.193.798-10.714-.076-2.826-.7-5.14-2.496-7.187-4.569-.674-.683-1.246-1.475-1.97-2.092-.629-.536-1.409-.895-2.266-1.422-1.827.009-3.604.283-5.003 1.97-.564.681-1.571 1.064-2.447 1.397-3.343 1.267-6.664 2.625-10.087 3.636-4.457 1.317-8.807 3.088-13.498 3.526-.471.044-.971.097-1.398.283-3.561 1.544-7.486 1.485-11.155 2.56-.556.163-1.192.075-1.793.078-1.44.014-2.881.019-4.321.016-7.326-.002-7.316-.047-14.166-1.784-2.347-.594-4.516-1.508-6.637-2.644-2.429-1.3-4.991-2.358-7.394-3.701-3.407-1.903-6.16-4.562-8.076-7.978-1.003-1.789-1.61-3.716-1.323-5.863.156-1.173.028-2.384.028-4.043z" fill="#2A406D"/><path d="M79.273 34.885c-1.519-.625-2.534.007-3.047 1.138-.779 1.716-1.321 3.543-1.89 5.345-.11.346.123.799.272 1.599 2.604-2.39 4.4-4.72 4.665-8.082zm-7.333 14.811c-4.279 2.686-8.796 2.778-13.586 2.053-5.219-.792-9.032-3.755-12.509-7.276-1.501-1.521-2.238-3.592-2.349-5.885-.22-4.575.803-8.72 3.048-12.75 1.953-3.504 4.504-6.489 7.042-9.507 1.263-1.499 3.055-2.319 4.882-2.943 3.315-1.135 6.614-.694 9.869.322.274.084.452.49.868.969-2.119 0-4.023-.169-5.885.038-3.487.389-6.191 2.076-8.435 4.897-2.334 2.934-4.302 6.033-6.091 9.304-1.764 3.225-1.915 6.648-1.666 10.143.104 1.473.843 2.753 1.988 3.72 1.47 1.235 2.973 2.431 4.482 3.62.375.295.795.592 1.242.719 3.807 1.086 7.618 2.367 11.631 1.086 1.346-.43 2.63-1.06 3.684-1.495.839-1.583.553-2.929.561-4.225.017-2.985 1.063-5.657 2.512-8.161 1.589-2.748 4.368-3.743 7.424-2.906 1.555.423 2.582 1.815 2.251 3.6-.481 2.581-1.027 5.187-2.836 7.281-1.482 1.718-2.938 3.458-4.479 5.277 2.643 3.141 6.076 4.399 9.807 4.877 5.928.758 11.496-.422 16.472-3.799 3.176-2.158 6.221-4.507 9.328-6.765 1.328-.964 2.133-1.134 2.491-.522.566.967-.174 1.606-.685 2.202-1.167 1.361-2.341 2.737-3.666 3.935-3.321 3.001-7.019 5.456-11.239 7.005-6.846 2.517-13.672 2.452-20.279-.731-2.017-.971-3.734-2.568-5.877-4.083z" fill="#2A406D"/><path d="M84.678 98.451c-.456.958-.604 1.743-1.074 2.177-2.529 2.35-4.869 4.875-8.29 6.156-2.323.868-4.407 2.349-6.918 2.878-3.336.702-6.647.727-9.965.007l-4.539-1.098c-2.724-.589-5.192-1.736-7.612-3.102-3.363-1.9-5.727-4.646-7.484-8.002-.164-.314-.373-.644-.4-.981-.025-.319.069-.759.286-.95.2-.179.653-.188.952-.11.33.087.66.31.901.56.414.429.812.891 1.125 1.394 2.837 4.576 7.252 6.851 12.221 8.164 3.34.882 6.668 2.052 10.226 1.664 1.183-.132 2.38-.228 3.535-.498 2.692-.631 8.879-3.904 11.131-5.586 1.331-.991 2.833-1.756 4.299-2.552.34-.183.838-.074 1.606-.121" fill="#2A406D"/><path d="M157.305 87.658c-.136.401-.15.828-.37 1.014-.44.378-.988.63-1.499.92-2.693 1.515-5.401 3.003-8.073 4.553-.597.349-1.039.955-1.608 1.365-.854.612-1.721 1.228-2.66 1.681-.282.138-.973-.146-1.201-.446-.228-.297-.31-1.016-.106-1.277.94-1.207 1.812-2.626 3.062-3.397 2.72-1.683 5.624-3.086 8.523-4.455.917-.434 2.051-.438 3.098-.538.244-.025.528.357.834.58" fill="#2A406D"/><path d="M92.599 90.114c2.396-2.965 5.197-4.707 7.629-5.069.706-.104 1.489.036 2.124-.218 3.485-1.399 6.536.027 9.586 1.403.289.132.428.721.496 1.12.015.094-.55.426-.83.406-1.063-.081-2.148-.149-3.17-.426-1.776-.482-3.482-.4-5.289-.082-2.475.434-4.838 1.099-7.145 2.074-.831.352-1.778.427-3.401.792" fill="#2A406D"/><path d="M84.038 74.395c1.947-.024 3.605 1.885 3.469 4.116-.042.687-.294 1.388-.57 2.031-.9 2.083-2.868 2.531-4.568.997-.95-.86-1.952-1.707-1.98-3.222-.042-2.275 1.396-3.891 3.649-3.922" fill="#2A406D"/><path d="M55.543 77.69c-.665 1.042-.83 1.629-1.12 1.7-2.142.518-3.335 1.72-3.192 4.018.155 2.471 1.596 3.899 3.832 4.647.905.303 1.85.49 2.735.834.256.099.519.57.506.857-.013.277-.327.696-.596.783-4.397 1.415-8.519-2.454-8.836-5.615-.221-2.215.304-3.877 1.808-5.527 1.279-1.402 2.797-.856 4.863-1.697" fill="#2A406D"/><path d="M35.62 70.911c-.009 2.817-2.34 4.205-5.051 2.993-.209-.094-.412-.252-.557-.431-1.215-1.496-.614-4.892 1.062-5.753 2.137-1.1 4.709.372 4.546 3.191" fill="#2A406D"/><path d="M26.771 86.116c-.997-.39-1.227-1.354-1.589-2.166-1.139-2.557-2.619-4.761-5.147-6.206-.986-.563-1.711-1.584-2.472-2.316.395-1.045 1.084-1.568 1.75-1.138 2.382 1.55 4.887 2.992 6.514 5.457 1.293 1.961 1.788 4.041.944 6.369" fill="#2A406D"/><path d="M241.798 142.557c.107-2.008-.465-3.121-2.328-3.541-.463.592-1.02 1.19-1.441 1.872-.428.69-.068 1.564.685 1.647.908.097 1.834.022 3.084.022zm-1.485 2.691c-2.761-.023-4.145-.833-4.826-2.861-.108-.33-.213-.709-.158-1.042.304-1.856 2.086-2.536 3.197-3.708.857-.898 2.26-.354 3.342.275 1.215.705 1.901 1.811 2.225 3.134.615 2.521-.935 4.224-3.78 4.202z" fill="#2A406D"/></g></svg>