<?xml version="1.0" encoding="UTF-8"?>
<svg width="31px" height="36px" viewBox="0 0 31 36" version="1.1" xmlns="http://www.w3.org/2000/svg" xmlns:xlink="http://www.w3.org/1999/xlink">
    <!-- Generator: Sketch 48.2 (47327) - http://www.bohemiancoding.com/sketch -->
    <title>gm_marker_spital_selected</title>
    <desc>Created with Sketch.</desc>
    <defs>
        <filter x="-16.6%" y="-31.5%" width="133.2%" height="163.1%" filterUnits="objectBoundingBox" id="filter-1">
            <feGaussianBlur stdDeviation="1.31975446" in="SourceGraphic"></feGaussianBlur>
        </filter>
    </defs>
    <g id="Birthhood---Mobile" stroke="none" stroke-width="1" fill="none" fill-rule="evenodd">
        <g id="gm_marker_spital_selected" transform="translate(0.500000, 0.000000)">
            <path d="M11.9623575,21.3120822 L26.6208286,21.3120822 C26.7345924,21.3120822 26.7753359,21.320737 26.8160048,21.3369891 C26.8567208,21.3532411 26.8880848,21.3770902 26.908686,21.4074788 C26.9293082,21.4378674 26.9394986,21.4680099 26.934573,21.5511332 L24.7859916,30.5289635 C24.751131,30.6120868 24.7218609,30.6422292 24.6778694,30.6726178 C24.6337835,30.7030065 24.5778346,30.7268556 24.5125239,30.7431076 C24.4471451,30.7593596 24.3854869,30.7680145 24.225822,30.7680145 L14.4302653,30.7680145 L3.06420215,33.8711872 L5.44266097,30.7680145 L3.65298344,30.7680145 C3.49331847,30.7680145 3.44470765,30.7593596 3.40381275,30.7431076 C3.36296505,30.7268556 3.34287662,30.7030065 3.3444186,30.6726178 C3.34598155,30.6422292 3.36182453,30.6120868 3.45099676,30.5289635 L11.4655712,21.5511332 C11.5248084,21.4680099 11.5581301,21.4378674 11.6019993,21.4074788 C11.6457742,21.3770902 11.6952736,21.3532411 11.7483221,21.3369891 C11.8013024,21.320737 11.8485937,21.3120822 11.9623575,21.3120822 Z" id="shadow" fill="#5A5A5A" opacity="0.305197011" filter="url(#filter-1)"></path>
            <path d="M0.6409713,0.01368282 L29.3590287,0.01368282 C29.5819084,0.01368282 29.6627299,0.0368892228 29.7442114,0.080465996 C29.8256929,0.124042769 29.8896401,0.187989913 29.9332168,0.269471394 C29.9767936,0.350952876 30,0.431774435 30,0.65465412 L30,24.7270594 C30,24.9499391 29.9767936,25.0307607 29.9332168,25.1122421 C29.8896401,25.1937236 29.8256929,25.2576708 29.7442114,25.3012475 C29.6627299,25.3448243 29.5819084,25.3680307 29.3590287,25.3680307 L15.6852055,25.3680307 L4.9005548,33.8711872 L3.13921974,25.3680307 L0.6409713,25.3680307 C0.418091615,25.3680307 0.337270056,25.3448243 0.255788574,25.3012475 C0.174307093,25.2576708 0.110359949,25.1937236 0.0667831759,25.1122421 C0.0232064028,25.0307607 2.67456614e-15,24.9499391 2.64727125e-15,24.7270594 L1.72640051e-17,0.65465412 C-1.00308841e-17,0.431774435 0.0232064028,0.350952876 0.0667831759,0.269471394 C0.110359949,0.187989913 0.174307093,0.124042769 0.255788574,0.080465996 C0.337270056,0.0368892228 0.418091615,0.01368282 0.6409713,0.01368282 Z" id="bubble" fill="#E85969"></path>
            <path d="M21.6356177,10.1207412 L17.4888049,9.10369244 C17.386934,9.07877834 17.285063,9.07601011 17.1870676,9.08874398 L17.1870676,5.77461566 C17.4101871,5.59412688 17.5358649,5.30623067 17.4888049,5.00283236 C17.4179382,4.54939582 16.992184,4.2388001 16.5398547,4.30911321 L8.64928394,5.53710129 C8.19529375,5.60796805 7.88525168,6.03261496 7.95556479,6.4860515 C7.98878359,6.69975907 8.10172749,6.8796942 8.25785582,7.00481832 L8.25785582,19.4103768 C8.25785582,19.6966121 8.48983373,19.9291437 8.77717629,19.9291437 L21.3455069,19.9291437 C21.6322958,19.9291437 21.8648274,19.6966121 21.8648274,19.4103768 L21.8648274,11.63884 C22.0480844,11.5286644 22.1909252,11.3498365 22.2462898,11.1256097 C22.3553582,10.6799242 22.0824105,10.2303632 21.636725,10.1207412 L21.6356177,10.1207412 Z M9.29594312,7.11886952 L16.1489803,6.05254624 L16.1489803,18.89161 L13.5291247,18.89161 L13.5291247,16.2911321 L11.9157987,16.2911321 L11.9157987,18.89161 L9.29594312,18.89161 L9.29594312,7.11886952 Z M20.8250791,18.89161 L19.4847008,18.89161 L19.4847008,17.5623046 L18.5279995,17.5623046 L18.5279995,18.89161 L17.1876212,18.89161 L17.1876212,10.8476791 L20.8256328,11.6665224 L20.8256328,18.89161 L20.8250791,18.89161 Z M11.9157987,7.54185549 L13.5291247,7.54185549 L13.5291247,9.11421172 L11.9157987,9.11421172 L11.9157987,7.54185549 Z M11.9157987,10.3848306 L13.5291247,10.3848306 L13.5291247,11.9588478 L11.9157987,11.9588478 L11.9157987,10.3848306 Z M11.9157987,13.2283593 L13.5291247,13.2283593 L13.5291247,14.8007156 L11.9157987,14.8007156 L11.9157987,13.2283593 Z M18.5274459,12.2539414 L19.4841472,12.2539414 L19.4841472,13.1857285 L18.5274459,13.1857285 L18.5274459,12.2539414 Z M18.5274459,13.9386879 L19.4841472,13.9386879 L19.4841472,14.870475 L18.5274459,14.870475 L18.5274459,13.9386879 Z M18.5274459,15.6234344 L19.4841472,15.6234344 L19.4841472,16.5552215 L18.5274459,16.5552215 L18.5274459,15.6234344 Z" id="spital" fill="#FCFAFA" fill-rule="nonzero"></path>
        </g>
    </g>
</svg>