<?xml version="1.0" encoding="UTF-8"?>
<svg width="48px" height="55px" viewBox="0 0 48 55" version="1.1" xmlns="http://www.w3.org/2000/svg" xmlns:xlink="http://www.w3.org/1999/xlink">
    <!-- Generator: Sketch 48.2 (47327) - http://www.bohemiancoding.com/sketch -->
    <title>gm_marker_geburtshaus_selected</title>
    <desc>Created with Sketch.</desc>
    <defs>
        <filter x="-16.6%" y="-31.5%" width="133.2%" height="163.1%" filterUnits="objectBoundingBox" id="filter-1">
            <feGaussianBlur stdDeviation="1.9796317" in="SourceGraphic"></feGaussianBlur>
        </filter>
    </defs>
    <g id="Birthhood---Mobile" stroke="none" stroke-width="1" fill="none" fill-rule="evenodd">
        <g id="gm_marker_geburtshaus_selected" transform="translate(-0.500000, 0.000000)">
            <path d="M21.5070422,31.9681233 L43.4947488,31.9681233 C43.6653945,31.9681233 43.7265098,31.9811056 43.7875131,32.0054836 C43.8485871,32.0298616 43.8956331,32.0656353 43.9265349,32.1112182 C43.9574682,32.1568012 43.9727539,32.2020149 43.9653655,32.3266997 L40.7424933,45.7934453 C40.6902024,45.9181301 40.6462973,45.9633439 40.58031,46.0089268 C40.5141812,46.0545097 40.4302579,46.0902834 40.3322918,46.1146614 C40.2342235,46.1390394 40.1417363,46.1520217 39.9022389,46.1520217 L25.2089039,46.1520217 L8.15980915,50.8067808 L11.7274974,46.1520217 L9.04298109,46.1520217 C8.80348364,46.1520217 8.7305674,46.1390394 8.66922506,46.1146614 C8.6079535,46.0902834 8.57782087,46.0545097 8.58013382,46.0089268 C8.58247825,45.9633439 8.60624273,45.9181301 8.74000107,45.7934453 L20.7618627,32.3266997 C20.8507185,32.2020149 20.9007011,32.1568012 20.9665049,32.1112182 C21.0321672,32.0656353 21.1064163,32.0298616 21.185989,32.0054836 C21.2654595,31.9811056 21.3363965,31.9681233 21.5070422,31.9681233 Z" id="shadow" fill="#5A5A5A" opacity="0.305197011" filter="url(#filter-1)"></path>
            <path d="M1.62819216,0.0205242301 L44.7052783,0.0205242301 C45.0395978,0.0205242301 45.1608301,0.0553338343 45.2830524,0.120698994 C45.4052746,0.186064154 45.5011953,0.281984869 45.5665604,0.404207091 C45.6319256,0.526429313 45.6667352,0.647661653 45.6667352,0.98198118 L45.6667352,37.0905891 C45.6667352,37.4249087 45.6319256,37.546141 45.5665604,37.6683632 C45.5011953,37.7905854 45.4052746,37.8865062 45.2830524,37.9518713 C45.1608301,38.0172365 45.0395978,38.0520461 44.7052783,38.0520461 L24.1945434,38.0520461 L8.01756741,50.8067808 L5.37556483,38.0520461 L1.62819216,38.0520461 C1.29387264,38.0520461 1.1726403,38.0172365 1.05041807,37.9518713 C0.928195852,37.8865062 0.832275136,37.7905854 0.766909977,37.6683632 C0.701544817,37.546141 0.666735213,37.4249087 0.666735213,37.0905891 L0.666735213,0.98198118 C0.666735213,0.647661653 0.701544817,0.526429313 0.766909977,0.404207091 C0.832275136,0.281984869 0.928195852,0.186064154 1.05041807,0.120698994 C1.1726403,0.0553338343 1.29387264,0.0205242301 1.62819216,0.0205242301 Z" id="bubble" fill="#E85969"></path>
            <path d="M32.7082379,16.4554537 L22.6091431,7.90524499 C22.1468377,7.51375042 21.4696579,7.51375042 21.0073525,7.90524499 L10.9090716,16.4554537 C10.3865363,16.8965973 10.3222368,17.6795864 10.7641942,18.2013079 C11.2061517,18.7230293 11.9883269,18.7889567 12.5108623,18.3453714 L12.672832,18.2086332 L12.672832,28.0554133 C12.672832,28.4835342 13.0195611,28.8302633 13.4476819,28.8302633 L30.1712554,28.8302633 C30.5993763,28.8302633 30.9461054,28.4835342 30.9461054,28.0554133 L30.9461054,18.2086332 L31.1080751,18.3453714 C31.3408556,18.5431535 31.6257269,18.6400097 31.9073425,18.6400097 C32.259769,18.6400097 32.608126,18.4910627 32.8539292,18.2013079 C33.2950728,17.6787725 33.2299593,16.8957834 32.707424,16.4546398 L32.7082379,16.4554537 Z M29.3955915,27.2821912 L26.4630449,27.2821912 L26.4630449,19.7453104 L22.2005563,19.7453104 L22.2005563,27.2821912 L14.2209041,27.2821912 L14.2209041,16.8982251 L21.8090617,10.4747842 L29.3964055,16.8982251 L29.3964055,27.2821912 L29.3955915,27.2821912 Z M17.1526367,19.7453104 L19.5585784,19.7453104 L19.5585784,22.1439268 L17.1526367,22.1439268 L17.1526367,19.7453104 Z" id="geburtshaus" fill="#FFFFFF" fill-rule="nonzero"></path>
        </g>
    </g>
</svg>