<?xml version="1.0" encoding="UTF-8"?>
<svg width="46px" height="55px" viewBox="0 0 46 55" version="1.1" xmlns="http://www.w3.org/2000/svg" xmlns:xlink="http://www.w3.org/1999/xlink">
    <!-- Generator: Sketch 48.2 (47327) - http://www.bohemiancoding.com/sketch -->
    <title>gm_marker_spital_selected</title>
    <desc>Created with Sketch.</desc>
    <defs>
        <filter x="-16.6%" y="-31.5%" width="133.2%" height="163.1%" filterUnits="objectBoundingBox" id="filter-1">
            <feGaussianBlur stdDeviation="1.9796317" in="SourceGraphic"></feGaussianBlur>
        </filter>
    </defs>
    <g id="Birthhood---Mobile" stroke="none" stroke-width="1" fill="none" fill-rule="evenodd">
        <g id="gm_marker_spital_selected" transform="translate(0.500000, 0.000000)">
            <path d="M17.9435362,31.9681233 L39.9312429,31.9681233 C40.1018886,31.9681233 40.1630038,31.9811056 40.2240071,32.0054836 C40.2850812,32.0298616 40.3321272,32.0656353 40.363029,32.1112182 C40.3939622,32.1568012 40.4092479,32.2020149 40.4018595,32.3266997 L37.1789874,45.7934453 C37.1266964,45.9181301 37.0827914,45.9633439 37.0168041,46.0089268 C36.9506753,46.0545097 36.866752,46.0902834 36.7687859,46.1146614 C36.6707176,46.1390394 36.5782304,46.1520217 36.338733,46.1520217 L21.645398,46.1520217 L4.59630322,50.8067808 L8.16399145,46.1520217 L5.47947516,46.1520217 C5.23997771,46.1520217 5.16706147,46.1390394 5.10571913,46.1146614 C5.04444757,46.0902834 5.01431494,46.0545097 5.01662789,46.0089268 C5.01897232,45.9633439 5.0427368,45.9181301 5.17649514,45.7934453 L17.1983568,32.3266997 C17.2872126,32.2020149 17.3371952,32.1568012 17.402999,32.1112182 C17.4686613,32.0656353 17.5429104,32.0298616 17.6224831,32.0054836 C17.7019536,31.9811056 17.7728905,31.9681233 17.9435362,31.9681233 Z" id="shadow" fill="#5A5A5A" opacity="0.305197011" filter="url(#filter-1)"></path>
            <path d="M0.96145695,0.0205242301 L44.0385431,0.0205242301 C44.3728626,0.0205242301 44.4940949,0.0553338343 44.6163171,0.120698994 C44.7385394,0.186064154 44.8344601,0.281984869 44.8998252,0.404207091 C44.9651904,0.526429313 45,0.647661653 45,0.98198118 L45,37.0905891 C45,37.4249087 44.9651904,37.546141 44.8998252,37.6683632 C44.8344601,37.7905854 44.7385394,37.8865062 44.6163171,37.9518713 C44.4940949,38.0172365 44.3728626,38.0520461 44.0385431,38.0520461 L23.5278082,38.0520461 L7.3508322,50.8067808 L4.70882962,38.0520461 L0.96145695,38.0520461 C0.627137423,38.0520461 0.505905083,38.0172365 0.383682861,37.9518713 C0.261460639,37.8865062 0.165539924,37.7905854 0.100174764,37.6683632 C0.0348096042,37.546141 4.45593842e-15,37.4249087 4.41499609e-15,37.0905891 L-8.51262948e-17,0.98198118 C-1.26068629e-16,0.647661653 0.0348096042,0.526429313 0.100174764,0.404207091 C0.165539924,0.281984869 0.261460639,0.186064154 0.383682861,0.120698994 C0.505905083,0.0553338343 0.627137423,0.0205242301 0.96145695,0.0205242301 Z" id="bubble" fill="#E85969"></path>
            <path d="M32.4534265,15.1811118 L26.2332074,13.6555387 C26.080401,13.6181675 25.9275945,13.6140152 25.7806013,13.633116 L25.7806013,8.6619235 C26.1152807,8.39119033 26.3037973,7.95934601 26.2332074,7.50424853 C26.1269073,6.82409373 25.488276,6.35820015 24.8097821,6.46366982 L12.9739259,8.30565193 C12.2929406,8.41195207 11.8278775,9.04892244 11.9333472,9.72907724 C11.9831754,10.0496386 12.1525912,10.3195413 12.3867837,10.5072275 L12.3867837,29.1155653 C12.3867837,29.5449182 12.7347506,29.8937155 13.1657644,29.8937155 L32.0182603,29.8937155 C32.4484437,29.8937155 32.797241,29.5449182 32.797241,29.1155653 L32.797241,17.4582601 C33.0721266,17.2929966 33.2863878,17.0247548 33.3694348,16.6884145 C33.5330373,16.0198863 33.1236157,15.3455448 32.4550875,15.1811118 L32.4534265,15.1811118 Z M13.9439147,10.6783043 L24.2234704,9.07881936 L24.2234704,28.337415 L20.2936871,28.337415 L20.2936871,24.4366982 L17.873698,24.4366982 L17.873698,28.337415 L13.9439147,28.337415 L13.9439147,10.6783043 Z M31.2376187,28.337415 L29.2270512,28.337415 L29.2270512,26.3434569 L27.7919993,26.3434569 L27.7919993,28.337415 L25.7814318,28.337415 L25.7814318,16.2715187 L31.2384492,17.4997836 L31.2384492,28.337415 L31.2376187,28.337415 Z M17.873698,11.3127832 L20.2936871,11.3127832 L20.2936871,13.6713176 L17.873698,13.6713176 L17.873698,11.3127832 Z M17.873698,15.5772459 L20.2936871,15.5772459 L20.2936871,17.9382716 L17.873698,17.9382716 L17.873698,15.5772459 Z M17.873698,19.842539 L20.2936871,19.842539 L20.2936871,22.2010733 L17.873698,22.2010733 L17.873698,19.842539 Z M27.7911688,18.3809121 L29.2262207,18.3809121 L29.2262207,19.7785928 L27.7911688,19.7785928 L27.7911688,18.3809121 Z M27.7911688,20.9080318 L29.2262207,20.9080318 L29.2262207,22.3057125 L27.7911688,22.3057125 L27.7911688,20.9080318 Z M27.7911688,23.4351515 L29.2262207,23.4351515 L29.2262207,24.8328323 L27.7911688,24.8328323 L27.7911688,23.4351515 Z" id="spital" fill="#FCFAFA" fill-rule="nonzero"></path>
        </g>
    </g>
</svg>