<svg width="30" height="36" viewBox="0 0 30 36" xmlns="http://www.w3.org/2000/svg"><title>gm_marker_spital</title><desc>Created with Sketch.</desc><defs><filter x="-16.6%" y="-31.5%" width="133.2%" height="163.1%" filterUnits="objectBoundingBox" id="a"><feGaussianBlur stdDeviation="1.32" in="SourceGraphic"/></filter></defs><g fill="none"><path d="M11.962 21.312h14.658l.195.025.093.07.026.144-2.149 8.978-.108.144-.165.07-.287.025h-9.796l-11.366 3.103 2.378-3.103h-1.79l-.249-.025-.059-.07.107-.144 8.015-8.978.136-.144.146-.07.214-.025z" fill="#5A5A5A" opacity=".305" filter="url(#a)"/><path d="M.641.014h28.718c.223 0 .304.023.385.067.081.044.145.108.189.189.044.081.067.162.067.385v24.072c0 .223-.023.304-.067.385-.044.081-.108.145-.189.189-.081.044-.162.067-.385.067h-13.674l-10.785 8.503-1.761-8.503h-2.498c-.223 0-.304-.023-.385-.067-.081-.044-.145-.108-.189-.189-.044-.081-.067-.162-.067-.385v-24.072c0-.223.023-.304.067-.385.044-.081.108-.145.189-.189.081-.044.162-.067.385-.067z" fill="#42A4D1"/><path d="M21.636 10.121l-4.147-1.017c-.102-.025-.204-.028-.302-.015v-3.314c.223-.18.349-.468.302-.772-.071-.453-.497-.764-.949-.694l-7.891 1.228c-.454.071-.764.496-.694.949.033.214.146.394.302.519v12.406c0 .286.232.519.519.519h12.568c.287 0 .519-.233.519-.519v-7.772c.183-.11.326-.289.381-.513.109-.446-.164-.895-.61-1.005h-.001zm-12.34-3.002l6.853-1.066v12.839h-2.62v-2.6h-1.613v2.6h-2.62v-11.773zm11.529 11.773h-1.34v-1.329h-.957v1.329h-1.34v-8.044l3.638.819v7.225h-.001zm-8.909-11.35h1.613v1.572h-1.613v-1.572zm0 2.843h1.613v1.574h-1.613v-1.574zm0 2.844h1.613v1.572h-1.613v-1.572zm6.612-.974h.957v.932h-.957v-.932zm0 1.685h.957v.932h-.957v-.932zm0 1.685h.957v.932h-.957v-.932z" fill="#FCFAFA" fill-rule="nonzero"/></g></svg>