<?xml version="1.0" encoding="UTF-8"?>
<svg width="33px" height="36px" viewBox="0 0 33 36" version="1.1" xmlns="http://www.w3.org/2000/svg" xmlns:xlink="http://www.w3.org/1999/xlink">
    <!-- Generator: Sketch 48.2 (47327) - http://www.bohemiancoding.com/sketch -->
    <title>gm_marker_geburtshaus_selected</title>
    <desc>Created with Sketch.</desc>
    <defs>
        <filter x="-16.6%" y="-31.5%" width="133.2%" height="163.1%" filterUnits="objectBoundingBox" id="filter-1">
            <feGaussianBlur stdDeviation="1.31975446" in="SourceGraphic"></feGaussianBlur>
        </filter>
    </defs>
    <g id="Birthhood---Mobile" stroke="none" stroke-width="1" fill="none" fill-rule="evenodd">
        <g id="gm_marker_geburtshaus_selected" transform="translate(0.500000, 0.000000)">
            <path d="M14.3380281,21.3120822 L28.9964992,21.3120822 C29.110263,21.3120822 29.1510065,21.320737 29.1916754,21.3369891 C29.2323914,21.3532411 29.2637554,21.3770902 29.2843566,21.4074788 C29.3049788,21.4378674 29.3151692,21.4680099 29.3102436,21.5511332 L27.1616622,30.5289635 C27.1268016,30.6120868 27.0975316,30.6422292 27.05354,30.6726178 C27.0094541,30.7030065 26.9535053,30.7268556 26.8881946,30.7431076 C26.8228157,30.7593596 26.7611576,30.7680145 26.6014926,30.7680145 L16.805936,30.7680145 L5.43987277,33.8711872 L7.81833159,30.7680145 L6.02865406,30.7680145 C5.86898909,30.7680145 5.82037827,30.7593596 5.77948337,30.7431076 C5.73863567,30.7268556 5.71854724,30.7030065 5.72008922,30.6726178 C5.72165217,30.6422292 5.73749515,30.6120868 5.82666738,30.5289635 L13.8412418,21.5511332 C13.900479,21.4680099 13.9338007,21.4378674 13.97767,21.4074788 C14.0214448,21.3770902 14.0709442,21.3532411 14.1239927,21.3369891 C14.176973,21.320737 14.2242643,21.3120822 14.3380281,21.3120822 Z" id="shadow" fill="#5A5A5A" opacity="0.305197011" filter="url(#filter-1)"></path>
            <path d="M1.08546144,0.01368282 L29.8035188,0.01368282 C30.0263985,0.01368282 30.1072201,0.0368892228 30.1887016,0.080465996 C30.270183,0.124042769 30.3341302,0.187989913 30.377707,0.269471394 C30.4212837,0.350952876 30.4444901,0.431774435 30.4444901,0.65465412 L30.4444901,24.7270594 C30.4444901,24.9499391 30.4212837,25.0307607 30.377707,25.1122421 C30.3341302,25.1937236 30.270183,25.2576708 30.1887016,25.3012475 C30.1072201,25.3448243 30.0263985,25.3680307 29.8035188,25.3680307 L16.1296956,25.3680307 L5.34504494,33.8711872 L3.58370989,25.3680307 L1.08546144,25.3680307 C0.862581757,25.3680307 0.781760197,25.3448243 0.700278716,25.3012475 C0.618797234,25.2576708 0.554850091,25.1937236 0.511273318,25.1122421 C0.467696545,25.0307607 0.444490142,24.9499391 0.444490142,24.7270594 L0.444490142,0.65465412 C0.444490142,0.431774435 0.467696545,0.350952876 0.511273318,0.269471394 C0.554850091,0.187989913 0.618797234,0.124042769 0.700278716,0.080465996 C0.781760197,0.0368892228 0.862581757,0.01368282 1.08546144,0.01368282 Z" id="bubble" fill="#E85969"></path>
            <path d="M21.8054919,10.9703025 L15.0727621,5.27016332 C14.7645585,5.00916695 14.3131053,5.00916695 14.0049016,5.27016332 L7.27271443,10.9703025 C6.92435752,11.2643982 6.88149117,11.786391 7.17612949,12.1342053 C7.47076781,12.4820196 7.99221795,12.5259711 8.34057487,12.2302476 L8.44855466,12.1390888 L8.44855466,18.7036089 C8.44855466,18.9890228 8.67970737,19.2201755 8.96512129,19.2201755 L20.1141703,19.2201755 C20.3995842,19.2201755 20.6307369,18.9890228 20.6307369,18.7036089 L20.6307369,12.1390888 L20.7387167,12.2302476 C20.8939037,12.3621023 21.0838179,12.4266731 21.2715617,12.4266731 C21.5065127,12.4266731 21.7387506,12.3273751 21.9026195,12.1342053 C22.1967152,11.7858484 22.1533062,11.2638556 21.8049493,10.9697599 L21.8054919,10.9703025 Z M19.597061,18.1881275 L17.64203,18.1881275 L17.64203,13.1635402 L14.8003709,13.1635402 L14.8003709,18.1881275 L9.4806027,18.1881275 L9.4806027,11.2654834 L14.5393745,6.98318944 L19.5976036,11.2654834 L19.5976036,18.1881275 L19.597061,18.1881275 Z M11.4350912,13.1635402 L13.0390523,13.1635402 L13.0390523,14.7626178 L11.4350912,14.7626178 L11.4350912,13.1635402 Z" id="geburtshaus" fill="#FFFFFF" fill-rule="nonzero"></path>
        </g>
    </g>
</svg>