<svg width="32" height="36" viewBox="0 0 32 36" xmlns="http://www.w3.org/2000/svg"><title>gm_marker_geburtshaus</title><desc>Created with Sketch.</desc><defs><filter x="-16.6%" y="-31.5%" width="133.2%" height="163.1%" filterUnits="objectBoundingBox" id="a"><feGaussianBlur stdDeviation="1.32" in="SourceGraphic"/></filter></defs><g fill="none"><path d="M14.338 21.312h14.658l.195.025.093.07.026.144-2.149 8.978-.108.144-.165.07-.287.025h-9.796l-11.366 3.103 2.378-3.103h-1.79l-.249-.025-.059-.07.107-.144 8.015-8.978.136-.144.146-.07.214-.025z" fill="#5A5A5A" opacity=".305" filter="url(#a)"/><path d="M1.085.014h28.718c.223 0 .304.023.385.067.081.044.145.108.189.189.044.081.067.162.067.385v24.072c0 .223-.023.304-.067.385-.044.081-.108.145-.189.189-.081.044-.162.067-.385.067h-13.674l-10.785 8.503-1.761-8.503h-2.498c-.223 0-.304-.023-.385-.067-.081-.044-.145-.108-.189-.189-.044-.081-.067-.162-.067-.385v-24.072c0-.223.023-.304.067-.385.044-.081.108-.145.189-.189.081-.044.162-.067.385-.067z" fill="#2D9B6F"/><path d="M21.805 10.97l-6.733-5.7c-.308-.261-.76-.261-1.068 0l-6.732 5.7c-.348.294-.391.816-.097 1.164.295.348.816.392 1.164.096l.108-.091v6.565c0 .285.231.517.517.517h11.149c.285 0 .517-.231.517-.517v-6.565l.108.091c.155.132.345.196.533.196.235 0 .467-.099.631-.292.294-.348.251-.87-.098-1.164l.001.001zm-2.208 7.218h-1.955v-5.025h-2.842v5.025h-5.32v-6.923l5.059-4.282 5.058 4.282v6.923h-.001zm-8.162-5.025h1.604v1.599h-1.604v-1.599z" fill="#fff" fill-rule="nonzero"/></g></svg>