<svg width="158" height="138" viewBox="0 0 158 138" xmlns="http://www.w3.org/2000/svg"><title>icon_white</title><desc>Created with Sketch.</desc><path d="M114.84 64.463c-.021-1.942-.1-3.841-.26-5.647.358.533.696 1.069 1.03 1.605.739 1.182 1.412 2.378 2.014 3.581-.683.649-1.36 1.309-2.032 1.973l-.757.75c.01-.757.013-1.512.005-2.262zm-70.723-.556c-.675-.639-1.352-1.265-2.035-1.883.242-.425.484-.853.744-1.28.639-1.038 1.332-2.066 2.056-3.089l.42-.592c-.216 1.736-.348 3.581-.41 5.495-.023.675-.036 1.363-.044 2.051l-.732-.701zm14.611-21.245l.907-.806c1.538-1.342 3.058-2.61 4.536-3.802 1.785-1.437 3.496-2.754 5.085-3.936 5.072-3.771 8.859-6.154 9.354-6.461l.27-.17.441-.273.028.015.683.428c.459.283 3.728 2.336 8.223 5.621 1.481 1.085 3.099 2.306 4.794 3.64 1.368 1.077 2.78 2.223 4.222 3.442l.829.716c1.78 1.53 3.581 3.153 5.353 4.861.884.85 1.757 1.716 2.617 2.602 1.002 1.038 1.984 2.094 2.937 3.174-.672.559-1.352 1.162-2.038 1.808-8.362-9.405-19.264-17.409-24.8-21.209.425.386.876.801 1.352 1.273 2.411 2.324 5.448 5.598 8.228 9.101 2.767 3.509 5.278 7.252 6.747 10.327.376.76.639 1.507.896 2.146.222.678.366 1.293.497 1.765.106.479.046.871.075 1.131l.008.402s-.16-.549-.513-1.458c-.234-.425-.487-.927-.819-1.481l-1.255-1.857c-.969-1.334-2.115-2.872-3.385-4.5-1.28-1.618-2.648-3.346-4.013-5.077-2.736-3.467-5.464-6.955-7.437-9.647-1-1.337-1.772-2.506-2.347-3.295l-.196-.283-.028-.018.005.023c.283 1.646.471 3.838.479 6.031-.005 2.192-.191 4.387-.477 6.033-.268 1.641-.647 2.738-.647 2.738s-.379-1.097-.647-2.738c-.283-1.646-.471-3.841-.479-6.033.008-2.192.198-4.384.484-6.031l.01-.054-.013.008-.224.325c-.582.786-1.36 1.955-2.365 3.292-1.989 2.689-4.732 6.18-7.481 9.647-1.378 1.729-2.751 3.46-4.042 5.077-1.275 1.628-2.429 3.166-3.4 4.5l-1.265 1.857c-.343.567-.598 1.085-.832 1.51-.343.868-.51 1.432-.51 1.432l.008-.399c.028-.255-.031-.678.082-1.167.234-.969.644-2.357 1.401-3.887 1.481-3.078 4.011-6.821 6.796-10.325 2.8-3.501 5.853-6.772 8.277-9.096.51-.502.994-.943 1.443-1.347-5.394 3.697-16.085 11.523-24.439 20.763-.696-.639-1.391-1.237-2.076-1.783.716-.799 1.448-1.584 2.192-2.36 2.099-2.177 4.284-4.25 6.466-6.193zm69.976 51.603c.417-.76.84-1.515 1.255-2.28 2.774-5.183 5.271-10.505 6.948-14.578.855-2.03 1.471-3.761 1.837-4.992.214-.608.286-1.11.361-1.448l.106-.515-.126.513c-.085.332-.173.832-.41 1.427-.407 1.216-1.085 2.919-2.004 4.913-1.819 3.998-4.495 9.215-7.442 14.274-.618 1.054-1.244 2.097-1.873 3.13l-.237.077c2.107-6.474 6.628-21.489 7.308-33.033 6.113-5.028 12.715-9.915 18.305-12.787-2.89 14.717-15.196 38.144-18.159 43.638-1.896.456-3.88 1.028-5.868 1.662zm-6.85 20.315c-3.241 3.102-6.798 5.845-10.57 8.153-1.146.701-2.257 1.347-3.349 1.973 2.089-2.027 3.861-3.959 5.124-5.407l.737-.484c1.066-.696 2.022-1.479 2.932-2.21.93-.708 1.713-1.504 2.481-2.169.737-.711 1.358-1.419 1.914-2.03l1.278-1.729.848-1.664-1.028 1.535-1.409 1.577-2.027 1.842c-1.02.85-2.21 1.744-3.498 2.653 1.543-1.999 7.836-10.466 10.381-18.46 4.794-1.708 9.789-3.207 13.81-3.753-4.062 6.729-12.579 15.346-17.623 20.173zm12.605-57.523c-.046-.876-.124-1.718-.24-2.509l-.379-2.517-2.251 1.19c-4.377 2.311-9.281 6.334-13.965 10.781-.683.649-1.36 1.309-2.032 1.973l-.757.75c.01-.757.013-1.512.005-2.262-.021-1.942-.1-3.841-.26-5.647.358.533.696 1.069 1.03 1.605 7.53-7.785 19.32-19.21 28.532-24.642-.69 5.054-2.406 11.175-4.475 17.278-1.744 1.283-3.491 2.63-5.209 4.001zm-85.053 58.345c-.412-.531-8.751-11.286-10.969-19.841 5.046 1.499 10.997 4.238 15.376 6.42 5.842 2.916 10.866 6.857 15.039 11.649-.559 2.2-1.36 6.126-1.237 10.15-.538-.402-1.077-.809-1.644-1.249-1.489-1.141-3.053-2.396-4.606-3.663-3.112-2.527-6.203-5.09-8.506-7.033-2.318-1.929-3.789-3.308-3.789-3.308s.281.422.866 1.09c.582.665 1.417 1.618 2.494 2.679 2.13 2.154 5.083 4.907 8.228 7.445 1.579 1.26 3.166 2.506 4.73 3.583.775.559 1.543 1.066 2.288 1.53.16 2.172.626 4.32 1.564 6.206-6.919-1.981-16.051-11.185-19.833-15.657zm41.693 16.224c1.146-2.012 1.631-4.323 1.698-6.664.639-.456 1.291-.93 1.95-1.455 1.502-1.157 3.027-2.488 4.536-3.828 3.009-2.692 5.814-5.6 7.831-7.86 1.023-1.115 1.801-2.112 2.349-2.805.549-.696.809-1.133.809-1.133s-1.396 1.45-3.614 3.498c-2.197 2.061-5.152 4.781-8.127 7.465-1.484 1.35-2.983 2.679-4.41 3.898l-1.291 1.092c-.067-3.073-.744-6.036-1.365-8.158 4.554-5.912 10.59-10.812 17.615-14.243 5.495-2.684 10.294-4.694 14.065-5.886-2.069 8.637-10.521 19.356-10.68 19.557-3.746 4.663-14.274 15.737-21.366 16.523zm19.362-76.411c2.535 13.339-1.914 38.01-2.215 39.651-.353 1.198-.799 2.602-1.324 4.135-4.384 2.231-8.393 5.008-11.925 8.223 1.551-4.619 2.911-9.127 3.9-12.669.59-2.12 1.048-3.895 1.327-5.15.299-1.249.397-1.976.397-1.976s-.124.724-.466 1.96c-.322 1.239-.842 2.999-1.51 5.09-1.221 3.846-2.939 8.838-4.861 13.851-1.17 1.136-2.262 2.336-3.31 3.57l-.312-1.198c-1.108-4.714-3.127-12.262-5.889-18.578.379-.935.739-1.798 1.051-2.499.142-.258 13.614-24.21 25.137-34.411zm-31.072-2.671c4.024 6.399 7.208 16.386 9.338 24.485-3.588 5.605-6.079 9.998-6.561 10.858-.42-.737-.84-1.468-1.28-2.112l-1.074-1.564c-.278-3.14-.564-6.244-.703-8.601-.18-2.452-.049-4.091-.049-4.091s-.234 1.631-.214 4.098c-.01 2.463.088 5.745.165 9.024l.003.131-.706.963c-.366.5-.721 1.056-1.069 1.633-.793-1.401-3.14-5.461-6.363-10.482 1.978-8.104 4.884-17.922 8.514-24.344zm-5.095 36.933c.258.582.551 1.27.853 2.007-2.792 6.414-4.634 14.431-5.443 18.388-.817-.855-1.667-1.677-2.54-2.47-1.775-4.694-3.359-9.312-4.506-12.921-.665-2.092-1.188-3.851-1.512-5.09-.34-1.237-.461-1.96-.461-1.96s.095.726.394 1.976c.276 1.255.734 3.029 1.329 5.15.927 3.328 2.182 7.509 3.619 11.834-3.261-2.805-6.842-5.255-10.804-7.231-.891-.446-1.868-.92-2.872-1.394-.345-1.054-.652-2.03-.904-2.898-.301-1.644-4.753-26.312-2.218-39.651 11.518 10.199 24.993 34.143 25.065 34.261zm-43.339-31.657c4.469 2.877 9.41 7.349 13.98 11.968.489 12.45 2.828 25.026 2.98 25.833l.031.139c-1.332-.574-2.687-1.136-4.039-1.651-1.072-2.324-2.056-4.506-2.903-6.435-1.059-2.421-1.919-4.446-2.473-5.884-.291-.714-.497-1.283-.623-1.677l-.204-.598.185.603c.113.397.304.974.574 1.695.51 1.458 1.311 3.511 2.3 5.961.742 1.844 1.597 3.908 2.535 6.108-1.947-.724-3.856-1.34-5.636-1.788-2.483-7.883-7.074-23.988-6.708-34.274zm93.271 34.127c-2.494.662-5.438 1.703-8.813 3.122 1.131-2.643 2.169-5.129 3.042-7.295.989-2.45 1.79-4.503 2.303-5.961.268-.721.459-1.298.572-1.695l.185-.603-.204.598c-.124.394-.33.963-.621 1.677-.554 1.437-1.417 3.462-2.476 5.884-.997 2.269-2.184 4.894-3.483 7.682-1.061.456-2.174.951-3.315 1.476l.317-1.043.044-.167c.139-.752 2.205-11.858 2.867-23.499 5.162-5.415 11.023-10.938 16.245-14.302.363 10.224-4.173 26.196-6.664 34.127zm-102.766 5.265c4.598.417 10.235 1.765 15.322 3.223 3.377 8.261 9.81 16.502 10.16 16.943l.031.039c.175.209.497.58.891 1.028-.876-.502-1.708-.987-2.45-1.448-1.36-.84-2.525-1.502-3.282-2.045-.786-.502-1.182-.863-1.182-.863l.263.281c.167.185.422.464.788.757.708.621 1.749 1.468 3.063 2.398 1.422 1.038 3.169 2.192 5.049 3.372 1.806 1.896 4.227 4.261 6.932 6.502-6.028-2.888-11.932-6.628-14.933-8.735-.801-.652-14.761-12.131-20.652-21.451zm51.42 33.777c-3.64-4.694-1.646-13.944-.945-16.67.312-1.208.58-2.424.829-3.653.909-4.472 3.259-14.748 6.793-21.028 3.746 6.736 6.466 17.252 7.527 21.783.435 1.86.866 3.493 1.306 4.99.884 2.962 2.607 10.304-.456 14.418-1.319 1.765-3.516 2.731-6.45 2.98.054-.216.118-.428.162-.659.325-1.592.582-3.47.675-5.484.098-2.014.118-4.163.088-6.309-.077-2.143-.219-4.284-.386-6.288-.162-2.004-.446-3.861-.678-5.453-.492-3.181-1.11-5.242-1.11-5.242s.26 2.125.482 5.314c.139 1.595.209 3.46.332 5.453.121 1.991.204 4.119.237 6.247.082 2.125.111 4.253.062 6.242-.046 1.989-.098 3.849-.322 5.412l-.134.811c-.289.013-.538.064-.84.064-3.297 0-5.642-.958-7.172-2.929zm-24.472-120.458c5.721 5.309 12.053 13.962 17.288 21.871-.549 1.942-1.056 3.841-1.522 5.652 1.785-1.437 3.496-2.754 5.085-3.936 2.602-9.354 6.103-19.897 10.106-26.927 3.241 5.66 6.216 14.39 8.893 26.088 1.481 1.085 3.099 2.306 4.794 3.64-.366-1.759-.76-3.573-1.198-5.443 4.884-7.19 10.523-14.673 15.639-19.429.716 8.882-.933 21.616-2.674 31.773-.466.719-.914 1.419-1.363 2.118.884.85 1.757 1.716 2.617 2.602 5.678-8.947 13.462-20.212 20.364-26.616.551 6.803-.289 15.868-1.494 24.308-3.107 2.844-6.077 5.734-8.733 8.4l.049-.237c.626-3.223 1.231-6.443 1.77-8.841.507-2.409 1.082-3.947 1.082-3.947s-.672 1.504-1.334 3.882c-.693 2.365-1.504 5.546-2.334 8.717l-.433 1.644-.688.701c-.252-1.844-.595-3.56-1.064-5.072l-.757-2.432-2.043 1.517c-.479.355-.961.742-1.448 1.149-.672.559-1.352 1.162-2.038 1.808-5.441 5.139-11.062 12.708-15.585 19.457-2.481-8.797-6.079-18.921-10.652-24.818l-1.507-1.942-1.404 2.02c-4.101 5.915-7.36 15.817-9.647 24.539-4.655-6.922-10.459-14.686-16.028-19.779-.696-.639-1.391-1.237-2.076-1.783.716-.799 1.448-1.584 2.192-2.36-2.074-10.709-4.755-27.378-3.856-38.324zm-5.58 50.212c.639-1.038 1.332-2.066 2.056-3.089-.497-.513-1.018-1.043-1.548-1.584l-.492-1.865c-.827-3.171-1.641-6.353-2.331-8.717-.659-2.378-1.337-3.882-1.337-3.882s.58 1.538 1.082 3.947c.538 2.398 1.146 5.618 1.772 8.841l.088.441c-2.89-2.911-6.177-6.105-9.611-9.22-1.159-8.259-1.945-17.051-1.407-23.689 5.353 4.982 11.286 12.952 16.324 20.446.487 2.877.981 5.551 1.448 7.921l-1.68-1.247-.755 2.432c-.513 1.651-.881 3.542-1.133 5.585-.216 1.736-.348 3.581-.41 5.495-.023.675-.036 1.363-.044 2.051l-.732-.701c-.675-.639-1.352-1.265-2.035-1.883-4.019-3.64-8.115-6.839-11.832-8.802l-2.251-1.19-.376 2.517c-.289 1.914-.345 4.096-.242 6.432-2.751-2.326-5.652-4.676-8.571-6.883-2.228-6.445-4.106-12.978-4.833-18.318 9.354 5.52 21.363 17.211 28.849 24.964zm-19.743 32.997c-.837-1.53-15.531-28.488-18.71-44.782 7.218 3.722 16.116 10.799 23.46 17.193 1.6 12.78 6.559 27.736 7.72 31.121l-1.607-.43c-3.903-6.211-7.566-12.55-10.106-17.432-.665-1.229-1.208-2.388-1.705-3.408-.518-1.01-.868-1.937-1.206-2.679-.35-.739-.495-1.365-.652-1.772l-.211-.634.193.639c.144.412.276 1.046.605 1.796.314.75.639 1.69 1.128 2.718.471 1.033.984 2.21 1.613 3.46 2.316 4.776 5.639 10.928 9.215 17.035-3.068-.768-6.175-1.425-9.047-1.811l-.69-1.012zm134.029-50.599l-2.767 1.11c-2.978 1.193-6.311 3.081-9.761 5.363 1.886-6.183 3.266-12.174 3.467-16.927l.124-2.978-2.697 1.27c-4.918 2.311-10.729 6.675-16.389 11.556 1.095-8.9 1.628-18.056.502-24.467l-.518-2.937-2.365 1.821c-5.456 4.196-11.641 11.968-17.105 19.774 1.432-10.098 2.339-21.142 1.041-28.537l-.518-2.934-2.362 1.816c-5.469 4.207-11.646 11.948-17.082 19.707-2.38-9.153-5.587-18.506-9.766-24.351l-1.613-2.257-1.564 2.29c-4.189 6.128-7.872 15.984-10.734 25.438-5.868-8.622-12.821-17.677-18.875-22.334l-2.362-1.819-.52 2.934c-1.247 7.115-.441 17.682.914 27.535-4.992-6.904-10.451-13.498-15.343-17.262l-2.362-1.821-.518 2.937c-1.103 6.278-.618 15.181.43 23.901-5.448-4.65-11.005-8.766-15.732-10.989l-2.697-1.27.124 2.978c.211 4.974 1.716 11.311 3.74 17.8-3.903-2.671-7.697-4.897-11.041-6.244l-2.767-1.113.296 2.968c1.51 15.139 15.778 42.268 19.029 48.288l-.263-.013-2.236-.026 1.015 1.994c5.247 10.317 21.891 23.88 22.597 24.452l.075.057c.139.1.835.582 1.893 1.285 4.668 4.098 9.488 7.241 13.831 7.988l.26.026c3.818 1.78 7.777 3.241 11.247 3.743 1.378.456 2.733.726 4.037.726l.258-.021c2.038 1.641 4.717 2.478 8.012 2.478 3.514 0 6.342-.809 8.449-2.396.595.124 1.195.211 1.816.211 2.311 0 4.786-.868 7.244-2.195 4.956-1.824 10.325-4.712 15.137-7.656 3.936-2.406 7.651-5.268 11.031-8.506 7.002-6.705 16.044-16.157 19.362-23.112l.956-2.002-2.218.067c-.842.026-1.752.121-2.695.25 4.781-9.081 16.317-32.121 17.682-45.63l.299-2.968zm-78.054-23.282s-.234 1.633-.214 4.098c-.005 1.046.01 2.254.036 3.529l.441-.273.028.015c-.098-1.177-.185-2.303-.242-3.279-.18-2.452-.049-4.091-.049-4.091m21.265 10.075c.507-2.409 1.082-3.949 1.082-3.949s-.672 1.504-1.334 3.882c-.693 2.365-1.504 5.546-2.334 8.72l-.466 1.772.829.716c.155-.76.304-1.533.453-2.303.626-3.223 1.231-6.443 1.77-8.838m-41.565 8.653c-.827-3.174-1.638-6.355-2.331-8.72-.659-2.378-1.334-3.882-1.334-3.882s.577 1.54 1.082 3.949c.538 2.396 1.146 5.616 1.77 8.838.258 1.319.518 2.628.783 3.89l.907-.806c-.291-1.069-.585-2.161-.876-3.269" fill="#fff"/></svg>