<?xml version="1.0" encoding="UTF-8"?>
<svg width="158px" height="138px" viewBox="0 0 158 138" version="1.1" xmlns="http://www.w3.org/2000/svg" xmlns:xlink="http://www.w3.org/1999/xlink">
    <!-- Generator: Sketch 48.2 (47327) - http://www.bohemiancoding.com/sketch -->
    <title>icon_white</title>
    <desc>Created with Sketch.</desc>
    <defs></defs>
    <g id="Loading" stroke="none" stroke-width="1" fill="none" fill-rule="evenodd" transform="translate(-241.000000, -392.000000)">
        <g id="icon_white" transform="translate(241.000000, 392.064048)" fill="#FFFFFF">
            <path d="M114.840131,64.3994429 C114.819523,62.4571042 114.739666,60.5585583 114.579951,58.75275 C114.938021,59.2859915 115.275483,59.8218091 115.610369,60.3576267 C116.349694,61.5400318 117.022042,62.7353171 117.624837,63.9383306 C116.942185,64.5874942 116.264685,65.246962 115.592337,65.9115819 C115.339884,66.1588823 115.087432,66.4087588 114.834979,66.6612113 C114.845284,65.9038537 114.84786,65.1490723 114.840131,64.3994429 Z M44.1173641,63.8430169 C43.44244,63.2041575 42.7649399,62.5781783 42.0822877,61.9599273 C42.3244361,61.5348797 42.5665844,61.1072561 42.826765,60.6796324 C43.4656244,59.6414859 44.1585808,58.6136435 44.8824498,57.5909532 C45.0241323,57.3951737 45.1555106,57.1942422 45.3023453,56.9984627 C45.0859574,58.7347177 44.954579,60.5791666 44.8927539,62.4931688 C44.8695695,63.1680929 44.8566893,63.8558972 44.8489612,64.5437014 C44.6042368,64.3118573 44.3620885,64.0774371 44.1173641,63.8430169 Z M58.7286971,42.5983654 C59.0326705,42.3278806 59.3340679,42.0573958 59.6354653,41.792063 C61.1733648,40.449943 62.6932319,39.1825284 64.1718823,37.9898191 C65.9570822,36.5523854 67.6675768,35.2360259 69.2569972,34.0536208 C74.3292318,30.2822894 78.1160194,27.8994469 78.6106203,27.5928974 L78.8811051,27.4228783 L79.321609,27.1498175 L79.3499455,27.1652737 L80.0325977,27.5928974 C80.4911338,27.8762624 83.7601362,29.9293711 88.2553365,33.2138298 C89.736563,34.2983452 91.3543199,35.519391 93.0493582,36.8537828 C94.4172386,37.93057 95.8289118,39.0769105 97.2714976,40.2953803 C97.5445585,40.5272244 97.8253475,40.7719488 98.1009844,41.0115211 C99.8810322,42.5416924 101.681688,44.1646014 103.454008,45.8725199 C104.337592,46.7226151 105.210871,47.5881666 106.071271,48.4743264 C107.073353,49.5124729 108.054826,50.5686518 109.007963,51.6480151 C108.335615,52.2070171 107.655539,52.8098118 106.970311,53.4563994 C98.6084655,44.0512554 87.7066387,36.0474804 82.1707159,32.2478125 C82.5957634,32.6342194 83.0465715,33.0489628 83.52314,33.5203793 C85.9343191,35.8439728 88.9714773,39.1181273 91.751031,42.6215498 C94.5177044,46.1301245 97.0293493,49.8731194 98.4976955,52.9489183 C98.8737982,53.7088519 99.1365549,54.4559052 99.3941595,55.0947647 C99.6156995,55.7722648 99.7599581,56.3879398 99.8913364,56.8593562 C99.9969543,57.3385007 99.9377052,57.7300597 99.9660417,57.9902404 C99.9711938,58.2529971 99.9737699,58.3921036 99.9737699,58.3921036 C99.9737699,58.3921036 99.814055,57.8434058 99.4611367,56.9340615 C99.2267165,56.5090139 98.974264,56.0066849 98.6419541,55.4528351 C98.2658514,54.8989852 97.8459559,54.275582 97.3874197,53.5955059 C96.4188264,52.261114 95.2724859,50.7232146 94.0024952,49.0951535 C92.7222003,47.4773966 91.3543199,45.7488697 89.9890155,44.0177668 C87.2532546,40.5504088 84.5252219,37.0624425 82.5519707,34.3704744 C81.5524648,33.0335066 80.779651,31.8639817 80.2051927,31.0757116 C80.1304874,30.9700937 80.0738144,30.8876602 80.0094132,30.7923465 C80.0016851,30.7871944 79.9913809,30.7794663 79.9810767,30.7743142 C79.9836528,30.7820423 79.9836528,30.7897705 79.9862288,30.7974986 C80.2695939,32.443592 80.4576453,34.6358072 80.4653734,36.8280223 C80.4602213,39.0202375 80.274746,41.2150287 79.9888049,42.8611221 C79.7208961,44.5020634 79.3422173,45.599459 79.3422173,45.599459 C79.3422173,45.599459 78.9635386,44.5020634 78.6956298,42.8611221 C78.4122647,41.2150287 78.2242134,39.0202375 78.2164852,36.8280223 C78.2242134,34.6358072 78.4148408,32.443592 78.7007819,30.7974986 C78.7033579,30.7768903 78.705934,30.76401 78.7110861,30.7434017 C78.705934,30.7459777 78.7033579,30.7485537 78.6982058,30.7511298 C78.6235005,30.8567477 78.5565233,30.9546374 78.4740898,31.0757116 C77.8919034,31.8614056 77.1139375,33.0309305 76.1092796,34.3678984 C74.120572,37.0572904 71.377083,40.5478328 68.6284419,44.0151907 C67.2502573,45.7437176 65.8772248,47.4748205 64.5866257,49.0925774 C63.311483,50.7206385 62.1574143,52.258538 61.186245,53.5929298 C60.7225567,54.273006 60.2975091,54.8964091 59.9214064,55.450259 C59.5787923,56.0169891 59.3237637,56.5347744 59.0893435,56.959822 C58.7467294,57.8279495 58.5792864,58.3921036 58.5792864,58.3921036 C58.5792864,58.3921036 58.5818625,58.2529971 58.5870146,57.9928164 C58.6153511,57.7377879 58.556102,57.3153163 58.669448,56.8258676 C58.9038682,55.8572743 59.3134595,54.4687855 60.0708171,52.9386141 C61.5520435,49.8602391 64.0817207,46.1172443 66.8664265,42.6138217 C69.6665885,39.1129752 72.719203,35.8413967 75.1432623,33.5178032 C75.6533194,33.0154742 76.1376161,32.5749704 76.5858481,32.1705311 C71.1916077,35.8671572 60.5010168,43.693185 52.1468995,52.933462 C51.4513671,52.2946026 50.7558347,51.69696 50.0706064,51.1508382 C50.7867472,50.3522639 51.5183443,49.5665699 52.2628216,48.7911801 C54.3622991,46.6144212 56.5467861,44.5407041 58.7286971,42.5983654 Z M128.704411,94.2017192 C129.121731,93.4417857 129.544202,92.6870042 129.958946,91.9219185 C132.733347,86.7389139 135.229536,81.4168029 136.906542,77.3440741 C137.761789,75.3141498 138.377464,73.5830469 138.743262,72.3516969 C138.957074,71.7437501 139.029204,71.2414211 139.103909,70.9039591 C139.170886,70.5690731 139.209527,70.3887499 139.209527,70.3887499 C139.209527,70.3887499 139.165734,70.566497 139.083301,70.901383 C138.998291,71.233693 138.910705,71.7334459 138.673709,72.3285125 C138.266694,73.5444062 137.589194,75.2471726 136.669545,77.2410323 C134.850857,81.2390557 132.174345,86.4555489 129.227348,91.5149032 C128.609097,92.5685061 127.983118,93.6118047 127.354563,94.6447992 C127.274706,94.6731357 127.194848,94.6988961 127.117567,94.7220805 C129.224772,88.2484769 133.745733,73.2327047 134.425809,61.6894425 C140.538767,56.6610006 147.141172,51.7742413 152.731192,48.90195 C149.840869,63.6189009 137.535097,87.0454634 134.572644,92.5401696 C132.676674,92.9961297 130.693119,93.5680119 128.704411,94.2017192 Z M121.854705,114.516418 C118.614039,117.617978 115.056519,120.361467 111.285188,122.669604 C110.138847,123.370288 109.028572,124.016876 107.936328,124.642855 C110.025501,122.615507 111.797821,120.683472 113.060084,119.235734 C113.29708,119.070867 113.564989,118.918881 113.796833,118.751438 C114.863316,118.055905 115.819029,117.272787 116.728373,116.54119 C117.658326,115.832778 118.441444,115.036779 119.209105,114.37216 C119.945855,113.661171 120.566682,112.952758 121.123108,112.342235 C121.615132,111.675039 122.045332,111.092853 122.400827,110.613708 C122.941796,109.554954 123.248346,108.949583 123.248346,108.949583 C123.248346,108.949583 122.874819,109.511161 122.220503,110.484906 C121.83152,110.922834 121.354952,111.450923 120.811406,112.061446 C120.208611,112.610144 119.525959,113.228395 118.784058,113.903319 C117.763944,114.753414 116.57381,115.647302 115.285787,116.556647 C116.828839,114.557635 123.122119,106.090172 125.667253,98.0967008 C130.461274,96.3887823 135.456228,94.8895235 139.477436,94.3434018 C135.415011,101.072034 126.898603,109.688908 121.854705,114.516418 Z M134.459298,56.9933106 C134.412929,56.1174549 134.335648,55.2750879 134.219726,54.4842417 L133.841047,51.9674448 L131.589583,53.1575781 C127.21288,55.4682913 122.308089,59.4920752 117.624837,63.9383306 C116.942185,64.5874942 116.264685,65.246962 115.592337,65.9115819 C115.339884,66.1588823 115.087432,66.4087588 114.834979,66.6612113 C114.845284,65.9038537 114.84786,65.1490723 114.840131,64.3994429 C114.819523,62.4571042 114.739666,60.5585583 114.579951,58.75275 C114.938021,59.2859915 115.275483,59.8218091 115.610369,60.3576267 C123.140152,52.5728156 134.930714,41.1480515 144.142655,35.7151705 C143.452275,40.7693728 141.736628,46.8900581 139.668063,52.9927111 C137.92408,54.275582 136.177521,55.6228541 134.459298,56.9933106 Z M49.4059866,115.338177 C48.9938192,114.807511 40.6551582,104.052519 38.4371826,95.4974704 C43.4836568,96.9967292 49.4343231,99.7350661 53.8136013,101.916977 C59.6560737,104.833061 64.6793634,108.774412 68.8525579,113.565857 C68.293556,115.7658 67.4924056,119.691695 67.6160559,123.715478 C67.0776622,123.313615 66.5392686,122.9066 65.9725385,122.466096 C64.4835839,121.324908 62.919924,120.070373 61.3665682,118.802959 C58.2547046,116.275858 55.1634494,113.712692 52.8604643,111.770353 C50.5420229,109.840895 49.0711006,108.46271 49.0711006,108.46271 C49.0711006,108.46271 49.3518896,108.885182 49.936652,109.552377 C50.5188384,110.216997 51.3534774,111.170134 52.4302646,112.231465 C54.5606546,114.38504 57.5128034,117.138833 60.6581556,119.676238 C62.2372718,120.935925 63.8241161,122.182731 65.3877761,123.259518 C66.1631659,123.81852 66.9308276,124.326001 67.6753049,124.78969 C67.8350198,126.961296 68.3012841,129.109719 69.2389648,130.995385 C62.3197052,129.014405 53.1876221,119.810193 49.4059866,115.338177 Z M91.0992913,131.562115 C92.2456318,129.550223 92.7299285,127.239509 92.7969057,124.897884 C93.4357651,124.441923 94.0875047,123.967931 94.7469725,123.442418 C96.2488073,122.285773 97.7738266,120.953957 99.2833895,119.614413 C102.292211,116.922445 105.097525,114.014089 107.114569,111.754897 C108.13726,110.639469 108.915226,109.642539 109.463923,108.949583 C110.012621,108.25405 110.272802,107.816122 110.272802,107.816122 C110.272802,107.816122 108.876585,109.266436 106.658609,111.314393 C104.461242,113.37523 101.506517,116.095534 98.5311841,118.779774 C97.0473816,120.129622 95.5481228,121.458862 94.1209933,122.677332 C93.6753374,123.058587 93.2580179,123.408929 92.8303943,123.769575 C92.7634171,120.696353 92.085917,117.7339 91.4650899,115.611238 C96.0195392,109.699212 102.055215,104.799573 109.080093,101.368279 C114.574799,98.6840393 119.373972,96.6747234 123.145304,95.4820141 C121.076739,104.119496 112.624732,114.838424 112.465017,115.039355 C108.719446,119.701999 98.191146,130.776421 91.0992913,131.562115 Z M110.460853,55.1514377 C112.995682,68.4902039 108.546851,93.1609966 108.245454,94.801938 C107.892535,95.9997994 107.446879,97.4037444 106.921366,98.9364918 C102.536936,101.167348 98.5286081,103.944325 94.996849,107.159231 C96.5476287,102.54038 97.907781,98.0322997 98.8969826,94.4902364 C99.4868972,92.3701505 99.9454334,90.5952548 100.223646,89.3407204 C100.522468,88.0913381 100.620357,87.3648931 100.620357,87.3648931 C100.620357,87.3648931 100.496707,88.088762 100.154093,89.3252641 C99.8320873,90.5643423 99.3117261,92.3237817 98.6445301,94.4155311 C97.4234843,98.2615678 95.7052616,103.253945 93.7835313,108.26693 C92.6140064,109.402967 91.5217629,110.603404 90.4733122,111.83733 C90.3754224,111.438043 90.2543483,111.041332 90.1616106,110.639469 C89.0539108,105.925305 87.0342907,98.3774898 84.2727694,92.061025 C84.6514482,91.1259203 85.0120946,90.2629449 85.3237962,89.5622604 C85.4654787,89.3046558 98.9381994,65.3525799 110.460853,55.1514377 Z M79.3885862,52.4800779 C83.41237,58.8789763 86.5963629,68.8663067 88.726753,76.9653953 C85.1383209,82.5708715 82.6472844,86.9630299 82.1655638,87.8234293 C81.7456683,87.0866801 81.3257728,86.3550831 80.8852689,85.7110716 L79.8110577,84.1474116 C79.5328447,81.0072115 79.2469036,77.9030761 79.1077971,75.545994 C78.9274739,73.0935982 79.0588523,71.4552329 79.0588523,71.4552329 C79.0588523,71.4552329 78.8244321,73.08587 78.8450404,75.5537221 C78.8347363,78.0164221 78.932626,81.2983047 79.0099074,84.5776113 C79.0124834,84.6188281 79.0124834,84.6651969 79.0124834,84.7089897 L78.3066468,85.6724309 C77.9408483,86.1721838 77.5853539,86.7286097 77.2375877,87.3056441 C76.4441656,85.904275 74.0973876,81.8444265 70.8747541,76.8237128 C72.8531574,68.719472 75.7589373,58.9021607 79.3885862,52.4800779 Z M74.2931671,89.4128497 C74.5507717,89.9950361 74.844441,90.6828404 75.1458384,91.4195895 C72.3534045,97.8339441 70.5115316,105.850599 69.7026531,109.807406 C68.8860465,108.952159 68.0359514,108.1304 67.1626718,107.336978 C65.3877761,102.643422 63.8035078,98.0245715 62.6571673,94.4155311 C61.9925474,92.3237817 61.4696101,90.5643423 61.1450283,89.3252641 C60.8049902,88.088762 60.683916,87.3648931 60.683916,87.3648931 C60.683916,87.3648931 60.7792297,88.0913381 61.0780511,89.3407204 C61.353688,90.5952548 61.8122242,92.3701505 62.4072908,94.4902364 C63.3346674,97.8184878 64.5892018,101.999411 66.0266355,106.324592 C62.7653612,103.519278 59.1846572,101.069458 55.2226985,99.0936306 C54.3313865,98.6479747 53.3550651,98.1739822 52.3504072,97.6999897 C52.005217,96.6463869 51.6986675,95.6700655 51.446215,94.801938 C51.1448176,93.1584206 46.6934101,68.4902039 49.2282394,55.1514377 C60.7457411,65.3500038 74.2210378,89.2943516 74.2931671,89.4128497 Z M30.9537689,57.7558202 C35.4232088,60.6332636 40.364065,65.1052795 44.9339707,69.72413 C45.4234194,82.1741604 47.7624692,94.750417 47.9144559,95.5567194 L47.9453685,95.6958259 C46.6135527,95.1213677 45.2585525,94.5597896 43.9061283,94.0445804 C42.8344932,91.7209869 41.8504436,89.5390759 41.0029245,87.6096175 C39.9441695,85.1881342 39.0837702,83.1633621 38.5299203,81.7259284 C38.2388271,81.0123636 38.0327434,80.4430575 37.9065171,80.0489224 C37.7751388,79.6599395 37.7030095,79.4512797 37.7030095,79.4512797 C37.7030095,79.4512797 37.7674107,79.6599395 37.8884848,80.0540745 C38.0018308,80.4507856 38.1924582,81.0278199 38.4629431,81.7491128 C38.9730002,83.2071548 39.7741505,85.2602635 40.7633522,87.7100833 C41.5052534,89.5545322 42.3605007,91.6179451 43.2981815,93.8178884 C41.3506907,93.0940195 39.4418406,92.4783445 37.6617928,92.0301124 C35.1784844,84.1474116 30.5879704,68.0419719 30.9537689,57.7558202 Z M124.224667,91.8832778 C121.731055,92.5453217 118.786634,93.5860442 115.412014,95.0054456 C116.542898,92.3624224 117.581044,89.876538 118.454324,87.7100833 C119.443526,85.2602635 120.244676,83.2071548 120.757309,81.7491128 C121.025218,81.0278199 121.215845,80.4507856 121.329191,80.0540745 C121.450266,79.6599395 121.514667,79.4512797 121.514667,79.4512797 C121.514667,79.4512797 121.445113,79.6599395 121.311159,80.0489224 C121.187509,80.4430575 120.981425,81.0123636 120.690332,81.7259284 C120.136482,83.1633621 119.273507,85.1881342 118.214752,87.6096175 C117.217822,89.879114 116.030265,92.5041049 114.731938,95.2913867 C113.670607,95.7473469 112.557755,96.2419477 111.416566,96.7674611 C111.584009,96.2290675 111.694779,95.8555408 111.73342,95.7241624 L111.777213,95.5567194 C111.916319,94.804514 113.982308,83.6991796 114.644352,72.0580277 C119.806748,66.6431789 125.667253,61.1201363 130.888898,57.7558202 C131.252121,67.9801468 126.715704,83.9516321 124.224667,91.8832778 Z M21.4584633,97.1487159 C26.0567055,97.5660353 31.6930941,98.9133074 36.780785,100.371349 C40.1579814,108.632729 46.5903683,116.8735 46.9407105,117.314004 L46.9716231,117.352645 C47.1467942,117.561305 47.4688,117.932255 47.862935,118.380487 C46.9870794,117.878158 46.1550165,117.393862 45.4131152,116.932749 C44.0529629,116.092958 42.8885901,115.430914 42.1312326,114.887369 C41.3455386,114.38504 40.9488275,114.024393 40.9488275,114.024393 C40.9488275,114.024393 41.0415651,114.122283 41.2115842,114.305182 C41.3790272,114.490658 41.6340557,114.768871 41.9998543,115.06254 C42.7082669,115.683367 43.7489895,116.530886 45.062773,117.460839 C46.4847504,118.498985 48.2313096,119.653054 50.1118232,120.832883 C51.9176314,122.728853 54.3391147,125.093663 57.043963,127.334823 C51.0160153,124.447076 45.1117179,120.706657 42.1106242,118.599451 C41.3094739,117.947711 27.3498806,106.46885 21.4584633,97.1487159 Z M72.8789179,130.925831 C69.2389648,126.232275 71.2328245,116.981694 71.933509,114.256237 C72.2452105,113.048072 72.5131193,111.832178 72.7629958,110.603404 C73.67234,106.131388 76.021694,95.8555408 79.5560291,89.5751406 C83.3016001,96.3115009 86.0219046,106.826921 87.0832356,111.358186 C87.5185874,113.218091 87.9487871,114.851304 88.3892909,116.347987 C89.2728747,119.31044 90.9962495,126.652171 87.9333308,130.766116 C86.6143952,132.530708 84.417028,133.496725 81.4829116,133.746602 C81.5370085,133.530214 81.6014097,133.318978 81.6452025,133.087134 C81.9697843,131.495137 82.2273889,129.6172 82.3201265,127.602732 C82.4180163,125.588264 82.4386246,123.439842 82.4077121,121.293995 C82.3304307,119.150725 82.1887482,117.010031 82.0213052,115.005867 C81.8590143,113.001703 81.5756492,111.144374 81.3438051,109.552377 C80.8517803,106.370961 80.2335292,104.310124 80.2335292,104.310124 C80.2335292,104.310124 80.4937099,106.435362 80.7152499,109.624507 C80.8543563,111.219079 80.9239096,113.084137 81.0475598,115.077996 C81.168634,117.06928 81.2510674,119.197094 81.284556,121.324908 C81.3669895,123.450146 81.395326,125.57796 81.3463811,127.566667 C81.3000123,129.555375 81.2484914,131.41528 81.0243754,132.97894 C80.9831586,133.257153 80.9367898,133.525062 80.890421,133.790394 C80.6019038,133.803275 80.3520274,133.854796 80.05063,133.854796 C76.7532911,133.854796 74.4090892,132.896506 72.8789179,130.925831 Z M48.4064807,10.4673435 C54.1278789,15.7765743 60.4598,24.4295129 65.6943255,32.3379741 C65.1456277,34.2803128 64.6381467,36.1788588 64.1718823,37.9898191 C65.9570822,36.5523854 67.6675768,35.2360259 69.2569972,34.0536208 C71.8588036,24.6999977 75.3596502,14.1562414 79.3628257,7.12621177 C82.6034916,12.7857849 85.5788247,21.5160048 88.2553365,33.2138298 C89.736563,34.2983452 91.3543199,35.519391 93.0493582,36.8537828 C92.6835596,35.0943434 92.2894246,33.280807 91.8514968,31.4105976 C96.73568,24.2208531 102.374645,16.7374395 107.490672,11.9820585 C108.206813,20.8642652 106.558143,33.5976606 104.816736,43.7550101 C104.350472,44.4737269 103.90224,45.1744114 103.454008,45.8725199 C104.337592,46.7226151 105.210871,47.5881666 106.071271,48.4743264 C111.748876,39.5277186 119.533687,28.2626693 126.434915,21.8586189 C126.986188,28.6619565 126.146397,37.7270624 124.940808,46.1661892 C121.834096,49.010144 118.863915,51.9004676 116.208012,54.5666752 C116.226044,54.4868178 116.2415,54.4095364 116.256957,54.329679 C116.882936,51.1070454 117.488307,47.8869879 118.0267,45.4886891 C118.534181,43.080086 119.10864,41.5421866 119.10864,41.5421866 C119.10864,41.5421866 118.436292,43.0465974 117.774248,45.4242879 C117.081291,47.7890982 116.269837,50.970515 115.44035,54.1416276 C115.298668,54.6929015 115.151833,55.2390232 115.007574,55.785145 C114.77573,56.0195652 114.543886,56.2565614 114.31977,56.4858295 C114.067318,54.6413806 113.724704,52.9257339 113.255863,51.4135949 L112.498506,48.9818075 L110.455701,50.4990986 C109.976557,50.8545929 109.494836,51.2409998 109.007963,51.6480151 C108.335615,52.2070171 107.655539,52.8098118 106.970311,53.4563994 C101.529702,58.5956112 95.9087693,66.1640344 91.3852325,72.913275 C88.9045001,64.1160778 85.3057639,53.992217 80.7332822,48.0956476 L79.2262953,46.1533089 L77.8223502,48.172929 C73.7212849,54.0875307 70.4625867,63.9898516 68.1750578,72.7123434 C63.5201427,65.7905077 57.716311,58.026305 52.1468995,52.933462 C51.4513671,52.2946026 50.7558347,51.69696 50.0706064,51.1508382 C50.7867472,50.3522639 51.5183443,49.5665699 52.2628216,48.7911801 C50.1891046,38.0825568 47.5074406,21.412963 48.4064807,10.4673435 Z M42.826765,60.6796324 C43.4656244,59.6414859 44.1585808,58.6136435 44.8824498,57.5909532 C44.3852729,57.0783201 43.8649116,56.5476546 43.3342461,56.0066849 C43.1719552,55.3884339 43.0045122,54.7676068 42.8422213,54.1416276 C42.0153105,50.970515 41.20128,47.7890982 40.5108997,45.4242879 C39.8514319,43.0465974 39.1739318,41.5421866 39.1739318,41.5421866 C39.1739318,41.5421866 39.7535421,43.080086 40.2558711,45.4886891 C40.7942647,47.8869879 41.4022116,51.1070454 42.0281908,54.329679 C42.0565273,54.4739376 42.0848638,54.6207722 42.1157763,54.7701829 C39.2254527,51.8592509 35.938418,48.6649538 32.5045486,45.5505142 C31.3453279,37.2917106 30.5596339,28.4996656 31.0980275,21.861195 C36.4510511,26.843268 42.3836851,34.8135544 47.4224311,42.3072722 C47.9093038,45.1847156 48.4039047,47.8586514 48.870169,50.2286137 L47.190587,48.9818075 L46.4358055,51.4135949 C45.9231723,53.0648404 45.5547978,54.9556582 45.3023453,56.9984627 C45.0859574,58.7347177 44.954579,60.5791666 44.8927539,62.4931688 C44.8695695,63.1680929 44.8566893,63.8558972 44.8489612,64.5437014 C44.6042368,64.3118573 44.3620885,64.0774371 44.1173641,63.8430169 C43.44244,63.2041575 42.7649399,62.5781783 42.0822877,61.9599273 C38.0636559,58.3199743 33.9677428,55.1205251 30.2505084,53.1575781 L27.9990442,51.9674448 L27.6229414,54.4842417 C27.3344243,56.3982439 27.2777513,58.5801549 27.3807931,60.9166287 C24.629576,58.5904591 21.7289482,56.2411051 18.810288,54.0334337 C16.5820082,47.5881666 14.7040707,41.0553139 13.9776257,35.7151705 C23.3312488,41.2356371 35.3407753,52.9257339 42.826765,60.6796324 Z M23.0839484,93.6762059 C22.2467334,92.1460345 7.55296692,65.187713 4.37412614,48.8942219 C11.5922071,52.6166084 20.48987,59.6930068 27.8341772,66.086753 C29.4339018,78.8665173 34.3927904,93.8230405 35.5545871,97.2079649 C35.0187696,97.0637064 34.4881041,96.9194478 33.9471344,96.7777653 C30.0444247,90.5669183 26.3812873,84.2272691 23.8413059,79.3456619 C23.176686,78.1168879 22.6331403,76.9576672 22.1359634,75.937553 C21.6181782,74.9277429 21.2678359,74.0003664 20.9303739,73.2584651 C20.5800316,72.5191399 20.4357731,71.8931607 20.2786342,71.4861455 C20.1395278,71.0714021 20.0673985,70.8524381 20.0673985,70.8524381 C20.0673985,70.8524381 20.1343757,71.0739781 20.2606019,71.4912976 C20.4048605,71.9034649 20.5362388,72.5371722 20.8659727,73.2868016 C21.1802504,74.036431 21.5048322,74.9766878 21.9942809,76.0045302 C22.4656973,77.0375246 22.9783305,78.2147777 23.6068857,79.46416 C25.9227511,84.2401493 29.2458504,90.3917472 32.8214023,96.4995523 C29.7533315,95.7318906 26.64662,95.0749988 23.7743287,94.6885919 C23.4162583,94.1682306 23.17411,93.8101602 23.0839484,93.6762059 Z M157.113047,43.07751 L154.346373,44.1877858 C151.368464,45.3804951 148.03506,47.2687369 144.585735,49.5511136 C146.4714,43.3686032 147.852161,37.3767202 148.053093,32.6239152 L148.176743,29.6460061 L145.479623,30.9159967 C140.561951,33.22671 134.750391,37.590532 129.090818,42.4721392 C130.185638,33.5719002 130.718879,24.4166326 129.593147,18.0048541 L129.075362,15.0681616 L126.710551,16.8894262 C121.254486,21.0858051 115.0694,28.857736 109.605606,36.6631554 C111.037888,26.565055 111.944656,15.5215457 110.646329,8.12571763 L110.128543,5.19160121 L107.766309,7.00771365 C102.297363,11.2143968 96.120005,18.9554151 90.6845479,26.7144657 C88.3042814,17.5617742 85.0971041,8.2081511 80.9187575,2.36310269 L79.3061527,0.106486375 L77.7424927,2.39659128 C73.5538419,8.52500476 69.8700961,18.3809568 67.008109,27.8350457 C61.1398762,19.2130197 54.187128,10.1582179 48.1334198,5.50072673 L45.7711856,3.68203825 L45.2508243,6.61615466 C44.0040181,13.7311938 44.8103205,24.2981345 46.1653207,34.1515105 C41.1729435,27.2477072 35.714302,20.6530294 30.8223906,16.8894262 L28.4601564,15.0681616 L27.9423711,18.0048541 C26.8398235,24.2826782 27.3241201,33.1854933 28.3725708,41.905409 C22.9242335,37.255646 17.3677022,33.1391245 12.6406578,30.9159967 L9.94353763,29.6460061 L10.0671878,32.6239152 C10.2784236,37.5982601 11.7828345,43.9353333 13.8076067,50.4243932 C9.90489694,47.7530335 6.11038115,45.5273297 2.76667342,44.1800577 L3.55271368e-15,43.0672058 L0.296245292,46.0348108 C1.80580826,61.1742333 16.0745271,88.3025739 19.3254972,94.3227934 C19.2404877,94.3202174 19.14775,94.3099132 19.0627405,94.3099132 L16.8267326,94.2841527 L17.8416947,96.2780123 C23.0891005,106.595077 39.7329338,120.157959 40.4387704,120.729841 L40.5134757,120.786514 C40.6525822,120.88698 41.3481146,121.368701 42.4068695,122.071961 C47.0746649,126.17045 51.894447,129.313226 56.2376606,130.06028 C56.3252462,130.078312 56.4076796,130.070584 56.4978412,130.08604 C60.3155414,131.866088 64.2749242,133.326706 67.7448582,133.829035 C69.1230428,134.284995 70.478043,134.55548 71.7815223,134.55548 C71.8665318,134.55548 71.9541173,134.537448 72.0391269,134.534872 C74.0767793,136.175813 76.7558671,137.013028 80.05063,137.013028 C83.5643567,137.013028 86.3928553,136.20415 88.5000609,134.617305 C89.0951275,134.740955 89.6953463,134.828541 90.3161734,134.828541 C92.6268866,134.828541 95.1024669,133.960413 97.5600148,132.63375 C102.516327,130.809909 107.884807,127.922162 112.696861,124.977741 C116.633059,122.571714 120.347718,119.709727 123.72749,116.471637 C130.729183,109.766189 139.771105,100.314676 143.089052,93.3593522 L144.044765,91.3577644 L141.82679,91.4247416 C140.984422,91.4505021 140.075078,91.5458158 139.132245,91.6746181 C143.913387,82.5940559 155.448921,59.5539003 156.814225,46.045115 L157.113047,43.07751 Z M79.0588523,19.7952061 C79.0588523,19.7952061 78.8244321,21.4284193 78.8450404,23.8936953 C78.8398884,24.93957 78.8553446,26.1477356 78.8811051,27.4228783 L79.321609,27.1498175 L79.3499455,27.1652737 C79.2520557,25.9880207 79.1644702,24.8622886 79.1077971,23.8859672 C78.9274739,21.4335714 79.0588523,19.7952061 79.0588523,19.7952061 M100.324112,29.8701221 C100.831593,27.461519 101.406051,25.9210435 101.406051,25.9210435 C101.406051,25.9210435 100.733703,27.4254544 100.07166,29.8031449 C99.3787032,32.1679551 98.5672488,35.3493719 97.7377619,38.5230606 C97.5831992,39.1155512 97.4260604,39.7080418 97.2714976,40.2953803 C97.5445585,40.5272244 97.8253475,40.7719488 98.1009844,41.0115211 C98.2555472,40.2515875 98.4049579,39.4787737 98.5543685,38.7085359 C99.1803477,35.4859024 99.7857185,32.2658449 100.324112,29.8701221 M58.7596096,38.5230606 C57.9326989,35.3493719 57.1212444,32.1679551 56.428288,29.8031449 C55.7688202,27.4254544 55.0938962,25.9210435 55.0938962,25.9210435 C55.0938962,25.9210435 55.6709305,27.461519 56.1758355,29.8701221 C56.7142291,32.2658449 57.322176,35.4859024 57.9455791,38.7085359 C58.2031837,40.0274715 58.4633644,41.3361029 58.7286971,42.5983654 C59.0326705,42.3278806 59.3340679,42.0573958 59.6354653,41.792063 C59.3443721,40.7230039 59.0507028,39.6307604 58.7596096,38.5230606" id="cone"></path>
        </g>
    </g>
</svg>