<svg width="376" height="328" viewBox="0 0 376 328" xmlns="http://www.w3.org/2000/svg"><title>logo</title><desc>Created with Sketch.</desc><g fill="none"><path d="M307.604 225.277c.996-1.813 2.004-3.614 2.993-5.44 6.62-12.367 12.576-25.066 16.578-34.784 2.041-4.844 3.51-8.974 4.383-11.912.51-1.451.682-2.649.861-3.454l.252-1.229-.301 1.223c-.203.793-.412 1.985-.977 3.405-.971 2.901-2.588 6.964-4.782 11.722-4.34 9.54-10.726 21.987-17.758 34.059-1.475 2.514-2.969 5.003-4.469 7.468l-.566.184c5.028-15.447 15.816-51.276 17.438-78.82 14.586-11.998 30.34-23.659 43.679-30.512-6.897 35.116-36.26 91.015-43.328 104.126-4.524 1.088-9.257 2.453-14.002 3.965zm-16.344 48.473c-7.733 7.401-16.221 13.947-25.22 19.454-2.735 1.672-5.385 3.215-7.991 4.708 4.985-4.837 9.214-9.448 12.226-12.902.566-.393 1.205-.756 1.758-1.156 2.545-1.66 4.825-3.528 6.995-5.274 2.219-1.69 4.088-3.59 5.919-5.176 1.758-1.697 3.239-3.387 4.567-4.844 1.174-1.592 2.201-2.981 3.049-4.124 1.291-2.526 2.022-3.971 2.022-3.971s-.891 1.34-2.453 3.663l-3.362 3.762-4.837 4.395c-2.434 2.028-5.274 4.161-8.347 6.331 3.682-4.77 18.698-24.974 24.771-44.048 11.439-4.075 23.358-7.653 32.953-8.956-9.693 16.055-30.015 36.616-42.05 48.135zm30.076-137.257c-.111-2.09-.295-4.1-.572-5.987l-.904-6.005-5.372 2.84c-10.443 5.514-22.147 15.115-33.322 25.724-1.629 1.549-3.245 3.123-4.85 4.708-.602.59-1.205 1.186-1.807 1.789.025-1.807.031-3.608.012-5.397-.049-4.635-.24-9.165-.621-13.474.854 1.272 1.66 2.551 2.459 3.829 17.967-18.575 46.101-45.836 68.081-58.8-1.647 12.06-5.741 26.665-10.677 41.226-4.161 3.061-8.329 6.276-12.429 9.546zm-202.947 139.218c-.983-1.266-20.881-26.929-26.173-47.342 12.041 3.577 26.241 10.111 36.69 15.318 13.941 6.958 25.927 16.363 35.885 27.796-1.334 5.249-3.245 14.617-2.95 24.218-1.285-.959-2.569-1.93-3.922-2.981-3.553-2.723-7.284-5.716-10.99-8.741-7.425-6.03-14.801-12.146-20.297-16.781-5.532-4.604-9.042-7.892-9.042-7.892s.67 1.008 2.065 2.6c1.389 1.586 3.381 3.86 5.95 6.393 5.083 5.139 12.128 11.71 19.633 17.764 3.768 3.006 7.554 5.981 11.285 8.55 1.85 1.334 3.682 2.545 5.458 3.651.381 5.182 1.494 10.308 3.731 14.808-16.51-4.727-38.3-26.689-47.324-37.36zm99.485 38.712c2.735-4.801 3.891-10.314 4.051-15.902 1.524-1.088 3.08-2.219 4.653-3.473 3.584-2.76 7.222-5.938 10.824-9.134 7.179-6.423 13.873-13.363 18.686-18.754 2.44-2.662 4.297-5.04 5.606-6.694 1.309-1.66 1.93-2.705 1.93-2.705s-3.332 3.461-8.624 8.347c-5.243 4.917-12.294 11.408-19.393 17.813-3.541 3.221-7.118 6.393-10.523 9.3-1.063.91-2.059 1.746-3.08 2.606-.16-7.333-1.776-14.402-3.258-19.467 10.867-14.107 25.269-25.798 42.032-33.985 13.111-6.405 24.562-11.199 33.561-14.045-4.936 20.61-25.103 46.187-25.484 46.666-8.937 11.126-34.059 37.551-50.981 39.425zm46.199-182.325c6.048 31.828-4.567 90.695-5.286 94.611-.842 2.858-1.905 6.208-3.159 9.866-10.462 5.323-20.026 11.949-28.453 19.62 3.7-11.021 6.946-21.778 9.306-30.23 1.408-5.059 2.502-9.294 3.166-12.287.713-2.981.947-4.715.947-4.715s-.295 1.727-1.113 4.678c-.768 2.957-2.01 7.155-3.602 12.146-2.914 9.177-7.013 21.09-11.599 33.051-2.791 2.711-5.397 5.575-7.899 8.519-.234-.953-.522-1.899-.744-2.858-2.643-11.249-7.462-29.259-14.051-44.33.904-2.231 1.764-4.29 2.508-5.962.338-.615 32.486-57.767 59.98-82.108zm-74.142-6.374c9.601 15.269 17.199 39.1 22.282 58.425-8.562 13.375-14.506 23.856-15.656 25.909-1.002-1.758-2.004-3.504-3.055-5.04l-2.563-3.731c-.664-7.493-1.346-14.9-1.678-20.524-.43-5.852-.117-9.761-.117-9.761s-.559 3.891-.51 9.779c-.025 5.876.209 13.707.393 21.532l.006.313-1.684 2.299c-.873 1.192-1.721 2.52-2.551 3.897-1.893-3.344-7.493-13.031-15.182-25.011 4.721-19.338 11.654-42.763 20.315-58.087zm-12.158 88.126c.615 1.389 1.315 3.03 2.035 4.788-6.663 15.305-11.058 34.434-12.988 43.876-1.949-2.041-3.977-4.002-6.061-5.895-4.235-11.199-8.015-22.221-10.751-30.832-1.586-4.991-2.834-9.189-3.608-12.146-.811-2.95-1.1-4.678-1.1-4.678s.227 1.733.94 4.715c.658 2.993 1.752 7.229 3.172 12.287 2.213 7.942 5.206 17.918 8.636 28.238-7.782-6.694-16.326-12.539-25.779-17.254-2.127-1.063-4.456-2.194-6.854-3.325-.824-2.514-1.555-4.844-2.158-6.915-.719-3.922-11.341-62.783-5.292-94.611 27.482 24.335 59.636 81.469 59.808 81.752zm-103.413-75.537c10.665 6.866 22.454 17.537 33.358 28.558 1.168 29.707 6.749 59.716 7.112 61.64l.074.332c-3.178-1.371-6.411-2.711-9.638-3.94-2.557-5.544-4.905-10.751-6.927-15.355-2.526-5.778-4.579-10.609-5.901-14.039-.695-1.703-1.186-3.061-1.488-4.002l-.486-1.426.443 1.438c.27.947.725 2.323 1.371 4.045 1.217 3.479 3.129 8.378 5.489 14.224 1.77 4.401 3.811 9.325 6.048 14.574-4.647-1.727-9.202-3.196-13.449-4.266-5.925-18.809-16.879-57.239-16.006-81.783zm222.556 81.432c-5.95 1.58-12.976 4.063-21.028 7.45 2.698-6.307 5.176-12.238 7.259-17.408 2.36-5.846 4.272-10.745 5.495-14.224.639-1.721 1.094-3.098 1.365-4.045l.443-1.438s-.166.498-.486 1.426c-.295.94-.787 2.299-1.481 4.002-1.322 3.43-3.381 8.261-5.907 14.039-2.379 5.415-5.212 11.679-8.31 18.33-2.532 1.088-5.188 2.268-7.911 3.522.4-1.285.664-2.176.756-2.489l.104-.4c.332-1.795 5.262-28.294 6.841-56.071 12.318-12.92 26.302-26.099 38.761-34.127.867 24.396-9.958 62.506-15.902 81.432zm-245.213 12.564c10.972.996 24.421 4.211 36.561 7.69 8.058 19.713 23.407 39.376 24.243 40.427l.074.092c.418.498 1.186 1.383 2.127 2.453-2.09-1.199-4.075-2.354-5.846-3.454-3.245-2.004-6.024-3.584-7.831-4.881-1.875-1.199-2.821-2.059-2.821-2.059l.627.67c.4.443 1.008 1.106 1.881 1.807 1.69 1.481 4.174 3.504 7.308 5.723 3.393 2.477 7.561 5.231 12.048 8.046 4.309 4.524 10.087 10.167 16.541 15.514-14.383-6.891-28.472-15.816-35.633-20.844-1.912-1.555-35.221-28.945-49.279-51.184zm122.695 80.596c-8.685-11.199-3.928-33.272-2.256-39.776.744-2.883 1.383-5.784 1.979-8.716 2.17-10.671 7.776-35.19 16.209-50.176 8.937 16.074 15.428 41.165 17.961 51.977 1.039 4.438 2.065 8.335 3.116 11.906 2.108 7.069 6.221 24.587-1.088 34.403-3.147 4.211-8.39 6.516-15.391 7.112.129-.516.283-1.02.387-1.574.774-3.799 1.389-8.28 1.61-13.086.234-4.807.283-9.933.209-15.053-.184-5.114-.522-10.222-.922-15.004-.387-4.782-1.063-9.214-1.617-13.013-1.174-7.591-2.649-12.509-2.649-12.509s.621 5.071 1.149 12.681c.332 3.805.498 8.255.793 13.013.289 4.751.486 9.829.566 14.906.197 5.071.264 10.148.148 14.894-.111 4.745-.234 9.183-.768 12.914-.098.664-.209 1.303-.32 1.936-.688.031-1.285.154-2.004.154-7.868 0-13.461-2.287-17.113-6.989zm-58.394-287.428c13.652 12.668 28.761 33.315 41.251 52.186-1.309 4.635-2.52 9.165-3.633 13.486 4.26-3.43 8.341-6.571 12.134-9.392 6.208-22.319 14.562-47.478 24.114-64.252 7.733 13.504 14.832 34.336 21.219 62.248 3.534 2.588 7.395 5.501 11.439 8.685-.873-4.198-1.813-8.526-2.858-12.988 11.654-17.156 25.109-35.012 37.317-46.359 1.709 21.194-2.225 51.577-6.38 75.814-1.113 1.715-2.182 3.387-3.252 5.053 2.108 2.028 4.192 4.094 6.245 6.208 13.547-21.348 32.123-48.227 48.59-63.508 1.315 16.234-.688 37.864-3.565 58.001-7.413 6.786-14.5 13.683-20.838 20.045l.117-.566c1.494-7.69 2.938-15.373 4.223-21.096 1.211-5.747 2.582-9.417 2.582-9.417s-1.604 3.59-3.184 9.263c-1.653 5.643-3.59 13.234-5.569 20.801-.338 1.315-.688 2.619-1.033 3.922-.553.559-1.106 1.125-1.641 1.672-.602-4.401-1.42-8.495-2.539-12.103l-1.807-5.803-4.874 3.62c-1.143.848-2.293 1.77-3.454 2.741-1.604 1.334-3.227 2.772-4.862 4.315-12.982 12.263-26.394 30.322-37.188 46.426-5.919-20.991-14.506-45.148-25.417-59.218l-3.596-4.635-3.35 4.819c-9.786 14.113-17.561 37.741-23.02 58.554-11.107-16.516-24.956-35.043-38.245-47.195-1.66-1.524-3.319-2.95-4.954-4.254 1.709-1.905 3.454-3.78 5.231-5.63-4.948-25.552-11.347-65.328-9.202-91.445zm-13.314 119.813c1.524-2.477 3.178-4.93 4.905-7.37-1.186-1.223-2.428-2.489-3.694-3.78-.387-1.475-.787-2.957-1.174-4.45-1.973-7.567-3.915-15.158-5.563-20.801-1.574-5.673-3.19-9.263-3.19-9.263s1.383 3.67 2.582 9.417c1.285 5.723 2.735 13.406 4.229 21.096l.209 1.051c-6.897-6.946-14.74-14.568-22.934-21.999-2.766-19.706-4.641-40.685-3.356-56.526 12.773 11.888 26.929 30.906 38.952 48.787 1.162 6.866 2.342 13.246 3.454 18.901l-4.008-2.975-1.801 5.803c-1.223 3.94-2.102 8.452-2.705 13.326-.516 4.143-.83 8.544-.977 13.111-.055 1.61-.086 3.252-.104 4.893-.584-.553-1.162-1.113-1.746-1.672-1.61-1.524-3.227-3.018-4.856-4.493-9.589-8.685-19.362-16.32-28.232-21.003l-5.372-2.84-.897 6.005c-.688 4.567-.824 9.773-.578 15.348-6.565-5.551-13.486-11.156-20.45-16.424-5.317-15.379-9.798-30.967-11.531-43.71 22.319 13.172 50.975 41.066 68.838 59.568zm-47.109 78.734c-1.998-3.651-37.059-67.977-44.644-106.855 17.223 8.882 38.454 25.767 55.979 41.023 3.817 30.494 15.65 66.182 18.422 74.259-1.279-.344-2.545-.688-3.836-1.027-9.312-14.82-18.053-29.947-24.114-41.595-1.586-2.932-2.883-5.698-4.069-8.132-1.235-2.41-2.071-4.622-2.877-6.393-.836-1.764-1.18-3.258-1.555-4.229l-.504-1.512.461 1.524c.344.983.658 2.496 1.444 4.284.75 1.789 1.524 4.032 2.692 6.485 1.125 2.465 2.348 5.274 3.848 8.255 5.526 11.396 13.455 26.075 21.987 40.648-7.321-1.832-14.734-3.399-21.587-4.321-.854-1.242-1.432-2.096-1.647-2.416zm319.81-120.735l-6.602 2.649c-7.106 2.846-15.06 7.352-23.29 12.798 4.499-14.752 7.794-29.05 8.274-40.39l.295-7.106-6.436 3.03c-11.734 5.514-25.601 15.926-39.106 27.574 2.612-21.237 3.885-43.083 1.199-58.382l-1.235-7.007-5.643 4.346c-13.019 10.013-27.777 28.558-40.814 47.182 3.418-24.095 5.581-50.446 2.483-68.094l-1.235-7.001-5.637 4.333c-13.05 10.038-27.789 28.509-40.759 47.023-5.68-21.839-13.332-44.158-23.302-58.105l-3.848-5.385-3.731 5.464c-9.995 14.623-18.784 38.141-25.614 60.699-14.002-20.573-30.592-42.179-45.037-53.292l-5.637-4.34-1.242 7.001c-2.975 16.977-1.051 42.191 2.182 65.703-11.912-16.473-24.937-32.209-36.61-41.189l-5.637-4.346-1.235 7.007c-2.631 14.98-1.475 36.223 1.027 57.03-13-11.095-26.259-20.917-37.538-26.222l-6.436-3.03.295 7.106c.504 11.869 4.094 26.99 8.925 42.474-9.312-6.374-18.367-11.685-26.345-14.9l-6.602-2.655.707 7.081c3.602 36.124 37.649 100.856 45.406 115.221l-.627-.031-5.335-.061 2.422 4.758c12.521 24.618 52.235 56.98 53.919 58.345l.178.135c.332.24 1.992 1.389 4.518 3.067 11.138 9.779 22.639 17.279 33.002 19.061l.621.061c9.109 4.247 18.557 7.733 26.837 8.931 3.289 1.088 6.522 1.733 9.632 1.733l.615-.049c4.862 3.915 11.255 5.913 19.116 5.913 8.384 0 15.133-1.93 20.161-5.716 1.42.295 2.852.504 4.333.504 5.514 0 11.421-2.071 17.285-5.237 11.826-4.352 24.636-11.242 36.118-18.268 9.392-5.741 18.256-12.57 26.32-20.297 16.707-16 38.282-38.552 46.199-55.149l2.28-4.776-5.292.16c-2.01.061-4.18.289-6.43.596 11.408-21.667 38.934-76.644 42.191-108.877l.713-7.081zm-186.247-55.554s-.559 3.897-.51 9.779c-.012 2.496.025 5.378.086 8.421l1.051-.652.068.037c-.234-2.809-.443-5.495-.578-7.825-.43-5.852-.117-9.761-.117-9.761m50.741 24.04c1.211-5.747 2.582-9.423 2.582-9.423s-1.604 3.59-3.184 9.263c-1.653 5.643-3.59 13.234-5.569 20.807-.369 1.414-.744 2.828-1.113 4.229.652.553 1.322 1.137 1.979 1.709.369-1.813.725-3.657 1.082-5.495 1.494-7.69 2.938-15.373 4.223-21.09m-99.178 20.647c-1.973-7.573-3.909-15.164-5.563-20.807-1.574-5.673-3.184-9.263-3.184-9.263s1.377 3.676 2.582 9.423c1.285 5.716 2.735 13.4 4.223 21.09.615 3.147 1.235 6.27 1.869 9.282.725-.645 1.444-1.291 2.164-1.924-.695-2.551-1.395-5.157-2.09-7.8" fill="#D06368"/><path d="M140.634 102.145c.725-.645 1.444-1.291 2.164-1.924 3.67-3.202 7.296-6.227 10.824-9.073 4.26-3.43 8.341-6.571 12.134-9.392 12.103-8.999 21.139-14.685 22.319-15.416l.645-.406 1.051-.652.068.037 1.629 1.02c1.094.676 8.894 5.575 19.62 13.412 3.534 2.588 7.395 5.501 11.439 8.685 3.264 2.569 6.632 5.305 10.075 8.212.652.553 1.322 1.137 1.979 1.709 4.247 3.651 8.544 7.524 12.773 11.599 2.108 2.028 4.192 4.094 6.245 6.208 2.391 2.477 4.733 4.997 7.007 7.573-1.604 1.334-3.227 2.772-4.862 4.315-19.952-22.442-45.965-41.54-59.175-50.606 1.014.922 2.09 1.912 3.227 3.036 5.753 5.544 13 13.357 19.633 21.716 6.602 8.372 12.595 17.303 16.098 24.642.897 1.813 1.524 3.596 2.139 5.12.529 1.617.873 3.086 1.186 4.211.252 1.143.111 2.078.178 2.698l.018.959s-.381-1.309-1.223-3.479c-.559-1.014-1.162-2.213-1.955-3.534-.897-1.322-1.899-2.809-2.993-4.432-2.311-3.184-5.046-6.854-8.077-10.738-3.055-3.86-6.319-7.985-9.577-12.115-6.528-8.274-13.037-16.596-17.746-23.02-2.385-3.19-4.229-5.981-5.6-7.862l-.467-.676-.068-.043.012.055c.676 3.928 1.125 9.159 1.143 14.39-.012 5.231-.455 10.468-1.137 14.396-.639 3.915-1.543 6.534-1.543 6.534s-.904-2.619-1.543-6.534c-.676-3.928-1.125-9.165-1.143-14.396.018-5.231.473-10.462 1.156-14.39l.025-.129-.031.018-.535.774c-1.389 1.875-3.245 4.665-5.643 7.856-4.745 6.417-11.292 14.746-17.85 23.02l-9.644 12.115c-3.043 3.885-5.796 7.554-8.114 10.738-1.106 1.623-2.121 3.11-3.018 4.432-.818 1.352-1.426 2.588-1.985 3.602-.818 2.071-1.217 3.418-1.217 3.418l.018-.953c.068-.609-.074-1.617.197-2.784.559-2.311 1.537-5.624 3.344-9.275 3.534-7.345 9.57-16.277 16.215-24.636 6.682-8.353 13.965-16.16 19.75-21.704 1.217-1.199 2.373-2.25 3.442-3.215-12.871 8.821-38.38 27.494-58.314 49.543-1.66-1.524-3.319-2.95-4.954-4.254 1.709-1.905 3.454-3.78 5.231-5.63 5.01-5.194 10.222-10.142 15.428-14.777zm133.876 57.417c.025-1.807.031-3.608.012-5.397.639 1.199 1.223 2.397 1.795 3.608-.602.59-1.205 1.186-1.807 1.789zm-168.741-6.725c.596-1.076 1.199-2.158 1.85-3.221-.055 1.61-.086 3.252-.104 4.893-.584-.553-1.162-1.113-1.746-1.672zm0 0c-1.61-1.524-3.227-3.018-4.856-4.493.578-1.014 1.156-2.035 1.776-3.055 1.524-2.477 3.178-4.93 4.905-7.37.338-.467.652-.947 1.002-1.414-.516 4.143-.83 8.544-.977 13.111-.652 1.063-1.254 2.145-1.85 3.221zm168.132-12.146c.854 1.272 1.66 2.551 2.459 3.829 1.764 2.821 3.368 5.673 4.807 8.544-1.629 1.549-3.245 3.123-4.85 4.708-.572-1.211-1.156-2.41-1.795-3.608-.049-4.635-.24-9.165-.621-13.474z" fill="#86AD98"/></g></svg>