<svg xmlns="http://www.w3.org/2000/svg" style="position: absolute; width: 0; height: 0; overflow: hidden;"><symbol id="add" viewBox="0 0 32 32"><title>add</title><path d="M15.998 2.536C8.249 2.536 1.97 8.814 1.97 16.562c0 7.75 6.279 14.031 14.028 14.031s14.033-6.281 14.033-14.031C30.03 8.814 23.747 2.536 15.998 2.536zm6.292 15.672h-4.653v4.641a1.641 1.641 0 0 1-3.28 0v-4.641H9.714a1.64 1.64 0 0 1-1.64-1.642c0-.909.73-1.641 1.64-1.641h4.644v-4.649c0-.907.734-1.64 1.64-1.64.91 0 1.64.733 1.64 1.64v4.649h4.653c.905 0 1.64.732 1.64 1.641a1.643 1.643 0 0 1-1.64 1.642z"/></symbol><symbol id="arrow-down" viewBox="0 0 24 24"><title>arrow-down</title><path d="M18.7 13.3c-.4-.4-1-.4-1.4 0L13 17.6V4c0-.6-.4-1-1-1s-1 .4-1 1v13.6l-4.3-4.3c-.4-.4-1-.4-1.4 0s-.4 1 0 1.4l6 6c.1.1.2.2.3.2.1.1.3.1.4.1s.3 0 .4-.1c.1-.1.2-.1.3-.2l6-6c.4-.4.4-1 0-1.4z"/></symbol><symbol id="arrow-left-full" viewBox="0 0 32 32"><title>arrow-left-full</title><path d="M26.921 13.15H15.916V7.845c0-.113 0-.226-.056-.282v-.056a.428.428 0 0 0-.113-.226s0-.056-.056-.056c-.056-.056-.113-.169-.169-.226-.113-.056-.169-.169-.282-.226-.395-.226-.903-.169-1.298.113L2.711 15.069c-.339.226-.508.621-.508 1.016s.169.734.508.959l11.231 8.183c.226.169.508.226.79.226.056 0 .169 0 .226-.056.113 0 .169-.056.282-.113.395-.226.677-.621.677-1.072v-5.305h11.005a2.83 2.83 0 0 0 2.822-2.822c0-1.637-1.242-2.935-2.822-2.935z"/></symbol><symbol id="arrow-left-full2" viewBox="0 0 32 32"><title>arrow-left-full2</title><path d="M15.987.26C7.307.26.244 7.323.244 16.003s7.063 15.743 15.743 15.743S31.73 24.683 31.73 16.003C31.73 7.322 24.667.26 15.987.26zm0 30.151c-7.945 0-14.409-6.464-14.409-14.409S8.042 1.594 15.987 1.594s14.409 6.464 14.409 14.409-6.464 14.408-14.409 14.408z"/><path d="M23.712 15.336H10.013l5.188-5.188a.668.668 0 0 0-.943-.943L7.933 15.53a.66.66 0 0 0 0 .943l6.325 6.327a.667.667 0 1 0 .944-.943l-5.189-5.189h13.699a.667.667 0 0 0 0-1.334z"/></symbol><symbol id="arrow-left" viewBox="0 0 24 24"><title>arrow-left</title><path d="M20 11H6.4l4.3-4.3c.4-.4.4-1 0-1.4s-1-.4-1.4 0l-6 6c-.1.1-.2.2-.2.3-.1.2-.1.5 0 .8.1.1.1.2.2.3l6 6c.2.2.4.3.7.3s.5-.1.7-.3c.4-.4.4-1 0-1.4L6.4 13H20c.6 0 1-.4 1-1s-.4-1-1-1z"/></symbol><symbol id="arrow-right-circle" viewBox="0 0 32 32"><title>arrow-right-circle</title><path d="M15.995.26C7.315.26.252 7.323.252 16.003s7.063 15.743 15.743 15.743 15.743-7.063 15.743-15.743C31.738 7.322 24.675.26 15.995.26zm0 30.151c-7.945 0-14.409-6.464-14.409-14.409S8.05 1.594 15.995 1.594s14.409 6.464 14.409 14.409-6.464 14.408-14.409 14.408z"/><path d="M24.193 15.745a.66.66 0 0 0-.144-.216l-6.327-6.325a.668.668 0 0 0-.943.943l5.189 5.188H8.267a.667.667 0 0 0 0 1.334h13.7l-5.189 5.189a.668.668 0 0 0 .944.943l6.327-6.327a.677.677 0 0 0 .196-.472.68.68 0 0 0-.052-.256z"/></symbol><symbol id="arrow-right-full" viewBox="0 0 32 32"><title>arrow-right-full</title><path d="M5.079 18.85h11.005v5.305c0 .113 0 .226.056.282v.056c0 .056.056.169.113.226 0 0 0 .056.056.056.056.056.113.169.169.226.056.056.169.169.282.226.395.226.903.169 1.298-.113l11.231-8.183c.339-.226.508-.621.508-1.016s-.169-.734-.508-.959L18.058 6.773c-.226-.169-.508-.226-.79-.226-.056 0-.169 0-.226.056-.113 0-.169.056-.282.113-.395.226-.677.621-.677 1.072v5.305H5.078a2.83 2.83 0 0 0-2.822 2.822c0 1.637 1.242 2.935 2.822 2.935z"/></symbol><symbol id="arrow-right" viewBox="0 0 24 24"><title>arrow-right</title><path d="M20.9 12.4c.1-.2.1-.5 0-.8-.1-.1-.1-.2-.2-.3l-6-6c-.4-.4-1-.4-1.4 0s-.4 1 0 1.4l4.3 4.3H4c-.6 0-1 .4-1 1s.4 1 1 1h13.6l-4.3 4.3c-.4.4-.4 1 0 1.4.2.2.5.3.7.3s.5-.1.7-.3l6-6c.1-.1.2-.2.2-.3z"/></symbol><symbol id="arrow-up" viewBox="0 0 24 24"><title>arrow-up</title><path d="M18.7 9.3l-6-6c-.1-.1-.2-.2-.3-.2-.2-.1-.5-.1-.8 0-.1.1-.2.1-.3.2l-6 6c-.4.4-.4 1 0 1.4s1 .4 1.4 0L11 6.4V20c0 .6.4 1 1 1s1-.4 1-1V6.4l4.3 4.3c.2.2.5.3.7.3s.5-.1.7-.3c.4-.4.4-1 0-1.4z"/></symbol><symbol id="baby" viewBox="0 0 22 32"><title>baby</title><path d="M18.981 3.282C16.97 1.285 14.107.139 11.131.139c-2.975 0-5.837 1.146-7.849 3.143C1.271 5.275.266 7.969.522 10.671l1.262 13.204c.424 4.447 4.445 7.8 9.347 7.8s8.923-3.353 9.347-7.801l.736-7.697.014-.147.512-5.359c.256-2.7-.751-5.394-2.76-7.389zm.059 20.48l-.114.569-9.854-3.066 10.603-4.151-.635 6.648zM4.346 4.169c1.74-1.725 4.212-2.716 6.785-2.716 2.574 0 5.047.991 6.785 2.716s2.609 4.054 2.385 6.387l-.485 5.072L7.037 20.63l-4.24-1.319-.837-8.757c-.221-2.334.65-4.661 2.386-6.386zm6.784 26.192c-4.149 0-7.549-2.837-7.908-6.599l-.289-3.017 15.628 4.862c-1.11 2.8-4 4.754-7.432 4.754zm.061-13.14c4.527 0 7.94-3.035 7.94-7.06 0-4.077-3.563-7.394-7.94-7.394s-7.94 3.317-7.94 7.394c0 4.025 3.413 7.06 7.94 7.06zm0-13.14c3.582 0 6.496 2.727 6.496 6.08 0 3.276-2.793 5.746-6.496 5.746s-6.496-2.47-6.496-5.746c0-3.353 2.915-6.08 6.496-6.08zM9.68 12.639c0 .728.637 1.297 1.451 1.297s1.451-.57 1.451-1.297c0-.735-.651-1.331-1.451-1.331s-1.451.597-1.451 1.331zM7.521 8.712c0-.381.325-.69.722-.69s.722.309.722.69c0 .363.323.657.722.657s.722-.294.722-.657c0-1.104-.972-2.004-2.165-2.004s-2.165.9-2.165 2.004c0 .363.323.657.722.657s.722-.293.722-.657zm5.053.657c.398 0 .722-.294.722-.657 0-.381.325-.69.722-.69s.722.309.722.69c0 .363.323.657.722.657s.722-.294.722-.657c0-1.104-.972-2.004-2.165-2.004s-2.165.9-2.165 2.004c0 .364.323.657.722.657z"/></symbol><symbol id="birthhood" viewBox="0 0 211 32"><title>birthhood</title><path d="M.093 30.667V1.403C.093.82.587.326 1.17.326c.628 0 1.122.494 1.122 1.077V14.06c1.93-2.603 4.982-4.309 8.438-4.309 5.925 0 10.637 4.937 10.637 11.041 0 6.014-4.713 10.951-10.637 10.951-3.456 0-6.508-1.661-8.438-4.264v3.187c0 .583-.494 1.077-1.122 1.077a1.092 1.092 0 0 1-1.077-1.077zm2.199-10.233v.359c0 4.847 3.815 8.752 8.438 8.752 4.668 0 8.438-3.905 8.438-8.752 0-4.892-3.77-8.842-8.438-8.842-4.533 0-8.258 3.77-8.438 8.483zm27.469 10.233V10.829c0-.628.494-1.077 1.077-1.077.628 0 1.122.449 1.122 1.077v19.838c0 .583-.494 1.077-1.122 1.077a1.092 1.092 0 0 1-1.077-1.077zm0-25.987V3.648c0-.583.494-1.077 1.077-1.077.628 0 1.122.494 1.122 1.077V4.68c0 .628-.494 1.167-1.122 1.167-.583 0-1.077-.539-1.077-1.167zm12.567 25.987V10.874c0-.628.494-1.077 1.122-1.077.539 0 1.032.449 1.032 1.077v4.847c.09-.18.18-.359.314-.539 1.661-2.603 4.578-5.386 8.797-5.386.583 0 1.077.449 1.077 1.077 0 .583-.494 1.077-1.077 1.077-2.873 0-4.847 1.616-6.373 3.591-1.481 1.975-2.334 4.219-2.648 5.117-.09.18-.09.269-.09.359v9.65c0 .628-.494 1.077-1.032 1.077-.628 0-1.122-.449-1.122-1.077zM68.63 9.752c.539 0 1.077.539 1.077 1.077s-.539 1.077-1.077 1.077h-2.828v16.023c0 1.077 1.077 1.616 1.616 1.616s1.122.583 1.122 1.122c0 .539-.583 1.077-1.122 1.077-2.199 0-3.86-1.616-3.86-3.815V11.906H60.82c-1.077 0-1.077-.539-1.077-1.077s0-1.077 1.077-1.077h2.738V1.583c0-.539.539-1.077 1.077-1.077.583 0 1.167.539 1.167 1.077v8.169h2.828zm27.513 20.915V18.414c0-3.86-3.142-6.463-7.002-6.463-3.815 0-6.957 2.603-6.957 6.463v12.388c0 .09-.045.135-.045.18-.045.09-.045.135-.09.18a1.032 1.032 0 0 1-.673.539s-.045.045-.09.045h-.224a1.23 1.23 0 0 1-.853-.359c-.09-.135-.135-.224-.18-.359s-.045-.224-.045-.359V1.405c0-.583.494-1.077 1.077-1.077.628 0 1.122.494 1.122 1.077v11.58a9.086 9.086 0 0 1 6.957-3.232c5.072 0 9.201 3.591 9.201 8.662v12.253c0 .583-.494 1.077-1.122 1.077a1.092 1.092 0 0 1-1.077-1.077zm27.513 0V18.414c0-3.86-3.142-6.463-7.002-6.463-3.815 0-6.957 2.603-6.957 6.463v12.388c0 .09-.045.135-.045.18-.045.09-.045.135-.09.18a1.032 1.032 0 0 1-.673.539s-.045.045-.09.045h-.224a1.23 1.23 0 0 1-.853-.359c-.09-.135-.135-.224-.18-.359s-.045-.224-.045-.359V1.405c0-.583.494-1.077 1.077-1.077.628 0 1.122.494 1.122 1.077v11.58a9.086 9.086 0 0 1 6.957-3.232c5.072 0 9.201 3.591 9.201 8.662v12.253c0 .583-.494 1.077-1.122 1.077a1.092 1.092 0 0 1-1.077-1.077zm10.323-9.919c0-5.969 4.668-10.996 10.413-10.996 5.79 0 10.413 5.027 10.413 10.996s-4.623 10.996-10.413 10.996c-5.745 0-10.413-5.027-10.413-10.996zm2.155 0c0 4.892 3.77 8.842 8.258 8.842s8.258-3.95 8.258-8.842-3.77-8.887-8.258-8.887-8.258 3.995-8.258 8.887zm25.897 0c0-5.969 4.668-10.996 10.413-10.996 5.79 0 10.413 5.027 10.413 10.996s-4.623 10.996-10.413 10.996c-5.745 0-10.413-5.027-10.413-10.996zm2.155 0c0 4.892 3.77 8.842 8.258 8.842s8.258-3.95 8.258-8.842-3.77-8.887-8.258-8.887-8.258 3.995-8.258 8.887zm44.524 9.919V27.48c-1.93 2.603-4.982 4.264-8.438 4.264-5.925 0-10.637-4.937-10.637-10.951 0-6.104 4.713-11.041 10.637-11.041 3.456 0 6.508 1.706 8.438 4.309V1.404c0-.583.494-1.077 1.122-1.077.583 0 1.077.494 1.077 1.077v29.264c0 .583-.494 1.077-1.077 1.077-.628 0-1.122-.494-1.122-1.077zm-8.438-1.122c4.533 0 8.258-3.725 8.438-8.393v-.718c-.18-4.713-3.905-8.483-8.438-8.483-4.623 0-8.438 3.95-8.438 8.842 0 4.847 3.815 8.752 8.438 8.752z"/></symbol><symbol id="building" viewBox="0 0 32 32"><title>building</title><path d="M27.506 12.59l-7.49-1.837a1.481 1.481 0 0 0-.545-.027V4.74a1.495 1.495 0 0 0-1.169-2.647L4.05 4.311c-.82.128-1.38.895-1.253 1.714.06.386.264.711.546.937v22.407c0 .517.419.937.938.937h22.701c.518 0 .938-.42.938-.937V15.332a1.5 1.5 0 0 0 .689-.927 1.502 1.502 0 0 0-1.101-1.815zM5.218 7.168l12.378-1.926v23.19h-4.732v-4.697H9.95v4.697H5.218V7.168zm20.824 21.264h-2.421v-2.401h-1.728v2.401h-2.421V13.903l6.571 1.479v13.05z"/><path d="M9.95 7.932h2.914v2.84H9.95v-2.84zM9.95 13.067h2.914v2.843H9.95v-2.843zM9.95 18.203h2.914v2.84H9.95v-2.84zM21.892 16.443h1.728v1.683h-1.728v-1.683zM21.892 19.486h1.728v1.683h-1.728v-1.683zM21.892 22.529h1.728v1.683h-1.728v-1.683z"/></symbol><symbol id="calendar" viewBox="0 0 32 32"><title>calendar</title><path d="M8.603 24.293c.564.37 1.698.802 3.041.802 3.005 0 4.374-1.908 4.374-3.682 0-1.229-.658-2.271-1.712-2.831.837-.593 1.3-1.455 1.3-2.469 0-1.505-1.093-3.023-3.535-3.023-1.338 0-2.501.491-3.089.91a.472.472 0 0 0-.168.551l.395 1.054a.475.475 0 0 0 .718.218c.399-.286 1.127-.62 1.864-.62.905 0 1.403.405 1.403 1.14 0 .982-1.144 1.338-1.913 1.338h-.806a.473.473 0 0 0-.473.473v1.087c0 .261.212.472.473.472h.806c.38 0 2.274.081 2.293 1.675.007.408-.143.799-.413 1.074-.339.344-.854.519-1.534.519-.902 0-1.761-.373-2.127-.592a.478.478 0 0 0-.402-.04.469.469 0 0 0-.286.286l-.396 1.102a.474.474 0 0 0 .187.555zM17.736 16.214a.478.478 0 0 0 .268.317.476.476 0 0 0 .415-.017l1.195-.645v8.573c0 .26.212.472.473.472h1.399a.473.473 0 0 0 .473-.472V13.745a.473.473 0 0 0-.473-.473h-1.235a.473.473 0 0 0-.223.056l-2.337 1.251a.474.474 0 0 0-.235.533l.279 1.103z"/><path d="M27.097 2.631H4.866a2.91 2.91 0 0 0-2.907 2.907v22.281a2.91 2.91 0 0 0 2.907 2.907h22.231a2.91 2.91 0 0 0 2.907-2.907V5.539a2.91 2.91 0 0 0-2.907-2.907zm-5.036 2.1a1.126 1.126 0 1 1-.001 2.251 1.126 1.126 0 0 1 .001-2.251zM9.963 4.722a1.126 1.126 0 1 1-.001 2.253 1.126 1.126 0 0 1 .001-2.253zm18.15 23.098c0 .559-.455 1.015-1.015 1.015H4.867c-.56 0-1.015-.456-1.015-1.015V8.693h24.261V27.82z"/></symbol><symbol id="cancel" viewBox="0 0 32 32"><title>cancel</title><path d="M30.721 6.774l-9.197 9.253 9.197 9.198a.983.983 0 0 1 0 1.392l-4.176 4.175a.982.982 0 0 1-1.391 0l-9.182-9.182-9.127 9.182a.983.983 0 0 1-1.392 0l-4.175-4.175a.985.985 0 0 1 0-1.392l9.127-9.182-9.126-9.126a.985.985 0 0 1 0-1.392L5.454 1.35a.983.983 0 0 1 1.392 0l9.11 9.11 9.199-9.253a.982.982 0 0 1 1.391 0l4.176 4.175a.986.986 0 0 1-.001 1.392z"/></symbol><symbol id="chart-analytics" viewBox="0 0 32 32"><title>chart-analytics</title><path fill="#474a56" d="M26.243 13.093l-5.531 7.393c.508.169.903.508 1.242.903l5.531-7.337c-.508-.226-.959-.564-1.242-.959zM13.263 13.093a2.675 2.675 0 0 1-1.185.903l5.644 7.393a2.675 2.675 0 0 1 1.185-.903l-5.644-7.393zM8.804 12.642L5.531 15.52c.452.282.79.677.959 1.185l3.33-2.878a2.614 2.614 0 0 1-1.016-1.185zM12.755 12.473c.113-.226.226-.564.226-.847a1.819 1.819 0 0 0-1.806-1.806c-1.016 0-1.806.79-1.806 1.806 0 .169.056.339.056.508.169.508.508.959 1.016 1.129.226.113.508.169.734.169.169 0 .282 0 .395-.056a1.762 1.762 0 0 0 1.185-.903zM21.446 22.011a1.172 1.172 0 0 0-.226-.339c-.056-.113-.169-.169-.282-.226h-.056c-.113-.056-.169-.113-.282-.169h-.056c-.113-.056-.226-.113-.339-.113-.113 0-.282-.056-.395-.056-.282 0-.564.056-.79.169h-.056a1.22 1.22 0 0 0-.282.169c-.113.056-.169.169-.282.226-.056.113-.169.169-.226.282a1.87 1.87 0 0 0-.226.847c0 1.016.79 1.806 1.806 1.806s1.806-.79 1.806-1.806c.113-.226 0-.508-.113-.79zM28.388 9.764c-1.016 0-1.806.79-1.806 1.806 0 .282.056.564.226.847.226.451.677.847 1.185.959.113.056.282.056.451.056 1.016 0 1.806-.79 1.806-1.806-.056-1.016-.847-1.862-1.862-1.862zM4.91 16.085a1.87 1.87 0 0 0-.847-.226c-1.016 0-1.806.79-1.806 1.806s.79 1.806 1.806 1.806 1.806-.79 1.806-1.806c0-.169 0-.282-.056-.451-.056-.508-.452-.903-.903-1.129z"/></symbol><symbol id="close" viewBox="0 0 32 32"><title>close</title><path d="M16.943 16L31.806 1.139a.668.668 0 0 0-.943-.943L16 15.057 1.139.194a.668.668 0 0 0-.943.943L15.057 16 .194 30.861a.668.668 0 0 0 .944.944l14.861-14.863L30.86 31.803a.664.664 0 0 0 .944.001.668.668 0 0 0 0-.943L16.941 15.998z"/></symbol><symbol id="connenction" viewBox="0 0 32 32"><title>connenction</title><path d="M28.345 23.032a1.766 1.766 0 1 1-3.533 0 1.766 1.766 0 0 1 3.533 0zM7.224 21.004a1.766 1.766 0 1 1-3.533 0 1.766 1.766 0 0 1 3.533 0zM9.932 4.652a1.767 1.767 0 1 1-3.534 0 1.767 1.767 0 0 1 3.534 0zM10.789 8.267l-.685-1.277a.603.603 0 0 0-1.061.569l.687 1.277a.601.601 0 1 0 1.059-.569zM11.441 12.03a.603.603 0 1 0 1.061-.57l-.686-1.277a.603.603 0 0 0-1.061.569l.685 1.277zM20.309 18.933l-1.394-.796a.603.603 0 0 0-.597 1.045l1.394.796a.598.598 0 0 0 .822-.224.6.6 0 0 0-.225-.82zM23.795 20.922l-1.395-.796a.603.603 0 0 0-.597 1.046l1.394.795a.602.602 0 0 0 .598-1.045zM9.681 18.16l-1.404.776a.6.6 0 0 0 .291 1.129.601.601 0 0 0 .291-.075l1.404-.777a.601.601 0 1 0-.582-1.052z"/><path d="M27.467 5.341a2.693 2.693 0 0 0-2.691-2.69 2.693 2.693 0 0 0-2.69 2.69c0 .473.124.917.339 1.304l-6.135 6.438a3.658 3.658 0 0 0-1.904-.534c-2.038 0-3.696 1.658-3.696 3.695s1.658 3.695 3.696 3.695c.038 0 .072-.005.111-.006l1.37 5.379a2.693 2.693 0 0 0-1.28 2.287c0 1.483 1.208 2.69 2.691 2.69s2.689-1.206 2.689-2.69a2.69 2.69 0 0 0-2.544-2.682l-1.371-5.379a3.693 3.693 0 0 0 1.402-5.349l6.136-6.437c.358.178.76.28 1.186.28a2.693 2.693 0 0 0 2.69-2.69zM16.194 26.59a1.475 1.475 0 0 1 1.084-.478c.165 0 .322.034.471.084a1.482 1.482 0 0 1 1.015 1.401c0 .82-.668 1.486-1.486 1.486s-1.486-.667-1.486-1.486c0-.389.154-.742.402-1.008zm.225-9.878a2.09 2.09 0 0 1-.78 1.196 2.073 2.073 0 0 1-1.251.426c-.104 0-.204-.016-.304-.03a2.079 2.079 0 0 1-1.16-3.548 2.092 2.092 0 0 1 1.464-.6c.263 0 .513.054.745.143.52.2.94.598 1.165 1.105.114.257.179.541.179.84.001.161-.022.316-.058.467zm8.357-9.885a1.485 1.485 0 0 1-1.439-1.138 1.384 1.384 0 0 1-.046-.348c0-.82.667-1.487 1.485-1.487a1.488 1.488 0 0 1 0 2.973z"/></symbol><symbol id="disabled-error" viewBox="0 0 32 32"><title>disabled-error</title><path d="M16.042 3.001c-7.539 0-13.674 6.133-13.674 13.673s6.134 13.673 13.674 13.673c7.539 0 13.673-6.133 13.673-13.673S23.582 3.001 16.042 3.001zm0 24.81c-2.44 0-4.697-.791-6.534-2.126L24.919 9.956a11.082 11.082 0 0 1 2.26 6.717c0 6.141-4.996 11.138-11.137 11.138zm0-22.275c2.58 0 4.955.884 6.846 2.362L7.408 23.699a11.087 11.087 0 0 1-2.503-7.025c0-6.142 4.997-11.138 11.138-11.138z"/></symbol><symbol id="exit-logout" viewBox="0 0 32 32"><title>exit-logout</title><path d="M29.371 2.338H11.839a.993.993 0 0 0-.993.992v8.038h1.984V4.322h12.726l-5.123 2.905a.993.993 0 0 0-.503.862V23.44h-7.1v-5.464h-1.984v6.456c0 .548.445.991.993.991h8.091v3.768a.99.99 0 0 0 1.481.863l8.249-4.678a.989.989 0 0 0 .702-.944V3.33a.99.99 0 0 0-.991-.992z"/><path d="M14.088 16.064a1.388 1.388 0 1 0 0-2.777H8.782v-2.588a.594.594 0 1 0-.944-.482l-5.476 3.976a.596.596 0 0 0 0 .963l5.475 3.977a.595.595 0 0 0 .944-.482v-2.589h5.307z"/></symbol><symbol id="eye-closed" viewBox="0 0 41 32"><title>eye-closed</title><path d="M18.51 20.884L8 31.394 4.606 28l10.662-10.662a5.202 5.202 0 0 1 6.368-6.368L32 .606 35.394 4 25.182 14.212a5.202 5.202 0 0 1-6.673 6.673z"/><path d="M39.878 15.241C35.841 7.323 28.337 2.405 20.295 2.405S4.749 7.323.712 15.241l-.386.757.386.756c4.037 7.917 11.541 12.834 19.583 12.834s15.546-4.917 19.583-12.834l.386-.756-.386-.757zM20.295 26.258c-6.528 0-12.669-3.91-16.21-10.259C7.627 9.649 13.767 5.74 20.295 5.74s12.67 3.91 16.211 10.259c-3.542 6.35-9.683 10.259-16.211 10.259z"/></symbol><symbol id="eye" viewBox="0 0 32 32"><title>eye</title><path d="M19.683 16.367a3.67 3.67 0 1 1-7.34 0 3.67 3.67 0 0 1 7.34 0z"/><path d="M29.83 15.833c-2.848-5.586-8.143-9.056-13.817-9.056s-10.968 3.47-13.817 9.056l-.273.534.273.533c2.848 5.586 8.143 9.055 13.817 9.055S26.982 22.486 29.83 16.9l.273-.533-.273-.534zm-13.817 7.773c-4.606 0-8.939-2.758-11.437-7.238 2.499-4.481 6.831-7.238 11.437-7.238s8.939 2.758 11.438 7.238c-2.499 4.48-6.832 7.238-11.438 7.238z"/></symbol><symbol id="facebook" viewBox="0 0 32 32"><title>facebook</title><path d="M29 0H3C1.35 0 0 1.35 0 3v26c0 1.65 1.35 3 3 3h13V18h-4v-4h4v-2c0-3.306 2.694-6 6-6h4v4h-4c-1.1 0-2 .9-2 2v2h6l-1 4h-5v14h9c1.65 0 3-1.35 3-3V3c0-1.65-1.35-3-3-3z"/></symbol><symbol id="filter" viewBox="0 0 33 32"><title>filter</title><path d="M30.479.644H2.032C.912.644 0 1.556 0 2.676v27.092c0 1.12.912 2.032 2.032 2.032h28.447c1.12 0 2.032-.912 2.032-2.032V2.676c0-1.12-.912-2.032-2.032-2.032zm.677 29.124a.677.677 0 0 1-.677.677H2.032a.677.677 0 0 1-.677-.677V2.676c0-.374.303-.677.677-.677h28.447c.374 0 .677.303.677.677v27.092zM27.798 7.417h-8.224c-.316-1.544-1.684-2.709-3.319-2.709s-3.003 1.165-3.319 2.709H4.768a.677.677 0 1 0 0 1.354h8.168c.316 1.544 1.684 2.709 3.319 2.709s3.003-1.165 3.319-2.709h8.224a.677.677 0 1 0 0-1.354zm-11.543 2.709c-1.12 0-2.032-.912-2.032-2.032s.912-2.032 2.032-2.032c1.118 0 2.026.906 2.031 2.024l-.001.008.001.008a2.032 2.032 0 0 1-2.031 2.024zm11.543 5.419H14.156c-.316-1.544-1.684-2.709-3.319-2.709s-3.003 1.165-3.319 2.709h-2.75a.677.677 0 1 0 0 1.354h2.75c.316 1.544 1.682 2.709 3.319 2.709s3.003-1.165 3.319-2.709h13.642a.677.677 0 1 0 0-1.354zm-16.961 2.709c-1.12 0-2.032-.912-2.032-2.032s.912-2.032 2.032-2.032c1.115 0 2.021.902 2.031 2.014l-.004.018.004.018a2.033 2.033 0 0 1-2.031 2.014zm16.961 5.418H16.865c-.316-1.544-1.682-2.709-3.319-2.709s-3.003 1.165-3.319 2.709H4.768a.677.677 0 1 0 0 1.354h5.459c.316 1.544 1.682 2.709 3.319 2.709s3.003-1.165 3.319-2.709h10.933a.677.677 0 1 0 0-1.354zm-14.252 2.71c-1.12 0-2.032-.912-2.032-2.032s.912-2.032 2.032-2.032c1.115 0 2.021.902 2.031 2.014l-.004.018.004.018a2.033 2.033 0 0 1-2.031 2.014z"/></symbol><symbol id="geburtshaus" viewBox="0 0 32 32"><title>geburtshaus</title><path d="M10.407 18.929h2.956v2.947h-2.956v-2.947z"/><path d="M29.519 14.887L17.111 4.382a1.522 1.522 0 0 0-1.968 0L2.736 14.887a1.522 1.522 0 1 0 1.968 2.322l.199-.168v12.098c0 .526.426.952.952.952h20.547a.952.952 0 0 0 .952-.952V17.041l.199.168a1.52 1.52 0 0 0 2.145-.177 1.524 1.524 0 0 0-.18-2.146zm-4.07 13.302h-3.603v-9.26h-5.237v9.26H6.805V15.431l9.323-7.892 9.322 7.892v12.758z"/></symbol><symbol id="google-plus" viewBox="0 0 32 32"><title>google-plus</title><path d="M10.181 14.294v3.494h5.775c-.231 1.5-1.744 4.394-5.775 4.394-3.475 0-6.313-2.881-6.313-6.431S6.706 9.32 10.181 9.32c1.981 0 3.3.844 4.056 1.569l2.762-2.662c-1.775-1.656-4.075-2.662-6.819-2.662C4.549 5.571-.001 10.121-.001 15.753s4.55 10.181 10.181 10.181c5.875 0 9.775-4.131 9.775-9.95a9.27 9.27 0 0 0-.163-1.688h-9.613zM32 14h-3v-3h-3v3h-3v3h3v3h3v-3h3z"/></symbol><symbol id="hamburger" viewBox="0 0 47 32"><title>hamburger</title><path d="M45.045 29.718a1.05 1.05 0 0 1 0 2.098H1.087a1.05 1.05 0 0 1 0-2.098h43.958zM1.086 2.445a1.05 1.05 0 0 1 0-2.098h43.958a1.05 1.05 0 0 1 0 2.098H1.086zm43.959 12.587a1.05 1.05 0 0 1 0 2.098H1.087a1.05 1.05 0 0 1 0-2.098h43.958z"/></symbol><symbol id="house" viewBox="0 0 32 32"><title>house</title><path d="M10.407 18.929h2.956v2.947h-2.956v-2.947z"/><path d="M29.519 14.887L17.111 4.382a1.522 1.522 0 0 0-1.968 0L2.736 14.887a1.522 1.522 0 1 0 1.968 2.322l.199-.168v12.098c0 .526.426.952.952.952h20.547a.952.952 0 0 0 .952-.952V17.041l.199.168a1.52 1.52 0 0 0 2.145-.177 1.524 1.524 0 0 0-.18-2.146zm-4.07 13.302h-3.603v-9.26h-5.237v9.26H6.805V15.431l9.323-7.892 9.322 7.892v12.758z"/></symbol><symbol id="link" viewBox="0 0 32 32"><title>link</title><path d="M24.522 1a6.436 6.436 0 0 0-4.581 1.897l-6.198 6.198c-1.224 1.224-1.897 2.85-1.897 4.581s.674 3.358 1.897 4.581a.997.997 0 0 0 1.414 0 .999.999 0 0 0 0-1.414c-.846-.846-1.312-1.97-1.312-3.167s.466-2.321 1.312-3.167l6.198-6.198C22.201 3.466 23.326 3 24.522 3s2.321.466 3.167 1.312C28.534 5.158 29 6.282 29 7.478s-.466 2.321-1.312 3.167l-6.198 6.198a.999.999 0 1 0 1.414 1.414l6.198-6.198C30.326 10.835 31 9.208 31 7.478s-.674-3.356-1.897-4.581A6.44 6.44 0 0 0 24.522 1z"/><path d="M16.842 13.744a.999.999 0 0 0 0 1.414c.846.846 1.312 1.97 1.312 3.167s-.466 2.321-1.312 3.167l-6.198 6.198c-.845.844-1.97 1.31-3.166 1.31s-2.321-.466-3.167-1.312C3.466 26.842 3 25.718 3 24.522s.466-2.321 1.312-3.167l6.198-6.198a.999.999 0 1 0-1.414-1.414l-6.198 6.198C1.674 21.165 1 22.792 1 24.522s.674 3.356 1.897 4.581A6.44 6.44 0 0 0 7.478 31c1.73 0 3.358-.674 4.581-1.897l6.198-6.198c1.224-1.224 1.897-2.85 1.897-4.581s-.674-3.358-1.897-4.581a1.001 1.001 0 0 0-1.415.001z"/></symbol><symbol id="lock" viewBox="0 0 32 32"><title>lock</title><path d="M23.755 13.506h-1.294V8.563c0-3.518-2.862-6.38-6.38-6.38s-6.38 2.862-6.38 6.38v4.943H8.408a2.554 2.554 0 0 0-2.551 2.552l1.129 11.779a2.555 2.555 0 0 0 2.551 2.553h13.089a2.555 2.555 0 0 0 2.552-2.553l1.129-11.779a2.556 2.556 0 0 0-2.552-2.552zM17.418 26.26h-2.67l-.503-4.248a1.837 1.837 0 0 1 3.674 0l-.501 4.248zm2.311-12.754h-7.295V8.563c0-2.012 1.636-3.648 3.648-3.648s3.647 1.636 3.647 3.648v4.943z"/></symbol><symbol id="login" viewBox="0 0 32 32"><title>login</title><path d="M19.46 25.93a.708.708 0 0 0-.707.707v3.506H1.782V1.859h16.971v4.95a.708.708 0 0 0 1.414 0V1.152a.708.708 0 0 0-.707-.707H1.075a.708.708 0 0 0-.707.707V30.85c0 .39.317.707.707.707H19.46c.39 0 .707-.317.707-.707v-4.213a.706.706 0 0 0-.707-.707zm11.314-9.929H8.428l5.875-5.875a.707.707 0 0 0-1-1l-7.071 7.071a.704.704 0 0 0-.205.505l-.001.006c0 .211.096.395.242.523l7.036 7.037a.706.706 0 0 0 1.002 0 .707.707 0 0 0 0-1l-5.853-5.853h22.323a.708.708 0 0 0 0-1.414z"/></symbol><symbol id="logout" viewBox="0 0 32 32"><title>logout</title><path d="M19.778 25.93a.708.708 0 0 0-.707.707v3.506H2.1V1.858h16.971v4.95a.708.708 0 0 0 1.414 0V1.151a.708.708 0 0 0-.707-.707H1.392a.708.708 0 0 0-.707.707v29.7c0 .39.317.707.707.707h18.386c.39 0 .707-.317.707-.707v-4.213a.706.706 0 0 0-.707-.707zm11.815-9.733l-7.071-7.071a.707.707 0 0 0-1 1l5.875 5.875H7.05a.708.708 0 0 0 0 1.414h22.324l-5.854 5.854a.707.707 0 1 0 1.002 1l7.036-7.037a.696.696 0 0 0 .242-.523l-.001-.006a.706.706 0 0 0-.205-.505z"/></symbol><symbol id="map" viewBox="0 0 32 32"><title>map</title><path d="M29.316 6.382l-5.712-1.316a.948.948 0 0 0-.612.062l-6.694 3.063-6.158-2.568a.958.958 0 0 0-.716-.009L2.797 8.196a.958.958 0 0 0-.61.892V27.27a.955.955 0 0 0 1.304.892l6.268-2.442 6.188 2.581a.956.956 0 0 0 .766-.013l6.778-3.101 5.395 1.243a.958.958 0 0 0 1.172-.932V7.315a.958.958 0 0 0-.742-.932zm-1.172 17.913l-4.54-1.046a.93.93 0 0 0-.612.063l-6.693 3.062-6.158-2.568a.949.949 0 0 0-.715-.009l-5.322 2.074V9.743l5.657-2.204 6.188 2.581a.963.963 0 0 0 .766-.013l6.778-3.101 4.653 1.072v16.218z"/><path d="M8.091 18.129a.574.574 0 0 0-.779.228c-.245.446-.388.743-.388.743a.575.575 0 0 0 1.034.5c.003-.007.136-.28.362-.691a.575.575 0 0 0-.228-.779zM9.11 15.651c-.163.191-.33.405-.498.634a.575.575 0 0 0 .928.678c.152-.207.302-.4.447-.571a.575.575 0 0 0-.876-.741zM12.945 14.899c-.489-.642-1.045-.777-1.424-.777-.106 0-.214.011-.322.031a.574.574 0 1 0 .213 1.129.52.52 0 0 1 .11-.011c.113 0 .289.033.511.325l.059.081a.573.573 0 0 0 .923-.684l-.07-.094zM14.21 16.956a.576.576 0 0 0-1.002.562c.251.446.499.883.765 1.305a.576.576 0 0 0 .792.18.575.575 0 0 0 .179-.792 28.672 28.672 0 0 1-.735-1.255zM20.488 18.002a.575.575 0 0 0-.805.11 9.659 9.659 0 0 1-.914 1.055.575.575 0 0 0 .802.822c.333-.325.678-.722 1.027-1.183a.574.574 0 0 0-.11-.804zM17.213 20.073c-.336.029-.65-.075-.984-.323a.574.574 0 1 0-.686.921c.496.369 1.02.555 1.558.555.072 0 .143-.003.216-.01a.574.574 0 1 0-.104-1.143zM22.016 15.421a.574.574 0 0 0-.782.218c-.123.218-.251.436-.378.647a.576.576 0 0 0 .984.593c.133-.221.266-.448.393-.676a.574.574 0 0 0-.218-.782zM22.976 11.445a.575.575 0 0 0-1.06.442l.383.916-.917.384a.573.573 0 1 0 .442 1.06l.917-.384.383.917a.574.574 0 1 0 1.06-.443l-.383-.916.916-.383a.573.573 0 1 0-.443-1.059l-.916.383-.383-.916z"/></symbol><symbol id="moon-stars" viewBox="0 0 32 32"><title>moon-stars</title><path d="M20.777 4.724a.574.574 0 0 0-.268-.056l-.265.01a.578.578 0 0 0-.498.832c1.9 3.87 1.696 8.169-.563 11.793-2.229 3.577-6.026 5.714-10.157 5.714-1.551 0-3.127-.299-4.684-.888a.58.58 0 0 0-.705.831c2.651 4.597 5.97 6.881 10.445 7.188.319.021.643.033.963.033 7.263 0 13.238-5.442 13.604-12.387.299-5.684-2.644-10.57-7.872-13.069z"/><path d="M5.13 11.527a.27.27 0 0 0 .106.311l2.655 1.861-.965 2.948a.272.272 0 0 0 .109.309.318.318 0 0 0 .348.006l2.739-1.763 2.739 1.763c.051.033.11.049.17.049a.313.313 0 0 0 .178-.054.27.27 0 0 0 .109-.309l-.966-2.948 2.655-1.861a.272.272 0 0 0 .106-.311.3.3 0 0 0-.279-.196L11.5 11.27l-1.094-2.91a.3.3 0 0 0-.283-.189.299.299 0 0 0-.284.189l-1.094 2.91-3.333.062a.3.3 0 0 0-.281.196zM5.424 4.705L5.06 5.893c-.014.046.003.096.041.125s.092.03.131.003l1.031-.711 1.032.711a.114.114 0 0 0 .172-.128l-.365-1.188 1.001-.75c.038-.03.054-.079.04-.125s-.058-.078-.106-.08l-1.256-.025-.413-1.173a.11.11 0 0 0-.21 0l-.413 1.173-1.256.025c-.049.001-.09.033-.106.08s.001.095.039.125l1.001.75z"/></symbol><symbol id="pie-chart" viewBox="0 0 32 32"><title>pie-chart</title><path d="M25.905 12.642c-.226 0-.395 0-9.481 4.007l1.242-9.989c.056-.508-.282-1.016-.847-1.072-.508-.056-1.016-.113-1.524-.113-6.208 0-11.457 4.684-12.247 10.836-.847 6.773 4.007 12.924 10.78 13.714.508.056 1.016.113 1.524.113 6.208 0 11.457-4.684 12.247-10.836.226-2.032 0-4.176-.79-6.095a1.004 1.004 0 0 0-.903-.564zm-.226 6.434c-.621 5.249-5.079 9.199-10.328 9.199-.451 0-.847 0-1.298-.056-5.7-.677-9.82-5.926-9.086-11.626.621-5.249 5.079-9.199 10.328-9.199h.339l-1.298 10.667c-.056.339.113.677.395.903s.621.226.959.113a3411.48 3411.48 0 0 0 9.651-4.233c.395 1.354.508 2.822.339 4.233z"/><path d="M28.783 8.691c-1.411-3.386-4.571-5.757-8.24-6.208-.339-.056-.621.169-.621.508l-1.185 9.707c0 .226.056.395.226.508.113.056.226.113.339.113.056 0 .169 0 .226-.056l8.974-3.781c.113-.056.226-.169.282-.339s.056-.339 0-.451z"/></symbol><symbol id="pinterest" viewBox="0 0 32 32"><title>pinterest</title><path d="M16 2.138c-7.656 0-13.863 6.206-13.863 13.863 0 5.875 3.656 10.887 8.813 12.906-.119-1.094-.231-2.781.05-3.975.25-1.081 1.625-6.887 1.625-6.887s-.412-.831-.412-2.056c0-1.925 1.119-3.369 2.506-3.369 1.181 0 1.756.887 1.756 1.95 0 1.188-.756 2.969-1.15 4.613-.331 1.381.688 2.506 2.05 2.506 2.462 0 4.356-2.6 4.356-6.35 0-3.319-2.387-5.638-5.787-5.638-3.944 0-6.256 2.956-6.256 6.019 0 1.194.456 2.469 1.031 3.163a.408.408 0 0 1 .094.4c-.106.438-.338 1.381-.387 1.575-.063.256-.2.306-.463.188-1.731-.806-2.813-3.337-2.813-5.369 0-4.375 3.175-8.387 9.156-8.387 4.806 0 8.544 3.425 8.544 8.006 0 4.775-3.012 8.625-7.194 8.625-1.406 0-2.725-.731-3.175-1.594 0 0-.694 2.644-.863 3.294-.313 1.206-1.156 2.712-1.725 3.631 1.3.4 2.675.619 4.106.619 7.656 0 13.863-6.206 13.863-13.863 0-7.662-6.206-13.869-13.863-13.869z"/></symbol><symbol id="profil" viewBox="0 0 35 32"><title>profil</title><path d="M34.029 24.61c-2.484-.865-5.096-1.318-7.195-1.681-1.522-.263-3.782-.654-4.11-1.049v-1.377c5.004-.143 7.09-1.635 7.18-1.702a.63.63 0 0 0 .267-.566.656.656 0 0 0-.365-.518c-1.302-.668-2.284-5.418-2.562-8.524 0-4.227-3.557-8.788-9.304-8.788-5.129 0-9.303 3.942-9.301 8.736-.28 3.159-1.262 7.909-2.565 8.577a.653.653 0 0 0-.365.518.63.63 0 0 0 .264.568c.09.066 2.178 1.557 7.182 1.7v1.377c-.326.392-2.585.783-4.104 1.046-2.1.364-4.715.817-7.201 1.683-.741.259-1.22.894-1.22 1.616v3.775c0 .955.85 1.731 1.897 1.731h30.825c1.047 0 1.897-.777 1.897-1.731v-3.775c0-.713-.491-1.363-1.22-1.616zm-.224 5.391c0 .23-.204.417-.453.417H2.527c-.25 0-.453-.188-.453-.417v-3.775c0-.175.115-.328.293-.39 2.366-.824 4.91-1.265 6.954-1.619 2.918-.506 4.843-.84 5.245-1.999a.608.608 0 0 0 .033-.197v-2.163c0-.361-.322-.656-.72-.657-3.289-.009-5.289-.628-6.267-1.047 1.779-2.188 2.357-7.7 2.467-8.96 0-4.122 3.525-7.474 7.859-7.474 4.855 0 7.86 3.88 7.863 7.528.107 1.215.687 6.721 2.464 8.908-.979.419-2.978 1.038-6.265 1.046-.398.001-.72.296-.72.657v2.163c0 .067.012.134.033.197.4 1.162 2.33 1.495 5.25 2 2.043.355 4.585.794 6.948 1.616a.422.422 0 0 1 .292.39v3.776h.003z"/></symbol><symbol id="remove" viewBox="0 0 32 32"><title>remove</title><path d="M25.92 6.642c-5.48-5.479-14.361-5.478-19.84 0C.6 12.123.599 21.005 6.079 26.485c5.479 5.48 14.363 5.481 19.844.001 5.479-5.478 5.477-14.364-.002-19.844zm-4.313 15.532a1.639 1.639 0 0 1-2.32.002l-3.291-3.291-3.282 3.283a1.64 1.64 0 0 1-2.32-2.32l3.282-3.283-3.283-3.284a1.638 1.638 0 0 1 .001-2.32 1.634 1.634 0 0 1 2.319 0l3.284 3.283 3.286-3.286a1.637 1.637 0 0 1 2.319 0 1.634 1.634 0 0 1 0 2.319l-3.286 3.286 3.291 3.291c.639.64.641 1.677-.002 2.319z"/></symbol><symbol id="safety-pin" viewBox="0 0 32 32"><title>safety-pin</title><path d="M30.115 8.355a5.903 5.903 0 0 0-1.741-4.201 5.97 5.97 0 0 0-6.169-1.404c-.03.011-.057.026-.086.04-.009.005-.02.007-.031.012L4.509 12.471a.778.778 0 1 0 .75 1.363L22.77 4.202a4.413 4.413 0 0 1 4.504 1.052 4.363 4.363 0 0 1 1.284 3.1 4.362 4.362 0 0 1-1.284 3.101 4.355 4.355 0 0 1-3.099 1.284 4.363 4.363 0 0 1-3.102-1.285 4.365 4.365 0 0 1-1.282-2.973c-.011-.43-.375-.785-.8-.755a.778.778 0 0 0-.755.8 5.905 5.905 0 0 0 1.737 4.029 5.895 5.895 0 0 0 4.199 1.741h.001c.091 0 .181-.009.273-.014l-8.783 8.784-.001.001-.002.002c-.204.202-.405.294-.652.294-.982 0-2.449-1.354-3.469-2.372-.708-.708-1.703-1.756-2.143-2.659-.402-.822-.207-1.188.064-1.461l.003-.002a.78.78 0 0 0-1.102-1.1l-4.718 4.718a5.946 5.946 0 0 0 0 8.4 5.9 5.9 0 0 0 4.199 1.74 5.898 5.898 0 0 0 4.2-1.74L16.7 24.23a.757.757 0 0 0 .126-.127l11.545-11.545.002-.001a5.9 5.9 0 0 0 1.74-4.201zM9.528 26.022a2.136 2.136 0 1 1-3.02-3.02 2.136 2.136 0 0 1 3.02 3.02z"/></symbol><symbol id="search" viewBox="0 0 32 32"><title>search</title><path d="M31.715 28.953a.977.977 0 0 1 0 1.381l-1.381 1.381a.977.977 0 0 1-1.381 0l-9.668-9.668a.954.954 0 0 1-.222-.361A11.925 11.925 0 0 1 12 24C5.373 24 0 18.627 0 12S5.373 0 12 0s12 5.373 12 12c0 2.645-.865 5.08-2.314 7.063a.942.942 0 0 1 .361.222l9.668 9.668zM12 4a8 8 0 1 0 0 16 8 8 0 0 0 0-16z"/></symbol><symbol id="share" viewBox="0 0 16 16"><title>share</title><path d="M4 10s.919-3 6-3v3l6-4-6-4v3c-4 0-6 2.495-6 5zm7 2H2V6h1.967c.158-.186.327-.365.508-.534A6.933 6.933 0 0 1 6.914 4H0v10h13V9.803l-2 1.333V12z"/></symbol><symbol id="smiley-1" viewBox="0 0 32 32"><title>smiley-1</title><path d="M15.925 2.254c-7.664 0-13.898 6.234-13.898 13.898s6.234 13.899 13.898 13.899 13.899-6.235 13.899-13.899c0-7.664-6.235-13.898-13.899-13.898zm0 25.797c-6.561 0-11.897-5.338-11.897-11.898S9.365 4.255 15.925 4.255c6.561 0 11.898 5.337 11.898 11.898s-5.337 11.898-11.898 11.898z"/><path d="M13.866 14.371a2.516 2.516 0 1 1-5.032 0 2.516 2.516 0 0 1 5.032 0zM23.017 14.372a2.516 2.516 0 1 1-5.032 0 2.516 2.516 0 0 1 5.032 0zM19.358 20.29h-6.864a1 1 0 1 0 0 2h6.864a1 1 0 1 0 0-2z"/></symbol><symbol id="smiley-2" viewBox="0 0 32 32"><title>smiley-2</title><path d="M16.036-.004C7.346-.004.276 7.065.276 15.755s7.07 15.759 15.76 15.759c8.689 0 15.759-7.069 15.759-15.759S24.725-.004 16.036-.004zm0 29.249c-7.439 0-13.491-6.052-13.491-13.491S8.597 2.263 16.036 2.263s13.49 6.052 13.49 13.491-6.051 13.491-13.49 13.491z"/><path d="M13.7 11.92a2.852 2.852 0 1 1-5.704 0 2.852 2.852 0 0 1 5.704 0zM24.076 11.921a2.852 2.852 0 1 1-5.704 0 2.852 2.852 0 0 1 5.704 0zM16.034 23.551a6.63 6.63 0 0 0 6.104-4.029 1.135 1.135 0 0 0-2.085-.892 4.365 4.365 0 0 1-4.019 2.653 4.366 4.366 0 0 1-4.017-2.653 1.134 1.134 0 1 0-2.085.892 6.627 6.627 0 0 0 6.102 4.029z"/></symbol><symbol id="smiley-3" viewBox="0 0 32 32"><title>smiley-3</title><path d="M16.137-.004C7.447-.004.378 7.065.378 15.755s7.069 15.759 15.759 15.759c8.69 0 15.759-7.069 15.759-15.759S24.828-.004 16.137-.004zm0 29.249c-7.439 0-13.491-6.052-13.491-13.491S8.698 2.263 16.137 2.263s13.49 6.052 13.49 13.491-6.051 13.491-13.49 13.491z"/><path d="M10.934 9.107a3.82 3.82 0 0 0-3.517 2.322.653.653 0 1 0 1.202.514 2.518 2.518 0 0 1 4.63 0 .653.653 0 1 0 1.202-.514 3.818 3.818 0 0 0-3.516-2.321zM21.197 9.107a3.82 3.82 0 0 0-3.517 2.322.653.653 0 1 0 1.202.514 2.518 2.518 0 0 1 4.63 0 .653.653 0 1 0 1.202-.514 3.818 3.818 0 0 0-3.516-2.321zM22.912 19.076H9.363c-.381 0-.737.191-.948.509a1.137 1.137 0 0 0-.095 1.071c1.34 3.136 4.409 5.161 7.818 5.161s6.477-2.025 7.819-5.161a1.134 1.134 0 0 0-1.044-1.58zm-6.775 4.473a6.231 6.231 0 0 1-4.758-2.204h9.515a6.225 6.225 0 0 1-4.757 2.204z"/></symbol><symbol id="smiley-happy" viewBox="0 0 32 32"><title>smiley-happy</title><path d="M15.925 2.254c-7.664 0-13.898 6.234-13.898 13.898s6.234 13.899 13.898 13.899 13.898-6.235 13.898-13.899S23.589 2.254 15.925 2.254zm0 25.797c-6.561 0-11.898-5.338-11.898-11.898S9.365 4.255 15.925 4.255c6.561 0 11.897 5.337 11.897 11.898s-5.336 11.898-11.897 11.898z"/><path d="M13.866 12.771a2.515 2.515 0 1 1-5.03 0 2.515 2.515 0 0 1 5.03 0zM23.016 12.771a2.515 2.515 0 1 1-5.03 0 2.515 2.515 0 0 1 5.03 0zM21.9 19.082H9.95c-.336 0-.65.169-.836.449a1.003 1.003 0 0 0-.084.944c1.182 2.766 3.888 4.552 6.895 4.552s5.713-1.786 6.896-4.552a1 1 0 0 0-.922-1.393zm-5.975 3.945a5.493 5.493 0 0 1-4.196-1.944h8.392a5.49 5.49 0 0 1-4.195 1.944z"/></symbol><symbol id="smiley-sad" viewBox="0 0 32 32"><title>smiley-sad</title><path d="M15.836 2.254c-7.664 0-13.899 6.234-13.899 13.898s6.235 13.899 13.899 13.899c7.663 0 13.898-6.235 13.898-13.899S23.499 2.254 15.836 2.254zm0 25.797c-6.561 0-11.898-5.338-11.898-11.898S9.276 4.255 15.836 4.255c6.561 0 11.897 5.337 11.897 11.898s-5.337 11.898-11.897 11.898z"/><path d="M13.776 12.771a2.515 2.515 0 1 1-5.03 0 2.515 2.515 0 0 1 5.03 0zM22.927 12.771a2.515 2.515 0 1 1-5.03 0 2.515 2.515 0 0 1 5.03 0zM15.836 18.08a5.847 5.847 0 0 0-5.383 3.554 1 1 0 1 0 1.839.786 3.851 3.851 0 0 1 7.087 0 1 1 0 1 0 1.838-.787 5.844 5.844 0 0 0-5.382-3.553z"/></symbol><symbol id="spital" viewBox="0 0 32 32"><title>spital</title><path d="M27.506 12.59l-7.49-1.837a1.481 1.481 0 0 0-.545-.027V4.74a1.495 1.495 0 0 0-1.169-2.647L4.05 4.311c-.82.128-1.38.895-1.253 1.714.06.386.264.711.546.937v22.407c0 .517.419.937.938.937h22.701c.518 0 .938-.42.938-.937V15.332a1.5 1.5 0 0 0 .689-.927 1.502 1.502 0 0 0-1.101-1.815zM5.218 7.168l12.378-1.926v23.19h-4.732v-4.697H9.95v4.697H5.218V7.168zm20.824 21.264h-2.421v-2.401h-1.728v2.401h-2.421V13.903l6.571 1.479v13.05z"/><path d="M9.95 7.932h2.914v2.84H9.95v-2.84zM9.95 13.067h2.914v2.843H9.95v-2.843zM9.95 18.203h2.914v2.84H9.95v-2.84zM21.892 16.443h1.728v1.683h-1.728v-1.683zM21.892 19.486h1.728v1.683h-1.728v-1.683zM21.892 22.529h1.728v1.683h-1.728v-1.683z"/></symbol><symbol id="stethoscope" viewBox="0 0 27 32"><title>stethoscope</title><path d="M27.327 13.959c0-1.793-1.459-3.253-3.253-3.253s-3.253 1.46-3.253 3.253a3.26 3.26 0 0 0 2.603 3.188v8.523c0 1.076-.876 1.952-1.952 1.952s-1.952-.876-1.952-1.952v-3.902c0-2.154-1.752-3.905-3.904-3.905s-3.904 1.752-3.904 3.904v6.506c0 1.076-.876 1.952-1.952 1.952s-1.952-.876-1.952-1.952v-9.141c3.642-.331 6.506-3.398 6.506-7.124V5.502a3.26 3.26 0 0 0-2.603-3.188V.948a.651.651 0 0 0-.651-.651c-1.046 0-2.603.694-2.603 2.603s1.556 2.603 2.603 2.603a.651.651 0 0 0 .651-.651V3.67a1.948 1.948 0 0 1 1.301 1.832v6.506c0 3.228-2.627 5.856-5.856 5.856S1.3 15.237 1.3 12.008V5.502c0-.847.545-1.563 1.301-1.832v1.182c0 .359.291.651.651.651 1.046 0 2.603-.694 2.603-2.603S4.299.297 3.252.297a.651.651 0 0 0-.651.651v1.368A3.258 3.258 0 0 0-.002 5.503v6.506c0 3.727 2.864 6.794 6.506 7.124v9.141c0 1.793 1.459 3.253 3.253 3.253s3.253-1.46 3.253-3.253v-6.506c0-1.435 1.169-2.603 2.603-2.603s2.603 1.169 2.603 2.604v3.902c0 1.793 1.459 3.253 3.253 3.253s3.253-1.46 3.253-3.253v-8.523a3.26 3.26 0 0 0 2.603-3.188zM10.41 4.056c-.328-.156-.651-.483-.651-1.158 0-.671.319-.998.651-1.156v2.314zM3.904 1.74c.328.156.651.483.651 1.158 0 .67-.317.997-.651 1.156V1.74zm20.169 14.171c-1.076 0-1.952-.876-1.952-1.952s.876-1.952 1.952-1.952 1.952.876 1.952 1.952-.876 1.952-1.952 1.952z"/></symbol><symbol id="success-check" viewBox="0 0 32 32"><title>success-check</title><path d="M25.92 6.642c-5.48-5.479-14.361-5.478-19.84 0C.6 12.123.599 21.005 6.079 26.485c5.479 5.48 14.363 5.481 19.844.001 5.479-5.478 5.477-14.364-.002-19.844zm-3.111 5.633l-7.955 10.416a1.366 1.366 0 0 1-1.06.54h-.032c-.407 0-.789-.177-1.049-.487l-3.408-4.03a1.367 1.367 0 0 1-.319-1.001 1.37 1.37 0 0 1 .481-.935c.54-.458 1.482-.377 1.937.162l2.305 2.724 6.916-9.058c.43-.562 1.361-.689 1.926-.258.292.223.479.546.528.91s-.047.725-.27 1.017z"/></symbol><symbol id="support" viewBox="0 0 32 32"><title>support</title><path d="M16.367 2.653c-7.563 0-13.771 6.152-13.771 13.771 0 7.563 6.152 13.771 13.771 13.771 7.563 0 13.714-6.152 13.714-13.771.056-7.619-6.095-13.771-13.714-13.771zm11.118 8.691l-5.813 2.145a6.27 6.27 0 0 0-2.427-2.427l2.145-5.813c2.709 1.242 4.854 3.443 6.095 6.095zm-11.118 9.538c-2.483 0-4.459-2.032-4.459-4.459 0-2.483 2.032-4.459 4.459-4.459 2.483 0 4.459 2.032 4.459 4.459.056 2.427-1.975 4.459-4.459 4.459zM11.344 5.305l2.145 5.813a6.27 6.27 0 0 0-2.427 2.427L5.249 11.4c1.242-2.709 3.443-4.91 6.095-6.095zM5.305 21.446l5.813-2.145a6.27 6.27 0 0 0 2.427 2.427L11.4 27.541c-2.709-1.298-4.91-3.443-6.095-6.095zm16.141 6.039l-2.145-5.813a6.27 6.27 0 0 0 2.427-2.427l5.813 2.145c-1.298 2.709-3.443 4.854-6.095 6.095z"/></symbol><symbol id="twitter" viewBox="0 0 32 32"><title>twitter</title><path d="M32 7.075a12.941 12.941 0 0 1-3.769 1.031 6.601 6.601 0 0 0 2.887-3.631 13.21 13.21 0 0 1-4.169 1.594A6.565 6.565 0 0 0 22.155 4a6.563 6.563 0 0 0-6.563 6.563c0 .512.056 1.012.169 1.494A18.635 18.635 0 0 1 2.23 5.195a6.56 6.56 0 0 0-.887 3.3 6.557 6.557 0 0 0 2.919 5.463 6.565 6.565 0 0 1-2.975-.819v.081a6.565 6.565 0 0 0 5.269 6.437 6.574 6.574 0 0 1-2.968.112 6.588 6.588 0 0 0 6.131 4.563 13.17 13.17 0 0 1-9.725 2.719 18.568 18.568 0 0 0 10.069 2.95c12.075 0 18.681-10.006 18.681-18.681 0-.287-.006-.569-.019-.85A13.216 13.216 0 0 0 32 7.076z"/></symbol><symbol id="undo-back" viewBox="0 0 32 32"><title>undo-back</title><path d="M12.768 7.876c-.023-.002-.043.007-.065.007l-.001-1.637V4.579c0-.094-.015-.185-.038-.273l-.021-.073a1.358 1.358 0 0 0-.086-.195c-.011-.019-.019-.038-.03-.056a1.147 1.147 0 0 0-.15-.191c-.005-.005-.01-.007-.015-.011a1.096 1.096 0 0 0-1.425-.104L2.451 11.12a1.115 1.115 0 0 0 0 1.801l8.487 7.444c.207.151.455.211.701.201h.002c.074-.004.147-.01.219-.029a.939.939 0 0 0 .237-.082c.373-.19.608-.574.608-.992l-.001-3.421c6.874.452 11.859 3.391 11.859 6.998 0 2.135-1.726 4.174-4.736 5.594a.64.64 0 0 0 .49 1.183c6.124-2.193 9.781-5.981 9.781-10.132 0-5.831-7.288-10.797-17.328-11.811z"/></symbol><symbol id="woman-user" viewBox="0 0 32 32"><title>woman-user</title><path d="M29.351 26.745a5.121 5.121 0 0 0-2.061-3.449l-.015-.01a5.871 5.871 0 0 0 2.16-2.279l.015-.032a.819.819 0 0 0-.168-.924l-1.588-1.588a5.922 5.922 0 0 1-1.753-4.214v-.022.001-4.291c0-5.489-4.45-9.938-9.938-9.938s-9.938 4.45-9.938 9.938v4.312c0 1.647-.67 3.137-1.752 4.213l-1.594 1.571a.824.824 0 0 0-.166.917l-.002-.005a5.867 5.867 0 0 0 2.146 2.312l.026.015a5.118 5.118 0 0 0-2.07 3.449l-.003.026-.257 1.951a2.921 2.921 0 0 0 2.896 3.301H26.714a2.921 2.921 0 0 0 2.895-3.316l.002.015zM5.474 19.626a7.57 7.57 0 0 0 2.238-5.382v-.022.001-4.291a8.288 8.288 0 0 1 16.576 0v4.312c0 2.104.855 4.007 2.238 5.382l1.129 1.129a4.16 4.16 0 0 1-2.162 1.544l-.029.008a.874.874 0 0 0-.114.045l.005-.002-4.71-1.98v-1.462a6.366 6.366 0 0 0 1.98-4.621v-3.849-.056l-.043-.66a4.626 4.626 0 0 0-4.601-4.288h-.033-.002a.825.825 0 0 0-.583.241 14.138 14.138 0 0 1-7.189 3.945l-.092.016a.826.826 0 0 0-.72.818v3.829a6.372 6.372 0 0 0 1.978 4.619l.002.002v1.449l-4.733 1.98a.794.794 0 0 0-.169-.078l-.006-.002a4.14 4.14 0 0 1-2.098-1.51l-.008-.012zm7.225-1.717a4.734 4.734 0 0 1-1.687-3.625v-3.171c2.846-.725 5.299-2.129 7.266-4.031l-.004.004a2.976 2.976 0 0 1 2.64 2.726l.001.01.043.637v3.849c0 1.438-.64 2.726-1.651 3.595l-.006.005a.826.826 0 0 0-.294.63v3.835c-.785.724-1.838 1.167-2.994 1.167s-2.209-.444-2.997-1.17l.003.003v-3.835a.824.824 0 0 0-.318-.629l-.002-.001zm14.969 12.012a1.25 1.25 0 0 1-.948.432H5.289h-.001a1.27 1.27 0 0 1-1.259-1.446l-.001.007.257-1.951a3.463 3.463 0 0 1 2.054-2.708l.022-.009 4.994-2.099v.574c0 .219.086.417.225.565 1.11 1.176 2.679 1.908 4.42 1.908s3.31-.732 4.417-1.905l.003-.003a.819.819 0 0 0 .224-.564v-.578l4.994 2.103a3.463 3.463 0 0 1 2.074 2.702l.002.018.257 1.951a1.25 1.25 0 0 1-.305 1.005l.001-.001z"/></symbol><symbol id="world" viewBox="0 0 32 32"><title>world</title><path d="M15.839 2.31c-7.684 0-13.935 6.25-13.935 13.934S8.155 30.18 15.839 30.18s13.935-6.252 13.935-13.936C29.773 8.56 23.523 2.31 15.839 2.31zm0 25.888a11.922 11.922 0 0 1-8.838-3.916c.089-.261.688-1.989 1.085-2.783.43-.861.573-.956 1.53-1.817.956-.86-1.912-1.242-2.581-1.912s-1.004-.669-1.768-1.276c-.572-.454-.904 1.556-1.035 2.596a11.883 11.883 0 0 1 1.804-9.673c-.381 1.181-.722 2.902.76 2.379 1.625-.575 1.768-1.243 1.768-1.243L9.52 8.88s.143 2.341.335 2.675c.191.335.956 1.292 1.242-.047.527-2.46.616-3.155 1.524-3.155s2.778-.717 2.97 1.482c.191 2.199-.192.908-1.387 1.482s-1.482 2.581-.383 2.82c1.1.239 3.585 1.242 3.585 1.242l1.242 1.387.383 1.482s.239 1.672.239 1.816v1.53s.049 3.011 1.147 2.294c1.1-.717 4.11-5.402 3.49-7.17-.622-1.768-.669-1.96.478-2.581 1.147-.622 1.96-1.386 1.912-2.246-.034-.603.028-.971.035-1.367.93 1.7 1.46 3.649 1.46 5.72-.002 6.592-5.363 11.954-11.954 11.954z"/></symbol><symbol id="world2" viewBox="0 0 32 32"><title>world2</title><path d="M8.436 17.696c-.45-.171-1.067-.406-1.239-.577a5.34 5.34 0 0 0-1.199-.912c-.232-.139-.485-.29-.817-.553-.287-.228-.634-.279-.95-.143-.252.11-1.023.441-1.349 4.14a.668.668 0 0 0 1.33.118c.098-1.103.307-2.244.502-2.795.223.156.415.271.597.381.321.192.574.343.942.71.373.373 1.022.621 1.707.881.294.112.731.279 1.002.421l-.159.139c-.964.819-1.484 1.38-2.762 5.128a.668.668 0 1 0 1.264.43c1.217-3.566 1.624-3.913 2.363-4.541.114-.096.235-.199.365-.315.434-.391.467-.787.418-1.048-.136-.748-1.006-1.079-2.013-1.464zm19.6-7.288a.668.668 0 0 0-.63.703c.031.568-.598 1.231-1.771 1.866-1.79.97-1.512 1.759-.841 3.669.506 1.444-2.285 6.121-3.524 7.102-.16-.338-.305-1.179-.317-1.921 0-2.616 0-6.568-3.478-7.894-.975-.373-2.304-.852-3.088-1.023-.052-.011-.191-.041-.228-.358-.06-.517.247-1.249.8-1.513.309-.147.515-.122.735-.098.227.027.61.071.919-.227.361-.35.357-.871.259-1.977-.073-.851-.362-1.486-.856-1.887-.773-.628-1.798-.503-2.544-.414-.206.025-.397.049-.557.049-1.485 0-1.723 1.112-2.241 3.548l-.098.477-.013.055a1.357 1.357 0 0 1-.114-.156c-.098-.256-.235-1.609-.303-2.712a.667.667 0 0 0-1.246-.29L7.841 9.261c-.033.06-.041.063-.056.13-.001.005-.223.482-1.547.948-.168.06-.263.069-.286.084-.15-.355.178-1.755.697-2.949a.668.668 0 0 0-1.225-.533c-.437 1.002-1.353 3.435-.443 4.411.27.29.787.569 1.703.247 1.635-.578 2.157-1.287 2.324-1.668.077.562.166.932.263 1.103.112.198.714 1.178 1.573 1.039.522-.081.872-.513 1.036-1.282l.101-.477c.491-2.306.592-2.491.935-2.491.206 0 .45-.028.716-.059.568-.069 1.211-.146 1.543.124.202.164.326.489.367.967.029.342.043.577.048.737a2.416 2.416 0 0 0-1.207.244c-1.161.556-1.664 1.895-1.549 2.873.092.791.568 1.354 1.271 1.506.549.119 1.577.462 2.895.966 2.42.922 2.616 3.557 2.616 6.656.013.796.143 2.699 1.078 3.195.115.061.292.128.514.128.204 0 .447-.057.713-.231 1.238-.807 4.98-6.314 4.132-8.726-.572-1.625-.572-1.625.218-2.053 1.7-.92 2.531-1.969 2.468-3.113-.02-.367-.288-.661-.704-.63zM15.847.169C7.173.169.117 7.226.117 15.899s7.057 15.73 15.73 15.73 15.73-7.056 15.73-15.73S24.52.169 15.847.169zm0 30.124c-7.937 0-14.394-6.457-14.394-14.394S7.91 1.505 15.847 1.505s14.394 6.457 14.394 14.394c.001 7.937-6.456 14.394-14.394 14.394z"/></symbol></svg>