<svg xmlns="http://www.w3.org/2000/svg" style="position: absolute; width: 0; height: 0; overflow: hidden;"><symbol id="baby" viewBox="0 0 32 46"><title>baby</title><path d="M27.285 4.717C24.395 1.847 20.279.2 16 .2 11.723.2 7.61 1.846 4.717 4.717 1.827 7.583.382 11.455.75 15.34L2.563 34.32c.61 6.392 6.39 11.212 13.437 11.212s12.827-4.82 13.437-11.214l1.058-11.065.02-.212.738-7.702c.367-3.882-1.08-7.754-3.968-10.622zm.085 29.44l-.164.818-14.165-4.406 15.242-5.967-.913 9.556zM6.247 5.993c2.5-2.48 6.055-3.904 9.753-3.904 3.7 0 7.255 1.424 9.753 3.904 2.499 2.48 3.75 5.828 3.429 9.182l-.698 7.291-18.37 7.191L4.02 27.76 2.816 15.172c-.317-3.354.934-6.7 3.43-9.18zM16 43.644c-5.964 0-10.851-4.079-11.368-9.486l-.415-4.337 22.466 6.989c-1.596 4.025-5.75 6.834-10.683 6.834zm.087-18.89c6.508 0 11.414-4.363 11.414-10.148 0-5.862-5.122-10.63-11.414-10.63S4.674 8.745 4.674 14.607c0 5.785 4.905 10.149 11.413 10.149zm0-18.888c5.149 0 9.338 3.92 9.338 8.74 0 4.709-4.015 8.26-9.338 8.26-5.323 0-9.338-3.551-9.338-8.26 0-4.82 4.19-8.74 9.338-8.74zm-2.173 12.302c0 1.047.916 1.864 2.086 1.864s2.086-.82 2.086-1.864c0-1.056-.936-1.913-2.086-1.913s-2.086.857-2.086 1.913zm-3.102-5.644c0-.548.467-.992 1.038-.992.57 0 1.037.444 1.037.992 0 .521.465.945 1.038.945s1.037-.424 1.037-.945c0-1.587-1.396-2.88-3.112-2.88-1.717 0-3.113 1.293-3.113 2.88 0 .521.465.945 1.037.945.573 0 1.038-.422 1.038-.945zm7.263.945c.573 0 1.038-.424 1.038-.945 0-.548.467-.992 1.037-.992.571 0 1.038.444 1.038.992 0 .521.465.945 1.038.945.572 0 1.037-.424 1.037-.945 0-1.587-1.396-2.88-3.113-2.88-1.716 0-3.112 1.293-3.112 2.88 0 .523.464.945 1.037.945z" fill="#000" fill-rule="nonzero"/></symbol><symbol id="filter" viewBox="0 0 41 40"><title>filter</title><path d="M38.099.805H2.539C1.14.805 0 1.945 0 3.345V37.21c0 1.4 1.14 2.54 2.54 2.54h35.559c1.4 0 2.54-1.14 2.54-2.54V3.345c0-1.4-1.14-2.54-2.54-2.54zm.846 36.405c0 .467-.379.847-.846.847H2.539a.847.847 0 0 1-.846-.847V3.345c0-.468.38-.847.847-.847h35.559c.467 0 .846.38.846.847V37.21zM34.748 9.271h-10.28a4.242 4.242 0 0 0-4.149-3.387 4.242 4.242 0 0 0-4.148 3.387H5.96a.847.847 0 0 0 0 1.693h10.21a4.242 4.242 0 0 0 4.148 3.387 4.242 4.242 0 0 0 4.149-3.387h10.28a.847.847 0 0 0 0-1.693zm-14.429 3.387c-1.4 0-2.54-1.14-2.54-2.54 0-1.4 1.14-2.54 2.54-2.54a2.54 2.54 0 0 1 2.539 2.53l-.002.01.002.01a2.54 2.54 0 0 1-2.539 2.53zm14.429 6.773H17.695a4.242 4.242 0 0 0-4.149-3.387 4.242 4.242 0 0 0-4.148 3.387H5.96a.847.847 0 0 0 0 1.693h3.438a4.24 4.24 0 0 0 4.148 3.387 4.24 4.24 0 0 0 4.149-3.387h17.053a.847.847 0 0 0 0-1.693zm-21.202 3.386c-1.4 0-2.54-1.14-2.54-2.54 0-1.4 1.14-2.54 2.54-2.54a2.541 2.541 0 0 1 2.538 2.518l-.005.022.005.022a2.541 2.541 0 0 1-2.538 2.518zm21.202 6.773H21.08a4.24 4.24 0 0 0-4.148-3.386 4.24 4.24 0 0 0-4.149 3.386H5.96a.847.847 0 0 0 0 1.694h6.824a4.24 4.24 0 0 0 4.149 3.386 4.24 4.24 0 0 0 4.148-3.386h13.667a.847.847 0 0 0 0-1.694zm-17.815 3.387c-1.4 0-2.54-1.14-2.54-2.54 0-1.4 1.14-2.54 2.54-2.54a2.541 2.541 0 0 1 2.538 2.518l-.005.022.005.022a2.541 2.541 0 0 1-2.538 2.518z" fill="#000" fill-rule="nonzero"/></symbol><symbol id="hamburger" viewBox="0 0 44 30"><title>hamburger</title><path d="M42.23 27.861a.984.984 0 0 1 0 1.966H1.018a.984.984 0 0 1 0-1.966h41.21zM1.018 2.293a.984.984 0 0 1 0-1.967h41.21a.984.984 0 0 1 0 1.967H1.02zm41.21 11.8a.984.984 0 0 1 0 1.966H1.02a.984.984 0 0 1 0-1.966h41.21z" fill="#000" fill-rule="nonzero"/></symbol><symbol id="logout" viewBox="0 0 44 44"><title>logout</title><path d="M27.195 35.653a.973.973 0 0 0-.973.973v4.82H2.887V2.554h23.335V9.36a.973.973 0 0 0 1.945 0V1.58a.973.973 0 0 0-.972-.972H1.915a.973.973 0 0 0-.973.972V42.42c0 .536.436.972.972.972h25.28a.973.973 0 0 0 .973-.972v-5.793a.971.971 0 0 0-.972-.973zM43.44 22.27l-9.723-9.723a.973.973 0 0 0-1.375 1.375L40.42 22H9.693a.973.973 0 0 0 0 1.945h30.696l-8.049 8.048a.973.973 0 0 0 1.377 1.375l9.674-9.676c.2-.177.333-.43.333-.72l-.002-.007a.968.968 0 0 0-.282-.695z" fill="#000" fill-rule="nonzero"/></symbol><symbol id="profil" viewBox="0 0 51 46"><title>profil</title><path d="M48.916 35.377c-3.571-1.243-7.325-1.895-10.343-2.416-2.187-.378-5.437-.94-5.908-1.508v-1.98c7.193-.205 10.192-2.349 10.322-2.445.27-.197.411-.5.384-.814a.943.943 0 0 0-.525-.745c-1.872-.96-3.283-7.787-3.683-12.253C39.163 7.14 34.05.583 25.788.583c-7.373 0-13.372 5.667-13.37 12.558-.403 4.54-1.814 11.369-3.688 12.328a.94.94 0 0 0-.525.745.905.905 0 0 0 .38.816c.129.094 3.131 2.238 10.324 2.444v1.98c-.469.562-3.717 1.125-5.9 1.503-3.02.523-6.777 1.175-10.35 2.42C1.593 35.749.904 36.66.904 37.7v5.427c0 1.373 1.222 2.487 2.727 2.487h44.31c1.505 0 2.728-1.116 2.728-2.487V37.7c0-1.026-.706-1.959-1.754-2.323zm-.322 7.75c0 .33-.292.599-.651.599H3.632c-.36 0-.652-.27-.652-.6V37.7a.6.6 0 0 1 .421-.561c3.401-1.184 7.058-1.819 9.996-2.327 4.194-.727 6.963-1.207 7.54-2.873a.893.893 0 0 0 .047-.283v-3.11c0-.519-.463-.942-1.035-.944-4.728-.013-7.604-.903-9.009-1.505 2.557-3.145 3.39-11.07 3.547-12.88 0-5.926 5.067-10.745 11.297-10.745 6.979 0 11.3 5.578 11.304 10.822.153 1.747.987 9.661 3.542 12.804-1.407.603-4.281 1.493-9.006 1.504-.573.002-1.036.425-1.036.944v3.11c0 .096.017.192.048.283.575 1.67 3.35 2.15 7.547 2.875 2.937.51 6.591 1.14 9.988 2.323.251.089.42.314.42.561v5.429h.003z" fill="#000" fill-rule="nonzero"/></symbol><symbol id="stethoscope" viewBox="0 0 41 48"><title>stethoscope</title><path d="M40.99 20.938c0-2.69-2.188-4.88-4.88-4.88a4.885 4.885 0 0 0-4.88 4.88 4.89 4.89 0 0 0 3.904 4.782v12.785a2.931 2.931 0 0 1-2.928 2.928 2.931 2.931 0 0 1-2.927-2.928v-5.854a5.863 5.863 0 0 0-5.856-5.857 5.863 5.863 0 0 0-5.856 5.855v9.76a2.931 2.931 0 0 1-2.928 2.928 2.931 2.931 0 0 1-2.928-2.928V28.697c5.464-.496 9.76-5.097 9.76-10.687V8.25a4.89 4.89 0 0 0-3.904-4.782v-2.05a.976.976 0 0 0-.976-.975c-1.57 0-3.904 1.04-3.904 3.904 0 2.863 2.335 3.904 3.904 3.904a.976.976 0 0 0 .976-.976V5.502a2.923 2.923 0 0 1 1.952 2.749v9.76c0 4.842-3.94 8.783-8.784 8.783-4.842 0-8.783-3.941-8.783-8.784V8.25c0-1.27.818-2.344 1.952-2.748v1.773c0 .538.437.976.976.976 1.57 0 3.904-1.04 3.904-3.904S6.449.443 4.88.443a.976.976 0 0 0-.976.976V3.47A4.886 4.886 0 0 0 0 8.25v9.76c0 5.59 4.296 10.191 9.76 10.687v13.712c0 2.69 2.188 4.88 4.88 4.88 2.69 0 4.879-2.19 4.879-4.88v-9.76a3.909 3.909 0 0 1 3.904-3.903 3.91 3.91 0 0 1 3.904 3.905v5.854c0 2.69 2.188 4.88 4.88 4.88 2.691 0 4.88-2.19 4.88-4.88V25.72a4.89 4.89 0 0 0 3.903-4.782zM15.615 6.084c-.492-.234-.976-.724-.976-1.737 0-1.007.478-1.497.976-1.734v3.471zM5.855 2.61c.493.234.977.724.977 1.737 0 1.005-.477 1.495-.976 1.733V2.61zM36.11 23.866a2.931 2.931 0 0 1-2.928-2.928 2.931 2.931 0 0 1 2.928-2.928 2.931 2.931 0 0 1 2.928 2.928 2.931 2.931 0 0 1-2.928 2.928z" fill="#000" fill-rule="nonzero"/></symbol></svg>