<svg xmlns="http://www.w3.org/2000/svg" style="position: absolute; width: 0; height: 0; overflow: hidden;"><symbol id="arrow-left-full" viewBox="0 0 32 32"><title>arrow-left-full</title><path d="M26.921 13.15H15.916V7.845c0-.113 0-.226-.056-.282v-.056a.428.428 0 0 0-.113-.226s0-.056-.056-.056c-.056-.056-.113-.169-.169-.226-.113-.056-.169-.169-.282-.226-.395-.226-.903-.169-1.298.113L2.711 15.069c-.339.226-.508.621-.508 1.016s.169.734.508.959l11.231 8.183c.226.169.508.226.79.226.056 0 .169 0 .226-.056.113 0 .169-.056.282-.113.395-.226.677-.621.677-1.072v-5.305h11.005a2.83 2.83 0 0 0 2.822-2.822c0-1.637-1.242-2.935-2.822-2.935z"/></symbol><symbol id="arrow-left-full2" viewBox="0 0 32 32"><title>arrow-left-full2</title><path d="M15.987.26C7.307.26.244 7.323.244 16.003s7.063 15.743 15.743 15.743S31.73 24.683 31.73 16.003C31.73 7.322 24.667.26 15.987.26zm0 30.151c-7.945 0-14.409-6.464-14.409-14.409S8.042 1.594 15.987 1.594s14.409 6.464 14.409 14.409-6.464 14.408-14.409 14.408z"/><path d="M23.712 15.336H10.013l5.188-5.188a.668.668 0 0 0-.943-.943L7.933 15.53a.66.66 0 0 0 0 .943l6.325 6.327a.667.667 0 1 0 .944-.943l-5.189-5.189h13.699a.667.667 0 0 0 0-1.334z"/></symbol><symbol id="arrow-right-circle" viewBox="0 0 32 32"><title>arrow-right-circle</title><path d="M15.995.26C7.315.26.252 7.323.252 16.003s7.063 15.743 15.743 15.743 15.743-7.063 15.743-15.743C31.738 7.322 24.675.26 15.995.26zm0 30.151c-7.945 0-14.409-6.464-14.409-14.409S8.05 1.594 15.995 1.594s14.409 6.464 14.409 14.409-6.464 14.408-14.409 14.408z"/><path d="M24.193 15.745a.66.66 0 0 0-.144-.216l-6.327-6.325a.668.668 0 0 0-.943.943l5.189 5.188H8.267a.667.667 0 0 0 0 1.334h13.7l-5.189 5.189a.668.668 0 0 0 .944.943l6.327-6.327a.677.677 0 0 0 .196-.472.68.68 0 0 0-.052-.256z"/></symbol><symbol id="arrow-right-full" viewBox="0 0 32 32"><title>arrow-right-full</title><path d="M5.079 18.85h11.005v5.305c0 .113 0 .226.056.282v.056c0 .056.056.169.113.226 0 0 0 .056.056.056.056.056.113.169.169.226.056.056.169.169.282.226.395.226.903.169 1.298-.113l11.231-8.183c.339-.226.508-.621.508-1.016s-.169-.734-.508-.959L18.058 6.773c-.226-.169-.508-.226-.79-.226-.056 0-.169 0-.226.056-.113 0-.169.056-.282.113-.395.226-.677.621-.677 1.072v5.305H5.078a2.83 2.83 0 0 0-2.822 2.822c0 1.637 1.242 2.935 2.822 2.935z"/></symbol><symbol id="baby" viewBox="0 0 22 32"><title>baby</title><path d="M18.981 3.282C16.97 1.285 14.107.139 11.131.139c-2.975 0-5.837 1.146-7.849 3.143C1.271 5.275.266 7.969.522 10.671l1.262 13.204c.424 4.447 4.445 7.8 9.347 7.8s8.923-3.353 9.347-7.801l.736-7.697.014-.147.512-5.359c.256-2.7-.751-5.394-2.76-7.389zm.059 20.48l-.114.569-9.854-3.066 10.603-4.151-.635 6.648zM4.346 4.169c1.74-1.725 4.212-2.716 6.785-2.716 2.574 0 5.047.991 6.785 2.716s2.609 4.054 2.385 6.387l-.485 5.072L7.037 20.63l-4.24-1.319-.837-8.757c-.221-2.334.65-4.661 2.386-6.386zm6.784 26.192c-4.149 0-7.549-2.837-7.908-6.599l-.289-3.017 15.628 4.862c-1.11 2.8-4 4.754-7.432 4.754zm.061-13.14c4.527 0 7.94-3.035 7.94-7.06 0-4.077-3.563-7.394-7.94-7.394s-7.94 3.317-7.94 7.394c0 4.025 3.413 7.06 7.94 7.06zm0-13.14c3.582 0 6.496 2.727 6.496 6.08 0 3.276-2.793 5.746-6.496 5.746s-6.496-2.47-6.496-5.746c0-3.353 2.915-6.08 6.496-6.08zM9.68 12.639c0 .728.637 1.297 1.451 1.297s1.451-.57 1.451-1.297c0-.735-.651-1.331-1.451-1.331s-1.451.597-1.451 1.331zM7.521 8.712c0-.381.325-.69.722-.69s.722.309.722.69c0 .363.323.657.722.657s.722-.294.722-.657c0-1.104-.972-2.004-2.165-2.004s-2.165.9-2.165 2.004c0 .363.323.657.722.657s.722-.293.722-.657zm5.053.657c.398 0 .722-.294.722-.657 0-.381.325-.69.722-.69s.722.309.722.69c0 .363.323.657.722.657s.722-.294.722-.657c0-1.104-.972-2.004-2.165-2.004s-2.165.9-2.165 2.004c0 .364.323.657.722.657z"/></symbol><symbol id="building" viewBox="0 0 32 32"><title>building</title><path d="M27.506 12.59l-7.49-1.837a1.481 1.481 0 0 0-.545-.027V4.74a1.495 1.495 0 0 0-1.169-2.647L4.05 4.311c-.82.128-1.38.895-1.253 1.714.06.386.264.711.546.937v22.407c0 .517.419.937.938.937h22.701c.518 0 .938-.42.938-.937V15.332a1.5 1.5 0 0 0 .689-.927 1.502 1.502 0 0 0-1.101-1.815zM5.218 7.168l12.378-1.926v23.19h-4.732v-4.697H9.95v4.697H5.218V7.168zm20.824 21.264h-2.421v-2.401h-1.728v2.401h-2.421V13.903l6.571 1.479v13.05z"/><path d="M9.95 7.932h2.914v2.84H9.95v-2.84zM9.95 13.067h2.914v2.843H9.95v-2.843zM9.95 18.203h2.914v2.84H9.95v-2.84zM21.892 16.443h1.728v1.683h-1.728v-1.683zM21.892 19.486h1.728v1.683h-1.728v-1.683zM21.892 22.529h1.728v1.683h-1.728v-1.683z"/></symbol><symbol id="calendar" viewBox="0 0 32 32"><title>calendar</title><path d="M8.603 24.293c.564.37 1.698.802 3.041.802 3.005 0 4.374-1.908 4.374-3.682 0-1.229-.658-2.271-1.712-2.831.837-.593 1.3-1.455 1.3-2.469 0-1.505-1.093-3.023-3.535-3.023-1.338 0-2.501.491-3.089.91a.472.472 0 0 0-.168.551l.395 1.054a.475.475 0 0 0 .718.218c.399-.286 1.127-.62 1.864-.62.905 0 1.403.405 1.403 1.14 0 .982-1.144 1.338-1.913 1.338h-.806a.473.473 0 0 0-.473.473v1.087c0 .261.212.472.473.472h.806c.38 0 2.274.081 2.293 1.675.007.408-.143.799-.413 1.074-.339.344-.854.519-1.534.519-.902 0-1.761-.373-2.127-.592a.478.478 0 0 0-.402-.04.469.469 0 0 0-.286.286l-.396 1.102a.474.474 0 0 0 .187.555zM17.736 16.214a.478.478 0 0 0 .268.317.476.476 0 0 0 .415-.017l1.195-.645v8.573c0 .26.212.472.473.472h1.399a.473.473 0 0 0 .473-.472V13.745a.473.473 0 0 0-.473-.473h-1.235a.473.473 0 0 0-.223.056l-2.337 1.251a.474.474 0 0 0-.235.533l.279 1.103z"/><path d="M27.097 2.631H4.866a2.91 2.91 0 0 0-2.907 2.907v22.281a2.91 2.91 0 0 0 2.907 2.907h22.231a2.91 2.91 0 0 0 2.907-2.907V5.539a2.91 2.91 0 0 0-2.907-2.907zm-5.036 2.1a1.126 1.126 0 1 1-.001 2.251 1.126 1.126 0 0 1 .001-2.251zM9.963 4.722a1.126 1.126 0 1 1-.001 2.253 1.126 1.126 0 0 1 .001-2.253zm18.15 23.098c0 .559-.455 1.015-1.015 1.015H4.867c-.56 0-1.015-.456-1.015-1.015V8.693h24.261V27.82z"/></symbol><symbol id="chart-analytics" viewBox="0 0 32 32"><title>chart-analytics</title><path fill="#474a56" d="M26.243 13.093l-5.531 7.393c.508.169.903.508 1.242.903l5.531-7.337c-.508-.226-.959-.564-1.242-.959zM13.263 13.093a2.675 2.675 0 0 1-1.185.903l5.644 7.393a2.675 2.675 0 0 1 1.185-.903l-5.644-7.393zM8.804 12.642L5.531 15.52c.452.282.79.677.959 1.185l3.33-2.878a2.614 2.614 0 0 1-1.016-1.185zM12.755 12.473c.113-.226.226-.564.226-.847a1.819 1.819 0 0 0-1.806-1.806c-1.016 0-1.806.79-1.806 1.806 0 .169.056.339.056.508.169.508.508.959 1.016 1.129.226.113.508.169.734.169.169 0 .282 0 .395-.056a1.762 1.762 0 0 0 1.185-.903zM21.446 22.011a1.172 1.172 0 0 0-.226-.339c-.056-.113-.169-.169-.282-.226h-.056c-.113-.056-.169-.113-.282-.169h-.056c-.113-.056-.226-.113-.339-.113-.113 0-.282-.056-.395-.056-.282 0-.564.056-.79.169h-.056a1.22 1.22 0 0 0-.282.169c-.113.056-.169.169-.282.226-.056.113-.169.169-.226.282a1.87 1.87 0 0 0-.226.847c0 1.016.79 1.806 1.806 1.806s1.806-.79 1.806-1.806c.113-.226 0-.508-.113-.79zM28.388 9.764c-1.016 0-1.806.79-1.806 1.806 0 .282.056.564.226.847.226.451.677.847 1.185.959.113.056.282.056.451.056 1.016 0 1.806-.79 1.806-1.806-.056-1.016-.847-1.862-1.862-1.862zM4.91 16.085a1.87 1.87 0 0 0-.847-.226c-1.016 0-1.806.79-1.806 1.806s.79 1.806 1.806 1.806 1.806-.79 1.806-1.806c0-.169 0-.282-.056-.451-.056-.508-.452-.903-.903-1.129z"/></symbol><symbol id="disabled-error" viewBox="0 0 32 32"><title>disabled-error</title><path d="M16.042 3.001c-7.539 0-13.674 6.133-13.674 13.673s6.134 13.673 13.674 13.673c7.539 0 13.673-6.133 13.673-13.673S23.582 3.001 16.042 3.001zm0 24.81c-2.44 0-4.697-.791-6.534-2.126L24.919 9.956a11.082 11.082 0 0 1 2.26 6.717c0 6.141-4.996 11.138-11.137 11.138zm0-22.275c2.58 0 4.955.884 6.846 2.362L7.408 23.699a11.087 11.087 0 0 1-2.503-7.025c0-6.142 4.997-11.138 11.138-11.138z"/></symbol><symbol id="exit-logout" viewBox="0 0 32 32"><title>exit-logout</title><path d="M29.371 2.338H11.839a.993.993 0 0 0-.993.992v8.038h1.984V4.322h12.726l-5.123 2.905a.993.993 0 0 0-.503.862V23.44h-7.1v-5.464h-1.984v6.456c0 .548.445.991.993.991h8.091v3.768a.99.99 0 0 0 1.481.863l8.249-4.678a.989.989 0 0 0 .702-.944V3.33a.99.99 0 0 0-.991-.992z"/><path d="M14.088 16.064a1.388 1.388 0 1 0 0-2.777H8.782v-2.588a.594.594 0 1 0-.944-.482l-5.476 3.976a.596.596 0 0 0 0 .963l5.475 3.977a.595.595 0 0 0 .944-.482v-2.589h5.307z"/></symbol><symbol id="eye" viewBox="0 0 32 32"><title>eye</title><path d="M19.683 16.367a3.67 3.67 0 1 1-7.34 0 3.67 3.67 0 0 1 7.34 0z"/><path d="M29.83 15.833c-2.848-5.586-8.143-9.056-13.817-9.056s-10.968 3.47-13.817 9.056l-.273.534.273.533c2.848 5.586 8.143 9.055 13.817 9.055S26.982 22.486 29.83 16.9l.273-.533-.273-.534zm-13.817 7.773c-4.606 0-8.939-2.758-11.437-7.238 2.499-4.481 6.831-7.238 11.437-7.238s8.939 2.758 11.438 7.238c-2.499 4.48-6.832 7.238-11.438 7.238z"/></symbol><symbol id="hamburger" viewBox="0 0 47 32"><title>hamburger</title><path d="M45.045 29.718a1.05 1.05 0 0 1 0 2.098H1.087a1.05 1.05 0 0 1 0-2.098h43.958zM1.086 2.445a1.05 1.05 0 0 1 0-2.098h43.958a1.05 1.05 0 0 1 0 2.098H1.086zm43.959 12.587a1.05 1.05 0 0 1 0 2.098H1.087a1.05 1.05 0 0 1 0-2.098h43.958z"/></symbol><symbol id="house" viewBox="0 0 32 32"><title>house</title><path d="M10.407 18.929h2.956v2.947h-2.956v-2.947z"/><path d="M29.519 14.887L17.111 4.382a1.522 1.522 0 0 0-1.968 0L2.736 14.887a1.522 1.522 0 1 0 1.968 2.322l.199-.168v12.098c0 .526.426.952.952.952h20.547a.952.952 0 0 0 .952-.952V17.041l.199.168a1.52 1.52 0 0 0 2.145-.177 1.524 1.524 0 0 0-.18-2.146zm-4.07 13.302h-3.603v-9.26h-5.237v9.26H6.805V15.431l9.323-7.892 9.322 7.892v12.758z"/></symbol><symbol id="lock" viewBox="0 0 32 32"><title>lock</title><path d="M23.755 13.506h-1.294V8.563c0-3.518-2.862-6.38-6.38-6.38s-6.38 2.862-6.38 6.38v4.943H8.408a2.554 2.554 0 0 0-2.551 2.552l1.129 11.779a2.555 2.555 0 0 0 2.551 2.553h13.089a2.555 2.555 0 0 0 2.552-2.553l1.129-11.779a2.556 2.556 0 0 0-2.552-2.552zM17.418 26.26h-2.67l-.503-4.248a1.837 1.837 0 0 1 3.674 0l-.501 4.248zm2.311-12.754h-7.295V8.563c0-2.012 1.636-3.648 3.648-3.648s3.647 1.636 3.647 3.648v4.943z"/></symbol><symbol id="map" viewBox="0 0 32 32"><title>map</title><path d="M29.316 6.382l-5.712-1.316a.948.948 0 0 0-.612.062l-6.694 3.063-6.158-2.568a.958.958 0 0 0-.716-.009L2.797 8.196a.958.958 0 0 0-.61.892V27.27a.955.955 0 0 0 1.304.892l6.268-2.442 6.188 2.581a.956.956 0 0 0 .766-.013l6.778-3.101 5.395 1.243a.958.958 0 0 0 1.172-.932V7.315a.958.958 0 0 0-.742-.932zm-1.172 17.913l-4.54-1.046a.93.93 0 0 0-.612.063l-6.693 3.062-6.158-2.568a.949.949 0 0 0-.715-.009l-5.322 2.074V9.743l5.657-2.204 6.188 2.581a.963.963 0 0 0 .766-.013l6.778-3.101 4.653 1.072v16.218z"/><path d="M8.091 18.129a.574.574 0 0 0-.779.228c-.245.446-.388.743-.388.743a.575.575 0 0 0 1.034.5c.003-.007.136-.28.362-.691a.575.575 0 0 0-.228-.779zM9.11 15.651c-.163.191-.33.405-.498.634a.575.575 0 0 0 .928.678c.152-.207.302-.4.447-.571a.575.575 0 0 0-.876-.741zM12.945 14.899c-.489-.642-1.045-.777-1.424-.777-.106 0-.214.011-.322.031a.574.574 0 1 0 .213 1.129.52.52 0 0 1 .11-.011c.113 0 .289.033.511.325l.059.081a.573.573 0 0 0 .923-.684l-.07-.094zM14.21 16.956a.576.576 0 0 0-1.002.562c.251.446.499.883.765 1.305a.576.576 0 0 0 .792.18.575.575 0 0 0 .179-.792 28.672 28.672 0 0 1-.735-1.255zM20.488 18.002a.575.575 0 0 0-.805.11 9.659 9.659 0 0 1-.914 1.055.575.575 0 0 0 .802.822c.333-.325.678-.722 1.027-1.183a.574.574 0 0 0-.11-.804zM17.213 20.073c-.336.029-.65-.075-.984-.323a.574.574 0 1 0-.686.921c.496.369 1.02.555 1.558.555.072 0 .143-.003.216-.01a.574.574 0 1 0-.104-1.143zM22.016 15.421a.574.574 0 0 0-.782.218c-.123.218-.251.436-.378.647a.576.576 0 0 0 .984.593c.133-.221.266-.448.393-.676a.574.574 0 0 0-.218-.782zM22.976 11.445a.575.575 0 0 0-1.06.442l.383.916-.917.384a.573.573 0 1 0 .442 1.06l.917-.384.383.917a.574.574 0 1 0 1.06-.443l-.383-.916.916-.383a.573.573 0 1 0-.443-1.059l-.916.383-.383-.916z"/></symbol><symbol id="moon-stars" viewBox="0 0 32 32"><title>moon-stars</title><path d="M20.777 4.724a.574.574 0 0 0-.268-.056l-.265.01a.578.578 0 0 0-.498.832c1.9 3.87 1.696 8.169-.563 11.793-2.229 3.577-6.026 5.714-10.157 5.714-1.551 0-3.127-.299-4.684-.888a.58.58 0 0 0-.705.831c2.651 4.597 5.97 6.881 10.445 7.188.319.021.643.033.963.033 7.263 0 13.238-5.442 13.604-12.387.299-5.684-2.644-10.57-7.872-13.069z"/><path d="M5.13 11.527a.27.27 0 0 0 .106.311l2.655 1.861-.965 2.948a.272.272 0 0 0 .109.309.318.318 0 0 0 .348.006l2.739-1.763 2.739 1.763c.051.033.11.049.17.049a.313.313 0 0 0 .178-.054.27.27 0 0 0 .109-.309l-.966-2.948 2.655-1.861a.272.272 0 0 0 .106-.311.3.3 0 0 0-.279-.196L11.5 11.27l-1.094-2.91a.3.3 0 0 0-.283-.189.299.299 0 0 0-.284.189l-1.094 2.91-3.333.062a.3.3 0 0 0-.281.196zM5.424 4.705L5.06 5.893c-.014.046.003.096.041.125s.092.03.131.003l1.031-.711 1.032.711a.114.114 0 0 0 .172-.128l-.365-1.188 1.001-.75c.038-.03.054-.079.04-.125s-.058-.078-.106-.08l-1.256-.025-.413-1.173a.11.11 0 0 0-.21 0l-.413 1.173-1.256.025c-.049.001-.09.033-.106.08s.001.095.039.125l1.001.75z"/></symbol><symbol id="pie-chart" viewBox="0 0 32 32"><title>pie-chart</title><path d="M25.905 12.642c-.226 0-.395 0-9.481 4.007l1.242-9.989c.056-.508-.282-1.016-.847-1.072-.508-.056-1.016-.113-1.524-.113-6.208 0-11.457 4.684-12.247 10.836-.847 6.773 4.007 12.924 10.78 13.714.508.056 1.016.113 1.524.113 6.208 0 11.457-4.684 12.247-10.836.226-2.032 0-4.176-.79-6.095a1.004 1.004 0 0 0-.903-.564zm-.226 6.434c-.621 5.249-5.079 9.199-10.328 9.199-.451 0-.847 0-1.298-.056-5.7-.677-9.82-5.926-9.086-11.626.621-5.249 5.079-9.199 10.328-9.199h.339l-1.298 10.667c-.056.339.113.677.395.903s.621.226.959.113a3411.48 3411.48 0 0 0 9.651-4.233c.395 1.354.508 2.822.339 4.233z"/><path d="M28.783 8.691c-1.411-3.386-4.571-5.757-8.24-6.208-.339-.056-.621.169-.621.508l-1.185 9.707c0 .226.056.395.226.508.113.056.226.113.339.113.056 0 .169 0 .226-.056l8.974-3.781c.113-.056.226-.169.282-.339s.056-.339 0-.451z"/></symbol><symbol id="profil" viewBox="0 0 35 32"><title>profil</title><path d="M34.029 24.61c-2.484-.865-5.096-1.318-7.195-1.681-1.522-.263-3.782-.654-4.11-1.049v-1.377c5.004-.143 7.09-1.635 7.18-1.702a.63.63 0 0 0 .267-.566.656.656 0 0 0-.365-.518c-1.302-.668-2.284-5.418-2.562-8.524 0-4.227-3.557-8.788-9.304-8.788-5.129 0-9.303 3.942-9.301 8.736-.28 3.159-1.262 7.909-2.565 8.577a.653.653 0 0 0-.365.518.63.63 0 0 0 .264.568c.09.066 2.178 1.557 7.182 1.7v1.377c-.326.392-2.585.783-4.104 1.046-2.1.364-4.715.817-7.201 1.683-.741.259-1.22.894-1.22 1.616v3.775c0 .955.85 1.731 1.897 1.731h30.825c1.047 0 1.897-.777 1.897-1.731v-3.775c0-.713-.491-1.363-1.22-1.616zm-.224 5.391c0 .23-.204.417-.453.417H2.527c-.25 0-.453-.188-.453-.417v-3.775c0-.175.115-.328.293-.39 2.366-.824 4.91-1.265 6.954-1.619 2.918-.506 4.843-.84 5.245-1.999a.608.608 0 0 0 .033-.197v-2.163c0-.361-.322-.656-.72-.657-3.289-.009-5.289-.628-6.267-1.047 1.779-2.188 2.357-7.7 2.467-8.96 0-4.122 3.525-7.474 7.859-7.474 4.855 0 7.86 3.88 7.863 7.528.107 1.215.687 6.721 2.464 8.908-.979.419-2.978 1.038-6.265 1.046-.398.001-.72.296-.72.657v2.163c0 .067.012.134.033.197.4 1.162 2.33 1.495 5.25 2 2.043.355 4.585.794 6.948 1.616a.422.422 0 0 1 .292.39v3.776h.003z"/></symbol><symbol id="remove" viewBox="0 0 32 32"><title>remove</title><path d="M25.92 6.642c-5.48-5.479-14.361-5.478-19.84 0C.6 12.123.599 21.005 6.079 26.485c5.479 5.48 14.363 5.481 19.844.001 5.479-5.478 5.477-14.364-.002-19.844zm-4.313 15.532a1.639 1.639 0 0 1-2.32.002l-3.291-3.291-3.282 3.283a1.64 1.64 0 0 1-2.32-2.32l3.282-3.283-3.283-3.284a1.638 1.638 0 0 1 .001-2.32 1.634 1.634 0 0 1 2.319 0l3.284 3.283 3.286-3.286a1.637 1.637 0 0 1 2.319 0 1.634 1.634 0 0 1 0 2.319l-3.286 3.286 3.291 3.291c.639.64.641 1.677-.002 2.319z"/></symbol><symbol id="safety-pin" viewBox="0 0 32 32"><title>safety-pin</title><path d="M30.115 8.355a5.903 5.903 0 0 0-1.741-4.201 5.97 5.97 0 0 0-6.169-1.404c-.03.011-.057.026-.086.04-.009.005-.02.007-.031.012L4.509 12.471a.778.778 0 1 0 .75 1.363L22.77 4.202a4.413 4.413 0 0 1 4.504 1.052 4.363 4.363 0 0 1 1.284 3.1 4.362 4.362 0 0 1-1.284 3.101 4.355 4.355 0 0 1-3.099 1.284 4.363 4.363 0 0 1-3.102-1.285 4.365 4.365 0 0 1-1.282-2.973c-.011-.43-.375-.785-.8-.755a.778.778 0 0 0-.755.8 5.905 5.905 0 0 0 1.737 4.029 5.895 5.895 0 0 0 4.199 1.741h.001c.091 0 .181-.009.273-.014l-8.783 8.784-.001.001-.002.002c-.204.202-.405.294-.652.294-.982 0-2.449-1.354-3.469-2.372-.708-.708-1.703-1.756-2.143-2.659-.402-.822-.207-1.188.064-1.461l.003-.002a.78.78 0 0 0-1.102-1.1l-4.718 4.718a5.946 5.946 0 0 0 0 8.4 5.9 5.9 0 0 0 4.199 1.74 5.898 5.898 0 0 0 4.2-1.74L16.7 24.23a.757.757 0 0 0 .126-.127l11.545-11.545.002-.001a5.9 5.9 0 0 0 1.74-4.201zM9.528 26.022a2.136 2.136 0 1 1-3.02-3.02 2.136 2.136 0 0 1 3.02 3.02z"/></symbol><symbol id="search" viewBox="0 0 32 32"><title>search</title><path d="M31.715 28.953a.977.977 0 0 1 0 1.381l-1.381 1.381a.977.977 0 0 1-1.381 0l-9.668-9.668a.954.954 0 0 1-.222-.361A11.925 11.925 0 0 1 12 24C5.373 24 0 18.627 0 12S5.373 0 12 0s12 5.373 12 12c0 2.645-.865 5.08-2.314 7.063a.942.942 0 0 1 .361.222l9.668 9.668zM12 4a8 8 0 1 0 0 16 8 8 0 0 0 0-16z"/></symbol><symbol id="settings-control-panel" viewBox="0 0 32 32"><title>settings-control-panel</title><path d="M4.402 14.561v15.407c0 .395.339.734.734.734h.79a.748.748 0 0 0 .734-.734V14.561H4.402zM6.716 4.571V3.555a.748.748 0 0 0-.734-.734h-.79a.748.748 0 0 0-.734.734v1.016h2.258zM8.183 6.095H2.991c-.339 0-.564.226-.564.452v6.039c0 .282.226.451.564.451h5.192c.339 0 .564-.226.564-.451V6.547c0-.282-.282-.452-.564-.452zM15.012 26.413v3.556c0 .395.339.734.734.734h.79a.748.748 0 0 0 .734-.734v-3.556h-2.258zM17.326 16.423V3.555a.748.748 0 0 0-.734-.734h-.79a.748.748 0 0 0-.734.734v12.868h2.257zM18.794 17.947h-5.192c-.339 0-.564.226-.564.451v6.039c0 .282.282.451.564.451h5.192c.339 0 .564-.226.564-.451v-6.039c0-.282-.282-.451-.564-.451zM27.936 8.748V3.556a.748.748 0 0 0-.734-.734h-.79a.748.748 0 0 0-.734.734v5.192h2.258zM25.623 18.737v11.231c0 .395.339.734.734.734h.79a.748.748 0 0 0 .734-.734V18.737h-2.258zM29.291 10.272h-5.192c-.339 0-.564.226-.564.451v5.982c0 .282.282.451.564.451h5.192c.339 0 .564-.226.564-.451v-5.982c0-.226-.226-.451-.564-.451z"/></symbol><symbol id="smiley-1" viewBox="0 0 32 32"><title>smiley-1</title><path d="M15.925 2.254c-7.664 0-13.898 6.234-13.898 13.898s6.234 13.899 13.898 13.899 13.899-6.235 13.899-13.899c0-7.664-6.235-13.898-13.899-13.898zm0 25.797c-6.561 0-11.897-5.338-11.897-11.898S9.365 4.255 15.925 4.255c6.561 0 11.898 5.337 11.898 11.898s-5.337 11.898-11.898 11.898z"/><path d="M13.866 14.371a2.516 2.516 0 1 1-5.032 0 2.516 2.516 0 0 1 5.032 0zM23.017 14.372a2.516 2.516 0 1 1-5.032 0 2.516 2.516 0 0 1 5.032 0zM19.358 20.29h-6.864a1 1 0 1 0 0 2h6.864a1 1 0 1 0 0-2z"/></symbol><symbol id="smiley-2" viewBox="0 0 32 32"><title>smiley-2</title><path d="M16.036-.004C7.346-.004.276 7.065.276 15.755s7.07 15.759 15.76 15.759c8.689 0 15.759-7.069 15.759-15.759S24.725-.004 16.036-.004zm0 29.249c-7.439 0-13.491-6.052-13.491-13.491S8.597 2.263 16.036 2.263s13.49 6.052 13.49 13.491-6.051 13.491-13.49 13.491z"/><path d="M13.7 11.92a2.852 2.852 0 1 1-5.704 0 2.852 2.852 0 0 1 5.704 0zM24.076 11.921a2.852 2.852 0 1 1-5.704 0 2.852 2.852 0 0 1 5.704 0zM16.034 23.551a6.63 6.63 0 0 0 6.104-4.029 1.135 1.135 0 0 0-2.085-.892 4.365 4.365 0 0 1-4.019 2.653 4.366 4.366 0 0 1-4.017-2.653 1.134 1.134 0 1 0-2.085.892 6.627 6.627 0 0 0 6.102 4.029z"/></symbol><symbol id="smiley-3" viewBox="0 0 32 32"><title>smiley-3</title><path d="M16.137-.004C7.447-.004.378 7.065.378 15.755s7.069 15.759 15.759 15.759c8.69 0 15.759-7.069 15.759-15.759S24.828-.004 16.137-.004zm0 29.249c-7.439 0-13.491-6.052-13.491-13.491S8.698 2.263 16.137 2.263s13.49 6.052 13.49 13.491-6.051 13.491-13.49 13.491z"/><path d="M10.934 9.107a3.82 3.82 0 0 0-3.517 2.322.653.653 0 1 0 1.202.514 2.518 2.518 0 0 1 4.63 0 .653.653 0 1 0 1.202-.514 3.818 3.818 0 0 0-3.516-2.321zM21.197 9.107a3.82 3.82 0 0 0-3.517 2.322.653.653 0 1 0 1.202.514 2.518 2.518 0 0 1 4.63 0 .653.653 0 1 0 1.202-.514 3.818 3.818 0 0 0-3.516-2.321zM22.912 19.076H9.363c-.381 0-.737.191-.948.509a1.137 1.137 0 0 0-.095 1.071c1.34 3.136 4.409 5.161 7.818 5.161s6.477-2.025 7.819-5.161a1.134 1.134 0 0 0-1.044-1.58zm-6.775 4.473a6.231 6.231 0 0 1-4.758-2.204h9.515a6.225 6.225 0 0 1-4.757 2.204z"/></symbol><symbol id="smiley-happy" viewBox="0 0 32 32"><title>smiley-happy</title><path d="M15.925 2.254c-7.664 0-13.898 6.234-13.898 13.898s6.234 13.899 13.898 13.899 13.898-6.235 13.898-13.899S23.589 2.254 15.925 2.254zm0 25.797c-6.561 0-11.898-5.338-11.898-11.898S9.365 4.255 15.925 4.255c6.561 0 11.897 5.337 11.897 11.898s-5.336 11.898-11.897 11.898z"/><path d="M13.866 12.771a2.515 2.515 0 1 1-5.03 0 2.515 2.515 0 0 1 5.03 0zM23.016 12.771a2.515 2.515 0 1 1-5.03 0 2.515 2.515 0 0 1 5.03 0zM21.9 19.082H9.95c-.336 0-.65.169-.836.449a1.003 1.003 0 0 0-.084.944c1.182 2.766 3.888 4.552 6.895 4.552s5.713-1.786 6.896-4.552a1 1 0 0 0-.922-1.393zm-5.975 3.945a5.493 5.493 0 0 1-4.196-1.944h8.392a5.49 5.49 0 0 1-4.195 1.944z"/></symbol><symbol id="smiley-sad" viewBox="0 0 32 32"><title>smiley-sad</title><path d="M15.836 2.254c-7.664 0-13.899 6.234-13.899 13.898s6.235 13.899 13.899 13.899c7.663 0 13.898-6.235 13.898-13.899S23.499 2.254 15.836 2.254zm0 25.797c-6.561 0-11.898-5.338-11.898-11.898S9.276 4.255 15.836 4.255c6.561 0 11.897 5.337 11.897 11.898s-5.337 11.898-11.897 11.898z"/><path d="M13.776 12.771a2.515 2.515 0 1 1-5.03 0 2.515 2.515 0 0 1 5.03 0zM22.927 12.771a2.515 2.515 0 1 1-5.03 0 2.515 2.515 0 0 1 5.03 0zM15.836 18.08a5.847 5.847 0 0 0-5.383 3.554 1 1 0 1 0 1.839.786 3.851 3.851 0 0 1 7.087 0 1 1 0 1 0 1.838-.787 5.844 5.844 0 0 0-5.382-3.553z"/></symbol><symbol id="stethoscope" viewBox="0 0 27 32"><title>stethoscope</title><path d="M27.327 13.959c0-1.793-1.459-3.253-3.253-3.253s-3.253 1.46-3.253 3.253a3.26 3.26 0 0 0 2.603 3.188v8.523c0 1.076-.876 1.952-1.952 1.952s-1.952-.876-1.952-1.952v-3.902c0-2.154-1.752-3.905-3.904-3.905s-3.904 1.752-3.904 3.904v6.506c0 1.076-.876 1.952-1.952 1.952s-1.952-.876-1.952-1.952v-9.141c3.642-.331 6.506-3.398 6.506-7.124V5.502a3.26 3.26 0 0 0-2.603-3.188V.948a.651.651 0 0 0-.651-.651c-1.046 0-2.603.694-2.603 2.603s1.556 2.603 2.603 2.603a.651.651 0 0 0 .651-.651V3.67a1.948 1.948 0 0 1 1.301 1.832v6.506c0 3.228-2.627 5.856-5.856 5.856S1.3 15.237 1.3 12.008V5.502c0-.847.545-1.563 1.301-1.832v1.182c0 .359.291.651.651.651 1.046 0 2.603-.694 2.603-2.603S4.299.297 3.252.297a.651.651 0 0 0-.651.651v1.368A3.258 3.258 0 0 0-.002 5.503v6.506c0 3.727 2.864 6.794 6.506 7.124v9.141c0 1.793 1.459 3.253 3.253 3.253s3.253-1.46 3.253-3.253v-6.506c0-1.435 1.169-2.603 2.603-2.603s2.603 1.169 2.603 2.604v3.902c0 1.793 1.459 3.253 3.253 3.253s3.253-1.46 3.253-3.253v-8.523a3.26 3.26 0 0 0 2.603-3.188zM10.41 4.056c-.328-.156-.651-.483-.651-1.158 0-.671.319-.998.651-1.156v2.314zM3.904 1.74c.328.156.651.483.651 1.158 0 .67-.317.997-.651 1.156V1.74zm20.169 14.171c-1.076 0-1.952-.876-1.952-1.952s.876-1.952 1.952-1.952 1.952.876 1.952 1.952-.876 1.952-1.952 1.952z"/></symbol><symbol id="success-check" viewBox="0 0 32 32"><title>success-check</title><path d="M25.92 6.642c-5.48-5.479-14.361-5.478-19.84 0C.6 12.123.599 21.005 6.079 26.485c5.479 5.48 14.363 5.481 19.844.001 5.479-5.478 5.477-14.364-.002-19.844zm-3.111 5.633l-7.955 10.416a1.366 1.366 0 0 1-1.06.54h-.032c-.407 0-.789-.177-1.049-.487l-3.408-4.03a1.367 1.367 0 0 1-.319-1.001 1.37 1.37 0 0 1 .481-.935c.54-.458 1.482-.377 1.937.162l2.305 2.724 6.916-9.058c.43-.562 1.361-.689 1.926-.258.292.223.479.546.528.91s-.047.725-.27 1.017z"/></symbol><symbol id="support" viewBox="0 0 32 32"><title>support</title><path d="M16.367 2.653c-7.563 0-13.771 6.152-13.771 13.771 0 7.563 6.152 13.771 13.771 13.771 7.563 0 13.714-6.152 13.714-13.771.056-7.619-6.095-13.771-13.714-13.771zm11.118 8.691l-5.813 2.145a6.27 6.27 0 0 0-2.427-2.427l2.145-5.813c2.709 1.242 4.854 3.443 6.095 6.095zm-11.118 9.538c-2.483 0-4.459-2.032-4.459-4.459 0-2.483 2.032-4.459 4.459-4.459 2.483 0 4.459 2.032 4.459 4.459.056 2.427-1.975 4.459-4.459 4.459zM11.344 5.305l2.145 5.813a6.27 6.27 0 0 0-2.427 2.427L5.249 11.4c1.242-2.709 3.443-4.91 6.095-6.095zM5.305 21.446l5.813-2.145a6.27 6.27 0 0 0 2.427 2.427L11.4 27.541c-2.709-1.298-4.91-3.443-6.095-6.095zm16.141 6.039l-2.145-5.813a6.27 6.27 0 0 0 2.427-2.427l5.813 2.145c-1.298 2.709-3.443 4.854-6.095 6.095z"/></symbol><symbol id="undo-back" viewBox="0 0 32 32"><title>undo-back</title><path d="M12.768 7.876c-.023-.002-.043.007-.065.007l-.001-1.637V4.579c0-.094-.015-.185-.038-.273l-.021-.073a1.358 1.358 0 0 0-.086-.195c-.011-.019-.019-.038-.03-.056a1.147 1.147 0 0 0-.15-.191c-.005-.005-.01-.007-.015-.011a1.096 1.096 0 0 0-1.425-.104L2.451 11.12a1.115 1.115 0 0 0 0 1.801l8.487 7.444c.207.151.455.211.701.201h.002c.074-.004.147-.01.219-.029a.939.939 0 0 0 .237-.082c.373-.19.608-.574.608-.992l-.001-3.421c6.874.452 11.859 3.391 11.859 6.998 0 2.135-1.726 4.174-4.736 5.594a.64.64 0 0 0 .49 1.183c6.124-2.193 9.781-5.981 9.781-10.132 0-5.831-7.288-10.797-17.328-11.811z"/></symbol><symbol id="user-woman" viewBox="0 0 32 32"><title>user-woman</title><path d="M29.265 25.299c-4.514-1.745-9.526-1.653-9.947-3.003v-2.03c4.509-.013 6.297-1.47 6.297-1.47-1.881-1.069-2.478-8.536-2.478-8.536 0-2.285-.96-4.33-2.473-5.728-.571-.663-1.355-1.162-2.366-1.459a6.912 6.912 0 0 0-2.415-.442 6.9 6.9 0 0 0-2.555.497c-.817.27-1.485.678-2.007 1.205-1.641 1.398-2.692 3.533-2.692 5.928 0 0-.597 7.467-2.478 8.536 0 0 1.789 1.457 6.297 1.47v2.029c-.42 1.348-5.433 1.258-9.947 3.003-.385.15-.639.524-.639.942v3.541c0 .556.445 1.008.993 1.008h26.056a1 1 0 0 0 .993-1.008v-3.541c0-.419-.255-.794-.64-.942z"/></symbol><symbol id="world" viewBox="0 0 32 32"><title>world</title><path d="M15.839 2.31c-7.684 0-13.935 6.25-13.935 13.934S8.155 30.18 15.839 30.18s13.935-6.252 13.935-13.936C29.773 8.56 23.523 2.31 15.839 2.31zm0 25.888a11.922 11.922 0 0 1-8.838-3.916c.089-.261.688-1.989 1.085-2.783.43-.861.573-.956 1.53-1.817.956-.86-1.912-1.242-2.581-1.912s-1.004-.669-1.768-1.276c-.572-.454-.904 1.556-1.035 2.596a11.883 11.883 0 0 1 1.804-9.673c-.381 1.181-.722 2.902.76 2.379 1.625-.575 1.768-1.243 1.768-1.243L9.52 8.88s.143 2.341.335 2.675c.191.335.956 1.292 1.242-.047.527-2.46.616-3.155 1.524-3.155s2.778-.717 2.97 1.482c.191 2.199-.192.908-1.387 1.482s-1.482 2.581-.383 2.82c1.1.239 3.585 1.242 3.585 1.242l1.242 1.387.383 1.482s.239 1.672.239 1.816v1.53s.049 3.011 1.147 2.294c1.1-.717 4.11-5.402 3.49-7.17-.622-1.768-.669-1.96.478-2.581 1.147-.622 1.96-1.386 1.912-2.246-.034-.603.028-.971.035-1.367.93 1.7 1.46 3.649 1.46 5.72-.002 6.592-5.363 11.954-11.954 11.954z"/></symbol></svg>