<svg xmlns="http://www.w3.org/2000/svg" style="position: absolute; width: 0; height: 0; overflow: hidden;"><symbol id="baby" viewBox="0 0 22 32"><title>baby</title><path d="M18.981 3.282C16.97 1.285 14.107.139 11.131.139c-2.975 0-5.837 1.146-7.849 3.143C1.271 5.275.266 7.969.522 10.671l1.262 13.204c.424 4.447 4.445 7.8 9.347 7.8s8.923-3.353 9.347-7.801l.736-7.697.014-.147.512-5.359c.256-2.7-.751-5.394-2.76-7.389zm.059 20.48l-.114.569-9.854-3.066 10.603-4.151-.635 6.648zM4.346 4.169c1.74-1.725 4.212-2.716 6.785-2.716 2.574 0 5.047.991 6.785 2.716s2.609 4.054 2.385 6.387l-.485 5.072L7.037 20.63l-4.24-1.319-.837-8.757c-.221-2.334.65-4.661 2.386-6.386zm6.784 26.192c-4.149 0-7.549-2.837-7.908-6.599l-.289-3.017 15.628 4.862c-1.11 2.8-4 4.754-7.432 4.754zm.061-13.14c4.527 0 7.94-3.035 7.94-7.06 0-4.077-3.563-7.394-7.94-7.394s-7.94 3.317-7.94 7.394c0 4.025 3.413 7.06 7.94 7.06zm0-13.14c3.582 0 6.496 2.727 6.496 6.08 0 3.276-2.793 5.746-6.496 5.746s-6.496-2.47-6.496-5.746c0-3.353 2.915-6.08 6.496-6.08zM9.68 12.639c0 .728.637 1.297 1.451 1.297s1.451-.57 1.451-1.297c0-.735-.651-1.331-1.451-1.331s-1.451.597-1.451 1.331zM7.521 8.712c0-.381.325-.69.722-.69s.722.309.722.69c0 .363.323.657.722.657s.722-.294.722-.657c0-1.104-.972-2.004-2.165-2.004s-2.165.9-2.165 2.004c0 .363.323.657.722.657s.722-.293.722-.657zm5.053.657c.398 0 .722-.294.722-.657 0-.381.325-.69.722-.69s.722.309.722.69c0 .363.323.657.722.657s.722-.294.722-.657c0-1.104-.972-2.004-2.165-2.004s-2.165.9-2.165 2.004c0 .364.323.657.722.657z"/></symbol><symbol id="filter" viewBox="0 0 33 32"><title>filter</title><path d="M30.479.644H2.032C.912.644 0 1.556 0 2.676v27.092c0 1.12.912 2.032 2.032 2.032h28.447c1.12 0 2.032-.912 2.032-2.032V2.676c0-1.12-.912-2.032-2.032-2.032zm.677 29.124a.677.677 0 0 1-.677.677H2.032a.677.677 0 0 1-.677-.677V2.676c0-.374.303-.677.677-.677h28.447c.374 0 .677.303.677.677v27.092zM27.798 7.417h-8.224c-.316-1.544-1.684-2.709-3.319-2.709s-3.003 1.165-3.319 2.709H4.768a.677.677 0 1 0 0 1.354h8.168c.316 1.544 1.684 2.709 3.319 2.709s3.003-1.165 3.319-2.709h8.224a.677.677 0 1 0 0-1.354zm-11.543 2.709c-1.12 0-2.032-.912-2.032-2.032s.912-2.032 2.032-2.032c1.118 0 2.026.906 2.031 2.024l-.001.008.001.008a2.032 2.032 0 0 1-2.031 2.024zm11.543 5.419H14.156c-.316-1.544-1.684-2.709-3.319-2.709s-3.003 1.165-3.319 2.709h-2.75a.677.677 0 1 0 0 1.354h2.75c.316 1.544 1.682 2.709 3.319 2.709s3.003-1.165 3.319-2.709h13.642a.677.677 0 1 0 0-1.354zm-16.961 2.709c-1.12 0-2.032-.912-2.032-2.032s.912-2.032 2.032-2.032c1.115 0 2.021.902 2.031 2.014l-.004.018.004.018a2.033 2.033 0 0 1-2.031 2.014zm16.961 5.418H16.865c-.316-1.544-1.682-2.709-3.319-2.709s-3.003 1.165-3.319 2.709H4.768a.677.677 0 1 0 0 1.354h5.459c.316 1.544 1.682 2.709 3.319 2.709s3.003-1.165 3.319-2.709h10.933a.677.677 0 1 0 0-1.354zm-14.252 2.71c-1.12 0-2.032-.912-2.032-2.032s.912-2.032 2.032-2.032c1.115 0 2.021.902 2.031 2.014l-.004.018.004.018a2.033 2.033 0 0 1-2.031 2.014z"/></symbol><symbol id="hamburger" viewBox="0 0 47 32"><title>hamburger</title><path d="M45.045 29.718a1.05 1.05 0 0 1 0 2.098H1.087a1.05 1.05 0 0 1 0-2.098h43.958zM1.086 2.445a1.05 1.05 0 0 1 0-2.098h43.958a1.05 1.05 0 0 1 0 2.098H1.086zm43.959 12.587a1.05 1.05 0 0 1 0 2.098H1.087a1.05 1.05 0 0 1 0-2.098h43.958z"/></symbol><symbol id="login" viewBox="0 0 32 32"><title>login</title><path d="M19.46 25.93a.708.708 0 0 0-.707.707v3.506H1.782V1.859h16.971v4.95a.708.708 0 0 0 1.414 0V1.152a.708.708 0 0 0-.707-.707H1.075a.708.708 0 0 0-.707.707V30.85c0 .39.317.707.707.707H19.46c.39 0 .707-.317.707-.707v-4.213a.706.706 0 0 0-.707-.707zm11.314-9.929H8.428l5.875-5.875a.707.707 0 0 0-1-1l-7.071 7.071a.704.704 0 0 0-.205.505l-.001.006c0 .211.096.395.242.523l7.036 7.037a.706.706 0 0 0 1.002 0 .707.707 0 0 0 0-1l-5.853-5.853h22.323a.708.708 0 0 0 0-1.414z"/></symbol><symbol id="logout" viewBox="0 0 32 32"><title>logout</title><path d="M19.778 25.93a.708.708 0 0 0-.707.707v3.506H2.1V1.858h16.971v4.95a.708.708 0 0 0 1.414 0V1.151a.708.708 0 0 0-.707-.707H1.392a.708.708 0 0 0-.707.707v29.7c0 .39.317.707.707.707h18.386c.39 0 .707-.317.707-.707v-4.213a.706.706 0 0 0-.707-.707zm11.815-9.733l-7.071-7.071a.707.707 0 0 0-1 1l5.875 5.875H7.05a.708.708 0 0 0 0 1.414h22.324l-5.854 5.854a.707.707 0 1 0 1.002 1l7.036-7.037a.696.696 0 0 0 .242-.523l-.001-.006a.706.706 0 0 0-.205-.505z"/></symbol><symbol id="profil" viewBox="0 0 35 32"><title>profil</title><path d="M34.029 24.61c-2.484-.865-5.096-1.318-7.195-1.681-1.522-.263-3.782-.654-4.11-1.049v-1.377c5.004-.143 7.09-1.635 7.18-1.702a.63.63 0 0 0 .267-.566.656.656 0 0 0-.365-.518c-1.302-.668-2.284-5.418-2.562-8.524 0-4.227-3.557-8.788-9.304-8.788-5.129 0-9.303 3.942-9.301 8.736-.28 3.159-1.262 7.909-2.565 8.577a.653.653 0 0 0-.365.518.63.63 0 0 0 .264.568c.09.066 2.178 1.557 7.182 1.7v1.377c-.326.392-2.585.783-4.104 1.046-2.1.364-4.715.817-7.201 1.683-.741.259-1.22.894-1.22 1.616v3.775c0 .955.85 1.731 1.897 1.731h30.825c1.047 0 1.897-.777 1.897-1.731v-3.775c0-.713-.491-1.363-1.22-1.616zm-.224 5.391c0 .23-.204.417-.453.417H2.527c-.25 0-.453-.188-.453-.417v-3.775c0-.175.115-.328.293-.39 2.366-.824 4.91-1.265 6.954-1.619 2.918-.506 4.843-.84 5.245-1.999a.608.608 0 0 0 .033-.197v-2.163c0-.361-.322-.656-.72-.657-3.289-.009-5.289-.628-6.267-1.047 1.779-2.188 2.357-7.7 2.467-8.96 0-4.122 3.525-7.474 7.859-7.474 4.855 0 7.86 3.88 7.863 7.528.107 1.215.687 6.721 2.464 8.908-.979.419-2.978 1.038-6.265 1.046-.398.001-.72.296-.72.657v2.163c0 .067.012.134.033.197.4 1.162 2.33 1.495 5.25 2 2.043.355 4.585.794 6.948 1.616a.422.422 0 0 1 .292.39v3.776h.003z"/></symbol><symbol id="smiley_0" viewBox="0 0 32 32"><title>smiley_0</title><path d="M16 18.396c-3.908 0-7.363 1.985-9.24 5.312a.667.667 0 1 0 1.161.655c1.637-2.903 4.657-4.635 8.079-4.635 3.544 0 6.591 1.721 8.152 4.604a.666.666 0 1 0 1.172-.636c-1.797-3.32-5.283-5.301-9.324-5.301zM9.667 14c1.471 0 2.667-1.197 2.667-2.667s-1.196-2.667-2.667-2.667S7 9.863 7 11.333 8.196 14 9.667 14zm0-4a1.334 1.334 0 0 1 0 2.666c-.734 0-1.333-.597-1.333-1.333S8.933 10 9.667 10zm12 4c1.471 0 2.667-1.197 2.667-2.667s-1.196-2.667-2.667-2.667S19 9.863 19 11.333 20.196 14 21.667 14zm0-4a1.334 1.334 0 0 1 0 2.666c-.734 0-1.333-.597-1.333-1.333S20.933 10 21.667 10zM16 0C7.177 0 0 7.177 0 16s7.177 16 16 16 16-7.177 16-16S24.823 0 16 0zm0 30.667c-8.087 0-14.667-6.58-14.667-14.667S7.913 1.333 16 1.333 30.667 7.913 30.667 16 24.087 30.667 16 30.667z"/></symbol><symbol id="smiley_1" viewBox="0 0 32 32"><title>smiley_1</title><path d="M25.669 19.525a10.657 10.657 0 0 0-8.892 4.773.665.665 0 0 0 .556 1.035.662.662 0 0 0 .556-.299 9.326 9.326 0 0 1 7.781-4.177.667.667 0 0 0-.001-1.332zM11.333 8.667c-1.471 0-2.667 1.197-2.667 2.667s1.196 2.667 2.667 2.667S14 12.804 14 11.334s-1.196-2.667-2.667-2.667zm0 4a1.334 1.334 0 0 1 0-2.666c.734 0 1.333.597 1.333 1.333s-.599 1.333-1.333 1.333zM20.667 14c1.471 0 2.667-1.197 2.667-2.667s-1.196-2.667-2.667-2.667S18 9.863 18 11.333 19.196 14 20.667 14zm0-4a1.334 1.334 0 0 1 0 2.666c-.734 0-1.333-.597-1.333-1.333S19.933 10 20.667 10zM16 0C7.177 0 0 7.177 0 16s7.177 16 16 16 16-7.177 16-16S24.823 0 16 0zm0 30.667c-8.087 0-14.667-6.58-14.667-14.667S7.913 1.333 16 1.333 30.667 7.913 30.667 16 24.087 30.667 16 30.667z"/></symbol><symbol id="smiley_2" viewBox="0 0 32 32"><title>smiley_2</title><path d="M11.333 8.667c-1.471 0-2.667 1.197-2.667 2.667s1.196 2.667 2.667 2.667S14 12.804 14 11.334s-1.196-2.667-2.667-2.667zm0 4a1.334 1.334 0 0 1 0-2.666c.734 0 1.333.597 1.333 1.333s-.599 1.333-1.333 1.333zM20.667 14c1.471 0 2.667-1.197 2.667-2.667s-1.196-2.667-2.667-2.667S18 9.863 18 11.333 19.196 14 20.667 14zm0-4a1.334 1.334 0 0 1 0 2.666c-.734 0-1.333-.597-1.333-1.333S19.933 10 20.667 10zm3.113 10.491A9.318 9.318 0 0 1 16 24.667a.667.667 0 0 0 0 1.334 10.65 10.65 0 0 0 8.891-4.772.666.666 0 1 0-1.111-.737zM16 0C7.177 0 0 7.177 0 16s7.177 16 16 16 16-7.177 16-16S24.823 0 16 0zm0 30.667c-8.087 0-14.667-6.58-14.667-14.667S7.913 1.333 16 1.333 30.667 7.913 30.667 16 24.087 30.667 16 30.667z"/></symbol><symbol id="smiley_3" viewBox="0 0 32 32"><title>smiley_3</title><path d="M16 0C7.177 0 0 7.177 0 16s7.177 16 16 16 16-7.177 16-16S24.823 0 16 0zm0 30.667c-8.087 0-14.667-6.58-14.667-14.667S7.913 1.333 16 1.333 30.667 7.913 30.667 16 24.087 30.667 16 30.667zm10-14H6a.667.667 0 0 0-.667.667c0 5.881 4.785 10.667 10.667 10.667s10.667-4.785 10.667-10.667a.667.667 0 0 0-.667-.667zm-10 10c-4.921 0-8.967-3.831-9.309-8.667h18.62c-.344 4.836-4.389 8.667-9.311 8.667zM7.333 14A.667.667 0 0 0 8 13.333c0-1.103.897-2 2-2s2 .897 2 2a.667.667 0 0 0 1.334 0c0-1.839-1.496-3.333-3.333-3.333s-3.333 1.495-3.333 3.333c0 .368.299.667.667.667zm12 0a.667.667 0 0 0 .667-.667c0-1.103.897-2 2-2s2 .897 2 2a.667.667 0 0 0 1.334 0c0-1.839-1.496-3.333-3.333-3.333s-3.333 1.495-3.333 3.333c0 .368.299.667.667.667z"/></symbol><symbol id="stethoscope" viewBox="0 0 27 32"><title>stethoscope</title><path d="M27.327 13.959c0-1.793-1.459-3.253-3.253-3.253s-3.253 1.46-3.253 3.253a3.26 3.26 0 0 0 2.603 3.188v8.523c0 1.076-.876 1.952-1.952 1.952s-1.952-.876-1.952-1.952v-3.902c0-2.154-1.752-3.905-3.904-3.905s-3.904 1.752-3.904 3.904v6.506c0 1.076-.876 1.952-1.952 1.952s-1.952-.876-1.952-1.952v-9.141c3.642-.331 6.506-3.398 6.506-7.124V5.502a3.26 3.26 0 0 0-2.603-3.188V.948a.651.651 0 0 0-.651-.651c-1.046 0-2.603.694-2.603 2.603s1.556 2.603 2.603 2.603a.651.651 0 0 0 .651-.651V3.67a1.948 1.948 0 0 1 1.301 1.832v6.506c0 3.228-2.627 5.856-5.856 5.856S1.3 15.237 1.3 12.008V5.502c0-.847.545-1.563 1.301-1.832v1.182c0 .359.291.651.651.651 1.046 0 2.603-.694 2.603-2.603S4.299.297 3.252.297a.651.651 0 0 0-.651.651v1.368A3.258 3.258 0 0 0-.002 5.503v6.506c0 3.727 2.864 6.794 6.506 7.124v9.141c0 1.793 1.459 3.253 3.253 3.253s3.253-1.46 3.253-3.253v-6.506c0-1.435 1.169-2.603 2.603-2.603s2.603 1.169 2.603 2.604v3.902c0 1.793 1.459 3.253 3.253 3.253s3.253-1.46 3.253-3.253v-8.523a3.26 3.26 0 0 0 2.603-3.188zM10.41 4.056c-.328-.156-.651-.483-.651-1.158 0-.671.319-.998.651-1.156v2.314zM3.904 1.74c.328.156.651.483.651 1.158 0 .67-.317.997-.651 1.156V1.74zm20.169 14.171c-1.076 0-1.952-.876-1.952-1.952s.876-1.952 1.952-1.952 1.952.876 1.952 1.952-.876 1.952-1.952 1.952z"/></symbol><symbol id="world" viewBox="0 0 32 32"><title>world</title><path d="M8.436 17.696c-.45-.171-1.067-.406-1.239-.577a5.34 5.34 0 0 0-1.199-.912c-.232-.139-.485-.29-.817-.553-.287-.228-.634-.279-.95-.143-.252.11-1.023.441-1.349 4.14a.668.668 0 0 0 1.33.118c.098-1.103.307-2.244.502-2.795.223.156.415.271.597.381.321.192.574.343.942.71.373.373 1.022.621 1.707.881.294.112.731.279 1.002.421l-.159.139c-.964.819-1.484 1.38-2.762 5.128a.668.668 0 1 0 1.264.43c1.217-3.566 1.624-3.913 2.363-4.541.114-.096.235-.199.365-.315.434-.391.467-.787.418-1.048-.136-.748-1.006-1.079-2.013-1.464zm19.6-7.288a.668.668 0 0 0-.63.703c.031.568-.598 1.231-1.771 1.866-1.79.97-1.512 1.759-.841 3.669.506 1.444-2.285 6.121-3.524 7.102-.16-.338-.305-1.179-.317-1.921 0-2.616 0-6.568-3.478-7.894-.975-.373-2.304-.852-3.088-1.023-.052-.011-.191-.041-.228-.358-.06-.517.247-1.249.8-1.513.309-.147.515-.122.735-.098.227.027.61.071.919-.227.361-.35.357-.871.259-1.977-.073-.851-.362-1.486-.856-1.887-.773-.628-1.798-.503-2.544-.414-.206.025-.397.049-.557.049-1.485 0-1.723 1.112-2.241 3.548l-.098.477-.013.055a1.357 1.357 0 0 1-.114-.156c-.098-.256-.235-1.609-.303-2.712a.667.667 0 0 0-1.246-.29L7.841 9.261c-.033.06-.041.063-.056.13-.001.005-.223.482-1.547.948-.168.06-.263.069-.286.084-.15-.355.178-1.755.697-2.949a.668.668 0 0 0-1.225-.533c-.437 1.002-1.353 3.435-.443 4.411.27.29.787.569 1.703.247 1.635-.578 2.157-1.287 2.324-1.668.077.562.166.932.263 1.103.112.198.714 1.178 1.573 1.039.522-.081.872-.513 1.036-1.282l.101-.477c.491-2.306.592-2.491.935-2.491.206 0 .45-.028.716-.059.568-.069 1.211-.146 1.543.124.202.164.326.489.367.967.029.342.043.577.048.737a2.416 2.416 0 0 0-1.207.244c-1.161.556-1.664 1.895-1.549 2.873.092.791.568 1.354 1.271 1.506.549.119 1.577.462 2.895.966 2.42.922 2.616 3.557 2.616 6.656.013.796.143 2.699 1.078 3.195.115.061.292.128.514.128.204 0 .447-.057.713-.231 1.238-.807 4.98-6.314 4.132-8.726-.572-1.625-.572-1.625.218-2.053 1.7-.92 2.531-1.969 2.468-3.113-.02-.367-.288-.661-.704-.63zM15.847.169C7.173.169.117 7.226.117 15.899s7.057 15.73 15.73 15.73 15.73-7.056 15.73-15.73S24.52.169 15.847.169zm0 30.124c-7.937 0-14.394-6.457-14.394-14.394S7.91 1.505 15.847 1.505s14.394 6.457 14.394 14.394c.001 7.937-6.456 14.394-14.394 14.394z"/></symbol></svg>