<?xml version="1.0" encoding="utf-8"?>
<svg version="1.1" id="Maurice_Naef_logo" xmlns="http://www.w3.org/2000/svg" xmlns:xlink="http://www.w3.org/1999/xlink" x="0px"
	width="20" height="20" y="0px" viewBox="0 0 48 48" enable-background="new 0 0 48 48" xml:space="preserve">
<g id="Content">
	<g id="Brandmark">
		<g>
			<path fill="#4C3E1A" d="M44.4,46.5c-0.5,0-1-0.2-1.4-0.6L0.6,3.4c-0.8-0.8-0.8-2.1,0-2.8c0.8-0.8,2-0.8,2.8,0l42.4,42.5
				c0.8,0.8,0.8,2.1,0,2.8C45.4,46.3,44.9,46.5,44.4,46.5z"/>
		</g>
		<g>
			<path fill="#E4BE00" d="M23.2,46.5c-0.3,0-0.6-0.1-0.9-0.2c-1-0.5-1.4-1.7-0.9-2.7L42.6,1.1c0.5-1,1.7-1.4,2.7-0.9
				c1,0.5,1.4,1.7,0.9,2.7L25,45.4C24.6,46.1,23.9,46.5,23.2,46.5z"/>
		</g>
		<g>
			<g>
				<path fill="#61966A" d="M23.2,46.5c-0.7,0-1.4-0.4-1.8-1.1L0.2,2.9c-0.5-1-0.1-2.2,0.9-2.7c1-0.5,2.2-0.1,2.7,0.9L25,43.6
					c0.5,1,0.1,2.2-0.9,2.7C23.8,46.4,23.5,46.5,23.2,46.5z"/>
			</g>
		</g>
		<g>
			<g>
				<path fill="#5EB6D5" d="M2,46.4c-1.1,0-2-0.9-2-2V2c0-1.1,0.9-2,2-2c1.1,0,2,0.9,2,2v42.4C4,45.5,3.1,46.4,2,46.4z"/>
			</g>
		</g>
		<g>
			<path fill="#C63B33" d="M44.4,46.5c-1.1,0-2-0.9-2-2V2c0-1.1,0.9-2,2-2c1.1,0,2,0.9,2,2v42.5C46.4,45.6,45.5,46.5,44.4,46.5z"/>
		</g>
	</g>
</g>
</svg>
