<?xml version="1.0" encoding="UTF-8"?>
<svg width="376px" height="328px" viewBox="0 0 376 328" version="1.1" xmlns="http://www.w3.org/2000/svg" xmlns:xlink="http://www.w3.org/1999/xlink">
    <!-- Generator: Sketch 47 (45396) - http://www.bohemiancoding.com/sketch -->
    <title>logo</title>
    <desc>Created with Sketch.</desc>
    <defs></defs>
    <g id="Symbols" stroke="none" stroke-width="1" fill="none" fill-rule="evenodd">
        <g id="Icon" transform="translate(-68.000000, -92.000000)">
            <g id="logo" transform="translate(68.500000, 92.500000)">
                <path d="M307.104223,224.776646 C308.099998,222.963353 309.108066,221.162353 310.097694,219.336767 C316.71775,206.969494 322.673956,194.270296 326.675495,184.552275 C328.716218,179.708631 330.185292,175.578011 331.058132,172.639861 C331.568312,171.189227 331.740421,169.99061 331.918677,169.185385 C332.078493,168.386306 332.170694,167.956033 332.170694,167.956033 C332.170694,167.956033 332.0662,168.38016 331.869503,169.179238 C331.66666,169.972169 331.457671,171.16464 330.892169,172.584541 C329.920982,175.485809 328.304385,179.548815 326.109993,184.306404 C321.770383,193.84617 315.383904,206.293351 308.352015,218.365579 C306.876793,220.879603 305.383132,223.369039 303.883323,225.833888 C303.692774,225.901502 303.502224,225.96297 303.317822,226.018291 C308.345868,210.571493 319.133425,174.742052 320.756169,147.198438 C335.342421,135.199971 351.096556,123.539574 364.435017,116.685942 C357.538356,151.802359 328.175303,207.700958 321.106534,220.811988 C316.582521,221.899964 311.849519,223.264544 307.104223,224.776646 Z M290.759999,273.249964 C283.02738,280.650658 274.53871,287.196953 265.539859,292.704446 C262.804553,294.376364 260.155301,295.9192 257.549077,297.412862 C262.534096,292.575365 266.763064,287.965298 269.774974,284.510821 C270.340476,284.117428 270.979738,283.75477 271.532946,283.355231 C274.077703,281.695606 276.35815,279.826993 278.527955,278.081314 C280.746934,276.390956 282.615548,274.491608 284.447281,272.905745 C286.205253,271.209241 287.686621,269.518883 289.014321,268.062102 C290.188351,266.470092 291.214859,265.080925 292.063111,263.937628 C293.35393,261.411312 294.085394,259.966824 294.085394,259.966824 C294.085394,259.966824 293.194115,261.306817 291.632839,263.630291 C290.704678,264.675239 289.567529,265.935324 288.270563,267.392105 C286.832222,268.701364 285.203332,270.176586 283.433066,271.787036 C280.998951,273.815465 278.159149,275.94839 275.085771,278.118194 C278.767678,273.348312 293.784203,253.143925 299.857198,234.070541 C311.296311,229.995242 323.214871,226.41783 332.809957,225.114717 C323.116523,241.170044 302.795347,261.730943 290.759999,273.249964 Z M320.836076,135.992902 C320.725435,133.903005 320.541032,131.893016 320.264428,130.005962 L319.360855,124.000581 L313.98859,126.840382 C303.545252,132.354023 291.841828,141.955255 280.667026,152.564556 C279.038136,154.113539 277.421539,155.687108 275.817235,157.272971 C275.214853,157.86306 274.612471,158.459295 274.010089,159.061677 C274.034676,157.254531 274.040823,155.453532 274.022383,153.664826 C273.973209,149.030172 273.782659,144.500012 273.40156,140.191136 C274.255959,141.463515 275.061184,142.74204 275.860263,144.020565 C293.82723,125.445069 321.960933,98.184206 343.941732,85.2206975 C342.294402,97.2806328 338.200662,111.885325 333.264817,126.44699 C329.103463,129.508075 324.935963,132.722828 320.836076,135.992902 Z M117.888633,275.210779 C116.905152,273.944547 97.0081032,248.281841 91.7157463,227.868464 C103.757241,231.445876 117.956248,237.979878 128.405733,243.18618 C142.346576,250.144308 154.33275,259.548845 164.290494,270.981811 C162.956648,276.23114 161.045007,285.598796 161.340052,295.200029 C160.05538,294.241135 158.770708,293.269948 157.418421,292.218853 C153.865596,289.49584 150.134515,286.50237 146.428022,283.478166 C139.00274,277.448198 131.626633,271.332176 126.131433,266.697522 C120.599353,262.093602 117.089555,258.805087 117.089555,258.805087 C117.089555,258.805087 117.759552,259.813155 119.154865,261.405165 C120.544032,262.991028 122.535581,265.265328 125.104925,267.797791 C130.188292,272.936479 137.232475,279.507361 144.737664,285.561916 C148.505625,288.56768 152.292027,291.54271 156.023108,294.112054 C157.873281,295.4459 159.705014,296.656811 161.481427,297.763227 C161.862526,302.944942 162.975089,308.071336 165.212508,312.570762 C148.702321,307.843906 126.912071,285.881547 117.888633,275.210779 Z M217.373879,313.923048 C220.109186,309.122432 221.264776,303.608792 221.424592,298.02139 C222.948987,296.933415 224.504116,295.802411 226.077686,294.548473 C229.661245,291.78858 233.300124,288.610707 236.902123,285.414394 C244.081534,278.991034 250.775351,272.051346 255.588261,266.660641 C258.028524,263.999096 259.884844,261.620301 261.194103,259.966824 C262.503362,258.3072 263.124184,257.262251 263.124184,257.262251 C263.124184,257.262251 259.792642,260.722875 254.500286,265.609546 C249.257103,270.526951 242.206774,277.017925 235.10727,283.422845 C231.566739,286.643745 227.989327,289.815471 224.584024,292.722887 C223.520635,293.632607 222.524861,294.468565 221.504499,295.329111 C221.344684,287.996031 219.728087,280.927262 218.246719,275.862335 C229.114183,261.75553 243.516033,250.0644 260.278236,241.876921 C273.389267,235.472001 284.840673,230.677532 293.839524,227.831584 C288.903679,248.441656 268.736172,274.018308 268.355074,274.497755 C259.41769,285.623384 234.295899,312.048288 217.373879,313.923048 Z M263.572897,131.597972 C269.621305,163.425874 259.005858,222.293356 258.286687,226.20884 C257.444582,229.067082 256.381193,232.417064 255.127255,236.074383 C244.665476,241.397474 235.101124,248.023677 226.673921,255.694829 C230.374268,244.673695 233.619755,233.916872 235.98011,225.465083 C237.387717,220.406302 238.481839,216.171187 239.145689,213.177717 C239.858713,210.196541 240.092289,208.463155 240.092289,208.463155 C240.092289,208.463155 239.797245,210.190394 238.979727,213.140837 C238.211382,216.097426 236.969737,220.295661 235.377728,225.286827 C232.464165,234.463933 228.364279,246.376346 223.778799,258.337934 C220.988172,261.048653 218.381947,263.913041 215.880218,266.857337 C215.646641,265.90459 215.357743,264.95799 215.13646,263.999096 C212.493355,252.750532 207.674298,234.740537 201.084976,219.668692 C201.988549,217.437419 202.849095,215.378256 203.592852,213.706338 C203.930924,213.091663 236.078458,155.939125 263.572897,131.597972 Z M189.430727,125.223786 C199.031959,140.492328 206.62935,164.323301 211.712717,183.648701 C203.150286,197.024042 197.206373,207.504261 196.056929,209.557278 C195.055008,207.799306 194.053087,206.053627 193.001992,204.516938 L190.438794,200.785857 C189.774945,193.292962 189.092655,185.886121 188.76073,180.261839 C188.330457,174.410127 188.643942,170.50079 188.643942,170.50079 C188.643942,170.50079 188.084587,174.391687 188.133761,180.280279 C188.109174,186.156578 188.342751,193.987545 188.527153,201.812365 C188.5333,201.910714 188.5333,202.021355 188.5333,202.12585 L186.849089,204.424737 C185.97625,205.617207 185.127997,206.944907 184.298185,208.32178 C182.404984,204.977945 176.80529,195.290657 169.115698,183.31063 C173.836407,163.972935 180.769947,140.547648 189.430727,125.223786 Z M177.272443,213.349826 C177.887119,214.738993 178.587849,216.380177 179.307019,218.138149 C172.643936,233.443572 168.249005,252.572276 166.318924,262.013694 C164.370402,259.972971 162.341973,258.012156 160.258223,256.118955 C156.023108,244.919565 152.242853,233.898432 149.507546,225.286827 C147.921683,220.295661 146.673892,216.097426 145.8994,213.140837 C145.088029,210.190394 144.799131,208.463155 144.799131,208.463155 C144.799131,208.463155 145.026561,210.196541 145.739585,213.177717 C146.397288,216.171187 147.49141,220.406302 148.911311,225.465083 C151.124143,233.406691 154.117613,243.382876 157.547503,253.70328 C149.76571,247.009462 141.221719,241.163897 131.768008,236.449335 C129.641231,235.385947 127.31161,234.254944 124.914375,233.12394 C124.09071,230.609917 123.359246,228.280297 122.756864,226.20884 C122.037694,222.28721 111.416099,163.425874 117.464507,131.597972 C144.946653,155.932979 177.100334,213.067076 177.272443,213.349826 Z M73.8594201,137.812342 C84.5240418,144.678268 96.3135198,155.349037 107.217865,166.37017 C108.385749,196.077442 113.967003,226.085905 114.329662,228.009839 L114.403423,228.341764 C111.22555,226.971038 107.992356,225.631045 104.765309,224.401694 C102.208259,218.85732 99.860198,213.651017 97.8379153,209.047097 C95.3115986,203.269147 93.2585821,198.437796 91.9370295,195.007907 C91.2424461,193.305255 90.7507056,191.946822 90.4495146,191.006368 C90.13603,190.078208 89.9639209,189.580321 89.9639209,189.580321 C89.9639209,189.580321 90.1175898,190.078208 90.4064873,191.018662 C90.6769446,191.965262 91.1318045,193.342136 91.7772139,195.063227 C92.9942716,198.542291 94.9059127,203.441256 97.266267,209.286821 C99.0365327,213.687898 101.077256,218.61145 103.314675,223.860779 C98.6677274,222.133541 94.1129812,220.664466 89.8655728,219.594931 C83.9401,200.785857 72.9865808,162.356339 73.8594201,137.812342 Z M296.415015,219.244565 C290.464955,220.824282 283.439213,223.307571 275.386962,226.694434 C278.085388,220.387862 280.562531,214.456243 282.646281,209.286821 C285.006636,203.441256 286.918277,198.542291 288.141481,195.063227 C288.780744,193.342136 289.235604,191.965262 289.506061,191.018662 C289.794959,190.078208 289.948627,189.580321 289.948627,189.580321 C289.948627,189.580321 289.782665,190.078208 289.463034,191.006368 C289.167989,191.946822 288.676249,193.305255 287.981666,195.007907 C286.660113,198.437796 284.60095,203.269147 282.074633,209.047097 C279.695838,214.462389 276.862184,220.725934 273.764219,227.376724 C271.231755,228.464699 268.576357,229.644877 265.853344,230.898815 C266.252883,229.614143 266.517194,228.722863 266.609395,228.409379 L266.71389,228.009839 C267.045815,226.214987 271.975513,199.716322 273.555229,171.939131 C285.873328,159.01865 299.857198,145.840005 312.316673,137.812342 C313.183365,162.208816 302.358928,200.318704 296.415015,219.244565 Z M51.2024775,231.808535 C62.174437,232.804309 75.6235391,236.019063 87.7633822,239.498126 C95.8217793,259.210773 111.170229,278.874245 112.006188,279.925341 L112.079949,280.017542 C112.497928,280.515429 113.266273,281.400562 114.206727,282.470098 C112.116829,281.27148 110.131427,280.11589 108.361162,279.015621 C105.115674,277.011778 102.337341,275.432062 100.530194,274.135097 C98.6554339,272.936479 97.7088334,272.075933 97.7088334,272.075933 C97.7088334,272.075933 97.9301166,272.30951 98.3358025,272.74593 C98.7353417,273.188496 99.3438705,273.852346 100.21671,274.553076 C101.907068,276.034444 104.390357,278.056727 107.525203,280.275706 C110.918212,282.752848 115.085713,285.506595 119.572845,288.321809 C123.88172,292.845822 129.659671,298.488544 136.113765,303.836222 C121.730356,296.945708 107.641991,288.020618 100.48102,282.992572 C98.5693793,281.437443 65.2601085,254.047498 51.2024775,231.808535 Z M173.897874,312.404799 C165.212508,301.20541 169.970097,279.132409 171.642015,272.629141 C172.385772,269.746313 173.025035,266.845044 173.62127,263.913041 C175.791075,253.242273 181.396916,228.722863 189.830266,213.737072 C198.767649,229.810839 205.258623,254.901897 207.791087,265.714041 C208.829888,270.151999 209.856397,274.049042 210.907492,277.620307 C213.015829,284.689077 217.128009,302.207331 209.819516,312.023701 C206.672377,316.234228 201.429194,318.539262 194.428039,319.135497 C194.557121,318.61917 194.71079,318.115136 194.815285,317.561928 C195.589776,313.763232 196.204452,309.282247 196.425735,304.475484 C196.659312,299.668721 196.708486,294.542326 196.634725,289.422079 C196.450322,284.307978 196.11225,279.200023 195.712711,274.417847 C195.325466,269.635671 194.649322,265.20386 194.096114,261.405165 C192.922084,253.813921 191.446862,248.896516 191.446862,248.896516 C191.446862,248.896516 192.067685,253.96759 192.596306,261.577274 C192.928231,265.382116 193.094193,269.832367 193.389237,274.589956 C193.678135,279.341399 193.874831,284.418619 193.954739,289.49584 C194.151435,294.566914 194.219049,299.644134 194.102261,304.38943 C193.991619,309.134725 193.868684,313.572683 193.333917,317.303764 C193.235568,317.967614 193.124927,318.606876 193.014285,319.239992 C192.325849,319.270726 191.729613,319.393661 191.010443,319.393661 C183.142595,319.393661 177.549047,317.107068 173.897874,312.404799 Z M115.503692,24.976342 C129.155637,37.6448061 144.264363,58.2917595 156.754572,77.1623004 C155.445313,81.7969545 154.234402,86.3271136 153.121839,90.6482831 C157.381541,87.2183932 161.462987,84.0774009 165.255535,81.2560399 C171.463759,58.9371689 179.8172,33.7784966 189.369259,17.0039994 C197.101878,30.5084224 204.201381,51.3397785 210.587861,79.2521975 C214.122245,81.8399817 217.982408,84.7535441 222.026974,87.9375637 C221.154134,83.7393293 220.213681,79.4120131 219.168732,74.9494683 C230.822981,57.7938723 244.27823,39.9375461 256.485688,28.5906345 C258.194486,49.7846492 254.260562,80.1680641 250.105355,104.404723 C248.992792,106.119668 247.923257,107.791586 246.853721,109.457356 C248.962058,111.485786 251.045809,113.551096 253.098825,115.66558 C266.646275,94.3178964 285.221772,67.4381324 301.688931,52.157297 C303.004337,68.3908796 301.000495,90.021314 298.123813,110.158087 C290.710825,116.944105 283.623615,123.840766 277.28631,130.202658 C277.329337,130.012109 277.366218,129.827706 277.403098,129.637156 C278.89676,121.947565 280.341248,114.26412 281.62592,108.54149 C282.836831,102.794273 284.207557,99.1246596 284.207557,99.1246596 C284.207557,99.1246596 282.603254,102.714365 281.023538,108.387821 C279.37006,114.030543 277.433832,121.621787 275.454577,129.188443 C275.116505,130.503849 274.76614,131.806961 274.421922,133.110074 C273.868714,133.669428 273.315506,134.23493 272.780738,134.781991 C272.178356,130.380914 271.360837,126.287174 270.242128,122.679029 L268.434981,116.876491 L263.560604,120.49693 C262.417307,121.345183 261.267864,122.267196 260.106127,123.238383 C258.501824,124.572229 256.87908,126.01057 255.244043,127.553406 C242.262094,139.816184 228.849873,157.875354 218.056169,173.979854 C212.136843,152.988682 203.549825,128.831931 192.639333,114.762007 L189.043481,110.127353 L185.693499,114.94641 C175.907863,129.059361 168.132217,152.687491 162.673898,173.500407 C151.56671,156.984074 137.718068,138.457751 124.428782,126.305615 C122.769158,124.781219 121.109534,123.355172 119.474496,122.05206 C121.183295,120.146565 122.928973,118.271805 124.705386,116.421631 C119.757247,90.8695663 113.358474,51.0939082 115.503692,24.976342 Z M102.189819,144.78891 C103.714214,142.311767 105.367691,139.859212 107.09493,137.41895 C105.908606,136.195745 104.666961,134.929513 103.400729,133.638695 C103.013484,132.163473 102.613945,130.682105 102.226699,129.188443 C100.25359,121.621787 98.3112155,114.030543 96.6638849,108.387821 C95.0903154,102.714365 93.4737185,99.1246596 93.4737185,99.1246596 C93.4737185,99.1246596 94.8567386,102.794273 96.0553561,108.54149 C97.3400281,114.26412 98.7906625,121.947565 100.284324,129.637156 C100.351939,129.981375 100.419553,130.33174 100.493314,130.688252 C93.5966537,123.742417 85.753393,116.12044 77.5597672,108.689012 C74.793727,88.9825122 72.9189665,68.003634 74.2036385,52.1634438 C86.9765974,64.0512699 101.132577,83.0693329 113.155631,100.950246 C114.317368,107.816173 115.497545,114.196505 116.610108,119.851521 L112.602423,116.876491 L110.801424,122.679029 C109.578219,126.619099 108.699233,131.130818 108.096851,136.005196 C107.580524,140.148109 107.267039,144.549186 107.119517,149.116226 C107.064196,150.726676 107.033462,152.36786 107.015022,154.009044 C106.43108,153.455836 105.853285,152.896481 105.269343,152.337126 C103.658893,150.812731 102.042296,149.319069 100.413406,147.843848 C90.8244667,139.158481 81.0511247,131.524211 72.1813557,126.840382 L66.809091,124.000581 L65.9116646,130.005962 C65.2232279,134.573001 65.0879993,139.779304 65.3338696,145.354412 C58.7691341,139.803891 51.8478869,134.198049 44.8836123,128.930279 C39.5666684,113.551096 35.0856833,97.9629227 33.3522981,85.2206975 C55.6711691,98.3931957 84.3273456,126.287174 102.189819,144.78891 Z M55.0810805,223.522708 C53.0833848,219.871535 18.0222886,155.545733 10.4371917,116.667501 C27.660402,125.549564 48.8912972,142.434702 66.4156986,157.690951 C70.2328341,188.185007 82.0653394,223.873073 84.8375264,231.94991 C83.5590011,231.605692 82.2927694,231.261473 81.0019506,230.923402 C71.6896153,216.103573 62.9489282,200.976407 56.8882268,189.328304 C55.3023638,186.396301 54.0053982,183.630261 52.8190743,181.196146 C51.5835764,178.786617 50.7476176,176.573785 49.9423925,174.80352 C49.1064337,173.039401 48.7622154,171.545739 48.3872633,170.574551 C48.0553384,169.584924 47.8832293,169.062449 47.8832293,169.062449 C47.8832293,169.062449 48.0430449,169.59107 48.344236,170.586845 C48.6884543,171.570326 49.0019389,173.082428 49.7887236,174.871134 C50.5386279,176.65984 51.3131191,178.903406 52.4810028,181.355961 C53.6058591,183.820811 54.8290635,186.629878 56.328872,189.611055 C61.8548057,201.00714 69.7841209,215.685594 78.3158182,230.259552 C70.9950318,228.427819 63.5820441,226.860396 56.7284112,225.938383 C55.8740121,224.696738 55.296217,223.842339 55.0810805,223.522708 Z M374.890649,102.788126 L368.289033,105.437378 C361.183383,108.283326 353.22948,112.788898 344.998974,118.234924 C349.4984,103.48271 352.793061,89.1853552 353.272508,77.8445903 L353.567552,70.7389404 L347.131899,73.7692911 C335.397741,79.2829312 321.53066,89.6955359 308.026237,101.343639 C310.638608,80.1065966 311.910987,58.2610257 309.224854,42.96175 L307.989356,35.9544482 L302.346634,40.3002047 C289.327805,50.3132702 274.569444,68.8580331 261.532174,87.4827038 C264.949771,63.3874202 267.113429,37.0362772 264.015464,19.3889408 L262.779966,12.3877857 L257.143391,16.7212486 C244.093828,26.7589012 229.353907,45.229903 216.384252,63.7439321 C210.704649,41.904508 203.051938,19.5856369 193.0819,5.63864757 L189.23403,0.254089314 L185.502949,5.7185554 C175.508324,20.3416879 166.718463,43.8591764 159.889417,66.4177709 C145.887107,45.8445786 129.297013,24.2387312 114.852136,13.1253964 L109.215561,8.78578665 L107.973916,15.7869417 C104.998886,32.7642818 106.922821,57.9782749 110.156014,81.4896167 C98.2436012,65.0163106 85.2186252,49.2806152 73.5459356,40.3002047 L67.9093603,35.9544482 L66.6738624,42.96175 C64.0430508,57.9413944 65.1986409,79.1845832 67.7003706,99.9913522 C54.6999817,88.8964576 41.441429,79.0739415 30.1621317,73.7692911 L23.7264782,70.7389404 L24.0215225,77.8445903 C24.5255565,89.7139762 28.115262,104.834996 32.9466122,120.318674 C23.6342768,113.944488 14.5801052,108.633691 6.60161595,105.418938 L0,102.763539 L0.70687694,109.844602 C4.30887596,145.969087 38.3557575,210.700575 46.1129635,225.065543 C45.9101206,225.059397 45.6888374,225.03481 45.4859944,225.03481 L40.1506102,224.973342 L42.5724321,229.730931 C55.0933741,254.348689 94.8075646,286.711359 96.4917757,288.075939 L96.6700317,288.211168 C97.0019565,288.450891 98.6615806,289.600335 101.187897,291.278399 C112.325819,301.057888 123.8264,308.55693 134.18983,310.339489 C134.39882,310.382517 134.595516,310.364076 134.810653,310.400957 C143.920145,314.648365 153.367709,318.133576 161.647389,319.332193 C164.935904,320.420169 168.169097,321.065579 171.279356,321.065579 C171.482199,321.065579 171.691189,321.022551 171.894032,321.016405 C176.756116,324.931888 183.148742,326.929584 191.010443,326.929584 C199.394618,326.929584 206.143756,324.999502 211.171802,321.213101 C212.591703,321.508145 214.023897,321.717135 215.505265,321.717135 C221.018906,321.717135 226.925938,319.645678 232.789943,316.480099 C244.616302,312.128195 257.426141,305.237682 268.908282,298.21194 C278.300525,292.47087 287.164147,285.641824 295.228691,277.915351 C311.935574,261.915346 333.510687,239.362898 341.427709,222.766657 L343.708155,217.990627 L338.415799,218.150443 C336.405809,218.21191 334.236004,218.43934 331.986292,218.746678 C343.394671,197.079363 370.919844,142.102778 374.177625,109.869189 L374.890649,102.788126 L374.890649,102.788126 Z M188.643942,47.2337454 C188.643942,47.2337454 188.084587,51.1307888 188.133761,57.0132342 C188.121467,59.5088172 188.158348,62.3916457 188.219816,65.43429 L189.270911,64.7827338 L189.338525,64.8196144 C189.104948,62.0105469 188.895959,59.3244145 188.76073,56.994794 C188.330457,51.1430823 188.643942,47.2337454 188.643942,47.2337454 M239.385413,71.2737082 C240.596323,65.5264913 241.96705,61.8507312 241.96705,61.8507312 C241.96705,61.8507312 240.362747,65.4404367 238.78303,71.1138925 C237.129553,76.7566145 235.193325,84.3478582 233.21407,91.9206616 C232.845264,93.3344155 232.470312,94.7481694 232.101507,96.1496297 C232.753063,96.7028378 233.423059,97.2867796 234.080762,97.8584279 C234.449567,96.0451349 234.806079,94.2011081 235.162591,92.363228 C236.656253,84.6736363 238.100741,76.9901913 239.385413,71.2737082 M140.207504,91.9206616 C138.234396,84.3478582 136.298168,76.7566145 134.64469,71.1138925 C133.071121,65.4404367 131.460671,61.8507312 131.460671,61.8507312 C131.460671,61.8507312 132.837544,65.5264913 134.042308,71.2737082 C135.32698,76.9901913 136.777615,84.6736363 138.26513,92.363228 C138.879805,95.5103671 139.500627,98.6329191 140.133743,101.64483 C140.859061,100.99942 141.578231,100.354011 142.297401,99.720895 C141.602818,97.1699912 140.902088,94.5637667 140.207504,91.9206616" id="flower" fill="#D06368"></path>
                <path d="M140.133743,101.64483 C140.859061,100.99942 141.578231,100.354011 142.297401,99.720895 C145.967015,96.5184351 149.593601,93.4942311 153.121839,90.6482831 C157.381541,87.2183932 161.462987,84.0774009 165.255535,81.2560399 C177.358498,72.2571891 186.394229,66.5714398 187.574406,65.8399759 L188.219816,65.43429 L189.270911,64.7827338 L189.338525,64.8196144 L190.967416,65.8399759 C192.061538,66.516119 199.861771,71.4150836 210.587861,79.2521975 C214.122245,81.8399817 217.982408,84.7535441 222.026974,87.9375637 C225.290901,90.5069077 228.659323,93.2422141 232.101507,96.1496297 C232.753063,96.7028378 233.423059,97.2867796 234.080762,97.8584279 C238.328171,101.509601 242.624753,105.382057 246.853721,109.457356 C248.962058,111.485786 251.045809,113.551096 253.098825,115.66558 C255.489913,118.142723 257.831827,120.662893 260.106127,123.238383 C258.501824,124.572229 256.87908,126.01057 255.244043,127.553406 C235.291673,105.1116 209.278602,86.0136291 196.069223,76.947164 C197.083438,77.8691774 198.15912,78.8588051 199.29627,79.9836614 C205.049634,85.5280353 212.296659,93.3405622 218.929009,101.70015 C225.530625,110.072032 231.523712,119.003269 235.027363,126.342495 C235.924789,128.155788 236.551758,129.938347 237.166434,131.462743 C237.695055,133.07934 238.039273,134.548414 238.352758,135.673271 C238.604775,136.816567 238.463399,137.750874 238.531013,138.371697 C238.543307,138.998666 238.549454,139.330591 238.549454,139.330591 C238.549454,139.330591 238.168355,138.021332 237.326249,135.851527 C236.766894,134.837312 236.164512,133.638695 235.371581,132.317142 C234.474154,130.99559 233.472233,129.508075 232.378111,127.885331 C230.06693,124.701311 227.331624,121.031698 224.301273,117.146948 C221.246336,113.286785 217.982408,109.162312 214.724627,105.031692 C208.196773,96.7581586 201.687358,88.4354509 196.978943,82.0120909 C194.594002,78.8219245 192.749975,76.0312973 191.379248,74.15039 C191.200992,73.898373 191.065764,73.7016768 190.912095,73.4742468 C190.893654,73.4619533 190.869067,73.443513 190.84448,73.4312195 C190.850627,73.4496598 190.850627,73.4681001 190.856774,73.4865403 C191.532917,77.4143174 191.98163,82.6452068 192.000071,87.8760961 C191.987777,93.1069855 191.545211,98.3440216 190.862921,102.271799 C190.223658,106.187282 189.320085,108.8058 189.320085,108.8058 C189.320085,108.8058 188.416512,106.187282 187.777249,102.271799 C187.101106,98.3440216 186.652393,93.1069855 186.633953,87.8760961 C186.652393,82.6452068 187.107253,77.4143174 187.789543,73.4865403 C187.795689,73.4373663 187.801836,73.4066325 187.81413,73.3574585 C187.801836,73.3636052 187.795689,73.369752 187.783396,73.3758987 C187.60514,73.6279157 187.445324,73.8614925 187.248628,74.15039 C185.859461,76.0251506 184.003141,78.8157778 181.605906,82.0059442 C176.86061,88.4231574 170.314315,96.7520118 163.755727,105.025545 C160.467212,109.150019 157.190991,113.280639 154.111467,117.140801 C151.068822,121.025551 148.315076,124.695165 145.997749,127.879184 C144.891333,129.501928 143.877118,130.989443 142.979691,132.310995 C142.162173,133.663282 141.553644,134.89878 140.994289,135.912994 C140.176771,137.984451 139.777232,139.330591 139.777232,139.330591 C139.777232,139.330591 139.783378,138.998666 139.795672,138.377843 C139.863286,137.769315 139.721911,136.761247 139.992368,135.593363 C140.551723,133.282183 141.529057,129.969081 143.336203,126.317908 C146.870588,118.972535 152.906702,110.041298 159.551346,101.68171 C166.232869,93.3282687 173.516775,85.5218886 179.300873,79.9775147 C180.51793,78.7788973 181.67352,77.727802 182.743056,76.7627613 C169.871749,85.5833561 144.362711,104.257201 124.428782,126.305615 C122.769158,124.781219 121.109534,123.355172 119.474496,122.05206 C121.183295,120.146565 122.928973,118.271805 124.705386,116.421631 C129.714992,111.227622 134.927441,106.279484 140.133743,101.64483 Z M274.010089,159.061677 C274.034676,157.254531 274.040823,155.453532 274.022383,153.664826 C274.661645,154.863443 275.245587,156.06206 275.817235,157.272971 C275.214853,157.86306 274.612471,158.459295 274.010089,159.061677 Z M105.269343,152.337126 C105.865579,151.261444 106.467961,150.179615 107.119517,149.116226 C107.064196,150.726676 107.033462,152.36786 107.015022,154.009044 C106.43108,153.455836 105.853285,152.896481 105.269343,152.337126 Z M105.269343,152.337126 C103.658893,150.812731 102.042296,149.319069 100.413406,147.843848 C100.991201,146.829633 101.568996,145.809271 102.189819,144.78891 C103.714214,142.311767 105.367691,139.859212 107.09493,137.41895 C107.433001,136.951796 107.746486,136.472349 108.096851,136.005196 C107.580524,140.148109 107.267039,144.549186 107.119517,149.116226 C106.467961,150.179615 105.865579,151.261444 105.269343,152.337126 Z M273.40156,140.191136 C274.255959,141.463515 275.061184,142.74204 275.860263,144.020565 C277.624382,146.841926 279.228685,149.694021 280.667026,152.564556 C279.038136,154.113539 277.421539,155.687108 275.817235,157.272971 C275.245587,156.06206 274.661645,154.863443 274.022383,153.664826 C273.973209,149.030172 273.782659,144.500012 273.40156,140.191136 Z" id="cone" fill="#86AD98"></path>
            </g>
        </g>
    </g>
</svg>